<?xml version="1.0" encoding="UTF-8"?>
<svg width="405px" height="245px" viewBox="0 0 405 245" version="1.1" xmlns="http://www.w3.org/2000/svg" xmlns:xlink="http://www.w3.org/1999/xlink">
    <!-- Generator: Sketch 49.3 (51167) - http://www.bohemiancoding.com/sketch -->
    <title>bar_chart</title>
    <desc>Created with Sketch.</desc>
    <defs>
        <linearGradient x1="7.91318268%" y1="0%" x2="7.91318268%" y2="100%" id="linearGradient-1">
            <stop stop-color="#63CEFF" offset="0%"></stop>
            <stop stop-color="#30A7DD" offset="100%"></stop>
        </linearGradient>
        <linearGradient x1="50%" y1="0%" x2="50%" y2="100%" id="linearGradient-2">
            <stop stop-color="#BC9EFF" offset="0%"></stop>
            <stop stop-color="#8C72C7" offset="100%"></stop>
        </linearGradient>
        <linearGradient x1="99.2592593%" y1="0.204081633%" x2="99.2592593%" y2="16.9387755%" id="linearGradient-3">
            <stop stop-color="#424C52" offset="0%"></stop>
            <stop stop-color="#444E54" offset="100%"></stop>
        </linearGradient>
        <linearGradient x1="99.8816832%" y1="1.20481928%" x2="99.8816832%" y2="100%" id="linearGradient-4">
            <stop stop-color="#424C52" offset="0%"></stop>
            <stop stop-color="#444E54" offset="100%"></stop>
        </linearGradient>
        <linearGradient x1="66.013528%" y1="50%" x2="7.91318263%" y2="70.8726986%" id="linearGradient-5">
            <stop stop-color="#63CEFF" offset="0%"></stop>
            <stop stop-color="#30A7DD" offset="100%"></stop>
        </linearGradient>
        <rect id="path-6" x="0" y="0.5" width="405" height="244"></rect>
    </defs>
    <g id="Page-1" stroke="none" stroke-width="1" fill="none" fill-rule="evenodd">
        <g id="bar_chart">
            <g id="Rectangle-5.1" transform="translate(2.000000, 42.000000)" fill="#FFFFFF" fill-rule="nonzero">
                <g id="path0_fill-link" transform="translate(0.000000, 0.500000)">
                    <polygon id="path0_fill" points="0 0 402 0 402 200 0 200"></polygon>
                </g>
            </g>
            <path d="M43,80.5 C43,77.73858 45.23858,75.5 48,75.5 L51.80386,75.5 C54.5653,75.5 56.8039,77.73858 56.8039,80.5 L56.8039,198.499 C56.8039,201.261 54.5653,203.499 51.80386,203.499 L48,203.499 C45.23858,203.499 43,201.261 43,198.499 L43,80.5 Z" id="path1_fill" fill="url(#linearGradient-1)" fill-rule="nonzero"></path>
            <path d="M78,129.5 C78,126.73858 80.23858,124.5 83,124.5 L86,124.5 C88.7614,124.5 91,126.73858 91,129.5 L91,198.5 C91,201.2614 88.7614,203.5 86,203.5 L83,203.5 C80.23858,203.5 78,201.2614 78,198.5 L78,129.5 Z" id="path2_fill" fill="url(#linearGradient-2)" fill-rule="nonzero"></path>
            <path d="M112,109.5 C112,106.73858 114.23858,104.5 117,104.5 L121,104.5 C123.7614,104.5 126,106.73858 126,109.5 L126,198.5 C126,201.2614 123.7614,203.5 121,203.5 L117,203.5 C114.23858,203.5 112,201.2614 112,198.5 L112,109.5 Z" id="path3_fill" fill="url(#linearGradient-1)" fill-rule="nonzero"></path>
            <path d="M284,182.5 C284,179.73858 286.23858,177.5 289,177.5 L292,177.5 C294.7614,177.5 297,179.73858 297,182.5 L297,198.5 C297,201.2614 294.7614,203.5 292,203.5 L289,203.5 C286.23858,203.5 284,201.2614 284,198.5 L284,182.5 Z" id="path4_fill" fill="url(#linearGradient-2)" fill-rule="nonzero"></path>
            <path d="M315,139.5 C315,136.73858 317.23858,134.5 320,134.5 L323,134.5 C325.7614,134.5 328,136.73858 328,139.5 L328,198.5 C328,201.2614 325.7614,203.5 323,203.5 L320,203.5 C317.23858,203.5 315,201.2614 315,198.5 L315,139.5 Z" id="path5_fill" fill="url(#linearGradient-1)" fill-rule="nonzero"></path>
            <path d="M349,155.5 C349,152.73858 351.23858,150.5 354,150.5 L358,150.5 C360.7614,150.5 363,152.73858 363,155.5 L363,198.5 C363,201.2614 360.7614,203.5 358,203.5 L354,203.5 C351.23858,203.5 349,201.2614 349,198.5 L349,155.5 Z" id="path6_fill" fill="url(#linearGradient-2)" fill-rule="nonzero"></path>
            <path d="M147,149.5 C147,146.73858 149.23858,144.5 152,144.5 L155,144.5 C157.7614,144.5 160,146.73858 160,149.5 L160,198.5 C160,201.2614 157.7614,203.5 155,203.5 L152,203.5 C149.23858,203.5 147,201.2614 147,198.5 L147,149.5 Z" id="path7_fill" fill="url(#linearGradient-2)" fill-rule="nonzero"></path>
            <path d="M181,94.5 C181,91.73858 183.23858,89.5 186,89.5 L190,89.5 C192.7614,89.5 195,91.73858 195,94.5 L195,198.5 C195,201.261 192.7614,203.5 190,203.5 L186,203.5 C183.23858,203.5 181,201.261 181,198.5 L181,94.5 Z" id="path8_fill" fill="url(#linearGradient-1)" fill-rule="nonzero"></path>
            <path d="M216,189.5 C216,186.73858 218.23858,184.5 221,184.5 L224,184.5 C226.7614,184.5 229,186.73858 229,189.5 L229,198.5 C229,201.2614 226.7614,203.5 224,203.5 L221,203.5 C218.23858,203.5 216,201.2614 216,198.5 L216,189.5 Z" id="path9_fill" fill="url(#linearGradient-2)" fill-rule="nonzero"></path>
            <path d="M250,169.5 C250,166.73858 252.23858,164.5 255,164.5 L259,164.5 C261.7614,164.5 264,166.73858 264,169.5 L264,198.5 C264,201.2614 261.7614,203.5 259,203.5 L255,203.5 C252.23858,203.5 250,201.2614 250,198.5 L250,169.5 Z" id="path10_fill" fill="url(#linearGradient-1)" fill-rule="nonzero"></path>
            <g id="Rectangle-5-Copy-2.1" transform="translate(1.000000, 2.000000)" fill="url(#linearGradient-4)" fill-rule="nonzero">
                <g id="path11_fill-link">
                    <path d="M0.0493537,2.04818 C0.0222909,0.925072 0.92534,0 2.04877,0 L400.476,0 C401.59,0 402.489,0.910184 402.476,2.02409 L402,41.5 L1,41.5 L0.0493537,2.04818 Z" id="path11_fill"></path>
                </g>
            </g>
            <g id="Navbar-title" transform="translate(9.000000, 17.000000)" fill="#FFFFFF" fill-rule="nonzero">
                <g id="data-importer">
                    <g id="path12_fill-link" transform="translate(0.000000, 0.500000)">
                        <path d="M5.64258,7.01367 L2.33789,7.01367 L1.64648,9 L0.105469,9 L3.32812,0.46875 L4.6582,0.46875 L7.88672,9 L6.33984,9 L5.64258,7.01367 Z M2.75391,5.81836 L5.22656,5.81836 L3.99023,2.2793 L2.75391,5.81836 Z M9.76172,2.66016 L9.80273,3.39258 C10.2715,2.82617 10.8867,2.54297 11.6484,2.54297 C12.9688,2.54297 13.6406,3.29883 13.6641,4.81055 L13.6641,9 L12.2402,9 L12.2402,4.89258 C12.2402,4.49023 12.1523,4.19336 11.9766,4.00195 C11.8047,3.80664 11.5215,3.70898 11.127,3.70898 C10.5527,3.70898 10.125,3.96875 9.84375,4.48828 L9.84375,9 L8.41992,9 L8.41992,2.66016 L9.76172,2.66016 Z M16.4414,2.66016 L16.4824,3.39258 C16.9512,2.82617 17.5664,2.54297 18.3281,2.54297 C19.6484,2.54297 20.3203,3.29883 20.3438,4.81055 L20.3438,9 L18.9199,9 L18.9199,4.89258 C18.9199,4.49023 18.832,4.19336 18.6562,4.00195 C18.4844,3.80664 18.2012,3.70898 17.8066,3.70898 C17.2324,3.70898 16.8047,3.96875 16.5234,4.48828 L16.5234,9 L15.0996,9 L15.0996,2.66016 L16.4414,2.66016 Z M25.6406,8.3789 C25.2227,8.8711 24.6289,9.1172 23.8594,9.1172 C23.1719,9.1172 22.6504,8.916 22.2949,8.5137 C21.9434,8.1113 21.7676,7.5293 21.7676,6.76758 L21.7676,2.66016 L23.1914,2.66016 L23.1914,6.75 C23.1914,7.55469 23.5254,7.95703 24.1934,7.95703 C24.8848,7.95703 25.3516,7.70898 25.5938,7.21289 L25.5938,2.66016 L27.0176,2.66016 L27.0176,9 L25.6758,9 L25.6406,8.3789 Z M32.2559,9 C32.1934,8.8789 32.1387,8.6816 32.0918,8.4082 C31.6387,8.8809 31.084,9.1172 30.4277,9.1172 C29.791,9.1172 29.2715,8.9355 28.8691,8.5723 C28.4668,8.209 28.2656,7.75977 28.2656,7.22461 C28.2656,6.54883 28.5156,6.03125 29.0156,5.67188 C29.5195,5.30859 30.2383,5.12695 31.1719,5.12695 L32.0449,5.12695 L32.0449,4.71094 C32.0449,4.38281 31.9531,4.12109 31.7695,3.92578 C31.5859,3.72656 31.3066,3.62695 30.9316,3.62695 C30.6074,3.62695 30.3418,3.70898 30.1348,3.87305 C29.9277,4.0332 29.8242,4.23828 29.8242,4.48828 L28.4004,4.48828 C28.4004,4.14062 28.5156,3.81641 28.7461,3.51562 C28.9766,3.21094 29.2891,2.97266 29.6836,2.80078 C30.082,2.62891 30.5254,2.54297 31.0137,2.54297 C31.7559,2.54297 32.3477,2.73047 32.7891,3.10547 C33.2305,3.47656 33.457,4 33.4688,4.67578 L33.4688,7.53516 C33.4688,8.1055 33.5488,8.5605 33.709,8.9004 L33.709,9 L32.2559,9 Z M30.6914,7.97461 C30.9727,7.97461 31.2363,7.90625 31.4824,7.76953 C31.7324,7.63281 31.9199,7.44922 32.0449,7.21875 L32.0449,6.02344 L31.2773,6.02344 C30.75,6.02344 30.3535,6.11523 30.0879,6.29883 C29.8223,6.48242 29.6895,6.74219 29.6895,7.07812 C29.6895,7.35156 29.7793,7.57031 29.959,7.73438 C30.1426,7.89453 30.3867,7.97461 30.6914,7.97461 Z M36.4746,9 L35.0508,9 L35.0508,0 L36.4746,0 L36.4746,9 Z M44.291,5.71289 L42.6387,5.71289 L42.6387,9 L41.1562,9 L41.1562,0.46875 L44.1562,0.46875 C45.1406,0.46875 45.9004,0.68945 46.4355,1.13086 C46.9707,1.57227 47.2383,2.21094 47.2383,3.04688 C47.2383,3.61719 47.0996,4.0957 46.8223,4.48242 C46.5488,4.86523 46.166,5.16016 45.6738,5.36719 L47.5898,8.9238 L47.5898,9 L46.002,9 L44.291,5.71289 Z M42.6387,4.52344 L44.1621,4.52344 C44.6621,4.52344 45.0527,4.39844 45.334,4.14844 C45.6152,3.89453 45.7559,3.54883 45.7559,3.11133 C45.7559,2.6543 45.625,2.30078 45.3633,2.05078 C45.1055,1.80078 44.7188,1.67187 44.2031,1.66406 L42.6387,1.66406 L42.6387,4.52344 Z M51.2988,9.1172 C50.3965,9.1172 49.6641,8.834 49.1016,8.2676 C48.543,7.69727 48.2637,6.93945 48.2637,5.99414 L48.2637,5.81836 C48.2637,5.18555 48.3848,4.62109 48.627,4.125 C48.873,3.625 49.2168,3.23633 49.6582,2.95898 C50.0996,2.68164 50.5918,2.54297 51.1348,2.54297 C51.998,2.54297 52.6641,2.81836 53.1328,3.36914 C53.6055,3.91992 53.8418,4.69922 53.8418,5.70703 L53.8418,6.28125 L49.6992,6.28125 C49.7422,6.80469 49.916,7.21875 50.2207,7.52344 C50.5293,7.82812 50.916,7.98047 51.3809,7.98047 C52.0332,7.98047 52.5645,7.7168 52.9746,7.18945 L53.7422,7.92188 C53.4883,8.3008 53.1484,8.5957 52.7227,8.8066 C52.3008,9.0137 51.8262,9.1172 51.2988,9.1172 Z M51.1289,3.68555 C50.7383,3.68555 50.4219,3.82227 50.1797,4.0957 C49.9414,4.36914 49.7891,4.75 49.7227,5.23828 L52.4355,5.23828 L52.4355,5.13281 C52.4043,4.65625 52.2773,4.29688 52.0547,4.05469 C51.832,3.80859 51.5234,3.68555 51.1289,3.68555 Z M57.1055,7.19531 L58.4473,2.66016 L59.918,2.66016 L57.7207,9 L56.4844,9 L54.2695,2.66016 L55.7461,2.66016 L57.1055,7.19531 Z M63.5215,9.1172 C62.6191,9.1172 61.8867,8.834 61.3242,8.2676 C60.7656,7.69727 60.4863,6.93945 60.4863,5.99414 L60.4863,5.81836 C60.4863,5.18555 60.6074,4.62109 60.8496,4.125 C61.0957,3.625 61.4395,3.23633 61.8809,2.95898 C62.3223,2.68164 62.8145,2.54297 63.3574,2.54297 C64.2207,2.54297 64.8867,2.81836 65.3555,3.36914 C65.8281,3.91992 66.0645,4.69922 66.0645,5.70703 L66.0645,6.28125 L61.9219,6.28125 C61.9648,6.80469 62.1387,7.21875 62.4434,7.52344 C62.752,7.82812 63.1387,7.98047 63.6035,7.98047 C64.2559,7.98047 64.7871,7.7168 65.1973,7.18945 L65.9648,7.92188 C65.7109,8.3008 65.3711,8.5957 64.9453,8.8066 C64.5234,9.0137 64.0488,9.1172 63.5215,9.1172 Z M63.3516,3.68555 C62.9609,3.68555 62.6445,3.82227 62.4023,4.0957 C62.1641,4.36914 62.0117,4.75 61.9453,5.23828 L64.6582,5.23828 L64.6582,5.13281 C64.627,4.65625 64.5,4.29688 64.2773,4.05469 C64.0547,3.80859 63.7461,3.68555 63.3516,3.68555 Z M68.4961,2.66016 L68.5371,3.39258 C69.0059,2.82617 69.6211,2.54297 70.3828,2.54297 C71.7031,2.54297 72.375,3.29883 72.3984,4.81055 L72.3984,9 L70.9746,9 L70.9746,4.89258 C70.9746,4.49023 70.8867,4.19336 70.7109,4.00195 C70.5391,3.80664 70.2559,3.70898 69.8613,3.70898 C69.2871,3.70898 68.8594,3.96875 68.5781,4.48828 L68.5781,9 L67.1543,9 L67.1543,2.66016 L68.4961,2.66016 Z M77.6953,8.3789 C77.2773,8.8711 76.6836,9.1172 75.9141,9.1172 C75.2266,9.1172 74.7051,8.916 74.3496,8.5137 C73.998,8.1113 73.8223,7.5293 73.8223,6.76758 L73.8223,2.66016 L75.2461,2.66016 L75.2461,6.75 C75.2461,7.55469 75.5801,7.95703 76.248,7.95703 C76.9395,7.95703 77.4062,7.70898 77.6484,7.21289 L77.6484,2.66016 L79.0723,2.66016 L79.0723,9 L77.7305,9 L77.6953,8.3789 Z M83.3145,9.1172 C82.4121,9.1172 81.6797,8.834 81.1172,8.2676 C80.5586,7.69727 80.2793,6.93945 80.2793,5.99414 L80.2793,5.81836 C80.2793,5.18555 80.4004,4.62109 80.6426,4.125 C80.8887,3.625 81.2324,3.23633 81.6738,2.95898 C82.1152,2.68164 82.6074,2.54297 83.1504,2.54297 C84.0137,2.54297 84.6797,2.81836 85.1484,3.36914 C85.6211,3.91992 85.8574,4.69922 85.8574,5.70703 L85.8574,6.28125 L81.7148,6.28125 C81.7578,6.80469 81.9316,7.21875 82.2363,7.52344 C82.5449,7.82812 82.9316,7.98047 83.3965,7.98047 C84.0488,7.98047 84.5801,7.7168 84.9902,7.18945 L85.7578,7.92188 C85.5039,8.3008 85.1641,8.5957 84.7383,8.8066 C84.3164,9.0137 83.8418,9.1172 83.3145,9.1172 Z M83.1445,3.68555 C82.7539,3.68555 82.4375,3.82227 82.1953,4.0957 C81.957,4.36914 81.8047,4.75 81.7383,5.23828 L84.4512,5.23828 L84.4512,5.13281 C84.4199,4.65625 84.293,4.29688 84.0703,4.05469 C83.8477,3.80859 83.5391,3.68555 83.1445,3.68555 Z" id="path12_fill"></path>
                    </g>
                </g>
            </g>
            <g id="Navbar-title" transform="translate(320.000000, 15.000000)" fill="#FFFFFF" fill-rule="nonzero">
                <g id="ic_more_vert_18px" transform="translate(67.000000, 1.000000)">
                    <g id="Shape">
                        <g id="path13_fill-link" transform="translate(0.000000, 0.500000)">
                            <path d="M1.38477,2.76929 C2.15039,2.76929 2.76953,2.15088 2.76953,1.38452 C2.76953,0.618408 2.15039,0 1.38477,0 C0.618164,0 0,0.618408 0,1.38452 C0,2.15088 0.618164,2.76929 1.38477,2.76929 Z M1.38477,4.61548 C0.618164,4.61548 0,5.23389 0,6 C0,6.76636 0.618164,7.38477 1.38477,7.38477 C2.15039,7.38477 2.76953,6.76636 2.76953,6 C2.76953,5.23389 2.15039,4.61548 1.38477,4.61548 Z M0,10.6155 C0,9.84937 0.618164,9.23096 1.38477,9.23096 C2.15039,9.23096 2.76953,9.84937 2.76953,10.6155 C2.76953,11.3818 2.15039,12.0002 1.38477,12.0002 C0.618164,12.0002 0,11.3818 0,10.6155 Z" id="path13_fill"></path>
                        </g>
                    </g>
                </g>
                <g id="btn">
                    <g id="Group">
                        <g id="refresh-01" transform="translate(32.000000, 0.000000)">
                            <g id="Group">
                                <g id="Vector" transform="translate(0.000000, 1.000000)">
                                    <g id="path14_stroke-link" transform="translate(0.000000, 0.360000)">
                                        <path d="M12.3001,6.57309 C12.3002,6.29695 12.0763,6.07305 11.8002,6.073 C11.5241,6.07295 11.3002,6.29677 11.3001,6.57291 L12.3001,6.57309 Z M4.16738,1.498556 L4.37952,1.951322 L4.16738,1.498556 Z M10.52591,3.83588 C10.67125,4.07068 10.97941,4.1432 11.2142,3.99786 C11.449,3.85252 11.5215,3.54436 11.3762,3.30956 L10.52591,3.83588 Z M11.3001,6.57291 C11.2999,7.79797 10.87137,8.9796 10.09659,9.90125 L10.86205,10.54473 C11.7905,9.44033 12.2998,8.03007 12.3001,6.57309 L11.3001,6.57291 Z M10.09659,9.90125 C9.32213,10.82252 8.25443,11.4217 7.09112,11.5932 L7.23701,12.5825 C8.64683,12.3746 9.93334,11.6495 10.86205,10.54473 L10.09659,9.90125 Z M7.09112,11.5932 C5.92798,11.7648 4.74267,11.4981 3.75207,10.83949 L3.19843,11.6722 C4.39285,12.4663 5.827,12.7905 7.23701,12.5825 L7.09112,11.5932 Z M3.75207,10.83949 C2.76104,10.18062 2.03008,9.17256 1.697577,7.99761 L0.735364,8.2699 C1.131429,9.66947 2.00445,10.87845 3.19843,11.6722 L3.75207,10.83949 Z M1.697577,7.99761 C1.365018,6.82245 1.454555,5.56289 1.948956,4.45122 L1.0352432,4.04486 C0.445544,5.37081 0.339355,6.87054 0.735364,8.2699 L1.697577,7.99761 Z M1.948956,4.45122 C2.44323,3.33983 3.30756,2.45358 4.37952,1.951322 L3.95524,1.0457903 C2.66048,1.652435 1.625069,2.71862 1.0352432,4.04486 L1.948956,4.45122 Z M4.37952,1.951322 C5.45106,1.449262 6.66084,1.363105 7.78808,1.707768 L8.08048,0.75147 C6.71554,0.334132 5.25041,0.438949 3.95524,1.0457903 L4.37952,1.951322 Z M7.78808,1.707768 C8.91566,2.05253 9.88877,2.80655 10.52591,3.83588 L11.3762,3.30956 C10.61421,2.07854 9.44508,1.168706 8.08048,0.75147 L7.78808,1.707768 Z" id="path14_stroke"></path>
                                    </g>
                                </g>
                                <g id="Vector" transform="translate(6.000000, 0.000000)">
                                    <g id="path15_stroke-link" transform="translate(0.600000, 0.500000)">
                                        <path d="M4.82311,1 C4.82311,0.723858 4.59925,0.5 4.32311,0.5 C4.04697,0.5 3.82311,0.723858 3.82311,1 L4.82311,1 Z M4.32311,4.4289 L4.32311,4.9289 C4.59925,4.9289 4.82311,4.70504 4.82311,4.4289 L4.32311,4.4289 Z M1,3.9289 C0.723858,3.9289 0.5,4.15276 0.5,4.4289 C0.5,4.70504 0.723858,4.9289 1,4.9289 L1,3.9289 Z M3.82311,1 L3.82311,4.4289 L4.82311,4.4289 L4.82311,1 L3.82311,1 Z M4.32311,3.9289 L1,3.9289 L1,4.9289 L4.32311,4.9289 L4.32311,3.9289 Z" id="path15_stroke"></path>
                                    </g>
                                </g>
                            </g>
                        </g>
                        <g id="chart-bar-32" transform="translate(0.000000, 1.000000)">
                            <g id="Group">
                                <g id="Vector" transform="translate(4.000000, 0.000000)">
                                    <g id="path16_fill-link" transform="translate(0.500000, 0.500000)">
                                        <path d="M2.25,0 L0.75,0 C0.3,0 0,0.3 0,0.75 L0,11.25 C0,11.7 0.3,12 0.75,12 L2.25,12 C2.7,12 3,11.7 3,11.25 L3,0.75 C3,0.3 2.7,0 2.25,0 Z" id="path16_fill"></path>
                                    </g>
                                </g>
                                <g id="Vector" transform="translate(0.000000, 8.000000)">
                                    <g id="path17_fill-link">
                                        <path d="M2.25,1.33227e-15 L0.75,1.33227e-15 C0.3,1.33227e-15 0,0.3 0,0.75 L0,3.75 C0,4.2 0.3,4.5 0.75,4.5 L2.25,4.5 C2.7,4.5 3,4.2 3,3.75 L3,0.75 C3,0.3 2.7,1.33227e-15 2.25,1.33227e-15 Z" id="path17_fill"></path>
                                    </g>
                                </g>
                                <g id="Vector" transform="translate(9.000000, 4.000000)">
                                    <g id="path18_fill-link" transform="translate(0.000000, 0.250000)">
                                        <path d="M2.25,6.66134e-16 L0.75,6.66134e-16 C0.3,6.66134e-16 0,0.3 0,0.75 L0,7.5 C0,7.95 0.3,8.25 0.75,8.25 L2.25,8.25 C2.7,8.25 3,7.95 3,7.5 L3,0.75 C3,0.3 2.7,6.66134e-16 2.25,6.66134e-16 Z" id="path18_fill"></path>
                                    </g>
                                </g>
                            </g>
                        </g>
                    </g>
                </g>
            </g>
            <g id="Rectangle-2.1">
                <g id="Clipped">
                    <mask id="mask-7" fill="white">
                        <use xlink:href="#path-6"></use>
                    </mask>
                    <g id="mask0_outline_inv"></g>
                    <g id="path20_stroke_2x-link" mask="url(#mask-7)" fill="#444E54" fill-rule="nonzero">
                        <g transform="translate(0.000000, 0.500000)" id="path20_stroke_2x">
                            <path d="M3,4 L402,4 L402,0 L3,0 L3,4 Z M401,3 L401,241 L405,241 L405,3 L401,3 Z M402,240 L3,240 L3,244 L402,244 L402,240 Z M4,241 L4,3 L0,3 L0,241 L4,241 Z M3,240 C3.55228,240 4,240.448 4,241 L0,241 C0,242.657 1.343146,244 3,244 L3,240 Z M401,241 C401,240.448 401.448,240 402,240 L402,244 C403.657,244 405,242.657 405,241 L401,241 Z M402,4 C401.448,4 401,3.55228 401,3 L405,3 C405,1.343146 403.657,0 402,0 L402,4 Z M3,0 C1.343146,0 0,1.343146 0,3 L4,3 C4,3.55228 3.55228,4 3,4 L3,0 Z"></path>
                        </g>
                    </g>
                </g>
            </g>
        </g>
    </g>
</svg>