<svg width="405" height="245" viewBox="0 0 405 245" version="1.1" xmlns="http://www.w3.org/2000/svg" xmlns:xlink="http://www.w3.org/1999/xlink">
<title>chart - shopify</title>
<desc>Created using Figma</desc>
<g id="Canvas" transform="translate(-15463 -4303)">
<g id="chart - shopify">
<g id="Rectangle 5.1">
<use xlink:href="#path0_fill" transform="translate(15465 4345.5)" fill="#FFFFFF"/>
</g>
<g id="Group 6">
<g id="Rectangle 35.4">
<use xlink:href="#path1_fill" transform="translate(15521 4374)" fill="url(#paint1_linear)"/>
<mask id="mask0_outline_ins">
<use xlink:href="#path1_fill" fill="white" transform="translate(15521 4374)"/>
</mask>
<g mask="url(#mask0_outline_ins)">
<use xlink:href="#path2_stroke_2x" transform="translate(15521 4374)" fill="#95BF47"/>
</g>
</g>
</g>
<g id="Group 6.1">
<g id="Rectangle 35.4">
<use xlink:href="#path3_fill" transform="translate(15571 4427)" fill="url(#paint3_linear)"/>
<mask id="mask1_outline_ins">
<use xlink:href="#path3_fill" fill="white" transform="translate(15571 4427)"/>
</mask>
<g mask="url(#mask1_outline_ins)">
<use xlink:href="#path4_stroke_2x" transform="translate(15571 4427)" fill="#FC9856"/>
</g>
</g>
</g>
<g id="Group 6.2">
<g id="Rectangle 35.4">
<use xlink:href="#path5_fill" transform="translate(15621 4408)" fill="url(#paint5_linear)"/>
<mask id="mask2_outline_ins">
<use xlink:href="#path5_fill" fill="white" transform="translate(15621 4408)"/>
</mask>
<g mask="url(#mask2_outline_ins)">
<use xlink:href="#path6_stroke_2x" transform="translate(15621 4408)" fill="#95BF47"/>
</g>
</g>
</g>
<g id="Group 6.3">
<g id="Rectangle 35.4">
<use xlink:href="#path7_fill" transform="translate(15671 4392)" fill="url(#paint7_linear)"/>
<mask id="mask3_outline_ins">
<use xlink:href="#path7_fill" fill="white" transform="translate(15671 4392)"/>
</mask>
<g mask="url(#mask3_outline_ins)">
<use xlink:href="#path8_stroke_2x" transform="translate(15671 4392)" fill="#FC9856"/>
</g>
</g>
</g>
<g id="Group 6.4">
<g id="Rectangle 35.4">
<use xlink:href="#path9_fill" transform="translate(15720 4447)" fill="url(#paint9_linear)"/>
<mask id="mask4_outline_ins">
<use xlink:href="#path9_fill" fill="white" transform="translate(15720 4447)"/>
</mask>
<g mask="url(#mask4_outline_ins)">
<use xlink:href="#path10_stroke_2x" transform="translate(15720 4447)" fill="#95BF47"/>
</g>
</g>
</g>
<g id="Group 6.5">
<g id="Rectangle 35.4">
<use xlink:href="#path3_fill" transform="translate(15770 4427)" fill="url(#paint11_linear)"/>
<mask id="mask5_outline_ins">
<use xlink:href="#path3_fill" fill="white" transform="translate(15770 4427)"/>
</mask>
<g mask="url(#mask5_outline_ins)">
<use xlink:href="#path4_stroke_2x" transform="translate(15770 4427)" fill="#FC9856"/>
</g>
</g>
</g>
<g id="Rectangle 5 Copy 2.1">
<use xlink:href="#path11_fill" transform="translate(15464 4305)" fill="url(#paint13_linear)"/>
</g>
<g id="Navbar title">
<g id="data-importer">
<use xlink:href="#path12_fill" transform="translate(15472 4318.5)" fill="#FFFFFF"/>
</g>
</g>
<g id="Navbar title">
<g id="ic_more_vert_18px">
<g id="Shape">
<use xlink:href="#path13_fill" transform="translate(15850 4319.5)" fill="#FFFFFF"/>
</g>
</g>
<g id="btn">
<g id="Group">
<g id="refresh-01">
<g id="Group">
<g id="Vector">
<use xlink:href="#path14_stroke" transform="translate(15816 4320.36)" fill="#FFFFFF"/>
</g>
<g id="Vector">
<use xlink:href="#path15_stroke" transform="translate(15822.6 4319.5)" fill="#FFFFFF"/>
</g>
</g>
</g>
<g id="chart-bar-32">
<g id="Group">
<g id="Vector">
<use xlink:href="#path16_fill" transform="translate(15787.5 4319.5)" fill="#FFFFFF"/>
</g>
<g id="Vector">
<use xlink:href="#path17_fill" transform="translate(15783 4327)" fill="#FFFFFF"/>
</g>
<g id="Vector">
<use xlink:href="#path18_fill" transform="translate(15792 4323.25)" fill="#FFFFFF"/>
</g>
</g>
</g>
</g>
</g>
</g>
<g id="Rectangle 2.1">
<mask id="mask6_outline_out">
<rect id="mask6_outline_inv" fill="white" x="-2" y="-2" width="405" height="244" transform="translate(15465 4305.5)"/>
<use xlink:href="#path19_fill" fill="black" transform="translate(15465 4305.5)"/>
</mask>
<g mask="url(#mask6_outline_out)">
<use xlink:href="#path20_stroke_2x" transform="translate(15465 4305.5)" fill="#95BF47"/>
</g>
</g>
</g>
</g>
<defs>
<linearGradient id="paint1_linear" x1="0" y1="0" x2="1" y2="0" gradientUnits="userSpaceOnUse" gradientTransform="matrix(2.44929e-15 127.999 -40 7.8377e-15 40 -7.8377e-15)">
<stop offset="0" stop-color="#B0DB5E" stop-opacity="0.4"/>
<stop offset="1" stop-color="#B0DB5E" stop-opacity="0"/>
</linearGradient>
<linearGradient id="paint3_linear" x1="0" y1="0" x2="1" y2="0" gradientUnits="userSpaceOnUse" gradientTransform="matrix(2.44929e-15 75 -40 4.59243e-15 40 -4.59243e-15)">
<stop offset="0" stop-color="#FC9856" stop-opacity="0.4"/>
<stop offset="1" stop-color="#FC9856" stop-opacity="0"/>
</linearGradient>
<linearGradient id="paint5_linear" x1="0" y1="0" x2="1" y2="0" gradientUnits="userSpaceOnUse" gradientTransform="matrix(2.44929e-15 94 -40 5.75584e-15 40 -5.75584e-15)">
<stop offset="0" stop-color="#B0DB5E" stop-opacity="0.4"/>
<stop offset="1" stop-color="#B0DB5E" stop-opacity="0"/>
</linearGradient>
<linearGradient id="paint7_linear" x1="0" y1="0" x2="1" y2="0" gradientUnits="userSpaceOnUse" gradientTransform="matrix(2.44929e-15 110 -40 6.73556e-15 40 -6.73556e-15)">
<stop offset="0" stop-color="#FC9856" stop-opacity="0.4"/>
<stop offset="1" stop-color="#FC9856" stop-opacity="0"/>
</linearGradient>
<linearGradient id="paint9_linear" x1="0" y1="0" x2="1" y2="0" gradientUnits="userSpaceOnUse" gradientTransform="matrix(2.44929e-15 55 -40 3.36778e-15 40 -3.36778e-15)">
<stop offset="0" stop-color="#B0DB5E" stop-opacity="0.4"/>
<stop offset="1" stop-color="#B0DB5E" stop-opacity="0"/>
</linearGradient>
<linearGradient id="paint11_linear" x1="0" y1="0" x2="1" y2="0" gradientUnits="userSpaceOnUse" gradientTransform="matrix(2.44929e-15 75 -40 4.59243e-15 40 -4.59243e-15)">
<stop offset="0" stop-color="#FC9856" stop-opacity="0.4"/>
<stop offset="1" stop-color="#FC9856" stop-opacity="0"/>
</linearGradient>
<linearGradient id="paint13_linear" x1="0" y1="0" x2="1" y2="0" gradientUnits="userSpaceOnUse" gradientTransform="matrix(2.45542e-14 41 -401 2.51053e-15 402 0.5)">
<stop offset="0" stop-color="#B4E063"/>
<stop offset="1" stop-color="#95BF47"/>
</linearGradient>
<path id="path0_fill" fill-rule="evenodd" d="M 0 0L 402 0L 402 200L 0 200L 0 0Z"/>
<path id="path1_fill" d="M 0 0L 40 0L 40 127.999L 0 127.999L 0 0Z"/>
<path id="path2_stroke_2x" d="M 0 0L 0 -1L -1 -1L -1 0L 0 0ZM 40 0L 41 0L 41 -1L 40 -1L 40 0ZM 40 127.999L 40 128.999L 41 128.999L 41 127.999L 40 127.999ZM 0 127.999L -1 127.999L -1 128.999L 0 128.999L 0 127.999ZM 0 1L 40 1L 40 -1L 0 -1L 0 1ZM 39 0L 39 127.999L 41 127.999L 41 0L 39 0ZM 40 126.999L 0 126.999L 0 128.999L 40 128.999L 40 126.999ZM 1 127.999L 1 0L -1 0L -1 127.999L 1 127.999Z"/>
<path id="path3_fill" d="M 0 0L 40 0L 40 75L 0 75L 0 0Z"/>
<path id="path4_stroke_2x" d="M 0 0L 0 -1L -1 -1L -1 0L 0 0ZM 40 0L 41 0L 41 -1L 40 -1L 40 0ZM 40 75L 40 76L 41 76L 41 75L 40 75ZM 0 75L -1 75L -1 76L 0 76L 0 75ZM 0 1L 40 1L 40 -1L 0 -1L 0 1ZM 39 0L 39 75L 41 75L 41 0L 39 0ZM 40 74L 0 74L 0 76L 40 76L 40 74ZM 1 75L 1 0L -1 0L -1 75L 1 75Z"/>
<path id="path5_fill" d="M 0 0L 40 0L 40 94L 0 94L 0 0Z"/>
<path id="path6_stroke_2x" d="M 0 0L 0 -1L -1 -1L -1 0L 0 0ZM 40 0L 41 0L 41 -1L 40 -1L 40 0ZM 40 94L 40 95L 41 95L 41 94L 40 94ZM 0 94L -1 94L -1 95L 0 95L 0 94ZM 0 1L 40 1L 40 -1L 0 -1L 0 1ZM 39 0L 39 94L 41 94L 41 0L 39 0ZM 40 93L 0 93L 0 95L 40 95L 40 93ZM 1 94L 1 0L -1 0L -1 94L 1 94Z"/>
<path id="path7_fill" d="M 0 0L 40 0L 40 110L 0 110L 0 0Z"/>
<path id="path8_stroke_2x" d="M 0 0L 0 -1L -1 -1L -1 0L 0 0ZM 40 0L 41 0L 41 -1L 40 -1L 40 0ZM 40 110L 40 111L 41 111L 41 110L 40 110ZM 0 110L -1 110L -1 111L 0 111L 0 110ZM 0 1L 40 1L 40 -1L 0 -1L 0 1ZM 39 0L 39 110L 41 110L 41 0L 39 0ZM 40 109L 0 109L 0 111L 40 111L 40 109ZM 1 110L 1 0L -1 0L -1 110L 1 110Z"/>
<path id="path9_fill" d="M 0 0L 40 0L 40 55L 0 55L 0 0Z"/>
<path id="path10_stroke_2x" d="M 0 0L 0 -1L -1 -1L -1 0L 0 0ZM 40 0L 41 0L 41 -1L 40 -1L 40 0ZM 40 55L 40 56L 41 56L 41 55L 40 55ZM 0 55L -1 55L -1 56L 0 56L 0 55ZM 0 1L 40 1L 40 -1L 0 -1L 0 1ZM 39 0L 39 55L 41 55L 41 0L 39 0ZM 40 54L 0 54L 0 56L 40 56L 40 54ZM 1 55L 1 0L -1 0L -1 55L 1 55Z"/>
<path id="path11_fill" fill-rule="evenodd" d="M 0.0493537 2.04818C 0.0222909 0.925072 0.92534 0 2.04877 0L 400.476 0C 401.59 0 402.489 0.910184 402.476 2.02409L 402 41.5L 1 41.5L 0.0493537 2.04818Z"/>
<path id="path12_fill" d="M 7.37695 8.22266C 7.29102 9.13281 6.95508 9.84375 6.36914 10.3555C 5.7832 10.8633 5.00391 11.1172 4.03125 11.1172C 3.35156 11.1172 2.75195 10.957 2.23242 10.6367C 1.7168 10.3125 1.31836 9.85352 1.03711 9.25977C 0.755859 8.66602 0.609375 7.97656 0.597656 7.19141L 0.597656 6.39453C 0.597656 5.58984 0.740234 4.88086 1.02539 4.26758C 1.31055 3.6543 1.71875 3.18164 2.25 2.84961C 2.78516 2.51758 3.40234 2.35156 4.10156 2.35156C 5.04297 2.35156 5.80078 2.60742 6.375 3.11914C 6.94922 3.63086 7.2832 4.35352 7.37695 5.28711L 5.90039 5.28711C 5.83008 4.67383 5.65039 4.23242 5.36133 3.96289C 5.07617 3.68945 4.65625 3.55273 4.10156 3.55273C 3.45703 3.55273 2.96094 3.78906 2.61328 4.26172C 2.26953 4.73047 2.09375 5.41992 2.08594 6.33008L 2.08594 7.08594C 2.08594 8.00781 2.25 8.71094 2.57812 9.19531C 2.91016 9.67969 3.39453 9.92188 4.03125 9.92188C 4.61328 9.92188 5.05078 9.79102 5.34375 9.5293C 5.63672 9.26758 5.82227 8.83203 5.90039 8.22266L 7.37695 8.22266ZM 12.4102 10.3789C 11.9922 10.8711 11.3984 11.1172 10.6289 11.1172C 9.94141 11.1172 9.41992 10.916 9.06445 10.5137C 8.71289 10.1113 8.53711 9.5293 8.53711 8.76758L 8.53711 4.66016L 9.96094 4.66016L 9.96094 8.75C 9.96094 9.55469 10.2949 9.95703 10.9629 9.95703C 11.6543 9.95703 12.1211 9.70898 12.3633 9.21289L 12.3633 4.66016L 13.7871 4.66016L 13.7871 11L 12.4453 11L 12.4102 10.3789ZM 18.791 9.27734C 18.791 9.02344 18.6855 8.83008 18.4746 8.69727C 18.2676 8.56445 17.9219 8.44727 17.4375 8.3457C 16.9531 8.24414 16.5488 8.11523 16.2246 7.95898C 15.5137 7.61523 15.1582 7.11719 15.1582 6.46484C 15.1582 5.91797 15.3887 5.46094 15.8496 5.09375C 16.3105 4.72656 16.8965 4.54297 17.6074 4.54297C 18.3652 4.54297 18.9766 4.73047 19.4414 5.10547C 19.9102 5.48047 20.1445 5.9668 20.1445 6.56445L 18.7207 6.56445C 18.7207 6.29102 18.6191 6.06445 18.416 5.88477C 18.2129 5.70117 17.9434 5.60938 17.6074 5.60938C 17.2949 5.60938 17.0391 5.68164 16.8398 5.82617C 16.6445 5.9707 16.5469 6.16406 16.5469 6.40625C 16.5469 6.625 16.6387 6.79492 16.8223 6.91602C 17.0059 7.03711 17.377 7.16016 17.9355 7.28516C 18.4941 7.40625 18.9316 7.55273 19.248 7.72461C 19.5684 7.89258 19.8047 8.0957 19.957 8.33398C 20.1133 8.57227 20.1914 8.86133 20.1914 9.20117C 20.1914 9.77148 19.9551 10.2344 19.4824 10.5898C 19.0098 10.9414 18.3906 11.1172 17.625 11.1172C 17.1055 11.1172 16.6426 11.0234 16.2363 10.8359C 15.8301 10.6484 15.5137 10.3906 15.2871 10.0625C 15.0605 9.73438 14.9473 9.38086 14.9473 9.00195L 16.3301 9.00195C 16.3496 9.33789 16.4766 9.59766 16.7109 9.78125C 16.9453 9.96094 17.2559 10.0508 17.6426 10.0508C 18.0176 10.0508 18.3027 9.98047 18.498 9.83984C 18.6934 9.69531 18.791 9.50781 18.791 9.27734ZM 23.2207 3.11914L 23.2207 4.66016L 24.3398 4.66016L 24.3398 5.71484L 23.2207 5.71484L 23.2207 9.25391C 23.2207 9.49609 23.2676 9.67188 23.3613 9.78125C 23.459 9.88672 23.6309 9.93945 23.877 9.93945C 24.041 9.93945 24.207 9.91992 24.375 9.88086L 24.375 10.9824C 24.0508 11.0723 23.7383 11.1172 23.4375 11.1172C 22.3438 11.1172 21.7969 10.5137 21.7969 9.30664L 21.7969 5.71484L 20.7539 5.71484L 20.7539 4.66016L 21.7969 4.66016L 21.7969 3.11914L 23.2207 3.11914ZM 24.9902 7.77148C 24.9902 7.15039 25.1133 6.5918 25.3594 6.0957C 25.6055 5.5957 25.9512 5.21289 26.3965 4.94727C 26.8418 4.67773 27.3535 4.54297 27.9316 4.54297C 28.7871 4.54297 29.4805 4.81836 30.0117 5.36914C 30.5469 5.91992 30.8359 6.65039 30.8789 7.56055L 30.8848 7.89453C 30.8848 8.51953 30.7637 9.07812 30.5215 9.57031C 30.2832 10.0625 29.9395 10.4434 29.4902 10.7129C 29.0449 10.9824 28.5293 11.1172 27.9434 11.1172C 27.0488 11.1172 26.332 10.8203 25.793 10.2266C 25.2578 9.62891 24.9902 8.83398 24.9902 7.8418L 24.9902 7.77148ZM 26.4141 7.89453C 26.4141 8.54688 26.5488 9.05859 26.8184 9.42969C 27.0879 9.79688 27.4629 9.98047 27.9434 9.98047C 28.4238 9.98047 28.7969 9.79297 29.0625 9.41797C 29.332 9.04297 29.4668 8.49414 29.4668 7.77148C 29.4668 7.13086 29.3281 6.62305 29.0508 6.24805C 28.7773 5.87305 28.4043 5.68555 27.9316 5.68555C 27.4668 5.68555 27.0977 5.87109 26.8242 6.24219C 26.5508 6.60938 26.4141 7.16016 26.4141 7.89453ZM 33.4277 4.66016L 33.4688 5.32227C 33.9141 4.80273 34.5234 4.54297 35.2969 4.54297C 36.1445 4.54297 36.7246 4.86719 37.0371 5.51562C 37.498 4.86719 38.1465 4.54297 38.9824 4.54297C 39.6816 4.54297 40.2012 4.73633 40.541 5.12305C 40.8848 5.50977 41.0605 6.08008 41.0684 6.83398L 41.0684 11L 39.6445 11L 39.6445 6.875C 39.6445 6.47266 39.5566 6.17773 39.3809 5.99023C 39.2051 5.80273 38.9141 5.70898 38.5078 5.70898C 38.1836 5.70898 37.918 5.79688 37.7109 5.97266C 37.5078 6.14453 37.3652 6.37109 37.2832 6.65234L 37.2891 11L 35.8652 11L 35.8652 6.82812C 35.8457 6.08203 35.4648 5.70898 34.7227 5.70898C 34.1523 5.70898 33.748 5.94141 33.5098 6.40625L 33.5098 11L 32.0859 11L 32.0859 4.66016L 33.4277 4.66016ZM 45.3223 11.1172C 44.4199 11.1172 43.6875 10.834 43.125 10.2676C 42.5664 9.69727 42.2871 8.93945 42.2871 7.99414L 42.2871 7.81836C 42.2871 7.18555 42.4082 6.62109 42.6504 6.125C 42.8965 5.625 43.2402 5.23633 43.6816 4.95898C 44.123 4.68164 44.6152 4.54297 45.1582 4.54297C 46.0215 4.54297 46.6875 4.81836 47.1562 5.36914C 47.6289 5.91992 47.8652 6.69922 47.8652 7.70703L 47.8652 8.28125L 43.7227 8.28125C 43.7656 8.80469 43.9395 9.21875 44.2441 9.52344C 44.5527 9.82812 44.9395 9.98047 45.4043 9.98047C 46.0566 9.98047 46.5879 9.7168 46.998 9.18945L 47.7656 9.92188C 47.5117 10.3008 47.1719 10.5957 46.7461 10.8066C 46.3242 11.0137 45.8496 11.1172 45.3223 11.1172ZM 45.1523 5.68555C 44.7617 5.68555 44.4453 5.82227 44.2031 6.0957C 43.9648 6.36914 43.8125 6.75 43.7461 7.23828L 46.459 7.23828L 46.459 7.13281C 46.4277 6.65625 46.3008 6.29688 46.0781 6.05469C 45.8555 5.80859 45.5469 5.68555 45.1523 5.68555ZM 52.2949 5.96094C 52.1074 5.92969 51.9141 5.91406 51.7148 5.91406C 51.0625 5.91406 50.623 6.16406 50.3965 6.66406L 50.3965 11L 48.9727 11L 48.9727 4.66016L 50.332 4.66016L 50.3672 5.36914C 50.7109 4.81836 51.1875 4.54297 51.7969 4.54297C 52 4.54297 52.168 4.57031 52.3008 4.625L 52.2949 5.96094ZM 57.8848 11L 56.4082 11L 56.4082 2.46875L 57.8848 2.46875L 57.8848 11ZM 59.707 11L 59.707 2.46875L 62.2266 2.46875C 62.9805 2.46875 63.6484 2.63672 64.2305 2.97266C 64.8164 3.30859 65.2695 3.78516 65.5898 4.40234C 65.9102 5.01953 66.0703 5.72656 66.0703 6.52344L 66.0703 6.95117C 66.0703 7.75977 65.9082 8.4707 65.584 9.08398C 65.2637 9.69727 64.8047 10.1699 64.207 10.502C 63.6133 10.834 62.9316 11 62.1621 11L 59.707 11ZM 61.1895 3.66406L 61.1895 9.81641L 62.1562 9.81641C 62.9336 9.81641 63.5293 9.57422 63.9434 9.08984C 64.3613 8.60156 64.5742 7.90234 64.582 6.99219L 64.582 6.51758C 64.582 5.5918 64.3809 4.88477 63.9785 4.39648C 63.5762 3.9082 62.9922 3.66406 62.2266 3.66406L 61.1895 3.66406Z"/>
<path id="path13_fill" fill-rule="evenodd" d="M 1.38477 2.76929C 2.15039 2.76929 2.76953 2.15088 2.76953 1.38452C 2.76953 0.618408 2.15039 0 1.38477 0C 0.618164 0 0 0.618408 0 1.38452C 0 2.15088 0.618164 2.76929 1.38477 2.76929ZM 1.38477 4.61548C 0.618164 4.61548 0 5.23389 0 6C 0 6.76636 0.618164 7.38477 1.38477 7.38477C 2.15039 7.38477 2.76953 6.76636 2.76953 6C 2.76953 5.23389 2.15039 4.61548 1.38477 4.61548ZM 0 10.6155C 0 9.84937 0.618164 9.23096 1.38477 9.23096C 2.15039 9.23096 2.76953 9.84937 2.76953 10.6155C 2.76953 11.3818 2.15039 12.0002 1.38477 12.0002C 0.618164 12.0002 0 11.3818 0 10.6155Z"/>
<path id="path14_stroke" d="M 11.3001 5.57309C 11.3002 5.29695 11.0763 5.07305 10.8002 5.073C 10.5241 5.07295 10.3002 5.29677 10.3001 5.57291L 11.3001 5.57309ZM 3.16738 0.498556L 3.37952 0.951322L 3.16738 0.498556ZM 9.52591 2.83588C 9.67125 3.07068 9.97941 3.1432 10.2142 2.99786C 10.449 2.85252 10.5215 2.54436 10.3762 2.30956L 9.52591 2.83588ZM 10.3001 5.57291C 10.2999 6.79797 9.87137 7.9796 9.09659 8.90125L 9.86205 9.54473C 10.7905 8.44033 11.2998 7.03007 11.3001 5.57309L 10.3001 5.57291ZM 9.09659 8.90125C 8.32213 9.82252 7.25443 10.4217 6.09112 10.5932L 6.23701 11.5825C 7.64683 11.3746 8.93334 10.6495 9.86205 9.54473L 9.09659 8.90125ZM 6.09112 10.5932C 4.92798 10.7648 3.74267 10.4981 2.75207 9.83949L 2.19843 10.6722C 3.39285 11.4663 4.827 11.7905 6.23701 11.5825L 6.09112 10.5932ZM 2.75207 9.83949C 1.76104 9.18062 1.03008 8.17256 0.697577 6.99761L -0.264636 7.2699C 0.131429 8.66947 1.00445 9.87845 2.19843 10.6722L 2.75207 9.83949ZM 0.697577 6.99761C 0.365018 5.82245 0.454555 4.56289 0.948956 3.45122L 0.0352432 3.04486C -0.554456 4.37081 -0.660645 5.87054 -0.264636 7.2699L 0.697577 6.99761ZM 0.948956 3.45122C 1.44323 2.33983 2.30756 1.45358 3.37952 0.951322L 2.95524 0.0457903C 1.66048 0.652435 0.625069 1.71862 0.0352432 3.04486L 0.948956 3.45122ZM 3.37952 0.951322C 4.45106 0.449262 5.66084 0.363105 6.78808 0.707768L 7.08048 -0.24853C 5.71554 -0.665868 4.25041 -0.561051 2.95524 0.0457903L 3.37952 0.951322ZM 6.78808 0.707768C 7.91566 1.05253 8.88877 1.80656 9.52591 2.83588L 10.3762 2.30956C 9.61421 1.07854 8.44508 0.168706 7.08048 -0.24853L 6.78808 0.707768Z"/>
<path id="path15_stroke" d="M 3.82311 0C 3.82311 -0.276142 3.59925 -0.5 3.32311 -0.5C 3.04697 -0.5 2.82311 -0.276142 2.82311 0L 3.82311 0ZM 3.32311 3.4289L 3.32311 3.9289C 3.59925 3.9289 3.82311 3.70504 3.82311 3.4289L 3.32311 3.4289ZM 0 2.9289C -0.276142 2.9289 -0.5 3.15276 -0.5 3.4289C -0.5 3.70504 -0.276142 3.9289 0 3.9289L 0 2.9289ZM 2.82311 0L 2.82311 3.4289L 3.82311 3.4289L 3.82311 0L 2.82311 0ZM 3.32311 2.9289L 0 2.9289L 0 3.9289L 3.32311 3.9289L 3.32311 2.9289Z"/>
<path id="path16_fill" d="M 2.25 0L 0.75 0C 0.3 0 0 0.3 0 0.75L 0 11.25C 0 11.7 0.3 12 0.75 12L 2.25 12C 2.7 12 3 11.7 3 11.25L 3 0.75C 3 0.3 2.7 0 2.25 0Z"/>
<path id="path17_fill" d="M 2.25 1.33227e-15L 0.75 1.33227e-15C 0.3 1.33227e-15 0 0.3 0 0.75L 0 3.75C 0 4.2 0.3 4.5 0.75 4.5L 2.25 4.5C 2.7 4.5 3 4.2 3 3.75L 3 0.75C 3 0.3 2.7 1.33227e-15 2.25 1.33227e-15Z"/>
<path id="path18_fill" d="M 2.25 6.66134e-16L 0.75 6.66134e-16C 0.3 6.66134e-16 0 0.3 0 0.75L 0 7.5C 0 7.95 0.3 8.25 0.75 8.25L 2.25 8.25C 2.7 8.25 3 7.95 3 7.5L 3 0.75C 3 0.3 2.7 6.66134e-16 2.25 6.66134e-16Z"/>
<path id="path19_fill" d="M 0 1C 0 0.447715 0.447715 0 1 0L 400 0C 400.552 0 401 0.447715 401 1L 401 239C 401 239.552 400.552 240 400 240L 1 240C 0.447715 240 0 239.552 0 239L 0 1Z"/>
<path id="path20_stroke_2x" d="M 1 2L 400 2L 400 -2L 1 -2L 1 2ZM 399 1L 399 239L 403 239L 403 1L 399 1ZM 400 238L 1 238L 1 242L 400 242L 400 238ZM 2 239L 2 1L -2 1L -2 239L 2 239ZM 1 238C 1.55228 238 2 238.448 2 239L -2 239C -2 240.657 -0.656854 242 1 242L 1 238ZM 399 239C 399 238.448 399.448 238 400 238L 400 242C 401.657 242 403 240.657 403 239L 399 239ZM 400 2C 399.448 2 399 1.55228 399 1L 403 1C 403 -0.656854 401.657 -2 400 -2L 400 2ZM 1 -2C -0.656854 -2 -2 -0.656854 -2 1L 2 1C 2 1.55228 1.55228 2 1 2L 1 -2Z"/>
</defs>
</svg>
