<svg width="405" height="244" viewBox="0 0 405 244" version="1.1" xmlns="http://www.w3.org/2000/svg" xmlns:xlink="http://www.w3.org/1999/xlink">
<title>chart - stripe</title>
<desc>Created using Figma</desc>
<g id="Canvas" transform="translate(-16696 -5228)">
<g id="chart - stripe">
<g id="Canvas">
<g id="chart   stripe">
<g id="Rectangle 5.1">
<g id="Vector">
<use xlink:href="#path0_fill" transform="translate(16698 5270)" fill="#FFFFFF"/>
</g>
</g>
<g id="Group 8">
<g id="Group 7.1">
<g id="Jan 17">
<g id="Vector">
<use xlink:href="#path1_fill" transform="translate(16724.9 5433.75)" fill="#9FA9BA"/>
</g>
</g>
<g id="Feb 17">
<g id="Vector">
<use xlink:href="#path2_fill" transform="translate(16787.6 5433.28)" fill="#9FA9BA"/>
</g>
</g>
<g id="Mar 17">
<g id="Vector">
<use xlink:href="#path3_fill" transform="translate(16848.7 5433.75)" fill="#9FA9BA"/>
</g>
</g>
<g id="Apr 17">
<g id="Vector">
<use xlink:href="#path4_fill" transform="translate(16909.1 5433.75)" fill="#9FA9BA"/>
</g>
</g>
<g id="May 17">
<g id="Vector">
<use xlink:href="#path5_fill" transform="translate(16970.9 5437.12)" fill="#9FA9BA"/>
</g>
</g>
<g id="Jun 17">
<g id="Vector">
<use xlink:href="#path6_fill" transform="translate(17031.7 5434.12)" fill="#9FA9BA"/>
</g>
</g>
<g id="Line">
<g id="Vector">
<use xlink:href="#path7_fill" transform="matrix(1 -2.68314e-24 2.66069e-24 1 16721 5422.75)" fill="#000000" fill-opacity="0.16"/>
</g>
</g>
<g id="Graph Preview">
<mask id="mask0_alpha" mask-type="alpha">
<g id="mask0 alpha">
<g id="Rectangle">
<g id="Vector">
<use xlink:href="#path8_fill" transform="translate(16724 5288.5)" fill="#FFFFFF"/>
</g>
</g>
</g>
</mask>
<g id="Gradient" mask="url(#mask0_alpha)">
<g id="Vector">
<use xlink:href="#path9_fill" transform="translate(16724 5276.3)" fill="url(#paint9_linear)"/>
</g>
</g>
<g id="Ouline Graph" mask="url(#mask0_alpha)">
<g id="Vector">
<use xlink:href="#path10_fill" transform="translate(16722.6 5273.87)" fill="url(#paint10_linear)"/>
</g>
</g>
</g>
</g>
</g>
<g id="Rectangle 5 Copy 2.1">
<g id="Vector">
<use xlink:href="#path11_fill" transform="translate(16697 5229.5)" fill="url(#paint11_linear)"/>
</g>
</g>
<g id="Navbar title">
<g id="data importer">
<g id="Vector">
<use xlink:href="#path12_fill" transform="translate(16705.6 5245)" fill="#FFFFFF"/>
</g>
</g>
</g>
<g id="Navbar title">
<g id="ic more vert 18px">
<g id="Shape">
<g id="Vector">
<use xlink:href="#path13_fill" transform="translate(17083 5244)" fill="#FFFFFF"/>
</g>
</g>
</g>
<g id="btn">
<g id="Group">
<g id="refresh 01">
<g id="Group">
<g id="Vector">
<g id="Vector">
<use xlink:href="#path14_fill" transform="translate(17048.5 5244.36)" fill="#FFFFFF"/>
</g>
</g>
<g id="Vector">
<g id="Vector">
<use xlink:href="#path15_fill" transform="translate(17055.1 5243.5)" fill="#FFFFFF"/>
</g>
</g>
</g>
</g>
<g id="chart bar 32">
<g id="Group">
<g id="Vector">
<g id="Vector">
<use xlink:href="#path16_fill" transform="translate(17020.5 5244)" fill="#FFFFFF"/>
</g>
</g>
<g id="Vector">
<g id="Vector">
<use xlink:href="#path17_fill" transform="translate(17016 5251.5)" fill="#FFFFFF"/>
</g>
</g>
<g id="Vector">
<g id="Vector">
<use xlink:href="#path18_fill" transform="translate(17025 5247.75)" fill="#FFFFFF"/>
</g>
</g>
</g>
</g>
</g>
</g>
</g>
<g id="Rectangle 2.1">
<g id="Group">
<g id="Vector">
<use xlink:href="#path19_fill" transform="translate(16696 5228)" fill="#6974DE"/>
</g>
</g>
</g>
</g>
</g>
</g>
</g>
<defs>
<linearGradient id="paint9_linear" x1="0" y1="0" x2="1" y2="0" gradientUnits="userSpaceOnUse" gradientTransform="matrix(0 105.048 -593.986 0 650.838 41.4605)">
<stop offset="0" stop-color="#6974DE" stop-opacity="0.1463"/>
<stop offset="1" stop-color="#FFFFFF" stop-opacity="0.02"/>
</linearGradient>
<linearGradient id="paint10_linear" x1="0" y1="0" x2="1" y2="0" gradientUnits="userSpaceOnUse" gradientTransform="matrix(-2.24799 131.204 -738.76 -12.6575 1093.94 15.0843)">
<stop offset="0" stop-color="#6974DE"/>
<stop offset="1" stop-color="#96A0FF"/>
</linearGradient>
<linearGradient id="paint11_linear" x1="0" y1="0" x2="1" y2="0" gradientUnits="userSpaceOnUse" gradientTransform="matrix(2.45542e-14 41 -401 2.51053e-15 602.451 0.5)">
<stop offset="0" stop-color="#7F8BF5"/>
<stop offset="1" stop-color="#6974DE"/>
</linearGradient>
<path id="path0_fill" fill-rule="evenodd" d="M 0 0L 402 0L 402 200L 0 200L 0 0Z"/>
<path id="path1_fill" d="M 4.2539 0L 5.38476 0L 5.38476 6.04102C 5.38476 6.85742 5.13867 7.49609 4.64648 7.95705C 4.1582 8.41795 3.50586 8.64845 2.68945 8.64845C 1.84179 8.64845 1.18164 8.43165 0.708983 7.99805C 0.236328 7.56445 -5.79071e-09 6.95703 -5.79071e-09 6.17578L 1.125 6.17578C 1.125 6.66406 1.25781 7.04492 1.52343 7.31836C 1.79297 7.59175 2.18164 7.72855 2.68945 7.72855C 3.15429 7.72855 3.52929 7.58205 3.81445 7.28906C 4.10351 6.99609 4.25 6.58594 4.2539 6.05859L 4.2539 0ZM 11.045 8.53125C 10.9825 8.40625 10.9317 8.18355 10.8926 7.86325C 10.3887 8.38675 9.78715 8.64845 9.08789 8.64845C 8.46289 8.64845 7.94922 8.47265 7.54687 8.12105C 7.14843 7.76565 6.94922 7.31641 6.94922 6.77344C 6.94922 6.11328 7.19922 5.60156 7.69922 5.23828C 8.20312 4.87109 8.91015 4.6875 9.82035 4.6875L 10.875 4.6875L 10.875 4.18945C 10.875 3.81055 10.7618 3.50977 10.5352 3.28711C 10.3086 3.06055 9.97465 2.94727 9.5332 2.94727C 9.14648 2.94727 8.82226 3.04492 8.56054 3.24023C 8.29883 3.43555 8.16797 3.67187 8.16797 3.94922L 7.07812 3.94922C 7.07812 3.63281 7.18945 3.32813 7.41211 3.03516C 7.63867 2.73828 7.94336 2.50391 8.32617 2.33203C 8.71289 2.16016 9.13672 2.07422 9.59765 2.07422C 10.3282 2.07422 10.9004 2.25781 11.3145 2.625C 11.7286 2.98828 11.9434 3.49023 11.959 4.13086L 11.959 7.04883C 11.959 7.63085 12.0333 8.09375 12.1817 8.43745L 12.1817 8.53125L 11.045 8.53125ZM 9.24609 7.70505C 9.58593 7.70505 9.90825 7.61715 10.2129 7.44141C 10.5176 7.26563 10.7383 7.03711 10.875 6.75586L 10.875 5.45508L 10.0254 5.45508C 8.69726 5.45508 8.0332 5.84375 8.0332 6.62109C 8.0332 6.96094 8.14648 7.22656 8.37304 7.41797C 8.59961 7.60935 8.89062 7.70505 9.24609 7.70505ZM 14.6836 2.19141L 14.7188 2.98828C 15.2032 2.37891 15.836 2.07422 16.6172 2.07422C 17.9571 2.07422 18.6329 2.83008 18.6446 4.3418L 18.6446 8.53125L 17.5606 8.53125L 17.5606 4.33594C 17.5567 3.87891 17.4512 3.54102 17.2442 3.32227C 17.0411 3.10352 16.7227 2.99414 16.2891 2.99414C 15.9375 2.99414 15.629 3.08789 15.3633 3.27539C 15.0977 3.46289 14.8907 3.70898 14.7422 4.01367L 14.7422 8.53125L 13.6583 8.53125L 13.6583 2.19141L 14.6836 2.19141Z"/>
<path id="path2_fill" d="M 4.70508 5.23242L 1.125 5.23242L 1.125 9L 1.73721e-08 9L 1.73721e-08 0.46875L 5.28516 0.46875L 5.28516 1.39453L 1.125 1.39453L 1.125 4.3125L 4.70508 4.3125L 4.70508 5.23242ZM 8.96485 9.1172C 8.10547 9.1172 7.40625 8.8359 6.86719 8.2734C 6.32813 7.70703 6.0586 6.95117 6.0586 6.00586L 6.0586 5.80664C 6.0586 5.17773 6.17774 4.61719 6.41602 4.125C 6.65821 3.62891 6.99415 3.24219 7.42383 2.96484C 7.85743 2.68359 8.32618 2.54297 8.83008 2.54297C 9.65427 2.54297 10.295 2.81445 10.752 3.35742C 11.209 3.90039 11.4375 4.67773 11.4375 5.68945L 11.4375 6.14062L 7.14258 6.14062C 7.15821 6.76562 7.33985 7.27148 7.6875 7.6582C 8.03907 8.041 8.48438 8.2324 9.02347 8.2324C 9.40627 8.2324 9.73047 8.1543 9.99607 7.99805C 10.2618 7.8418 10.4942 7.63477 10.6934 7.37695L 11.3555 7.89258C 10.8243 8.709 10.0274 9.1172 8.96485 9.1172ZM 8.83008 3.43359C 8.39258 3.43359 8.02539 3.59375 7.72852 3.91406C 7.43165 4.23047 7.24805 4.67578 7.17774 5.25L 10.3536 5.25L 10.3536 5.16797C 10.3223 4.61719 10.1739 4.19141 9.90817 3.89062C 9.64257 3.58594 9.28317 3.43359 8.83008 3.43359ZM 18.0645 5.90039C 18.0645 6.86914 17.8418 7.64844 17.3965 8.2383C 16.9512 8.8242 16.3536 9.1172 15.6036 9.1172C 14.8028 9.1172 14.1836 8.834 13.7461 8.2676L 13.6934 9L 12.6973 9L 12.6973 0L 13.7813 0L 13.7813 3.35742C 14.2188 2.81445 14.8223 2.54297 15.5918 2.54297C 16.3614 2.54297 16.9649 2.83398 17.4024 3.41602C 17.8438 3.99805 18.0645 4.79492 18.0645 5.80664L 18.0645 5.90039ZM 16.9805 5.77734C 16.9805 5.03906 16.8379 4.46875 16.5528 4.06641C 16.2676 3.66406 15.8575 3.46289 15.3223 3.46289C 14.6075 3.46289 14.0938 3.79492 13.7813 4.45898L 13.7813 7.20117C 14.1133 7.86523 14.6309 8.1973 15.334 8.1973C 15.8536 8.1973 16.2578 7.99609 16.5469 7.59375C 16.836 7.19141 16.9805 6.58594 16.9805 5.77734Z"/>
<path id="path3_fill" d="M 1.45313 0L 4.24219 6.96094L 7.03125 0L 8.49024 0L 8.49024 8.53125L 7.36524 8.53125L 7.36524 5.20898L 7.47071 1.62305L 4.66993 8.53125L 3.8086 8.53125L 1.01368 1.64063L 1.125 5.20898L 1.125 8.53125L 1.73721e-08 8.53125L 1.73721e-08 0L 1.45313 0ZM 14.2207 8.53125C 14.1582 8.40625 14.1075 8.18355 14.0684 7.86325C 13.5645 8.38675 12.9629 8.64845 12.2637 8.64845C 11.6387 8.64845 11.125 8.47265 10.7227 8.12105C 10.3243 7.76565 10.125 7.31641 10.125 6.77344C 10.125 6.11328 10.375 5.60156 10.875 5.23828C 11.3789 4.87109 12.086 4.6875 12.9961 4.6875L 14.0508 4.6875L 14.0508 4.18945C 14.0508 3.81055 13.9375 3.50977 13.711 3.28711C 13.4844 3.06055 13.1504 2.94727 12.709 2.94727C 12.3223 2.94727 11.9981 3.04492 11.7364 3.24023C 11.4746 3.43555 11.3438 3.67187 11.3438 3.94922L 10.2539 3.94922C 10.2539 3.63281 10.3653 3.32813 10.5879 3.03516C 10.8145 2.73828 11.1192 2.50391 11.502 2.33203C 11.8887 2.16016 12.3125 2.07422 12.7735 2.07422C 13.5039 2.07422 14.0762 2.25781 14.4903 2.625C 14.9043 2.98828 15.1192 3.49023 15.1348 4.13086L 15.1348 7.04883C 15.1348 7.63085 15.209 8.09375 15.3575 8.43745L 15.3575 8.53125L 14.2207 8.53125ZM 12.4219 7.70505C 12.7618 7.70505 13.084 7.61715 13.3887 7.44141C 13.6934 7.26563 13.9141 7.03711 14.0508 6.75586L 14.0508 5.45508L 13.2012 5.45508C 11.8731 5.45508 11.209 5.84375 11.209 6.62109C 11.209 6.96094 11.3223 7.22656 11.5489 7.41797C 11.7754 7.60935 12.0664 7.70505 12.4219 7.70505ZM 19.8985 3.16406C 19.7344 3.13672 19.5567 3.12305 19.3653 3.12305C 18.6543 3.12305 18.1719 3.42578 17.918 4.03125L 17.918 8.53125L 16.834 8.53125L 16.834 2.19141L 17.8887 2.19141L 17.9063 2.92383C 18.2618 2.35742 18.7657 2.07422 19.418 2.07422C 19.6289 2.07422 19.7891 2.10156 19.8985 2.15625L 19.8985 3.16406Z"/>
<path id="path4_fill" d="M 5.53711 6.30469L 1.96289 6.30469L 1.16016 8.53125L -6.63948e-09 8.53125L 3.25782 0L 4.24219 0L 7.50586 8.53125L 6.35156 8.53125L 5.53711 6.30469ZM 2.30274 5.37891L 5.20313 5.37891L 3.75 1.38867L 2.30274 5.37891ZM 13.8398 5.43164C 13.8398 6.39648 13.6191 7.17383 13.1777 7.76365C 12.7363 8.35355 12.1386 8.64845 11.3847 8.64845C 10.6152 8.64845 10.0097 8.40425 9.56836 7.91605L 9.56836 10.9688L 8.48438 10.9688L 8.48438 2.19141L 9.47461 2.19141L 9.52735 2.89453C 9.96874 2.34766 10.582 2.07422 11.3671 2.07422C 12.1289 2.07422 12.7304 2.36133 13.1718 2.93555C 13.6171 3.50977 13.8398 4.30859 13.8398 5.33203L 13.8398 5.43164ZM 12.7558 5.30859C 12.7558 4.59375 12.6035 4.0293 12.2988 3.61523C 11.9941 3.20117 11.5761 2.99414 11.0449 2.99414C 10.3886 2.99414 9.89644 3.28516 9.56836 3.86719L 9.56836 6.89648C 9.89254 7.47461 10.3886 7.76365 11.0566 7.76365C 11.5761 7.76365 11.9882 7.55855 12.2929 7.14844C 12.6015 6.73437 12.7558 6.12109 12.7558 5.30859ZM 18.2871 3.16406C 18.123 3.13672 17.9453 3.12305 17.7539 3.12305C 17.0429 3.12305 16.5605 3.42578 16.3066 4.03125L 16.3066 8.53125L 15.2226 8.53125L 15.2226 2.19141L 16.2773 2.19141L 16.2949 2.92383C 16.6504 2.35742 17.1543 2.07422 17.8066 2.07422C 18.0175 2.07422 18.1777 2.10156 18.2871 2.15625L 18.2871 3.16406Z"/>
<path id="path5_fill" d="M 1.45313 0L 4.24219 6.96095L 7.03125 0L 8.49024 0L 8.49024 8.53125L 7.36524 8.53125L 7.36524 5.20895L 7.47071 1.62305L 4.66993 8.53125L 3.8086 8.53125L 1.01368 1.64063L 1.125 5.20895L 1.125 8.53125L 1.73721e-08 8.53125L 1.73721e-08 0L 1.45313 0ZM 14.2207 8.53125C 14.1582 8.40625 14.1075 8.18355 14.0684 7.86325C 13.5645 8.38675 12.9629 8.64845 12.2637 8.64845C 11.6387 8.64845 11.125 8.47265 10.7227 8.12105C 10.3243 7.76565 10.125 7.31645 10.125 6.77345C 10.125 6.11325 10.375 5.60155 10.875 5.23825C 11.3789 4.87105 12.086 4.68745 12.9961 4.68745L 14.0508 4.68745L 14.0508 4.18945C 14.0508 3.81055 13.9375 3.50977 13.711 3.28711C 13.4844 3.06055 13.1504 2.94727 12.709 2.94727C 12.3223 2.94727 11.9981 3.04492 11.7364 3.24023C 11.4746 3.43555 11.3438 3.67187 11.3438 3.94922L 10.2539 3.94922C 10.2539 3.63281 10.3653 3.32813 10.5879 3.03516C 10.8145 2.73828 11.1192 2.50391 11.502 2.33203C 11.8887 2.16016 12.3125 2.07422 12.7735 2.07422C 13.5039 2.07422 14.0762 2.25781 14.4903 2.625C 14.9043 2.98828 15.1192 3.49023 15.1348 4.13086L 15.1348 7.04885C 15.1348 7.63085 15.209 8.09375 15.3575 8.43745L 15.3575 8.53125L 14.2207 8.53125ZM 12.4219 7.70505C 12.7618 7.70505 13.084 7.61715 13.3887 7.44145C 13.6934 7.26565 13.9141 7.03715 14.0508 6.75585L 14.0508 5.45505L 13.2012 5.45505C 11.8731 5.45505 11.209 5.84375 11.209 6.62105C 11.209 6.96095 11.3223 7.22655 11.5489 7.41795C 11.7754 7.60935 12.0664 7.70505 12.4219 7.70505ZM 18.8145 6.94335L 20.291 2.19141L 21.4512 2.19141L 18.9024 9.50975C 18.5078 10.5645 17.8809 11.0917 17.0215 11.0917L 16.8164 11.0742L 16.4121 10.9981L 16.4121 10.1192L 16.7051 10.1426C 17.0723 10.1426 17.3575 10.0683 17.5606 9.91995C 17.7676 9.77145 17.9375 9.50005 18.0703 9.10545L 18.3106 8.46095L 16.0489 2.19141L 17.2325 2.19141L 18.8145 6.94335Z"/>
<path id="path6_fill" d="M 4.2539 0L 5.38476 0L 5.38476 6.04102C 5.38476 6.85742 5.13867 7.49609 4.64648 7.95705C 4.1582 8.41795 3.50586 8.64845 2.68945 8.64845C 1.84179 8.64845 1.18164 8.43165 0.708983 7.99805C 0.236328 7.56445 -5.79071e-09 6.95703 -5.79071e-09 6.17578L 1.125 6.17578C 1.125 6.66406 1.25781 7.04492 1.52343 7.31836C 1.79297 7.59175 2.18164 7.72855 2.68945 7.72855C 3.15429 7.72855 3.52929 7.58205 3.81445 7.28906C 4.10351 6.99609 4.25 6.58594 4.2539 6.05859L 4.2539 0ZM 11.045 7.90425C 10.6231 8.40035 10.004 8.64845 9.1875 8.64845C 8.51172 8.64845 7.99609 8.45315 7.64062 8.06245C 7.28906 7.66795 7.11133 7.08594 7.10742 6.31641L 7.10742 2.19141L 8.1914 2.19141L 8.1914 6.28711C 8.1914 7.24805 8.58203 7.72855 9.36328 7.72855C 10.1915 7.72855 10.7422 7.41992 11.0157 6.80273L 11.0157 2.19141L 12.0997 2.19141L 12.0997 8.53125L 11.0684 8.53125L 11.045 7.90425ZM 14.7774 2.19141L 14.8125 2.98828C 15.2969 2.37891 15.9297 2.07422 16.711 2.07422C 18.0508 2.07422 18.7266 2.83008 18.7383 4.3418L 18.7383 8.53125L 17.6543 8.53125L 17.6543 4.33594C 17.6504 3.87891 17.545 3.54102 17.3379 3.32227C 17.1348 3.10352 16.8165 2.99414 16.3829 2.99414C 16.0313 2.99414 15.7227 3.08789 15.4571 3.27539C 15.1915 3.46289 14.9844 3.70898 14.836 4.01367L 14.836 8.53125L 13.752 8.53125L 13.752 2.19141L 14.7774 2.19141Z"/>
<path id="path7_fill" d="M 2.22836e-32 1L 345.647 1L 345.647 0L 8.33176e-25 0L 2.22836e-32 1Z"/>
<path id="path8_fill" d="M 0 0L 348 0L 348 130L 0 130L 0 0Z"/>
<path id="path9_fill" fill-rule="evenodd" d="M 0 125.156L 4.47934 111.464L 20.1832 110.875L 31.1602 105.74L 42.6362 105.457L 50.999 97.9056L 58.3544 78.2729L 63.0695 71.2483L 75.6626 85.9006L 85.9043 88.1302L 93.3981 83.8765L 102.44 65.1258L 128.365 103.144L 139.039 86.7694L 151.277 94.9885L 157.873 82.4572L 159.16 76.4451L 169.093 70.3052L 174.224 61.9615L 179.894 73.6165L 178.956 81.2693L 184.186 82.4012L 188.245 78.9946L 198.587 25.0618L 208.697 95.7846L 217.478 85.7034L 217.478 79.9461L 224.983 73.9966L 228.498 69.4364L 234.965 62.578L 250.339 69.7296L 257.993 73.6165L 264.172 71.1004L 274.948 82.4096L 290.623 60.1822L 295.209 72.3033L 305.038 80.6887L 314.566 78.003L 319.016 72.3017L 326.14 69.7262L 327.037 64.831L 335.166 52.7951L 347.1 56.2134L 353.522 47.4679L 367.104 115.692L 378.771 101.659L 394.145 100.677L 412.568 110.637L 419.726 71.7854L 428.704 73.9724L 432.93 69.4063L 435.31 70.8649L 439.777 70.4196L 442.329 72.3844L 449.419 73.6658L 449.546 78.0131L 458.021 80.7689L 468.611 80.1591L 469.167 72.8823L 471.832 44.2911L 479.784 44.7839L 489.09 51.344L 512.373 37.9289L 522.412 24.1763L 526.877 28.5311L 528.564 32.8499L 536.746 37.7986L 550.647 28.6397L 576.039 0L 583.411 10.6735L 604.245 28.105L 612.093 20.423L 620.625 16.8568L 635.176 22.199L 644.355 17.0456L 660.262 24.0034L 667.703 10.2675L 682.163 10.64L 684.756 13.8194L 707.69 6.18343L 707.69 125.156L 58.5766 125.156L 0 125.156Z"/>
<path id="path10_fill" d="M 5.95603 113.891L 5.8999 112.392L 4.84721 112.431L 4.52701 113.435L 5.95603 113.891ZM 21.6599 113.302L 21.7161 114.801L 22.0201 114.79L 22.2956 114.661L 21.6599 113.302ZM 32.6369 108.167L 32.6 106.667L 32.2859 106.675L 32.0012 106.808L 32.6369 108.167ZM 44.1128 107.884L 44.1497 109.384L 44.7055 109.37L 45.1181 108.998L 44.1128 107.884ZM 52.4757 100.332L 53.481 101.446L 53.7521 101.201L 53.8803 100.859L 52.4757 100.332ZM 59.8311 80.6996L 58.5936 79.8518L 58.4905 80.0024L 58.4264 80.1733L 59.8311 80.6996ZM 64.6438 73.675L 65.7851 72.7017L 64.5137 71.2108L 63.4063 72.8272L 64.6438 73.675ZM 77.1393 88.3273L 75.9979 89.3006L 76.3261 89.6854L 76.8202 89.793L 77.1393 88.3273ZM 87.3809 90.5569L 87.0619 92.0225L 87.6225 92.1446L 88.1214 91.8614L 87.3809 90.5569ZM 94.8748 86.3032L 95.6153 87.6077L 96.0312 87.3716L 96.2337 86.9384L 94.8748 86.3032ZM 103.778 67.2577L 105.018 66.414L 103.535 64.2344L 102.419 66.6225L 103.778 67.2577ZM 129.842 105.571L 128.602 106.415L 129.869 108.277L 131.099 106.39L 129.842 105.571ZM 140.516 89.1961L 141.352 87.9509L 140.09 87.1029L 139.259 88.377L 140.516 89.1961ZM 152.753 97.4152L 151.917 98.6604L 153.303 99.5913L 154.081 98.1139L 152.753 97.4152ZM 159.35 84.8839L 160.677 85.5826L 160.773 85.3998L 160.816 85.1978L 159.35 84.8839ZM 160.636 78.8718L 159.848 77.5958L 159.304 77.9322L 159.17 78.5579L 160.636 78.8718ZM 170.57 72.7319L 171.359 74.0078L 171.661 73.8207L 171.848 73.5175L 170.57 72.7319ZM 175.701 64.3882L 177.049 63.732L 175.854 61.2749L 174.423 63.6025L 175.701 64.3882ZM 181.37 76.0432L 182.859 76.2258L 182.913 75.7857L 182.719 75.387L 181.37 76.0432ZM 180.432 83.696L 178.943 83.5135L 178.777 84.8725L 180.115 85.1621L 180.432 83.696ZM 185.663 84.8279L 185.346 86.294L 186.064 86.4495L 186.627 85.9768L 185.663 84.8279ZM 189.721 81.4213L 190.686 82.5702L 191.094 82.2274L 191.195 81.7038L 189.721 81.4213ZM 200.063 27.4885L 201.548 27.2762L 198.59 27.206L 200.063 27.4885ZM 210.174 98.2113L 208.689 98.4236L 209.153 101.668L 211.305 99.1965L 210.174 98.2113ZM 218.954 88.1301L 220.085 89.1153L 220.454 88.6918L 220.454 88.1301L 218.954 88.1301ZM 218.954 82.3728L 218.023 81.1973L 217.454 81.6477L 217.454 82.3728L 218.954 82.3728ZM 226.46 76.4233L 227.392 77.5988L 227.536 77.4846L 227.648 77.3389L 226.46 76.4233ZM 229.974 71.8631L 228.883 70.834L 228.832 70.8883L 228.786 70.9475L 229.974 71.8631ZM 236.442 65.0047L 237.074 63.6447L 236.093 63.1882L 235.35 63.9756L 236.442 65.0047ZM 251.816 72.1563L 252.495 70.8189L 252.472 70.8071L 252.449 70.7962L 251.816 72.1563ZM 259.47 76.0432L 258.791 77.3807L 259.401 77.6908L 260.036 77.4325L 259.47 76.0432ZM 265.648 73.5271L 266.734 72.4923L 266.029 71.7524L 265.082 72.1379L 265.648 73.5271ZM 276.425 84.8363L 275.339 85.8711L 276.598 87.1929L 277.651 85.7008L 276.425 84.8363ZM 292.1 62.6089L 293.503 62.0781L 292.503 59.4349L 290.874 61.7444L 292.1 62.6089ZM 296.686 74.73L 295.283 75.2609L 295.419 75.6212L 295.712 75.8712L 296.686 74.73ZM 306.515 83.1154L 305.541 84.2566L 306.151 84.7765L 306.922 84.5592L 306.515 83.1154ZM 316.043 80.4297L 316.449 81.8735L 316.923 81.7401L 317.225 81.3527L 316.043 80.4297ZM 320.493 74.7284L 319.983 73.3177L 319.576 73.4647L 319.31 73.8055L 320.493 74.7284ZM 327.616 72.1529L 328.126 73.5636L 328.936 73.2707L 329.092 72.4235L 327.616 72.1529ZM 328.514 67.2577L 327.271 66.4182L 327.095 66.6783L 327.039 66.9872L 328.514 67.2577ZM 336.643 55.2218L 337.056 53.7798L 336.009 53.4799L 335.4 54.3822L 336.643 55.2218ZM 348.577 58.6401L 348.164 60.0821L 349.168 60.3697L 349.786 59.5279L 348.577 58.6401ZM 354.999 49.8946L 356.47 49.6018L 355.805 46.2623L 353.79 49.0068L 354.999 49.8946ZM 368.581 118.119L 367.11 118.412L 367.724 121.496L 369.734 119.078L 368.581 118.119ZM 380.248 104.086L 380.152 102.589L 379.507 102.63L 379.094 103.127L 380.248 104.086ZM 395.622 103.104L 396.335 101.785L 395.956 101.58L 395.526 101.607L 395.622 103.104ZM 414.045 113.064L 413.332 114.384L 415.147 115.365L 415.52 113.336L 414.045 113.064ZM 421.202 74.2121L 421.557 72.7547L 420.015 72.379L 419.727 73.9404L 421.202 74.2121ZM 430.181 76.3991L 429.826 77.8565L 430.683 78.0652L 431.282 77.4179L 430.181 76.3991ZM 434.407 71.833L 435.191 70.554L 434.142 69.9112L 433.306 70.8142L 434.407 71.833ZM 436.787 73.2916L 436.003 74.5705L 436.433 74.8342L 436.936 74.7842L 436.787 73.2916ZM 441.254 72.8463L 442.169 71.6577L 441.697 71.2947L 441.105 71.3537L 441.254 72.8463ZM 443.806 74.8111L 442.891 75.9996L 443.18 76.2223L 443.539 76.2872L 443.806 74.8111ZM 450.896 76.0925L 452.395 76.0489L 452.36 74.8328L 451.163 74.6164L 450.896 76.0925ZM 451.023 80.4398L 449.523 80.4834L 449.554 81.5395L 450.559 81.8662L 451.023 80.4398ZM 459.498 83.1956L 459.034 84.6221L 459.302 84.7094L 459.584 84.6932L 459.498 83.1956ZM 470.088 82.5858L 470.174 84.0833L 471.484 84.0079L 471.584 82.7001L 470.088 82.5858ZM 470.644 75.309L 469.151 75.1698L 469.149 75.1822L 469.149 75.1946L 470.644 75.309ZM 473.308 46.7178L 473.401 45.2206L 471.95 45.1307L 471.815 46.5786L 473.308 46.7178ZM 481.261 47.2106L 482.125 45.9846L 481.778 45.7398L 481.353 45.7135L 481.261 47.2106ZM 490.566 53.7707L 489.702 54.9967L 490.485 55.5487L 491.315 55.0704L 490.566 53.7707ZM 513.85 40.3556L 514.599 41.6553L 514.874 41.4967L 515.062 41.24L 513.85 40.3556ZM 523.889 26.603L 524.936 25.5292L 523.698 24.3209L 522.677 25.7186L 523.889 26.603ZM 528.353 30.9578L 529.75 30.4118L 529.632 30.1101L 529.401 29.884L 528.353 30.9578ZM 530.041 35.2766L 528.644 35.8226L 528.829 36.2966L 529.265 36.5601L 530.041 35.2766ZM 538.223 40.2253L 537.446 41.5088L 538.257 41.999L 539.048 41.4779L 538.223 40.2253ZM 552.124 31.0664L 552.949 32.3189L 553.115 32.2098L 553.246 32.0615L 552.124 31.0664ZM 577.516 2.42674L 578.75 1.57427L 577.663 6.88934e-08L 576.393 1.43164L 577.516 2.42674ZM 584.888 13.1002L 583.654 13.9526L 583.769 14.12L 583.925 14.2506L 584.888 13.1002ZM 605.722 30.5317L 604.76 31.6822L 605.801 32.5535L 606.771 31.6036L 605.722 30.5317ZM 613.569 22.8497L 612.991 21.4657L 612.725 21.5766L 612.52 21.7778L 613.569 22.8497ZM 622.102 19.2835L 622.619 17.8754L 622.066 17.6726L 621.523 17.8996L 622.102 19.2835ZM 636.652 24.6257L 636.135 26.0338L 636.784 26.272L 637.387 25.9337L 636.652 24.6257ZM 645.832 19.4723L 646.433 18.098L 645.749 17.7988L 645.098 18.1643L 645.832 19.4723ZM 661.739 26.4301L 661.137 27.8044L 662.401 28.3569L 663.057 27.1446L 661.739 26.4301ZM 669.18 12.6942L 669.219 11.1947L 668.299 11.171L 667.861 11.9797L 669.18 12.6942ZM 683.64 13.0667L 684.803 12.1188L 684.367 11.585L 683.679 11.5673L 683.64 13.0667ZM 686.233 16.2461L 685.07 17.1941L 685.735 18.0094L 686.728 17.662L 686.233 16.2461ZM 2.85804 128.535L 7.38506 114.347L 4.52701 113.435L -4.71878e-08 127.623L 2.85804 128.535ZM 6.01217 115.39L 21.7161 114.801L 21.6038 111.804L 5.8999 112.392L 6.01217 115.39ZM 22.2956 114.661L 33.2726 109.525L 32.0012 106.808L 21.0242 111.944L 22.2956 114.661ZM 32.6738 109.666L 44.1497 109.384L 44.0759 106.385L 32.6 106.667L 32.6738 109.666ZM 45.1181 108.998L 53.481 101.446L 51.4704 99.219L 43.1075 106.771L 45.1181 108.998ZM 53.8803 100.859L 61.2357 81.2258L 58.4264 80.1733L 51.071 99.8061L 53.8803 100.859ZM 61.0685 81.5474L 65.8812 74.5228L 63.4063 72.8272L 58.5936 79.8518L 61.0685 81.5474ZM 63.5024 74.6483L 75.9979 89.3006L 78.2806 87.354L 65.7851 72.7017L 63.5024 74.6483ZM 76.8202 89.793L 87.0619 92.0225L 87.7 89.0912L 77.4583 86.8616L 76.8202 89.793ZM 88.1214 91.8614L 95.6153 87.6077L 94.1343 84.9987L 86.6405 89.2524L 88.1214 91.8614ZM 96.2337 86.9384L 105.137 67.8929L 102.419 66.6225L 93.5159 85.668L 96.2337 86.9384ZM 102.537 68.1014L 128.602 106.415L 131.082 104.727L 105.018 66.414L 102.537 68.1014ZM 131.099 106.39L 141.773 90.0152L 139.259 88.377L 128.586 104.752L 131.099 106.39ZM 139.68 90.4413L 151.917 98.6604L 153.59 96.17L 141.352 87.9509L 139.68 90.4413ZM 154.081 98.1139L 160.677 85.5826L 158.022 84.1852L 151.426 96.7165L 154.081 98.1139ZM 160.816 85.1978L 162.103 79.1857L 159.17 78.5579L 157.883 84.57L 160.816 85.1978ZM 161.425 80.1477L 171.359 74.0078L 169.781 71.4559L 159.848 77.5958L 161.425 80.1477ZM 171.848 73.5175L 176.978 65.1739L 174.423 63.6025L 169.292 71.9462L 171.848 73.5175ZM 174.352 65.0444L 180.022 76.6994L 182.719 75.387L 177.049 63.732L 174.352 65.0444ZM 179.882 75.8607L 178.943 83.5135L 181.921 83.8785L 182.859 76.2258L 179.882 75.8607ZM 180.115 85.1621L 185.346 86.294L 185.98 83.3619L 180.749 82.2299L 180.115 85.1621ZM 186.627 85.9768L 190.686 82.5702L 188.757 80.2724L 184.699 83.679L 186.627 85.9768ZM 191.195 81.7038L 201.536 27.771L 198.59 27.206L 188.248 81.1388L 191.195 81.7038ZM 198.578 27.7008L 208.689 98.4236L 211.659 97.999L 201.548 27.2762L 198.578 27.7008ZM 211.305 99.1965L 220.085 89.1153L 217.823 87.1449L 209.043 97.2261L 211.305 99.1965ZM 220.454 88.1301L 220.454 82.3728L 217.454 82.3728L 217.454 88.1301L 220.454 88.1301ZM 219.886 83.5483L 227.392 77.5988L 225.528 75.2478L 218.023 81.1973L 219.886 83.5483ZM 227.648 77.3389L 231.162 72.7787L 228.786 70.9475L 225.272 75.5077L 227.648 77.3389ZM 231.066 72.8922L 237.533 66.0338L 235.35 63.9756L 228.883 70.834L 231.066 72.8922ZM 235.809 66.3648L 251.183 73.5163L 252.449 70.7962L 237.074 63.6447L 235.809 66.3648ZM 251.137 73.4937L 258.791 77.3807L 260.149 74.7058L 252.495 70.8189L 251.137 73.4937ZM 260.036 77.4325L 266.214 74.9163L 265.082 72.1379L 258.904 74.654L 260.036 77.4325ZM 264.562 74.5619L 275.339 85.8711L 277.511 83.8015L 266.734 72.4923L 264.562 74.5619ZM 277.651 85.7008L 293.326 63.4734L 290.874 61.7444L 275.199 83.9718L 277.651 85.7008ZM 290.697 63.1397L 295.283 75.2609L 298.089 74.1992L 293.503 62.0781L 290.697 63.1397ZM 295.712 75.8712L 305.541 84.2566L 307.488 81.9743L 297.66 73.5889L 295.712 75.8712ZM 306.922 84.5592L 316.449 81.8735L 315.636 78.986L 306.108 81.6717L 306.922 84.5592ZM 317.225 81.3527L 321.675 75.6513L 319.31 73.8055L 314.86 79.5068L 317.225 81.3527ZM 321.003 76.139L 328.126 73.5636L 327.106 70.7423L 319.983 73.3177L 321.003 76.139ZM 329.092 72.4235L 329.989 67.5283L 327.039 66.9872L 326.141 71.8824L 329.092 72.4235ZM 329.757 68.0972L 337.886 56.0613L 335.4 54.3822L 327.271 66.4182L 329.757 68.0972ZM 336.23 56.6638L 348.164 60.0821L 348.99 57.1981L 337.056 53.7798L 336.23 56.6638ZM 349.786 59.5279L 356.208 50.7825L 353.79 49.0068L 347.368 57.7523L 349.786 59.5279ZM 353.528 50.1875L 367.11 118.412L 370.052 117.826L 356.47 49.6018L 353.528 50.1875ZM 369.734 119.078L 381.401 105.045L 379.094 103.127L 367.427 117.16L 369.734 119.078ZM 380.343 105.583L 395.718 104.601L 395.526 101.607L 380.152 102.589L 380.343 105.583ZM 394.909 104.424L 413.332 114.384L 414.759 111.745L 396.335 101.785L 394.909 104.424ZM 415.52 113.336L 422.678 74.4839L 419.727 73.9404L 412.57 112.793L 415.52 113.336ZM 420.847 75.6695L 429.826 77.8565L 430.536 74.9417L 421.557 72.7547L 420.847 75.6695ZM 431.282 77.4179L 435.508 72.8518L 433.306 70.8142L 429.08 75.3803L 431.282 77.4179ZM 433.623 73.112L 436.003 74.5705L 437.571 72.0126L 435.191 70.554L 433.623 73.112ZM 436.936 74.7842L 441.402 74.3389L 441.105 71.3537L 436.638 71.7989L 436.936 74.7842ZM 440.339 74.0349L 442.891 75.9996L 444.721 73.6225L 442.169 71.6577L 440.339 74.0349ZM 443.539 76.2872L 450.629 77.5686L 451.163 74.6164L 444.072 73.335L 443.539 76.2872ZM 449.397 76.1362L 449.523 80.4834L 452.522 80.3961L 452.395 76.0489L 449.397 76.1362ZM 450.559 81.8662L 459.034 84.6221L 459.962 81.7692L 451.486 79.0133L 450.559 81.8662ZM 459.584 84.6932L 470.174 84.0833L 470.002 81.0883L 459.411 81.6981L 459.584 84.6932ZM 471.584 82.7001L 472.14 75.4233L 469.149 75.1946L 468.592 82.4715L 471.584 82.7001ZM 472.138 75.4481L 474.802 46.8569L 471.815 46.5786L 469.151 75.1698L 472.138 75.4481ZM 473.216 48.2149L 481.168 48.7077L 481.353 45.7135L 473.401 45.2206L 473.216 48.2149ZM 480.396 48.4366L 489.702 54.9967L 491.431 52.5447L 482.125 45.9846L 480.396 48.4366ZM 491.315 55.0704L 514.599 41.6553L 513.101 39.0559L 489.818 52.471L 491.315 55.0704ZM 515.062 41.24L 525.101 27.4874L 522.677 25.7186L 512.639 39.4712L 515.062 41.24ZM 522.842 27.6768L 527.306 32.0315L 529.401 29.884L 524.936 25.5292L 522.842 27.6768ZM 526.956 31.5038L 528.644 35.8226L 531.438 34.7306L 529.75 30.4118L 526.956 31.5038ZM 529.265 36.5601L 537.446 41.5088L 538.999 38.9418L 530.817 33.9931L 529.265 36.5601ZM 539.048 41.4779L 552.949 32.3189L 551.299 29.8138L 537.397 38.9727L 539.048 41.4779ZM 553.246 32.0615L 578.638 3.42184L 576.393 1.43164L 551.002 30.0712L 553.246 32.0615ZM 576.282 3.27921L 583.654 13.9526L 586.122 12.2477L 578.75 1.57427L 576.282 3.27921ZM 583.925 14.2506L 604.76 31.6822L 606.685 29.3813L 585.85 11.9498L 583.925 14.2506ZM 606.771 31.6036L 614.619 23.9216L 612.52 21.7778L 604.673 29.4598L 606.771 31.6036ZM 614.148 24.2337L 622.68 20.6675L 621.523 17.8996L 612.991 21.4657L 614.148 24.2337ZM 621.585 20.6916L 636.135 26.0338L 637.169 23.2176L 622.619 17.8754L 621.585 20.6916ZM 637.387 25.9337L 646.566 20.7803L 645.098 18.1643L 635.918 23.3177L 637.387 25.9337ZM 645.231 20.8466L 661.137 27.8044L 662.34 25.0558L 646.433 18.098L 645.231 20.8466ZM 663.057 27.1446L 670.499 13.4087L 667.861 11.9797L 660.42 25.7156L 663.057 27.1446ZM 669.141 14.1937L 683.601 14.5662L 683.679 11.5673L 669.219 11.1947L 669.141 14.1937ZM 682.478 14.0147L 685.07 17.1941L 687.395 15.2982L 684.803 12.1188L 682.478 14.0147ZM 686.728 17.662L 709.422 9.72196L 708.432 6.89027L 685.737 14.8303L 686.728 17.662Z"/>
<path id="path11_fill" fill-rule="evenodd" d="M 0.000592774 2.04818C -0.02647 0.925072 0.876579 0 2.00001 0L 400.427 0C 401.541 0 402.44 0.910184 402.427 2.02409L 401.951 41.5L 0.951239 41.5L 0.000592774 2.04818Z"/>
<path id="path12_fill" d="M 6.77929 6.22266C 6.69336 7.13281 6.35742 7.84375 5.77148 8.3555C 5.18554 8.8633 4.40625 9.1172 3.43359 9.1172C 2.7539 9.1172 2.15429 8.957 1.63476 8.6367C 1.11914 8.3125 0.720704 7.85352 0.439454 7.25977C 0.158203 6.66602 0.011719 5.97656 1.15814e-08 5.19141L 1.15814e-08 4.39453C 1.15814e-08 3.58984 0.142578 2.88086 0.427734 2.26758C 0.712894 1.6543 1.12109 1.18164 1.65234 0.84961C 2.1875 0.51758 2.80468 0.35156 3.5039 0.35156C 4.44531 0.35156 5.20312 0.60742 5.77734 1.11914C 6.35156 1.63086 6.68554 2.35352 6.77929 3.28711L 5.30273 3.28711C 5.23242 2.67383 5.05273 2.23242 4.76367 1.96289C 4.47851 1.68945 4.05859 1.55273 3.5039 1.55273C 2.85937 1.55273 2.36328 1.78906 2.01562 2.26172C 1.67187 2.73047 1.49609 3.41992 1.48828 4.33008L 1.48828 5.08594C 1.48828 6.00781 1.65234 6.71094 1.98046 7.19531C 2.3125 7.67969 2.79687 7.92188 3.43359 7.92188C 4.01562 7.92188 4.45312 7.79102 4.74609 7.5293C 5.03906 7.26758 5.22461 6.83203 5.30273 6.22266L 6.77929 6.22266ZM 11.8125 8.3789C 11.3945 8.8711 10.8007 9.1172 10.0312 9.1172C 9.34375 9.1172 8.82226 8.916 8.46679 8.5137C 8.11523 8.1113 7.93945 7.5293 7.93945 6.76758L 7.93945 2.66016L 9.36328 2.66016L 9.36328 6.75C 9.36328 7.55469 9.69724 7.95703 10.3652 7.95703C 11.0566 7.95703 11.5234 7.70898 11.7656 7.21289L 11.7656 2.66016L 13.1894 2.66016L 13.1894 9L 11.8476 9L 11.8125 8.3789ZM 17.9589 3.96094C 17.7714 3.92969 17.5781 3.91406 17.3789 3.91406C 16.7265 3.91406 16.2871 4.16406 16.0605 4.66406L 16.0605 9L 14.6367 9L 14.6367 2.66016L 15.9961 2.66016L 16.0312 3.36914C 16.375 2.81836 16.8515 2.54297 17.4609 2.54297C 17.664 2.54297 17.832 2.57031 17.9648 2.625L 17.9589 3.96094ZM 22.1777 3.96094C 21.9902 3.92969 21.7968 3.91406 21.5976 3.91406C 20.9453 3.91406 20.5058 4.16406 20.2793 4.66406L 20.2793 9L 18.8554 9L 18.8554 2.66016L 20.2148 2.66016L 20.25 3.36914C 20.5937 2.81836 21.0703 2.54297 21.6796 2.54297C 21.8828 2.54297 22.0507 2.57031 22.1835 2.625L 22.1777 3.96094ZM 25.7519 9.1172C 24.8496 9.1172 24.1171 8.834 23.5546 8.2676C 22.9961 7.69727 22.7168 6.93945 22.7168 5.99414L 22.7168 5.81836C 22.7168 5.18555 22.8378 4.62109 23.08 4.125C 23.3261 3.625 23.6699 3.23633 24.1113 2.95898C 24.5527 2.68164 25.0449 2.54297 25.5878 2.54297C 26.4511 2.54297 27.1171 2.81836 27.5859 3.36914C 28.0585 3.91992 28.2949 4.69922 28.2949 5.70703L 28.2949 6.28125L 24.1523 6.28125C 24.1953 6.80469 24.3691 7.21875 24.6738 7.52344C 24.9824 7.82812 25.3691 7.98047 25.8339 7.98047C 26.4863 7.98047 27.0175 7.7168 27.4277 7.18945L 28.1953 7.92188C 27.9414 8.3008 27.6015 8.5957 27.1757 8.8066C 26.7539 9.0137 26.2793 9.1172 25.7519 9.1172ZM 25.582 3.68555C 25.1914 3.68555 24.875 3.82227 24.6328 4.0957C 24.3945 4.36914 24.2421 4.75 24.1757 5.23828L 26.8886 5.23828L 26.8886 5.13281C 26.8574 4.65625 26.7304 4.29688 26.5078 4.05469C 26.2851 3.80859 25.9765 3.68555 25.582 3.68555ZM 30.7265 2.66016L 30.7675 3.39258C 31.2363 2.82617 31.8515 2.54297 32.6132 2.54297C 33.9335 2.54297 34.6054 3.29883 34.6289 4.81055L 34.6289 9L 33.205 9L 33.205 4.89258C 33.205 4.49023 33.1171 4.19336 32.9414 4.00195C 32.7695 3.80664 32.4863 3.70898 32.0918 3.70898C 31.5175 3.70898 31.0898 3.96875 30.8085 4.48828L 30.8085 9L 29.3847 9L 29.3847 2.66016L 30.7265 2.66016ZM 37.8691 1.11914L 37.8691 2.66016L 38.9882 2.66016L 38.9882 3.71484L 37.8691 3.71484L 37.8691 7.25391C 37.8691 7.49609 37.916 7.67188 38.0097 7.78125C 38.1074 7.88672 38.2793 7.93945 38.5253 7.93945C 38.6894 7.93945 38.8554 7.91992 39.0234 7.88086L 39.0234 8.9824C 38.6992 9.0723 38.3867 9.1172 38.0859 9.1172C 36.9921 9.1172 36.4453 8.5137 36.4453 7.30664L 36.4453 3.71484L 35.4023 3.71484L 35.4023 2.66016L 36.4453 2.66016L 36.4453 1.11914L 37.8691 1.11914ZM 48.6211 5.89453C 48.6211 6.875 48.3984 7.6582 47.9531 8.2441C 47.5078 8.8262 46.9101 9.1172 46.1601 9.1172C 45.4648 9.1172 44.9082 8.8887 44.4902 8.4316L 44.4902 11.4375L 43.0664 11.4375L 43.0664 2.66016L 44.3789 2.66016L 44.4375 3.30469C 44.8554 2.79688 45.4238 2.54297 46.1425 2.54297C 46.916 2.54297 47.5214 2.83203 47.9589 3.41016C 48.4003 3.98438 48.6211 4.7832 48.6211 5.80664L 48.6211 5.89453ZM 47.2031 5.77148C 47.2031 5.13867 47.0761 4.63672 46.8222 4.26562C 46.5722 3.89453 46.2128 3.70898 45.7441 3.70898C 45.1621 3.70898 44.7441 3.94922 44.4902 4.42969L 44.4902 7.24219C 44.748 7.73438 45.1699 7.98047 45.7558 7.98047C 46.2089 7.98047 46.5625 7.79883 46.8164 7.43555C 47.0742 7.06836 47.2031 6.51367 47.2031 5.77148ZM 52.623 9.1172C 51.7207 9.1172 50.9882 8.834 50.4257 8.2676C 49.8671 7.69727 49.5878 6.93945 49.5878 5.99414L 49.5878 5.81836C 49.5878 5.18555 49.7089 4.62109 49.9511 4.125C 50.1972 3.625 50.541 3.23633 50.9824 2.95898C 51.4238 2.68164 51.916 2.54297 52.4589 2.54297C 53.3222 2.54297 53.9882 2.81836 54.457 3.36914C 54.9296 3.91992 55.166 4.69922 55.166 5.70703L 55.166 6.28125L 51.0234 6.28125C 51.0664 6.80469 51.2402 7.21875 51.5449 7.52344C 51.8535 7.82812 52.2402 7.98047 52.705 7.98047C 53.3574 7.98047 53.8886 7.7168 54.2988 7.18945L 55.0664 7.92188C 54.8125 8.3008 54.4726 8.5957 54.0468 8.8066C 53.625 9.0137 53.1503 9.1172 52.623 9.1172ZM 52.4531 3.68555C 52.0625 3.68555 51.7461 3.82227 51.5039 4.0957C 51.2656 4.36914 51.1132 4.75 51.0468 5.23828L 53.7597 5.23828L 53.7597 5.13281C 53.7285 4.65625 53.6015 4.29688 53.3789 4.05469C 53.1562 3.80859 52.8476 3.68555 52.4531 3.68555ZM 59.5957 3.96094C 59.4082 3.92969 59.2148 3.91406 59.0156 3.91406C 58.3632 3.91406 57.9238 4.16406 57.6972 4.66406L 57.6972 9L 56.2734 9L 56.2734 2.66016L 57.6328 2.66016L 57.6679 3.36914C 58.0117 2.81836 58.4882 2.54297 59.0976 2.54297C 59.3007 2.54297 59.4687 2.57031 59.6015 2.625L 59.5957 3.96094ZM 62.0097 9L 60.5859 9L 60.5859 2.66016L 62.0097 2.66016L 62.0097 9ZM 60.498 1.01367C 60.498 0.79492 60.5664 0.61328 60.7031 0.46875C 60.8437 0.32422 61.0429 0.25195 61.3007 0.25195C 61.5585 0.25195 61.7578 0.32422 61.8984 0.46875C 62.039 0.61328 62.1093 0.79492 62.1093 1.01367C 62.1093 1.22852 62.039 1.4082 61.8984 1.55273C 61.7578 1.69336 61.5585 1.76367 61.3007 1.76367C 61.0429 1.76367 60.8437 1.69336 60.7031 1.55273C 60.5664 1.4082 60.498 1.22852 60.498 1.01367ZM 63.2988 5.77148C 63.2988 5.15039 63.4218 4.5918 63.6679 4.0957C 63.914 3.5957 64.2597 3.21289 64.705 2.94727C 65.1503 2.67773 65.6621 2.54297 66.2402 2.54297C 67.0957 2.54297 67.789 2.81836 68.3203 3.36914C 68.8554 3.91992 69.1445 4.65039 69.1875 5.56055L 69.1933 5.89453C 69.1933 6.51953 69.0722 7.07812 68.83 7.57031C 68.5918 8.0625 68.248 8.4434 67.7988 8.7129C 67.3535 8.9824 66.8378 9.1172 66.2519 9.1172C 65.3574 9.1172 64.6406 8.8203 64.1015 8.2266C 63.5664 7.62891 63.2988 6.83398 63.2988 5.8418L 63.2988 5.77148ZM 64.7226 5.89453C 64.7226 6.54688 64.8574 7.05859 65.1269 7.42969C 65.3964 7.79688 65.7714 7.98047 66.2519 7.98047C 66.7324 7.98047 67.1054 7.79297 67.3711 7.41797C 67.6406 7.04297 67.7753 6.49414 67.7753 5.77148C 67.7753 5.13086 67.6367 4.62305 67.3593 4.24805C 67.0859 3.87305 66.7128 3.68555 66.2402 3.68555C 65.7753 3.68555 65.4062 3.87109 65.1328 4.24219C 64.8593 4.60938 64.7226 5.16016 64.7226 5.89453ZM 70.1308 5.7832C 70.1308 4.80664 70.3574 4.02344 70.8105 3.43359C 71.2636 2.83984 71.8711 2.54297 72.6328 2.54297C 73.3046 2.54297 73.8476 2.77734 74.2617 3.24609L 74.2617 0L 75.6855 0L 75.6855 9L 74.3964 9L 74.3261 8.3438C 73.9003 8.8594 73.332 9.1172 72.6211 9.1172C 71.8789 9.1172 71.2773 8.8184 70.8164 8.2207C 70.3593 7.62305 70.1308 6.81055 70.1308 5.7832ZM 71.5546 5.90625C 71.5546 6.55078 71.6777 7.05469 71.9238 7.41797C 72.1738 7.77734 72.5273 7.95703 72.9843 7.95703C 73.5664 7.95703 73.9921 7.69727 74.2617 7.17773L 74.2617 4.4707C 74 3.96289 73.5781 3.70898 72.9961 3.70898C 72.5351 3.70898 72.1796 3.89258 71.9296 4.25977C 71.6796 4.62305 71.5546 5.17188 71.5546 5.90625ZM 80.7246 7.27734C 80.7246 7.02344 80.6191 6.83008 80.4082 6.69727C 80.2011 6.56445 79.8554 6.44727 79.3711 6.3457C 78.8867 6.24414 78.4824 6.11523 78.1582 5.95898C 77.4472 5.61523 77.0918 5.11719 77.0918 4.46484C 77.0918 3.91797 77.3222 3.46094 77.7832 3.09375C 78.2441 2.72656 78.83 2.54297 79.541 2.54297C 80.2988 2.54297 80.9101 2.73047 81.375 3.10547C 81.8437 3.48047 82.0781 3.9668 82.0781 4.56445L 80.6543 4.56445C 80.6543 4.29102 80.5527 4.06445 80.3496 3.88477C 80.1464 3.70117 79.8769 3.60938 79.541 3.60938C 79.2285 3.60938 78.9726 3.68164 78.7734 3.82617C 78.5781 3.9707 78.4804 4.16406 78.4804 4.40625C 78.4804 4.625 78.5722 4.79492 78.7558 4.91602C 78.9394 5.03711 79.3105 5.16016 79.8691 5.28516C 80.4277 5.40625 80.8652 5.55273 81.1816 5.72461C 81.5019 5.89258 81.7382 6.0957 81.8906 6.33398C 82.0468 6.57227 82.125 6.86133 82.125 7.20117C 82.125 7.77148 81.8886 8.2344 81.416 8.5898C 80.9433 8.9414 80.3242 9.1172 79.5585 9.1172C 79.039 9.1172 78.5761 9.0234 78.1699 8.8359C 77.7636 8.6484 77.4472 8.3906 77.2207 8.0625C 76.9941 7.73438 76.8808 7.38086 76.8808 7.00195L 78.2636 7.00195C 78.2832 7.33789 78.4101 7.59766 78.6445 7.78125C 78.8789 7.96094 79.1894 8.0508 79.5761 8.0508C 79.9511 8.0508 80.2363 7.98047 80.4316 7.83984C 80.6269 7.69531 80.7246 7.50781 80.7246 7.27734Z"/>
<path id="path13_fill" fill-rule="evenodd" d="M 1.38477 2.76929C 2.15039 2.76929 2.76953 2.15088 2.76953 1.38452C 2.76953 0.618408 2.15039 0 1.38477 0C 0.618164 0 0 0.618408 0 1.38452C 0 2.15088 0.618164 2.76929 1.38477 2.76929ZM 1.38477 4.61548C 0.618164 4.61548 0 5.23389 0 6C 0 6.76636 0.618164 7.38477 1.38477 7.38477C 2.15039 7.38477 2.76953 6.76636 2.76953 6C 2.76953 5.23389 2.15039 4.61548 1.38477 4.61548ZM 0 10.6155C 0 9.84937 0.618164 9.23096 1.38477 9.23096C 2.15039 9.23096 2.76953 9.84937 2.76953 10.6155C 2.76953 11.3818 2.15039 12.0002 1.38477 12.0002C 0.618164 12.0002 0 11.3818 0 10.6155Z"/>
<path id="path14_fill" d="M 11.8001 6.07309C 11.8002 5.79695 11.5763 5.57305 11.3002 5.573C 11.0241 5.57295 10.8002 5.79677 10.8001 6.07291L 11.8001 6.07309ZM 3.66738 0.998557L 3.87952 1.45132L 3.66738 0.998557ZM 10.0259 3.33588C 10.1712 3.57068 10.4794 3.6432 10.7142 3.49786C 10.949 3.35252 11.0215 3.04436 10.8762 2.80956L 10.0259 3.33588ZM 10.8001 6.07291C 10.7999 7.29797 10.3714 8.4796 9.59659 9.40125L 10.362 10.0447C 11.2905 8.94033 11.7998 7.53007 11.8001 6.07309L 10.8001 6.07291ZM 9.59659 9.40125C 8.82213 10.3225 7.75443 10.9217 6.59112 11.0932L 6.73701 12.0825C 8.14683 11.8746 9.43334 11.1495 10.362 10.0447L 9.59659 9.40125ZM 6.59112 11.0932C 5.42798 11.2648 4.24267 10.9981 3.25207 10.3395L 2.69843 11.1722C 3.89285 11.9663 5.327 12.2905 6.73701 12.0825L 6.59112 11.0932ZM 3.25207 10.3395C 2.26104 9.68062 1.53008 8.67256 1.19758 7.49761L 0.235363 7.7699C 0.631428 9.16947 1.50445 10.3785 2.69843 11.1722L 3.25207 10.3395ZM 1.19758 7.49761C 0.865017 6.32245 0.954554 5.06289 1.44896 3.95122L 0.535242 3.54486C -0.0544567 4.87081 -0.160646 6.37054 0.235363 7.7699L 1.19758 7.49761ZM 1.44896 3.95122C 1.94323 2.83983 2.80756 1.95358 3.87952 1.45132L 3.45524 0.545792C 2.16048 1.15244 1.12507 2.21862 0.535242 3.54486L 1.44896 3.95122ZM 3.87952 1.45132C 4.95106 0.949263 6.16084 0.863106 7.28808 1.20777L 7.58048 0.251471C 6.21554 -0.165867 4.75041 -0.0610498 3.45524 0.545792L 3.87952 1.45132ZM 7.28808 1.20777C 8.41566 1.55253 9.38877 2.30656 10.0259 3.33588L 10.8762 2.80956C 10.1142 1.57854 8.94508 0.668707 7.58048 0.251471L 7.28808 1.20777Z"/>
<path id="path15_fill" d="M 4.32311 0.5C 4.32311 0.223858 4.09925 0 3.82311 0C 3.54697 0 3.32311 0.223858 3.32311 0.5L 4.32311 0.5ZM 3.82311 3.9289L 3.82311 4.4289C 4.09925 4.4289 4.32311 4.20504 4.32311 3.9289L 3.82311 3.9289ZM 0.5 3.4289C 0.223858 3.4289 0 3.65276 0 3.9289C 0 4.20504 0.223858 4.4289 0.5 4.4289L 0.5 3.4289ZM 3.32311 0.5L 3.32311 3.9289L 4.32311 3.9289L 4.32311 0.5L 3.32311 0.5ZM 3.82311 3.4289L 0.5 3.4289L 0.5 4.4289L 3.82311 4.4289L 3.82311 3.4289Z"/>
<path id="path16_fill" d="M 2.25 0L 0.75 0C 0.3 0 0 0.3 0 0.75L 0 11.25C 0 11.7 0.3 12 0.75 12L 2.25 12C 2.7 12 3 11.7 3 11.25L 3 0.75C 3 0.3 2.7 0 2.25 0Z"/>
<path id="path17_fill" d="M 2.25 -4.11092e-23L 0.75 -4.11092e-23C 0.3 -4.11092e-23 0 0.3 0 0.75L 0 3.75C 0 4.2 0.3 4.5 0.75 4.5L 2.25 4.5C 2.7 4.5 3 4.2 3 3.75L 3 0.75C 3 0.3 2.7 -4.11092e-23 2.25 -4.11092e-23Z"/>
<path id="path18_fill" d="M 2.25 -2.64062e-23L 0.75 -2.64062e-23C 0.3 -2.64062e-23 0 0.3 0 0.75L 0 7.5C 0 7.95 0.3 8.25 0.75 8.25L 2.25 8.25C 2.7 8.25 3 7.95 3 7.5L 3 0.75C 3 0.3 2.7 -2.64062e-23 2.25 -2.64062e-23Z"/>
<path id="path19_fill" d="M 3 4L 402 4L 402 0L 3 0L 3 4ZM 401 3L 401 241L 405 241L 405 3L 401 3ZM 402 240L 3 240L 3 244L 402 244L 402 240ZM 4 241L 4 3L 0 3L 0 241L 4 241ZM 3 240C 3.55228 240 4 240.448 4 241L 0 241C 0 242.657 1.34315 244 3 244L 3 240ZM 401 241C 401 240.448 401.448 240 402 240L 402 244C 403.657 244 405 242.657 405 241L 401 241ZM 402 4C 401.448 4 401 3.55228 401 3L 405 3C 405 1.34315 403.657 0 402 0L 402 4ZM 3 0C 1.34315 0 0 1.34315 0 3L 4 3C 4 3.55228 3.55228 4 3 4L 3 0Z"/>
</defs>
</svg>
