<svg width="405" height="245" viewBox="0 0 405 245" version="1.1" xmlns="http://www.w3.org/2000/svg" xmlns:xlink="http://www.w3.org/1999/xlink">
<title>Table - r</title>
<desc>Created using Figma</desc>
<g id="Canvas" transform="translate(-15463 -4303)">
<g id="Table - r">
<g id="Rectangle 5.1">
<use xlink:href="#path0_fill" transform="translate(15465 4345.5)" fill="#FFFFFF"/>
</g>
<g id="Group 8">
<g id="Group 7.1">
<g id="Jan 17">
<use xlink:href="#path1_fill" transform="translate(15491.6 4506.78)" fill="#9FA9BA"/>
</g>
<g id="Feb 17">
<use xlink:href="#path2_fill" transform="translate(15553.6 4506.78)" fill="#9FA9BA"/>
</g>
<g id="Mar 17">
<use xlink:href="#path3_fill" transform="translate(15614.7 4506.78)" fill="#9FA9BA"/>
</g>
<g id="Apr 17">
<use xlink:href="#path4_fill" transform="translate(15675.9 4506.78)" fill="#9FA9BA"/>
</g>
<g id="May 17">
<use xlink:href="#path5_fill" transform="translate(15736.9 4507.15)" fill="#9FA9BA"/>
</g>
<g id="Jun 17">
<use xlink:href="#path6_fill" transform="translate(15798.4 4507.15)" fill="#9FA9BA"/>
</g>
<g id="Line">
<use xlink:href="#path7_stroke" transform="matrix(1 -2.68314e-24 2.66069e-24 1 15488 4498.75)" fill="#000000" fill-opacity="0.16"/>
</g>
</g>
<g id="Vector">
<use xlink:href="#path8_stroke" transform="translate(15491.8 4384)" fill="url(#paint8_linear)"/>
</g>
</g>
<g id="Rectangle 5 Copy 2.1">
<use xlink:href="#path9_fill" transform="translate(15464 4305)" fill="url(#paint9_linear)"/>
</g>
<g id="Navbar title">
<g id="data-importer">
<use xlink:href="#path10_fill" transform="translate(15472 4318.5)" fill="#FFFFFF"/>
</g>
</g>
<g id="Navbar title">
<g id="ic_more_vert_18px">
<g id="Shape">
<use xlink:href="#path11_fill" transform="translate(15850 4319.5)" fill="#FFFFFF"/>
</g>
</g>
<g id="btn">
<g id="Group">
<g id="refresh-01">
<g id="Group">
<g id="Vector">
<use xlink:href="#path12_stroke" transform="translate(15816 4320.36)" fill="#FFFFFF"/>
</g>
<g id="Vector">
<use xlink:href="#path13_stroke" transform="translate(15822.6 4319.5)" fill="#FFFFFF"/>
</g>
</g>
</g>
<g id="chart-bar-32">
<g id="Group">
<g id="Vector">
<use xlink:href="#path14_fill" transform="translate(15787.5 4319.5)" fill="#FFFFFF"/>
</g>
<g id="Vector">
<use xlink:href="#path15_fill" transform="translate(15783 4327)" fill="#FFFFFF"/>
</g>
<g id="Vector">
<use xlink:href="#path16_fill" transform="translate(15792 4323.25)" fill="#FFFFFF"/>
</g>
</g>
</g>
</g>
</g>
</g>
<g id="Rectangle 2.1">
<mask id="mask0_outline_out">
<rect id="mask0_outline_inv" fill="white" x="-2" y="-2" width="405" height="244" transform="translate(15465 4305.5)"/>
<use xlink:href="#path17_fill" fill="black" transform="translate(15465 4305.5)"/>
</mask>
<g mask="url(#mask0_outline_out)">
<use xlink:href="#path18_stroke_2x" transform="translate(15465 4305.5)" fill="#2167BB"/>
</g>
</g>
</g>
</g>
<defs>
<linearGradient id="paint8_linear" x1="0" y1="0" x2="1" y2="0" gradientUnits="userSpaceOnUse" gradientTransform="matrix(-347.52 80.0488 -381.843 -435.321 538.442 235.73)">
<stop offset="0" stop-color="#4EDCBC"/>
<stop offset="1" stop-color="#57A3FF"/>
</linearGradient>
<linearGradient id="paint9_linear" x1="0" y1="0" x2="1" y2="0" gradientUnits="userSpaceOnUse" gradientTransform="matrix(2.45542e-14 41 -401 2.51053e-15 402 0.5)">
<stop offset="0" stop-color="#408FED"/>
<stop offset="1" stop-color="#2167BB"/>
</linearGradient>
<path id="path0_fill" fill-rule="evenodd" d="M 0 0L 402 0L 402 200L 0 200L 0 0Z"/>
<path id="path1_fill" d="M 4.56445 2.46875L 5.69531 2.46875L 5.69531 8.50977C 5.69531 9.32617 5.44922 9.96484 4.95703 10.4258C 4.46875 10.8867 3.81641 11.1172 3 11.1172C 2.15234 11.1172 1.49219 10.9004 1.01953 10.4668C 0.546875 10.0332 0.310547 9.42578 0.310547 8.64453L 1.43555 8.64453C 1.43555 9.13281 1.56836 9.51367 1.83398 9.78711C 2.10352 10.0605 2.49219 10.1973 3 10.1973C 3.46484 10.1973 3.83984 10.0508 4.125 9.75781C 4.41406 9.46484 4.56055 9.05469 4.56445 8.52734L 4.56445 2.46875ZM 11.3555 11C 11.293 10.875 11.2422 10.6523 11.2031 10.332C 10.6992 10.8555 10.0977 11.1172 9.39844 11.1172C 8.77344 11.1172 8.25977 10.9414 7.85742 10.5898C 7.45898 10.2344 7.25977 9.78516 7.25977 9.24219C 7.25977 8.58203 7.50977 8.07031 8.00977 7.70703C 8.51367 7.33984 9.2207 7.15625 10.1309 7.15625L 11.1855 7.15625L 11.1855 6.6582C 11.1855 6.2793 11.0723 5.97852 10.8457 5.75586C 10.6191 5.5293 10.2852 5.41602 9.84375 5.41602C 9.45703 5.41602 9.13281 5.51367 8.87109 5.70898C 8.60938 5.9043 8.47852 6.14062 8.47852 6.41797L 7.38867 6.41797C 7.38867 6.10156 7.5 5.79688 7.72266 5.50391C 7.94922 5.20703 8.25391 4.97266 8.63672 4.80078C 9.02344 4.62891 9.44727 4.54297 9.9082 4.54297C 10.6387 4.54297 11.2109 4.72656 11.625 5.09375C 12.0391 5.45703 12.2539 5.95898 12.2695 6.59961L 12.2695 9.51758C 12.2695 10.0996 12.3438 10.5625 12.4922 10.9062L 12.4922 11L 11.3555 11ZM 9.55664 10.1738C 9.89648 10.1738 10.2188 10.0859 10.5234 9.91016C 10.8281 9.73438 11.0488 9.50586 11.1855 9.22461L 11.1855 7.92383L 10.3359 7.92383C 9.00781 7.92383 8.34375 8.3125 8.34375 9.08984C 8.34375 9.42969 8.45703 9.69531 8.68359 9.88672C 8.91016 10.0781 9.20117 10.1738 9.55664 10.1738ZM 14.9941 4.66016L 15.0293 5.45703C 15.5137 4.84766 16.1465 4.54297 16.9277 4.54297C 18.2676 4.54297 18.9434 5.29883 18.9551 6.81055L 18.9551 11L 17.8711 11L 17.8711 6.80469C 17.8672 6.34766 17.7617 6.00977 17.5547 5.79102C 17.3516 5.57227 17.0332 5.46289 16.5996 5.46289C 16.248 5.46289 15.9395 5.55664 15.6738 5.74414C 15.4082 5.93164 15.2012 6.17773 15.0527 6.48242L 15.0527 11L 13.9688 11L 13.9688 4.66016L 14.9941 4.66016Z"/>
<path id="path2_fill" d="M 5.69531 7.23242L 2.11523 7.23242L 2.11523 11L 0.990234 11L 0.990234 2.46875L 6.27539 2.46875L 6.27539 3.39453L 2.11523 3.39453L 2.11523 6.3125L 5.69531 6.3125L 5.69531 7.23242ZM 9.95508 11.1172C 9.0957 11.1172 8.39648 10.8359 7.85742 10.2734C 7.31836 9.70703 7.04883 8.95117 7.04883 8.00586L 7.04883 7.80664C 7.04883 7.17773 7.16797 6.61719 7.40625 6.125C 7.64844 5.62891 7.98438 5.24219 8.41406 4.96484C 8.84766 4.68359 9.31641 4.54297 9.82031 4.54297C 10.6445 4.54297 11.2852 4.81445 11.7422 5.35742C 12.1992 5.90039 12.4277 6.67773 12.4277 7.68945L 12.4277 8.14062L 8.13281 8.14062C 8.14844 8.76562 8.33008 9.27148 8.67773 9.6582C 9.0293 10.041 9.47461 10.2324 10.0137 10.2324C 10.3965 10.2324 10.7207 10.1543 10.9863 9.99805C 11.252 9.8418 11.4844 9.63477 11.6836 9.37695L 12.3457 9.89258C 11.8145 10.709 11.0176 11.1172 9.95508 11.1172ZM 9.82031 5.43359C 9.38281 5.43359 9.01562 5.59375 8.71875 5.91406C 8.42188 6.23047 8.23828 6.67578 8.16797 7.25L 11.3438 7.25L 11.3438 7.16797C 11.3125 6.61719 11.1641 6.19141 10.8984 5.89062C 10.6328 5.58594 10.2734 5.43359 9.82031 5.43359ZM 19.0547 7.90039C 19.0547 8.86914 18.832 9.64844 18.3867 10.2383C 17.9414 10.8242 17.3438 11.1172 16.5938 11.1172C 15.793 11.1172 15.1738 10.834 14.7363 10.2676L 14.6836 11L 13.6875 11L 13.6875 2L 14.7715 2L 14.7715 5.35742C 15.209 4.81445 15.8125 4.54297 16.582 4.54297C 17.3516 4.54297 17.9551 4.83398 18.3926 5.41602C 18.834 5.99805 19.0547 6.79492 19.0547 7.80664L 19.0547 7.90039ZM 17.9707 7.77734C 17.9707 7.03906 17.8281 6.46875 17.543 6.06641C 17.2578 5.66406 16.8477 5.46289 16.3125 5.46289C 15.5977 5.46289 15.084 5.79492 14.7715 6.45898L 14.7715 9.20117C 15.1035 9.86523 15.6211 10.1973 16.3242 10.1973C 16.8438 10.1973 17.248 9.99609 17.5371 9.59375C 17.8262 9.19141 17.9707 8.58594 17.9707 7.77734Z"/>
<path id="path3_fill" d="M 2.44336 2.46875L 5.23242 9.42969L 8.02148 2.46875L 9.48047 2.46875L 9.48047 11L 8.35547 11L 8.35547 7.67773L 8.46094 4.0918L 5.66016 11L 4.79883 11L 2.00391 4.10938L 2.11523 7.67773L 2.11523 11L 0.990234 11L 0.990234 2.46875L 2.44336 2.46875ZM 15.2109 11C 15.1484 10.875 15.0977 10.6523 15.0586 10.332C 14.5547 10.8555 13.9531 11.1172 13.2539 11.1172C 12.6289 11.1172 12.1152 10.9414 11.7129 10.5898C 11.3145 10.2344 11.1152 9.78516 11.1152 9.24219C 11.1152 8.58203 11.3652 8.07031 11.8652 7.70703C 12.3691 7.33984 13.0762 7.15625 13.9863 7.15625L 15.041 7.15625L 15.041 6.6582C 15.041 6.2793 14.9277 5.97852 14.7012 5.75586C 14.4746 5.5293 14.1406 5.41602 13.6992 5.41602C 13.3125 5.41602 12.9883 5.51367 12.7266 5.70898C 12.4648 5.9043 12.334 6.14062 12.334 6.41797L 11.2441 6.41797C 11.2441 6.10156 11.3555 5.79688 11.5781 5.50391C 11.8047 5.20703 12.1094 4.97266 12.4922 4.80078C 12.8789 4.62891 13.3027 4.54297 13.7637 4.54297C 14.4941 4.54297 15.0664 4.72656 15.4805 5.09375C 15.8945 5.45703 16.1094 5.95898 16.125 6.59961L 16.125 9.51758C 16.125 10.0996 16.1992 10.5625 16.3477 10.9062L 16.3477 11L 15.2109 11ZM 13.4121 10.1738C 13.752 10.1738 14.0742 10.0859 14.3789 9.91016C 14.6836 9.73438 14.9043 9.50586 15.041 9.22461L 15.041 7.92383L 14.1914 7.92383C 12.8633 7.92383 12.1992 8.3125 12.1992 9.08984C 12.1992 9.42969 12.3125 9.69531 12.5391 9.88672C 12.7656 10.0781 13.0566 10.1738 13.4121 10.1738ZM 20.8887 5.63281C 20.7246 5.60547 20.5469 5.5918 20.3555 5.5918C 19.6445 5.5918 19.1621 5.89453 18.9082 6.5L 18.9082 11L 17.8242 11L 17.8242 4.66016L 18.8789 4.66016L 18.8965 5.39258C 19.252 4.82617 19.7559 4.54297 20.4082 4.54297C 20.6191 4.54297 20.7793 4.57031 20.8887 4.625L 20.8887 5.63281Z"/>
<path id="path4_fill" d="M 5.70117 8.77344L 2.12695 8.77344L 1.32422 11L 0.164062 11L 3.42188 2.46875L 4.40625 2.46875L 7.66992 11L 6.51562 11L 5.70117 8.77344ZM 2.4668 7.84766L 5.36719 7.84766L 3.91406 3.85742L 2.4668 7.84766ZM 14.0039 7.90039C 14.0039 8.86523 13.7832 9.64258 13.3418 10.2324C 12.9004 10.8223 12.3027 11.1172 11.5488 11.1172C 10.7793 11.1172 10.1738 10.873 9.73242 10.3848L 9.73242 13.4375L 8.64844 13.4375L 8.64844 4.66016L 9.63867 4.66016L 9.69141 5.36328C 10.1328 4.81641 10.7461 4.54297 11.5312 4.54297C 12.293 4.54297 12.8945 4.83008 13.3359 5.4043C 13.7812 5.97852 14.0039 6.77734 14.0039 7.80078L 14.0039 7.90039ZM 12.9199 7.77734C 12.9199 7.0625 12.7676 6.49805 12.4629 6.08398C 12.1582 5.66992 11.7402 5.46289 11.209 5.46289C 10.5527 5.46289 10.0605 5.75391 9.73242 6.33594L 9.73242 9.36523C 10.0566 9.94336 10.5527 10.2324 11.2207 10.2324C 11.7402 10.2324 12.1523 10.0273 12.457 9.61719C 12.7656 9.20312 12.9199 8.58984 12.9199 7.77734ZM 18.4512 5.63281C 18.2871 5.60547 18.1094 5.5918 17.918 5.5918C 17.207 5.5918 16.7246 5.89453 16.4707 6.5L 16.4707 11L 15.3867 11L 15.3867 4.66016L 16.4414 4.66016L 16.459 5.39258C 16.8145 4.82617 17.3184 4.54297 17.9707 4.54297C 18.1816 4.54297 18.3418 4.57031 18.4512 4.625L 18.4512 5.63281Z"/>
<path id="path5_fill" d="M 2.44336 5.46875L 5.23242 12.4297L 8.02148 5.46875L 9.48047 5.46875L 9.48047 14L 8.35547 14L 8.35547 10.6777L 8.46094 7.0918L 5.66016 14L 4.79883 14L 2.00391 7.10938L 2.11523 10.6777L 2.11523 14L 0.990234 14L 0.990234 5.46875L 2.44336 5.46875ZM 15.2109 14C 15.1484 13.875 15.0977 13.6523 15.0586 13.332C 14.5547 13.8555 13.9531 14.1172 13.2539 14.1172C 12.6289 14.1172 12.1152 13.9414 11.7129 13.5898C 11.3145 13.2344 11.1152 12.7852 11.1152 12.2422C 11.1152 11.582 11.3652 11.0703 11.8652 10.707C 12.3691 10.3398 13.0762 10.1562 13.9863 10.1562L 15.041 10.1562L 15.041 9.6582C 15.041 9.2793 14.9277 8.97852 14.7012 8.75586C 14.4746 8.5293 14.1406 8.41602 13.6992 8.41602C 13.3125 8.41602 12.9883 8.51367 12.7266 8.70898C 12.4648 8.9043 12.334 9.14062 12.334 9.41797L 11.2441 9.41797C 11.2441 9.10156 11.3555 8.79688 11.5781 8.50391C 11.8047 8.20703 12.1094 7.97266 12.4922 7.80078C 12.8789 7.62891 13.3027 7.54297 13.7637 7.54297C 14.4941 7.54297 15.0664 7.72656 15.4805 8.09375C 15.8945 8.45703 16.1094 8.95898 16.125 9.59961L 16.125 12.5176C 16.125 13.0996 16.1992 13.5625 16.3477 13.9062L 16.3477 14L 15.2109 14ZM 13.4121 13.1738C 13.752 13.1738 14.0742 13.0859 14.3789 12.9102C 14.6836 12.7344 14.9043 12.5059 15.041 12.2246L 15.041 10.9238L 14.1914 10.9238C 12.8633 10.9238 12.1992 11.3125 12.1992 12.0898C 12.1992 12.4297 12.3125 12.6953 12.5391 12.8867C 12.7656 13.0781 13.0566 13.1738 13.4121 13.1738ZM 19.8047 12.4121L 21.2812 7.66016L 22.4414 7.66016L 19.8926 14.9785C 19.498 16.0332 18.8711 16.5605 18.0117 16.5605L 17.8066 16.543L 17.4023 16.4668L 17.4023 15.5879L 17.6953 15.6113C 18.0625 15.6113 18.3477 15.5371 18.5508 15.3887C 18.7578 15.2402 18.9277 14.9688 19.0605 14.5742L 19.3008 13.9297L 17.0391 7.66016L 18.2227 7.66016L 19.8047 12.4121Z"/>
<path id="path6_fill" d="M 4.56445 2.46875L 5.69531 2.46875L 5.69531 8.50977C 5.69531 9.32617 5.44922 9.96484 4.95703 10.4258C 4.46875 10.8867 3.81641 11.1172 3 11.1172C 2.15234 11.1172 1.49219 10.9004 1.01953 10.4668C 0.546875 10.0332 0.310547 9.42578 0.310547 8.64453L 1.43555 8.64453C 1.43555 9.13281 1.56836 9.51367 1.83398 9.78711C 2.10352 10.0605 2.49219 10.1973 3 10.1973C 3.46484 10.1973 3.83984 10.0508 4.125 9.75781C 4.41406 9.46484 4.56055 9.05469 4.56445 8.52734L 4.56445 2.46875ZM 11.3555 10.373C 10.9336 10.8691 10.3145 11.1172 9.49805 11.1172C 8.82227 11.1172 8.30664 10.9219 7.95117 10.5312C 7.59961 10.1367 7.42188 9.55469 7.41797 8.78516L 7.41797 4.66016L 8.50195 4.66016L 8.50195 8.75586C 8.50195 9.7168 8.89258 10.1973 9.67383 10.1973C 10.502 10.1973 11.0527 9.88867 11.3262 9.27148L 11.3262 4.66016L 12.4102 4.66016L 12.4102 11L 11.3789 11L 11.3555 10.373ZM 15.0879 4.66016L 15.123 5.45703C 15.6074 4.84766 16.2402 4.54297 17.0215 4.54297C 18.3613 4.54297 19.0371 5.29883 19.0488 6.81055L 19.0488 11L 17.9648 11L 17.9648 6.80469C 17.9609 6.34766 17.8555 6.00977 17.6484 5.79102C 17.4453 5.57227 17.127 5.46289 16.6934 5.46289C 16.3418 5.46289 16.0332 5.55664 15.7676 5.74414C 15.502 5.93164 15.2949 6.17773 15.1465 6.48242L 15.1465 11L 14.0625 11L 14.0625 4.66016L 15.0879 4.66016Z"/>
<path id="path7_stroke" d="M -4.16588e-25 0.5L 345.647 0.5L 345.647 -0.5L 4.16588e-25 -0.5L -4.16588e-25 0.5Z"/>
<path id="path8_stroke" d="M -1.35672 92.4206C -2.51643 93.1699 -2.84913 94.7174 -2.09984 95.8771C -1.35054 97.0368 0.197008 97.3695 1.35672 96.6202L -1.35672 92.4206ZM 339.822 30.5793C 340.77 31.5829 342.352 31.6279 343.356 30.6797C 344.359 29.7315 344.404 28.1493 343.456 27.1456L 339.822 30.5793ZM 311.488 3.47829L 313.413 5.07398L 311.488 3.47829ZM 317.475 3.28447L 319.292 1.56765L 317.475 3.28447ZM 264.313 54.6836L 265.725 52.6207L 264.313 54.6836ZM 269.652 53.9361L 271.576 55.5318L 269.652 53.9361ZM 233.763 36.005L 232.785 33.704L 233.763 36.005ZM 237.587 36.3859L 238.999 34.323L 237.587 36.3859ZM 196.991 49.084L 198.68 47.2407L 196.991 49.084ZM 162.102 23.4584L 164.204 24.813L 162.102 23.4584ZM 168.166 22.6764L 166.478 24.5197L 168.166 22.6764ZM 127.63 69.5693L 128.979 67.4644L 127.63 69.5693ZM 133.15 68.3688L 131.049 67.0142L 133.15 68.3688ZM 96.1044 53.3743L 97.972 55.0362L 96.1044 53.3743ZM 101.251 52.6654L 99.902 54.7703L 101.251 52.6654ZM 63.9943 85.1609L 65.0543 82.8967L 63.9943 85.1609ZM 68.6786 84.1972L 70.5463 85.859L 68.6786 84.1972ZM 33.4261 72.9236L 34.7828 75.0235L 33.4261 72.9236ZM 37.2928 72.6607L 36.2328 74.9249L 37.2928 72.6607ZM 1.35672 96.6202L 34.7828 75.0235L 32.0694 70.8238L -1.35672 92.4206L 1.35672 96.6202ZM 36.2328 74.9249L 62.9344 87.4251L 65.0543 82.8967L 38.3528 70.3965L 36.2328 74.9249ZM 70.5463 85.859L 97.972 55.0362L 94.2367 51.7125L 66.8109 82.5353L 70.5463 85.859ZM 99.902 54.7703L 126.281 71.6742L 128.979 67.4644L 102.6 50.5605L 99.902 54.7703ZM 135.251 69.7234L 164.204 24.813L 160.001 22.1038L 131.049 67.0142L 135.251 69.7234ZM 166.478 24.5197L 195.302 50.9274L 198.68 47.2407L 169.855 20.833L 166.478 24.5197ZM 202.235 52.117L 234.74 38.3059L 232.785 33.704L 200.279 47.5152L 202.235 52.117ZM 236.174 38.4487L 262.9 56.7465L 265.725 52.6207L 238.999 34.323L 236.174 38.4487ZM 271.576 55.5318L 313.413 5.07398L 309.563 1.8826L 267.727 52.3404L 271.576 55.5318ZM 315.658 5.0013L 339.822 30.5793L 343.456 27.1456L 319.292 1.56765L 315.658 5.0013ZM 313.413 5.07398C 313.987 4.38072 315.039 4.34666 315.658 5.0013L 319.292 1.56765C 316.612 -1.26909 312.054 -1.12154 309.563 1.8826L 313.413 5.07398ZM 262.9 56.7465C 265.672 58.6439 269.432 58.1174 271.576 55.5318L 267.727 52.3404C 267.232 52.9371 266.365 53.0586 265.725 52.6207L 262.9 56.7465ZM 234.74 38.3059C 235.211 38.1057 235.752 38.1596 236.174 38.4487L 238.999 34.323C 237.169 33.0701 234.826 32.8368 232.785 33.704L 234.74 38.3059ZM 195.302 50.9274C 197.18 52.6481 199.89 53.1131 202.235 52.117L 200.279 47.5152C 199.738 47.7451 199.113 47.6377 198.68 47.2407L 195.302 50.9274ZM 164.204 24.813C 164.707 24.032 165.792 23.892 166.478 24.5197L 169.855 20.833C 166.886 18.1128 162.183 18.7193 160.001 22.1038L 164.204 24.813ZM 126.281 71.6742C 129.298 73.6073 133.31 72.7347 135.251 69.7234L 131.049 67.0142C 130.601 67.7091 129.675 67.9105 128.979 67.4644L 126.281 71.6742ZM 97.972 55.0362C 98.4624 54.485 99.2808 54.3723 99.902 54.7703L 102.6 50.5605C 99.908 48.8357 96.3617 49.3242 94.2367 51.7125L 97.972 55.0362ZM 62.9344 87.4251C 65.5387 88.6443 68.6347 88.0074 70.5463 85.859L 66.8109 82.5353C 66.3697 83.0311 65.6553 83.1781 65.0543 82.8967L 62.9344 87.4251ZM 34.7828 75.0235C 35.2169 74.743 35.7648 74.7057 36.2328 74.9249L 38.3528 70.3965C 36.3246 69.447 33.9504 69.6085 32.0694 70.8238L 34.7828 75.0235Z"/>
<path id="path9_fill" fill-rule="evenodd" d="M 0.0493537 2.04818C 0.0222909 0.925072 0.92534 0 2.04877 0L 400.476 0C 401.59 0 402.489 0.910184 402.476 2.02409L 402 41.5L 1 41.5L 0.0493537 2.04818Z"/>
<path id="path10_fill" d="M 7.37695 8.22266C 7.29102 9.13281 6.95508 9.84375 6.36914 10.3555C 5.7832 10.8633 5.00391 11.1172 4.03125 11.1172C 3.35156 11.1172 2.75195 10.957 2.23242 10.6367C 1.7168 10.3125 1.31836 9.85352 1.03711 9.25977C 0.755859 8.66602 0.609375 7.97656 0.597656 7.19141L 0.597656 6.39453C 0.597656 5.58984 0.740234 4.88086 1.02539 4.26758C 1.31055 3.6543 1.71875 3.18164 2.25 2.84961C 2.78516 2.51758 3.40234 2.35156 4.10156 2.35156C 5.04297 2.35156 5.80078 2.60742 6.375 3.11914C 6.94922 3.63086 7.2832 4.35352 7.37695 5.28711L 5.90039 5.28711C 5.83008 4.67383 5.65039 4.23242 5.36133 3.96289C 5.07617 3.68945 4.65625 3.55273 4.10156 3.55273C 3.45703 3.55273 2.96094 3.78906 2.61328 4.26172C 2.26953 4.73047 2.09375 5.41992 2.08594 6.33008L 2.08594 7.08594C 2.08594 8.00781 2.25 8.71094 2.57812 9.19531C 2.91016 9.67969 3.39453 9.92188 4.03125 9.92188C 4.61328 9.92188 5.05078 9.79102 5.34375 9.5293C 5.63672 9.26758 5.82227 8.83203 5.90039 8.22266L 7.37695 8.22266ZM 12.4102 10.3789C 11.9922 10.8711 11.3984 11.1172 10.6289 11.1172C 9.94141 11.1172 9.41992 10.916 9.06445 10.5137C 8.71289 10.1113 8.53711 9.5293 8.53711 8.76758L 8.53711 4.66016L 9.96094 4.66016L 9.96094 8.75C 9.96094 9.55469 10.2949 9.95703 10.9629 9.95703C 11.6543 9.95703 12.1211 9.70898 12.3633 9.21289L 12.3633 4.66016L 13.7871 4.66016L 13.7871 11L 12.4453 11L 12.4102 10.3789ZM 18.5566 5.96094C 18.3691 5.92969 18.1758 5.91406 17.9766 5.91406C 17.3242 5.91406 16.8848 6.16406 16.6582 6.66406L 16.6582 11L 15.2344 11L 15.2344 4.66016L 16.5938 4.66016L 16.6289 5.36914C 16.9727 4.81836 17.4492 4.54297 18.0586 4.54297C 18.2617 4.54297 18.4297 4.57031 18.5625 4.625L 18.5566 5.96094ZM 22.7754 5.96094C 22.5879 5.92969 22.3945 5.91406 22.1953 5.91406C 21.543 5.91406 21.1035 6.16406 20.877 6.66406L 20.877 11L 19.4531 11L 19.4531 4.66016L 20.8125 4.66016L 20.8477 5.36914C 21.1914 4.81836 21.668 4.54297 22.2773 4.54297C 22.4805 4.54297 22.6484 4.57031 22.7812 4.625L 22.7754 5.96094ZM 26.3496 11.1172C 25.4473 11.1172 24.7148 10.834 24.1523 10.2676C 23.5938 9.69727 23.3145 8.93945 23.3145 7.99414L 23.3145 7.81836C 23.3145 7.18555 23.4355 6.62109 23.6777 6.125C 23.9238 5.625 24.2676 5.23633 24.709 4.95898C 25.1504 4.68164 25.6426 4.54297 26.1855 4.54297C 27.0488 4.54297 27.7148 4.81836 28.1836 5.36914C 28.6562 5.91992 28.8926 6.69922 28.8926 7.70703L 28.8926 8.28125L 24.75 8.28125C 24.793 8.80469 24.9668 9.21875 25.2715 9.52344C 25.5801 9.82812 25.9668 9.98047 26.4316 9.98047C 27.084 9.98047 27.6152 9.7168 28.0254 9.18945L 28.793 9.92188C 28.5391 10.3008 28.1992 10.5957 27.7734 10.8066C 27.3516 11.0137 26.877 11.1172 26.3496 11.1172ZM 26.1797 5.68555C 25.7891 5.68555 25.4727 5.82227 25.2305 6.0957C 24.9922 6.36914 24.8398 6.75 24.7734 7.23828L 27.4863 7.23828L 27.4863 7.13281C 27.4551 6.65625 27.3281 6.29688 27.1055 6.05469C 26.8828 5.80859 26.5742 5.68555 26.1797 5.68555ZM 31.3242 4.66016L 31.3652 5.39258C 31.834 4.82617 32.4492 4.54297 33.2109 4.54297C 34.5312 4.54297 35.2031 5.29883 35.2266 6.81055L 35.2266 11L 33.8027 11L 33.8027 6.89258C 33.8027 6.49023 33.7148 6.19336 33.5391 6.00195C 33.3672 5.80664 33.084 5.70898 32.6895 5.70898C 32.1152 5.70898 31.6875 5.96875 31.4062 6.48828L 31.4062 11L 29.9824 11L 29.9824 4.66016L 31.3242 4.66016ZM 38.4668 3.11914L 38.4668 4.66016L 39.5859 4.66016L 39.5859 5.71484L 38.4668 5.71484L 38.4668 9.25391C 38.4668 9.49609 38.5137 9.67188 38.6074 9.78125C 38.7051 9.88672 38.877 9.93945 39.123 9.93945C 39.2871 9.93945 39.4531 9.91992 39.6211 9.88086L 39.6211 10.9824C 39.2969 11.0723 38.9844 11.1172 38.6836 11.1172C 37.5898 11.1172 37.043 10.5137 37.043 9.30664L 37.043 5.71484L 36 5.71484L 36 4.66016L 37.043 4.66016L 37.043 3.11914L 38.4668 3.11914ZM 45.2871 7.83008L 45.2871 11L 43.8047 11L 43.8047 2.46875L 47.0684 2.46875C 48.0215 2.46875 48.7773 2.7168 49.3359 3.21289C 49.8984 3.70898 50.1797 4.36523 50.1797 5.18164C 50.1797 6.01758 49.9043 6.66797 49.3535 7.13281C 48.8066 7.59766 48.0391 7.83008 47.0508 7.83008L 45.2871 7.83008ZM 45.2871 6.64062L 47.0684 6.64062C 47.5957 6.64062 47.998 6.51758 48.2754 6.27148C 48.5527 6.02148 48.6914 5.66211 48.6914 5.19336C 48.6914 4.73242 48.5508 4.36523 48.2695 4.0918C 47.9883 3.81445 47.6016 3.67187 47.1094 3.66406L 45.2871 3.66406L 45.2871 6.64062ZM 54.0527 11.1172C 53.1504 11.1172 52.418 10.834 51.8555 10.2676C 51.2969 9.69727 51.0176 8.93945 51.0176 7.99414L 51.0176 7.81836C 51.0176 7.18555 51.1387 6.62109 51.3809 6.125C 51.627 5.625 51.9707 5.23633 52.4121 4.95898C 52.8535 4.68164 53.3457 4.54297 53.8887 4.54297C 54.752 4.54297 55.418 4.81836 55.8867 5.36914C 56.3594 5.91992 56.5957 6.69922 56.5957 7.70703L 56.5957 8.28125L 52.4531 8.28125C 52.4961 8.80469 52.6699 9.21875 52.9746 9.52344C 53.2832 9.82812 53.6699 9.98047 54.1348 9.98047C 54.7871 9.98047 55.3184 9.7168 55.7285 9.18945L 56.4961 9.92188C 56.2422 10.3008 55.9023 10.5957 55.4766 10.8066C 55.0547 11.0137 54.5801 11.1172 54.0527 11.1172ZM 53.8828 5.68555C 53.4922 5.68555 53.1758 5.82227 52.9336 6.0957C 52.6953 6.36914 52.543 6.75 52.4766 7.23828L 55.1895 7.23828L 55.1895 7.13281C 55.1582 6.65625 55.0312 6.29688 54.8086 6.05469C 54.5859 5.80859 54.2773 5.68555 53.8828 5.68555ZM 61.0254 5.96094C 60.8379 5.92969 60.6445 5.91406 60.4453 5.91406C 59.793 5.91406 59.3535 6.16406 59.127 6.66406L 59.127 11L 57.7031 11L 57.7031 4.66016L 59.0625 4.66016L 59.0977 5.36914C 59.4414 4.81836 59.918 4.54297 60.5273 4.54297C 60.7305 4.54297 60.8984 4.57031 61.0312 4.625L 61.0254 5.96094ZM 63.4395 11L 62.0156 11L 62.0156 4.66016L 63.4395 4.66016L 63.4395 11ZM 61.9277 3.01367C 61.9277 2.79492 61.9961 2.61328 62.1328 2.46875C 62.2734 2.32422 62.4727 2.25195 62.7305 2.25195C 62.9883 2.25195 63.1875 2.32422 63.3281 2.46875C 63.4688 2.61328 63.5391 2.79492 63.5391 3.01367C 63.5391 3.22852 63.4688 3.4082 63.3281 3.55273C 63.1875 3.69336 62.9883 3.76367 62.7305 3.76367C 62.4727 3.76367 62.2734 3.69336 62.1328 3.55273C 61.9961 3.4082 61.9277 3.22852 61.9277 3.01367ZM 64.7285 7.77148C 64.7285 7.15039 64.8516 6.5918 65.0977 6.0957C 65.3438 5.5957 65.6895 5.21289 66.1348 4.94727C 66.5801 4.67773 67.0918 4.54297 67.6699 4.54297C 68.5254 4.54297 69.2188 4.81836 69.75 5.36914C 70.2852 5.91992 70.5742 6.65039 70.6172 7.56055L 70.623 7.89453C 70.623 8.51953 70.502 9.07812 70.2598 9.57031C 70.0215 10.0625 69.6777 10.4434 69.2285 10.7129C 68.7832 10.9824 68.2676 11.1172 67.6816 11.1172C 66.7871 11.1172 66.0703 10.8203 65.5312 10.2266C 64.9961 9.62891 64.7285 8.83398 64.7285 7.8418L 64.7285 7.77148ZM 66.1523 7.89453C 66.1523 8.54688 66.2871 9.05859 66.5566 9.42969C 66.8262 9.79688 67.2012 9.98047 67.6816 9.98047C 68.1621 9.98047 68.5352 9.79297 68.8008 9.41797C 69.0703 9.04297 69.2051 8.49414 69.2051 7.77148C 69.2051 7.13086 69.0664 6.62305 68.7891 6.24805C 68.5156 5.87305 68.1426 5.68555 67.6699 5.68555C 67.2051 5.68555 66.8359 5.87109 66.5625 6.24219C 66.2891 6.60938 66.1523 7.16016 66.1523 7.89453ZM 71.5605 7.7832C 71.5605 6.80664 71.7871 6.02344 72.2402 5.43359C 72.6934 4.83984 73.3008 4.54297 74.0625 4.54297C 74.7344 4.54297 75.2773 4.77734 75.6914 5.24609L 75.6914 2L 77.1152 2L 77.1152 11L 75.8262 11L 75.7559 10.3438C 75.3301 10.8594 74.7617 11.1172 74.0508 11.1172C 73.3086 11.1172 72.707 10.8184 72.2461 10.2207C 71.7891 9.62305 71.5605 8.81055 71.5605 7.7832ZM 72.9844 7.90625C 72.9844 8.55078 73.1074 9.05469 73.3535 9.41797C 73.6035 9.77734 73.957 9.95703 74.4141 9.95703C 74.9961 9.95703 75.4219 9.69727 75.6914 9.17773L 75.6914 6.4707C 75.4297 5.96289 75.0078 5.70898 74.4258 5.70898C 73.9648 5.70898 73.6094 5.89258 73.3594 6.25977C 73.1094 6.62305 72.9844 7.17188 72.9844 7.90625ZM 82.1543 9.27734C 82.1543 9.02344 82.0488 8.83008 81.8379 8.69727C 81.6309 8.56445 81.2852 8.44727 80.8008 8.3457C 80.3164 8.24414 79.9121 8.11523 79.5879 7.95898C 78.877 7.61523 78.5215 7.11719 78.5215 6.46484C 78.5215 5.91797 78.752 5.46094 79.2129 5.09375C 79.6738 4.72656 80.2598 4.54297 80.9707 4.54297C 81.7285 4.54297 82.3398 4.73047 82.8047 5.10547C 83.2734 5.48047 83.5078 5.9668 83.5078 6.56445L 82.084 6.56445C 82.084 6.29102 81.9824 6.06445 81.7793 5.88477C 81.5762 5.70117 81.3066 5.60938 80.9707 5.60938C 80.6582 5.60938 80.4023 5.68164 80.2031 5.82617C 80.0078 5.9707 79.9102 6.16406 79.9102 6.40625C 79.9102 6.625 80.002 6.79492 80.1855 6.91602C 80.3691 7.03711 80.7402 7.16016 81.2988 7.28516C 81.8574 7.40625 82.2949 7.55273 82.6113 7.72461C 82.9316 7.89258 83.168 8.0957 83.3203 8.33398C 83.4766 8.57227 83.5547 8.86133 83.5547 9.20117C 83.5547 9.77148 83.3184 10.2344 82.8457 10.5898C 82.373 10.9414 81.7539 11.1172 80.9883 11.1172C 80.4688 11.1172 80.0059 11.0234 79.5996 10.8359C 79.1934 10.6484 78.877 10.3906 78.6504 10.0625C 78.4238 9.73438 78.3105 9.38086 78.3105 9.00195L 79.6934 9.00195C 79.7129 9.33789 79.8398 9.59766 80.0742 9.78125C 80.3086 9.96094 80.6191 10.0508 81.0059 10.0508C 81.3809 10.0508 81.666 9.98047 81.8613 9.83984C 82.0566 9.69531 82.1543 9.50781 82.1543 9.27734Z"/>
<path id="path11_fill" fill-rule="evenodd" d="M 1.38477 2.76929C 2.15039 2.76929 2.76953 2.15088 2.76953 1.38452C 2.76953 0.618408 2.15039 0 1.38477 0C 0.618164 0 0 0.618408 0 1.38452C 0 2.15088 0.618164 2.76929 1.38477 2.76929ZM 1.38477 4.61548C 0.618164 4.61548 0 5.23389 0 6C 0 6.76636 0.618164 7.38477 1.38477 7.38477C 2.15039 7.38477 2.76953 6.76636 2.76953 6C 2.76953 5.23389 2.15039 4.61548 1.38477 4.61548ZM 0 10.6155C 0 9.84937 0.618164 9.23096 1.38477 9.23096C 2.15039 9.23096 2.76953 9.84937 2.76953 10.6155C 2.76953 11.3818 2.15039 12.0002 1.38477 12.0002C 0.618164 12.0002 0 11.3818 0 10.6155Z"/>
<path id="path12_stroke" d="M 11.3001 5.57309C 11.3002 5.29695 11.0763 5.07305 10.8002 5.073C 10.5241 5.07295 10.3002 5.29677 10.3001 5.57291L 11.3001 5.57309ZM 3.16738 0.498556L 3.37952 0.951322L 3.16738 0.498556ZM 9.52591 2.83588C 9.67125 3.07068 9.97941 3.1432 10.2142 2.99786C 10.449 2.85252 10.5215 2.54436 10.3762 2.30956L 9.52591 2.83588ZM 10.3001 5.57291C 10.2999 6.79797 9.87137 7.9796 9.09659 8.90125L 9.86205 9.54473C 10.7905 8.44033 11.2998 7.03007 11.3001 5.57309L 10.3001 5.57291ZM 9.09659 8.90125C 8.32213 9.82252 7.25443 10.4217 6.09112 10.5932L 6.23701 11.5825C 7.64683 11.3746 8.93334 10.6495 9.86205 9.54473L 9.09659 8.90125ZM 6.09112 10.5932C 4.92798 10.7648 3.74267 10.4981 2.75207 9.83949L 2.19843 10.6722C 3.39285 11.4663 4.827 11.7905 6.23701 11.5825L 6.09112 10.5932ZM 2.75207 9.83949C 1.76104 9.18062 1.03008 8.17256 0.697577 6.99761L -0.264636 7.2699C 0.131429 8.66947 1.00445 9.87845 2.19843 10.6722L 2.75207 9.83949ZM 0.697577 6.99761C 0.365018 5.82245 0.454555 4.56289 0.948956 3.45122L 0.0352432 3.04486C -0.554456 4.37081 -0.660645 5.87054 -0.264636 7.2699L 0.697577 6.99761ZM 0.948956 3.45122C 1.44323 2.33983 2.30756 1.45358 3.37952 0.951322L 2.95524 0.0457903C 1.66048 0.652435 0.625069 1.71862 0.0352432 3.04486L 0.948956 3.45122ZM 3.37952 0.951322C 4.45106 0.449262 5.66084 0.363105 6.78808 0.707768L 7.08048 -0.24853C 5.71554 -0.665868 4.25041 -0.561051 2.95524 0.0457903L 3.37952 0.951322ZM 6.78808 0.707768C 7.91566 1.05253 8.88877 1.80656 9.52591 2.83588L 10.3762 2.30956C 9.61421 1.07854 8.44508 0.168706 7.08048 -0.24853L 6.78808 0.707768Z"/>
<path id="path13_stroke" d="M 3.82311 0C 3.82311 -0.276142 3.59925 -0.5 3.32311 -0.5C 3.04697 -0.5 2.82311 -0.276142 2.82311 0L 3.82311 0ZM 3.32311 3.4289L 3.32311 3.9289C 3.59925 3.9289 3.82311 3.70504 3.82311 3.4289L 3.32311 3.4289ZM 0 2.9289C -0.276142 2.9289 -0.5 3.15276 -0.5 3.4289C -0.5 3.70504 -0.276142 3.9289 0 3.9289L 0 2.9289ZM 2.82311 0L 2.82311 3.4289L 3.82311 3.4289L 3.82311 0L 2.82311 0ZM 3.32311 2.9289L 0 2.9289L 0 3.9289L 3.32311 3.9289L 3.32311 2.9289Z"/>
<path id="path14_fill" d="M 2.25 0L 0.75 0C 0.3 0 0 0.3 0 0.75L 0 11.25C 0 11.7 0.3 12 0.75 12L 2.25 12C 2.7 12 3 11.7 3 11.25L 3 0.75C 3 0.3 2.7 0 2.25 0Z"/>
<path id="path15_fill" d="M 2.25 1.33227e-15L 0.75 1.33227e-15C 0.3 1.33227e-15 0 0.3 0 0.75L 0 3.75C 0 4.2 0.3 4.5 0.75 4.5L 2.25 4.5C 2.7 4.5 3 4.2 3 3.75L 3 0.75C 3 0.3 2.7 1.33227e-15 2.25 1.33227e-15Z"/>
<path id="path16_fill" d="M 2.25 6.66134e-16L 0.75 6.66134e-16C 0.3 6.66134e-16 0 0.3 0 0.75L 0 7.5C 0 7.95 0.3 8.25 0.75 8.25L 2.25 8.25C 2.7 8.25 3 7.95 3 7.5L 3 0.75C 3 0.3 2.7 6.66134e-16 2.25 6.66134e-16Z"/>
<path id="path17_fill" d="M 0 1C 0 0.447715 0.447715 0 1 0L 400 0C 400.552 0 401 0.447715 401 1L 401 239C 401 239.552 400.552 240 400 240L 1 240C 0.447715 240 0 239.552 0 239L 0 1Z"/>
<path id="path18_stroke_2x" d="M 1 2L 400 2L 400 -2L 1 -2L 1 2ZM 399 1L 399 239L 403 239L 403 1L 399 1ZM 400 238L 1 238L 1 242L 400 242L 400 238ZM 2 239L 2 1L -2 1L -2 239L 2 239ZM 1 238C 1.55228 238 2 238.448 2 239L -2 239C -2 240.657 -0.656854 242 1 242L 1 238ZM 399 239C 399 238.448 399.448 238 400 238L 400 242C 401.657 242 403 240.657 403 239L 399 239ZM 400 2C 399.448 2 399 1.55228 399 1L 403 1C 403 -0.656854 401.657 -2 400 -2L 400 2ZM 1 -2C -0.656854 -2 -2 -0.656854 -2 1L 2 1C 2 1.55228 1.55228 2 1 2L 1 -2Z"/>
</defs>
</svg>
