<svg width="305" height="244" viewBox="0 0 305 244" version="1.1" xmlns="http://www.w3.org/2000/svg" xmlns:xlink="http://www.w3.org/1999/xlink">
<title>chart - deafult</title>
<desc>Created using Figma</desc>
<g id="Canvas" transform="translate(-15559 -4619)">
<g id="chart - deafult">
<g id="Rectangle 5.1">
<use xlink:href="#path0_fill" transform="translate(15561.5 4661)" fill="#FFFFFF"/>
</g>
<g id="Group 5">
<g id="Ellipse">
<use xlink:href="#path1_stroke" transform="translate(15721.3 4697.38)" fill="url(#paint1_linear)"/>
</g>
<g id="Ellipse">
<use xlink:href="#path2_stroke" transform="translate(15657 4758.46)" fill="url(#paint2_linear)"/>
</g>
<g id="Ellipse">
<use xlink:href="#path3_stroke" transform="translate(15657.5 4697)" fill="url(#paint3_linear)"/>
</g>
</g>
<g id="Rectangle 5 Copy 2.1">
<use xlink:href="#path4_fill" transform="translate(15561 4620)" fill="url(#paint4_linear)"/>
</g>
<g id="Navbar title">
<g id="data-importer">
<use xlink:href="#path5_fill" transform="translate(15569 4635)" fill="#FFFFFF"/>
</g>
</g>
<g id="Navbar title">
<g id="ic_more_vert_18px">
<g id="Shape">
<use xlink:href="#path6_fill" transform="translate(15846.5 4635)" fill="#FFFFFF"/>
</g>
</g>
<g id="btn">
<g id="Group">
<g id="refresh-01">
<g id="Group">
<g id="Vector">
<use xlink:href="#path7_stroke" transform="translate(15812.5 4635.86)" fill="#FFFFFF"/>
</g>
<g id="Vector">
<use xlink:href="#path8_stroke" transform="translate(15819.1 4635)" fill="#FFFFFF"/>
</g>
</g>
</g>
<g id="chart-bar-32">
<g id="Group">
<g id="Vector">
<use xlink:href="#path9_fill" transform="translate(15784 4635)" fill="#FFFFFF"/>
</g>
<g id="Vector">
<use xlink:href="#path10_fill" transform="translate(15779.5 4642.5)" fill="#FFFFFF"/>
</g>
<g id="Vector">
<use xlink:href="#path11_fill" transform="translate(15788.5 4638.75)" fill="#FFFFFF"/>
</g>
</g>
</g>
</g>
</g>
</g>
<g id="Rectangle 2.1">
<mask id="mask0_outline_out">
<rect id="mask0_outline_inv" fill="white" x="-2" y="-2" width="304" height="244" transform="translate(15561.5 4621)"/>
<use xlink:href="#path12_fill" fill="black" transform="translate(15561.5 4621)"/>
</mask>
<g mask="url(#mask0_outline_out)">
<use xlink:href="#path13_stroke_2x" transform="translate(15561.5 4621)" fill="#D1B000"/>
</g>
</g>
</g>
</g>
<defs>
<linearGradient id="paint1_linear" x1="0" y1="0" x2="1" y2="0" gradientUnits="userSpaceOnUse" gradientTransform="matrix(-31.9333 -94.3805 389.928 261.731 -166.621 -33.5959)">
<stop offset="0" stop-color="#FC8B5B"/>
<stop offset="1" stop-color="#F7C543"/>
</linearGradient>
<linearGradient id="paint2_linear" x1="0" y1="0" x2="1" y2="0" gradientUnits="userSpaceOnUse" gradientTransform="matrix(-89.4132 -43.9969 175.867 -229.743 1.19673 153.901)">
<stop offset="0" stop-color="#4A72FF"/>
<stop offset="1" stop-color="#315DF7"/>
</linearGradient>
<linearGradient id="paint3_linear" x1="0" y1="0" x2="1" y2="0" gradientUnits="userSpaceOnUse" gradientTransform="matrix(-53.0499 50.228 -58.2894 -273.15 81.3761 141.372)">
<stop offset="0" stop-color="#0EAD50"/>
<stop offset="1" stop-color="#6EE5A0"/>
</linearGradient>
<linearGradient id="paint4_linear" x1="0" y1="0" x2="1" y2="0" gradientUnits="userSpaceOnUse" gradientTransform="matrix(1.84616e-14 42 -301.5 2.57176e-15 301.5 -2.57176e-15)">
<stop offset="0" stop-color="#EDC800"/>
<stop offset="1" stop-color="#D1B000"/>
</linearGradient>
<path id="path0_fill" fill-rule="evenodd" d="M 0 0L 300 0L 300 200L 0 200L 0 0Z"/>
<path id="path1_stroke" d="M 37.6645 52.3908C 37.6645 65.4504 32.2373 77.2305 23.4963 85.6196L 33.1904 95.7203C 44.5681 84.8006 51.6645 69.4185 51.6645 52.3908L 37.6645 52.3908ZM -1.09783 6.91338C 20.8703 10.4019 37.6645 29.4417 37.6645 52.3908L 51.6645 52.3908C 51.6645 22.4495 29.758 -2.3622 1.09783 -6.91338L -1.09783 6.91338Z"/>
<path id="path2_stroke" d="M 52.7678 40.545C 28.953 40.545 9.35285 22.4619 6.96309 -0.717872L -6.96309 0.717872C -3.84503 30.962 21.7028 54.545 52.7678 54.545L 52.7678 40.545ZM 74.7645 34.9632C 68.2355 38.5207 60.7485 40.545 52.7678 40.545L 52.7678 54.545C 63.1468 54.545 72.9305 51.9059 81.463 47.2567L 74.7645 34.9632Z"/>
<path id="path3_stroke" d="M 3.59524 31.5477L -2.81923 28.7451L -2.81923 28.7451L 3.59524 31.5477ZM 10.0097 34.3504C 16.5135 19.4647 30.6538 8.69409 47.444 6.96309L 46.0083 -6.96309C 24.0638 -4.70071 5.65037 9.36032 -2.81923 28.7451L 10.0097 34.3504ZM 6.8922 44.6547C 7.53091 41.0574 8.5873 37.6059 10.0097 34.3504L -2.81923 28.7451C -4.67762 32.9985 -6.05803 37.5091 -6.8922 42.2072L 6.8922 44.6547Z"/>
<path id="path4_fill" fill-rule="evenodd" d="M 0.0241329 2.02717C 0.010858 0.912069 0.912132 0.00151266 2.02731 0.00336204L 299.455 0.496608C 300.577 0.498469 301.478 1.42298 301.451 2.54478L 300.5 42L 0.5 42L 0.0241329 2.02717Z"/>
<path id="path5_fill" d="M 5.32617 8.80273C 5.32617 8.42773 5.19336 8.13867 4.92773 7.93555C 4.66602 7.73242 4.19141 7.52734 3.50391 7.32031C 2.81641 7.11328 2.26953 6.88281 1.86328 6.62891C 1.08594 6.14062 0.697266 5.50391 0.697266 4.71875C 0.697266 4.03125 0.976562 3.46484 1.53516 3.01953C 2.09766 2.57422 2.82617 2.35156 3.7207 2.35156C 4.31445 2.35156 4.84375 2.46094 5.30859 2.67969C 5.77344 2.89844 6.13867 3.21094 6.4043 3.61719C 6.66992 4.01953 6.80273 4.4668 6.80273 4.95898L 5.32617 4.95898C 5.32617 4.51367 5.18555 4.16602 4.9043 3.91602C 4.62695 3.66211 4.22852 3.53516 3.70898 3.53516C 3.22461 3.53516 2.84766 3.63867 2.57812 3.8457C 2.3125 4.05273 2.17969 4.3418 2.17969 4.71289C 2.17969 5.02539 2.32422 5.28711 2.61328 5.49805C 2.90234 5.70508 3.37891 5.9082 4.04297 6.10742C 4.70703 6.30273 5.24023 6.52734 5.64258 6.78125C 6.04492 7.03125 6.33984 7.32031 6.52734 7.64844C 6.71484 7.97266 6.80859 8.35352 6.80859 8.79102C 6.80859 9.50195 6.53516 10.0684 5.98828 10.4902C 5.44531 10.9082 4.70703 11.1172 3.77344 11.1172C 3.15625 11.1172 2.58789 11.0039 2.06836 10.7773C 1.55273 10.5469 1.15039 10.2305 0.861328 9.82812C 0.576172 9.42578 0.433594 8.95703 0.433594 8.42188L 1.91602 8.42188C 1.91602 8.90625 2.07617 9.28125 2.39648 9.54688C 2.7168 9.8125 3.17578 9.94531 3.77344 9.94531C 4.28906 9.94531 4.67578 9.8418 4.93359 9.63477C 5.19531 9.42383 5.32617 9.14648 5.32617 8.80273ZM 11.8125 10.3789C 11.3945 10.8711 10.8008 11.1172 10.0312 11.1172C 9.34375 11.1172 8.82227 10.916 8.4668 10.5137C 8.11523 10.1113 7.93945 9.5293 7.93945 8.76758L 7.93945 4.66016L 9.36328 4.66016L 9.36328 8.75C 9.36328 9.55469 9.69727 9.95703 10.3652 9.95703C 11.0566 9.95703 11.5234 9.70898 11.7656 9.21289L 11.7656 4.66016L 13.1895 4.66016L 13.1895 11L 11.8477 11L 11.8125 10.3789ZM 20.2031 7.89453C 20.2031 8.87891 19.9824 9.66211 19.541 10.2441C 19.1035 10.8262 18.5 11.1172 17.7305 11.1172C 16.9883 11.1172 16.4102 10.8496 15.9961 10.3145L 15.9258 11L 14.6367 11L 14.6367 2L 16.0605 2L 16.0605 5.26953C 16.4707 4.78516 17.0234 4.54297 17.7188 4.54297C 18.4922 4.54297 19.0996 4.83008 19.541 5.4043C 19.9824 5.97852 20.2031 6.78125 20.2031 7.8125L 20.2031 7.89453ZM 18.7793 7.77148C 18.7793 7.08398 18.6582 6.56836 18.416 6.22461C 18.1738 5.88086 17.8223 5.70898 17.3613 5.70898C 16.7441 5.70898 16.3105 5.97852 16.0605 6.51758L 16.0605 9.13086C 16.3145 9.68164 16.752 9.95703 17.373 9.95703C 17.8184 9.95703 18.1621 9.79102 18.4043 9.45898C 18.6465 9.12695 18.7715 8.625 18.7793 7.95312L 18.7793 7.77148ZM 24.9551 9.27734C 24.9551 9.02344 24.8496 8.83008 24.6387 8.69727C 24.4316 8.56445 24.0859 8.44727 23.6016 8.3457C 23.1172 8.24414 22.7129 8.11523 22.3887 7.95898C 21.6777 7.61523 21.3223 7.11719 21.3223 6.46484C 21.3223 5.91797 21.5527 5.46094 22.0137 5.09375C 22.4746 4.72656 23.0605 4.54297 23.7715 4.54297C 24.5293 4.54297 25.1406 4.73047 25.6055 5.10547C 26.0742 5.48047 26.3086 5.9668 26.3086 6.56445L 24.8848 6.56445C 24.8848 6.29102 24.7832 6.06445 24.5801 5.88477C 24.377 5.70117 24.1074 5.60938 23.7715 5.60938C 23.459 5.60938 23.2031 5.68164 23.0039 5.82617C 22.8086 5.9707 22.7109 6.16406 22.7109 6.40625C 22.7109 6.625 22.8027 6.79492 22.9863 6.91602C 23.1699 7.03711 23.541 7.16016 24.0996 7.28516C 24.6582 7.40625 25.0957 7.55273 25.4121 7.72461C 25.7324 7.89258 25.9688 8.0957 26.1211 8.33398C 26.2773 8.57227 26.3555 8.86133 26.3555 9.20117C 26.3555 9.77148 26.1191 10.2344 25.6465 10.5898C 25.1738 10.9414 24.5547 11.1172 23.7891 11.1172C 23.2695 11.1172 22.8066 11.0234 22.4004 10.8359C 21.9941 10.6484 21.6777 10.3906 21.4512 10.0625C 21.2246 9.73438 21.1113 9.38086 21.1113 9.00195L 22.4941 9.00195C 22.5137 9.33789 22.6406 9.59766 22.875 9.78125C 23.1094 9.96094 23.4199 10.0508 23.8066 10.0508C 24.1816 10.0508 24.4668 9.98047 24.6621 9.83984C 24.8574 9.69531 24.9551 9.50781 24.9551 9.27734ZM 30.2051 9.98047C 30.5605 9.98047 30.8555 9.87695 31.0898 9.66992C 31.3242 9.46289 31.4492 9.20703 31.4648 8.90234L 32.8066 8.90234C 32.791 9.29688 32.668 9.66602 32.4375 10.0098C 32.207 10.3496 31.8945 10.6191 31.5 10.8184C 31.1055 11.0176 30.6797 11.1172 30.2227 11.1172C 29.3359 11.1172 28.6328 10.8301 28.1133 10.2559C 27.5938 9.68164 27.334 8.88867 27.334 7.87695L 27.334 7.73047C 27.334 6.76562 27.5918 5.99414 28.1074 5.41602C 28.623 4.83398 29.3262 4.54297 30.2168 4.54297C 30.9707 4.54297 31.584 4.76367 32.0566 5.20508C 32.5332 5.64258 32.7832 6.21875 32.8066 6.93359L 31.4648 6.93359C 31.4492 6.57031 31.3242 6.27148 31.0898 6.03711C 30.8594 5.80273 30.5645 5.68555 30.2051 5.68555C 29.7441 5.68555 29.3887 5.85352 29.1387 6.18945C 28.8887 6.52148 28.7617 7.02734 28.7578 7.70703L 28.7578 7.93555C 28.7578 8.62305 28.8809 9.13672 29.127 9.47656C 29.377 9.8125 29.7363 9.98047 30.2051 9.98047ZM 37.2012 5.96094C 37.0137 5.92969 36.8203 5.91406 36.6211 5.91406C 35.9688 5.91406 35.5293 6.16406 35.3027 6.66406L 35.3027 11L 33.8789 11L 33.8789 4.66016L 35.2383 4.66016L 35.2734 5.36914C 35.6172 4.81836 36.0938 4.54297 36.7031 4.54297C 36.9062 4.54297 37.0742 4.57031 37.207 4.625L 37.2012 5.96094ZM 39.6152 11L 38.1914 11L 38.1914 4.66016L 39.6152 4.66016L 39.6152 11ZM 38.1035 3.01367C 38.1035 2.79492 38.1719 2.61328 38.3086 2.46875C 38.4492 2.32422 38.6484 2.25195 38.9062 2.25195C 39.1641 2.25195 39.3633 2.32422 39.5039 2.46875C 39.6445 2.61328 39.7148 2.79492 39.7148 3.01367C 39.7148 3.22852 39.6445 3.4082 39.5039 3.55273C 39.3633 3.69336 39.1641 3.76367 38.9062 3.76367C 38.6484 3.76367 38.4492 3.69336 38.3086 3.55273C 38.1719 3.4082 38.1035 3.22852 38.1035 3.01367ZM 46.7227 7.89453C 46.7227 8.875 46.5 9.6582 46.0547 10.2441C 45.6094 10.8262 45.0117 11.1172 44.2617 11.1172C 43.5664 11.1172 43.0098 10.8887 42.5918 10.4316L 42.5918 13.4375L 41.168 13.4375L 41.168 4.66016L 42.4805 4.66016L 42.5391 5.30469C 42.957 4.79688 43.5254 4.54297 44.2441 4.54297C 45.0176 4.54297 45.623 4.83203 46.0605 5.41016C 46.502 5.98438 46.7227 6.7832 46.7227 7.80664L 46.7227 7.89453ZM 45.3047 7.77148C 45.3047 7.13867 45.1777 6.63672 44.9238 6.26562C 44.6738 5.89453 44.3145 5.70898 43.8457 5.70898C 43.2637 5.70898 42.8457 5.94922 42.5918 6.42969L 42.5918 9.24219C 42.8496 9.73438 43.2715 9.98047 43.8574 9.98047C 44.3105 9.98047 44.6641 9.79883 44.918 9.43555C 45.1758 9.06836 45.3047 8.51367 45.3047 7.77148ZM 49.7168 3.11914L 49.7168 4.66016L 50.8359 4.66016L 50.8359 5.71484L 49.7168 5.71484L 49.7168 9.25391C 49.7168 9.49609 49.7637 9.67188 49.8574 9.78125C 49.9551 9.88672 50.127 9.93945 50.373 9.93945C 50.5371 9.93945 50.7031 9.91992 50.8711 9.88086L 50.8711 10.9824C 50.5469 11.0723 50.2344 11.1172 49.9336 11.1172C 48.8398 11.1172 48.293 10.5137 48.293 9.30664L 48.293 5.71484L 47.25 5.71484L 47.25 4.66016L 48.293 4.66016L 48.293 3.11914L 49.7168 3.11914ZM 53.4434 11L 52.0195 11L 52.0195 4.66016L 53.4434 4.66016L 53.4434 11ZM 51.9316 3.01367C 51.9316 2.79492 52 2.61328 52.1367 2.46875C 52.2773 2.32422 52.4766 2.25195 52.7344 2.25195C 52.9922 2.25195 53.1914 2.32422 53.332 2.46875C 53.4727 2.61328 53.543 2.79492 53.543 3.01367C 53.543 3.22852 53.4727 3.4082 53.332 3.55273C 53.1914 3.69336 52.9922 3.76367 52.7344 3.76367C 52.4766 3.76367 52.2773 3.69336 52.1367 3.55273C 52 3.4082 51.9316 3.22852 51.9316 3.01367ZM 54.7324 7.77148C 54.7324 7.15039 54.8555 6.5918 55.1016 6.0957C 55.3477 5.5957 55.6934 5.21289 56.1387 4.94727C 56.584 4.67773 57.0957 4.54297 57.6738 4.54297C 58.5293 4.54297 59.2227 4.81836 59.7539 5.36914C 60.2891 5.91992 60.5781 6.65039 60.6211 7.56055L 60.627 7.89453C 60.627 8.51953 60.5059 9.07812 60.2637 9.57031C 60.0254 10.0625 59.6816 10.4434 59.2324 10.7129C 58.7871 10.9824 58.2715 11.1172 57.6855 11.1172C 56.791 11.1172 56.0742 10.8203 55.5352 10.2266C 55 9.62891 54.7324 8.83398 54.7324 7.8418L 54.7324 7.77148ZM 56.1562 7.89453C 56.1562 8.54688 56.291 9.05859 56.5605 9.42969C 56.8301 9.79688 57.2051 9.98047 57.6855 9.98047C 58.166 9.98047 58.5391 9.79297 58.8047 9.41797C 59.0742 9.04297 59.209 8.49414 59.209 7.77148C 59.209 7.13086 59.0703 6.62305 58.793 6.24805C 58.5195 5.87305 58.1465 5.68555 57.6738 5.68555C 57.209 5.68555 56.8398 5.87109 56.5664 6.24219C 56.293 6.60938 56.1562 7.16016 56.1562 7.89453ZM 63.1523 4.66016L 63.1934 5.39258C 63.6621 4.82617 64.2773 4.54297 65.0391 4.54297C 66.3594 4.54297 67.0312 5.29883 67.0547 6.81055L 67.0547 11L 65.6309 11L 65.6309 6.89258C 65.6309 6.49023 65.543 6.19336 65.3672 6.00195C 65.1953 5.80664 64.9121 5.70898 64.5176 5.70898C 63.9434 5.70898 63.5156 5.96875 63.2344 6.48828L 63.2344 11L 61.8105 11L 61.8105 4.66016L 63.1523 4.66016ZM 73.2012 11L 71.7246 11L 71.7246 2.46875L 73.2012 2.46875L 73.2012 11ZM 75.0234 11L 75.0234 2.46875L 77.543 2.46875C 78.2969 2.46875 78.9648 2.63672 79.5469 2.97266C 80.1328 3.30859 80.5859 3.78516 80.9062 4.40234C 81.2266 5.01953 81.3867 5.72656 81.3867 6.52344L 81.3867 6.95117C 81.3867 7.75977 81.2246 8.4707 80.9004 9.08398C 80.5801 9.69727 80.1211 10.1699 79.5234 10.502C 78.9297 10.834 78.248 11 77.4785 11L 75.0234 11ZM 76.5059 3.66406L 76.5059 9.81641L 77.4727 9.81641C 78.25 9.81641 78.8457 9.57422 79.2598 9.08984C 79.6777 8.60156 79.8906 7.90234 79.8984 6.99219L 79.8984 6.51758C 79.8984 5.5918 79.6973 4.88477 79.2949 4.39648C 78.8926 3.9082 78.3086 3.66406 77.543 3.66406L 76.5059 3.66406Z"/>
<path id="path6_fill" fill-rule="evenodd" d="M 1.38477 2.76904C 2.15039 2.76904 2.76953 2.15088 2.76953 1.38477C 2.76953 0.618652 2.15039 0 1.38477 0C 0.618164 0 0 0.618652 0 1.38477C 0 2.15088 0.618164 2.76904 1.38477 2.76904ZM 1.38477 4.61523C 0.618164 4.61523 0 5.23389 0 6C 0 6.76611 0.618164 7.38428 1.38477 7.38428C 2.15039 7.38428 2.76953 6.76611 2.76953 6C 2.76953 5.23389 2.15039 4.61523 1.38477 4.61523ZM 0 10.6157C 0 9.84961 0.618164 9.23096 1.38477 9.23096C 2.15039 9.23096 2.76953 9.84961 2.76953 10.6157C 2.76953 11.3818 2.15039 12 1.38477 12C 0.618164 12 0 11.3818 0 10.6157Z"/>
<path id="path7_stroke" d="M 11.3001 5.57309C 11.3002 5.29695 11.0763 5.07305 10.8002 5.073C 10.5241 5.07295 10.3002 5.29677 10.3001 5.57291L 11.3001 5.57309ZM 3.16738 0.498556L 3.37952 0.951322L 3.16738 0.498556ZM 9.52591 2.83588C 9.67125 3.07068 9.97941 3.1432 10.2142 2.99786C 10.449 2.85252 10.5215 2.54436 10.3762 2.30956L 9.52591 2.83588ZM 10.3001 5.57291C 10.2999 6.79797 9.87137 7.9796 9.09659 8.90125L 9.86205 9.54473C 10.7905 8.44033 11.2998 7.03007 11.3001 5.57309L 10.3001 5.57291ZM 9.09659 8.90125C 8.32213 9.82252 7.25443 10.4217 6.09112 10.5932L 6.23701 11.5825C 7.64683 11.3746 8.93334 10.6495 9.86205 9.54473L 9.09659 8.90125ZM 6.09112 10.5932C 4.92798 10.7648 3.74267 10.4981 2.75207 9.83949L 2.19843 10.6722C 3.39285 11.4663 4.827 11.7905 6.23701 11.5825L 6.09112 10.5932ZM 2.75207 9.83949C 1.76104 9.18062 1.03008 8.17256 0.697577 6.99761L -0.264636 7.2699C 0.131429 8.66947 1.00445 9.87845 2.19843 10.6722L 2.75207 9.83949ZM 0.697577 6.99761C 0.365018 5.82245 0.454555 4.56289 0.948956 3.45122L 0.0352432 3.04486C -0.554456 4.37081 -0.660645 5.87054 -0.264636 7.2699L 0.697577 6.99761ZM 0.948956 3.45122C 1.44323 2.33983 2.30756 1.45358 3.37952 0.951322L 2.95524 0.0457903C 1.66048 0.652435 0.625069 1.71862 0.0352432 3.04486L 0.948956 3.45122ZM 3.37952 0.951322C 4.45106 0.449262 5.66084 0.363105 6.78808 0.707768L 7.08048 -0.24853C 5.71554 -0.665868 4.25041 -0.561051 2.95524 0.0457903L 3.37952 0.951322ZM 6.78808 0.707768C 7.91566 1.05253 8.88877 1.80656 9.52591 2.83588L 10.3762 2.30956C 9.61421 1.07854 8.44508 0.168706 7.08048 -0.24853L 6.78808 0.707768Z"/>
<path id="path8_stroke" d="M 3.82311 0C 3.82311 -0.276142 3.59925 -0.5 3.32311 -0.5C 3.04697 -0.5 2.82311 -0.276142 2.82311 0L 3.82311 0ZM 3.32311 3.4289L 3.32311 3.9289C 3.59925 3.9289 3.82311 3.70504 3.82311 3.4289L 3.32311 3.4289ZM 0 2.9289C -0.276142 2.9289 -0.5 3.15276 -0.5 3.4289C -0.5 3.70504 -0.276142 3.9289 0 3.9289L 0 2.9289ZM 2.82311 0L 2.82311 3.4289L 3.82311 3.4289L 3.82311 0L 2.82311 0ZM 3.32311 2.9289L 0 2.9289L 0 3.9289L 3.32311 3.9289L 3.32311 2.9289Z"/>
<path id="path9_fill" d="M 2.25 0L 0.75 0C 0.3 0 0 0.3 0 0.75L 0 11.25C 0 11.7 0.3 12 0.75 12L 2.25 12C 2.7 12 3 11.7 3 11.25L 3 0.75C 3 0.3 2.7 0 2.25 0Z"/>
<path id="path10_fill" d="M 2.25 1.33227e-15L 0.75 1.33227e-15C 0.3 1.33227e-15 0 0.3 0 0.75L 0 3.75C 0 4.2 0.3 4.5 0.75 4.5L 2.25 4.5C 2.7 4.5 3 4.2 3 3.75L 3 0.75C 3 0.3 2.7 1.33227e-15 2.25 1.33227e-15Z"/>
<path id="path11_fill" d="M 2.25 6.66134e-16L 0.75 6.66134e-16C 0.3 6.66134e-16 0 0.3 0 0.75L 0 7.5C 0 7.95 0.3 8.25 0.75 8.25L 2.25 8.25C 2.7 8.25 3 7.95 3 7.5L 3 0.75C 3 0.3 2.7 6.66134e-16 2.25 6.66134e-16Z"/>
<path id="path12_fill" d="M 0 1C 0 0.447715 0.447715 0 1 0L 299 0C 299.552 0 300 0.447715 300 1L 300 239C 300 239.552 299.552 240 299 240L 1 240C 0.447715 240 0 239.552 0 239L 0 1Z"/>
<path id="path13_stroke_2x" d="M 1 2L 299 2L 299 -2L 1 -2L 1 2ZM 298 1L 298 239L 302 239L 302 1L 298 1ZM 299 238L 1 238L 1 242L 299 242L 299 238ZM 2 239L 2 1L -2 1L -2 239L 2 239ZM 1 238C 1.55228 238 2 238.448 2 239L -2 239C -2 240.657 -0.656854 242 1 242L 1 238ZM 298 239C 298 238.448 298.448 238 299 238L 299 242C 300.657 242 302 240.657 302 239L 298 239ZM 299 2C 298.448 2 298 1.55228 298 1L 302 1C 302 -0.656854 300.657 -2 299 -2L 299 2ZM 1 -2C -0.656854 -2 -2 -0.656854 -2 1L 2 1C 2 1.55228 1.55228 2 1 2L 1 -2Z"/>
</defs>
</svg>
