<?xml version="1.0" encoding="UTF-8"?>
<svg width="137px" height="137px" viewBox="0 0 137 137" version="1.1" xmlns="http://www.w3.org/2000/svg" xmlns:xlink="http://www.w3.org/1999/xlink">
    <!-- Generator: Sketch 49.3 (51167) - http://www.bohemiancoding.com/sketch -->
    <title>Hover</title>
    <desc>Created with Sketch.</desc>
    <defs></defs>
    <g id="Version_2" stroke="none" stroke-width="1" fill="none" fill-rule="evenodd">
        <g id="AS_redesign_newBrand_v5" transform="translate(-490.000000, -363.000000)">
            <g id="1.-Sources" transform="translate(490.000000, 363.000000)">
                <g id="Hover">
                    <rect id="Rectangle-6" fill="#30A7DD" x="0" y="0" width="137.001972" height="137.001972" rx="3"></rect>
                    <g id="Group-15" transform="translate(23.589744, 58.974359)" fill="#FFFFFF" fill-rule="nonzero">
                        <path d="M0.026554468,5.80764205 C-0.0470904815,5.61599986 0.0533343808,5.57600497 0.0767668992,5.54267589 C0.297701558,5.38269633 0.521984464,5.26771101 0.747940451,5.13939596 C1.94634231,4.5061492 3.07779817,4.32117468 4.26114134,4.32117468 C6.67133538,4.32117468 8.16766888,5.59766887 8.16766888,7.65238748 L8.16766888,7.69238237 C8.16766888,9.59212078 6.47885996,10.2820232 4.89381621,10.7802834 L4.68794288,10.8469416 C3.49288719,11.2335589 2.46186358,11.5668496 2.46186358,12.3500734 L2.46186358,12.3917348 C2.46186358,13.0616397 3.06440972,13.5549101 3.9983624,13.5549101 C5.03608023,13.5549101 6.26796834,13.2116206 7.06132345,12.7750192 C7.06132345,12.7750192 7.29397365,12.6250383 7.37933207,12.8500001 C7.42620108,12.9699848 7.82790167,14.0465424 7.86974292,14.1631941 C7.91493601,14.2897878 7.83459589,14.3831471 7.75257985,14.4331407 C6.84707998,14.9813661 5.59511868,15.3563182 4.29963074,15.3563182 L4.05861986,15.3546139 C1.85261375,15.3546139 0.312765922,14.0281735 0.312765922,12.1267686 L0.312765922,12.0867737 C0.312765922,10.0820487 2.01161806,9.43214122 3.60335604,8.97886578 L3.85944075,8.90054245 C5.01934942,8.54559726 6.01857785,8.24063621 6.01857785,7.42741622 L6.01857785,7.38742133 C6.01857785,6.64419239 5.36916269,6.09092973 4.32138932,6.09092973 C3.91467044,6.09092973 2.61751605,6.099262 1.21658703,6.9808066 C1.04753665,7.07912737 0.948789797,7.15078489 0.818237344,7.22910821 C0.749613533,7.27243601 0.577217939,7.34742644 0.501898961,7.12078872 L0.026554468,5.80764205 Z" id="path0_fill" transform="translate(4.734244, 9.838746) scale(-1, 1) rotate(-180.000000) translate(-4.734244, -9.838746) "></path>
                        <path d="M35.2901968,5.80764205 C35.2165519,5.61599986 35.3169767,5.57600497 35.3404092,5.54267589 C35.5613439,5.38269633 35.7856268,5.26771101 36.0115828,5.13939596 C37.2099846,4.5061492 38.3414405,4.32117468 39.5247837,4.32117468 C41.9349777,4.32117468 43.4313112,5.59766887 43.4313112,7.65238748 L43.4313112,7.69238237 C43.4313112,9.59212078 41.7425023,10.2820232 40.1574585,10.7802834 L39.9515852,10.8469416 C38.7565295,11.2335589 37.7255059,11.5668496 37.7255059,12.3500734 L37.7255059,12.3917348 C37.7255059,13.0616397 38.3280521,13.5549101 39.2620047,13.5549101 C40.2997226,13.5549101 41.5316107,13.2116206 42.3249658,12.7750192 C42.3249658,12.7750192 42.557616,12.6250383 42.6429744,12.8500001 C42.6898434,12.9699848 43.091544,14.0465424 43.1333853,14.1631941 C43.1785783,14.2897878 43.0982382,14.3831471 43.0162222,14.4331407 C42.1107223,14.9813661 40.858761,15.3563182 39.5632731,15.3563182 L39.3222622,15.3546139 C37.1162561,15.3546139 35.5764083,14.0281735 35.5764083,12.1267686 L35.5764083,12.0867737 C35.5764083,10.0820487 37.2752604,9.43214122 38.8669984,8.97886578 L39.1230831,8.90054245 C40.2829918,8.54559726 41.2838961,8.24063621 41.2838961,7.42741622 L41.2838961,7.38742133 C41.2838961,6.64419239 40.632805,6.09092973 39.5850317,6.09092973 C39.1783128,6.09092973 37.8811584,6.099262 36.4802294,6.9808066 C36.311179,7.07912737 36.2107562,7.14745198 36.0835537,7.22910821 C36.0400365,7.25743793 35.8358391,7.33576126 35.7655413,7.12078872 L35.2901968,5.80764205 Z" id="path1_fill" transform="translate(39.997886, 9.838746) scale(-1, 1) rotate(-180.000000) translate(-39.997886, -9.838746) "></path>
                        <path d="M59.4159169,9.8304566 C59.4159169,8.66895723 59.198331,7.75408355 58.7698535,7.10749947 C58.3463944,6.46759068 57.7053494,6.15596381 56.811562,6.15596381 C55.9161082,6.15596381 55.2784056,6.46592422 54.8616501,7.10749947 C54.4398574,7.7524171 54.2256234,8.66895723 54.2256234,9.8304566 C54.2256234,10.990299 54.4398574,11.9035062 54.8616501,12.5434245 C55.2784056,13.1766674 55.9161082,13.4849614 56.811562,13.4849614 C57.7053494,13.4849614 58.3463944,13.1766674 58.77152,12.5434245 C59.198331,11.9035062 59.4159169,10.990299 59.4159169,9.8304566 Z M61.4277527,11.983496 C61.230259,12.6484111 60.922287,13.2349933 60.5122257,13.7232643 C60.102155,14.2131544 59.5832913,14.6064754 58.9673473,14.8930865 C58.3530886,15.1780879 57.6266757,15.3230505 56.811562,15.3230505 C55.9947724,15.3230505 55.268369,15.1780879 54.6541008,14.8930865 C54.0381568,14.6064754 53.5193026,14.2131544 53.107556,13.7232643 C52.6991611,13.2333269 52.391192,12.6467446 52.1920157,11.983496 C51.9961875,11.3219233 51.8974357,10.5986918 51.8974357,9.8304566 C51.8974357,9.06223086 51.9961875,8.33733292 52.1920157,7.67742668 C52.391192,7.01417806 52.6974881,6.42759579 53.1092319,5.93765836 C53.5193026,5.44773041 54.0398327,5.05611661 54.6541008,4.77782166 C55.2700354,4.49952577 55.9947724,4.35787922 56.811562,4.35787922 C57.6266757,4.35787922 58.3514127,4.49952577 58.9673473,4.77782166 C59.5816154,5.05611661 60.102155,5.44773041 60.5122257,5.93765836 C60.922287,6.42592933 61.230259,7.0125116 61.4277527,7.67742668 C61.6252653,8.33899937 61.7240217,9.06389731 61.7240217,9.8304566 C61.7240217,10.5970254 61.6252653,11.3219233 61.4277527,11.983496 Z" id="path2_fill" transform="translate(56.810729, 9.840465) scale(-1, 1) rotate(-180.000000) translate(-56.810729, -9.840465) "></path>
                        <path d="M77.9423976,6.44925312 C77.8754459,6.64422822 77.6863129,6.57090425 77.6863129,6.57090425 C77.3934052,6.45925184 77.0820908,6.35593171 76.7506843,6.30427164 C76.4142595,6.25261157 76.0443635,6.22594831 75.6476812,6.22594831 C74.6735632,6.22594831 73.9002908,6.51424482 73.3462801,7.08416255 C72.7905935,7.65408976 72.4792791,8.57562925 72.4826215,9.82212723 C72.4859733,10.9569633 72.7604648,11.8101877 73.254218,12.4600952 C73.7446289,13.1066698 74.4911244,13.4382941 75.487001,13.4382941 C76.3171791,13.4382941 76.9498634,13.3433063 77.612667,13.1349995 C77.612667,13.1349995 77.7716713,13.0666749 77.8469931,13.2733152 C78.0227377,13.7599197 78.1532892,14.108218 78.3407463,14.6430929 C78.3943096,14.7947781 78.2637581,14.8597319 78.2168891,14.8781008 C77.955786,14.9797923 77.339842,15.1447334 76.8745416,15.2147055 C76.4393699,15.2813636 75.9305428,15.316397 75.3648196,15.316397 C74.5195772,15.316397 73.7663874,15.1730441 73.1220001,14.886433 C72.4792791,14.6014316 71.9336386,14.2082053 71.5018093,13.7182584 C71.06998,13.228321 70.7419243,12.6417387 70.5226635,11.9784901 C70.3050758,11.3169174 70.1946085,10.590353 70.1946085,9.82212723 C70.1946085,8.16068225 70.6448477,6.81753941 71.5336044,5.83434113 C72.42404,4.84780521 73.7613691,4.3462074 75.5054172,4.3462074 C76.5364408,4.3462074 77.5942508,4.55451218 78.3541348,4.85280457 C78.3541348,4.85280457 78.4997507,4.92279468 78.4361508,5.09110557 L77.9423976,6.44925312 Z" id="path3_fill" transform="translate(74.928852, 9.831302) scale(-1, 1) rotate(-180.000000) translate(-74.928852, -9.831302) "></path>
                        <path d="M81.4238618,10.9436196 C81.5192662,11.5885277 81.6983532,12.1251259 81.9745206,12.5434058 C82.3912855,13.1783152 83.0273123,13.5266041 83.9210901,13.5266041 C84.8148775,13.5266041 85.4057111,13.1766488 85.8291703,12.5434058 C86.110356,12.1251259 86.2325373,11.5651974 86.2810823,10.9436196 L81.4238618,10.9436196 Z M88.1975231,12.3617623 C88.0267968,13.0033376 87.6033376,13.6515786 87.3254943,13.9482263 C86.8869803,14.4181474 86.4584933,14.7464198 86.0333677,14.9297298 C85.4776811,15.1663473 84.8115257,15.3230507 84.0817704,15.3230507 C83.2315097,15.3230507 82.4599131,15.1814022 81.833923,14.8880684 C81.2062665,14.5948294 80.6790421,14.1948804 80.2656196,13.6965729 C79.8522083,13.1999791 79.5408902,12.608388 79.3433879,11.9368166 C79.1442117,11.2685781 79.0437869,10.5403378 79.0437869,9.77211202 C79.0437869,8.99055465 79.1475597,8.26232381 79.3534302,7.60740746 C79.5609757,6.94750122 79.8923775,6.3659183 80.3409414,5.88431315 C80.7878351,5.39938456 81.3636043,5.01943215 82.0531848,4.75446883 C82.737747,4.49117197 83.569601,4.35452351 84.5253122,4.35618995 C86.4919739,4.36285571 87.5280253,4.79946308 87.9548268,5.03443023 C88.0301486,5.07609158 88.1021186,5.1494146 88.0117324,5.35938967 L87.5665147,6.60087882 C87.4995725,6.7858552 87.31043,6.71753059 87.31043,6.71753059 C86.823371,6.53755358 86.1304386,6.21427101 84.5152756,6.21760392 C83.4591416,6.21927037 82.6758231,6.52922131 82.1854122,7.01415937 C81.6816129,7.51075314 81.4355743,8.24065991 81.3920571,9.2705189 L88.2025414,9.26385308 C88.2025414,9.26385308 88.3816378,9.26718599 88.4000446,9.44049718 C88.4067388,9.51381168 88.6343234,10.8336336 88.1975231,12.3617623 Z" id="path4_fill" transform="translate(83.778031, 9.839613) scale(-1, 1) rotate(-180.000000) translate(-83.778031, -9.839613) "></path>
                        <path d="M26.9315541,10.9436196 C27.028625,11.5885277 27.2060455,12.1251259 27.4822129,12.5434058 C27.8989779,13.1783152 28.5350046,13.5266041 29.4287825,13.5266041 C30.3225698,13.5266041 30.9134034,13.1766488 31.3385291,12.5434058 C31.6180483,12.1251259 31.7402296,11.5651974 31.7887746,10.9436196 L26.9315541,10.9436196 Z M33.7035395,12.3617623 C33.5328132,13.0033376 33.1110299,13.6515786 32.8331866,13.9482263 C32.3946631,14.4181474 31.9661856,14.7464198 31.54106,14.9297298 C30.9853734,15.1663473 30.319218,15.3230507 29.5894627,15.3230507 C28.7408779,15.3230507 27.9676055,15.1814022 27.3416153,14.8880684 C26.7139588,14.5948294 26.1867344,14.1948804 25.7733119,13.6965729 C25.3598997,13.1999791 25.0485825,12.608388 24.8510802,11.9368166 C24.653578,11.2685781 24.5514792,10.5403378 24.5514792,9.77211202 C24.5514792,8.99055465 24.655252,8.26232381 24.8611225,7.60740746 C25.068668,6.94750122 25.4000698,6.3659183 25.8486337,5.88431315 C26.2955274,5.39938456 26.8712966,5.01943215 27.5608771,4.75446883 C28.2454393,4.49117197 29.0772933,4.35452351 30.0330045,4.35618995 C31.9996662,4.36285571 33.0357176,4.79946308 33.4625191,5.03443023 C33.5378409,5.07609158 33.6098109,5.1494146 33.5194247,5.35938967 L33.0758829,6.60087882 C33.0072553,6.7858552 32.8181223,6.71753059 32.8181223,6.71753059 C32.3310633,6.53755358 31.6398069,6.21427101 30.021292,6.21760392 C28.9668339,6.21927037 28.1835154,6.52922131 27.6931045,7.01415937 C27.1893052,7.51075314 26.9432666,8.24065991 26.8997494,9.2705189 L33.7102337,9.26385308 C33.7102337,9.26385308 33.8893301,9.26718599 33.9077369,9.44049718 C33.9144311,9.51381168 34.1420157,10.8336336 33.7035395,12.3617623 Z" id="path5_fill" transform="translate(29.285723, 9.839613) scale(-1, 1) rotate(-180.000000) translate(-29.285723, -9.839613) "></path>
                        <path d="M12.1849935,6.49260653 C11.9188627,6.70424617 11.8820398,6.75757269 11.7916631,6.89421243 C11.6577597,7.10251916 11.5891321,7.39914794 11.5891321,7.7757665 C11.5891321,8.3723475 11.7866353,8.80062613 12.196706,9.08891317 C12.1916877,9.08724672 12.7825214,9.59718158 14.1717284,9.57885059 C15.1475223,9.56551896 16.0195511,9.42220393 16.0195511,9.42220393 L16.0195511,6.33929278 L16.021227,6.33929278 C16.021227,6.33929278 15.1558925,6.15431641 14.1817745,6.09599053 C12.7959098,6.01266784 12.1799658,6.49427299 12.1849935,6.49260653 Z M14.8947894,11.2569506 C14.6186221,11.2769481 14.2604387,11.2886133 13.8319612,11.2886133 C13.2478218,11.2886133 12.683765,11.2152893 12.1548648,11.0736407 C11.6226127,10.9319921 11.1439144,10.7103633 10.7321772,10.4170674 C10.3187594,10.1221051 9.98568353,9.74549597 9.74466317,9.29888635 C9.50364377,8.85227673 9.38145965,8.32568679 9.38145965,7.73577161 C9.38145965,7.13584824 9.4852323,6.61425766 9.69277681,6.18764549 C9.90032227,5.75937632 10.1999232,5.40275521 10.5815336,5.12779222 C10.9598091,4.85283018 11.4267854,4.65119117 11.9690741,4.52954099 C12.5030021,4.40789118 13.1089001,4.34623298 13.7717037,4.34623298 C14.4696544,4.34623298 15.1659385,4.40289192 15.8404546,4.51787581 C16.508286,4.63119372 17.328418,4.79617075 17.5560499,4.84783082 C17.7820059,4.9011564 18.0330723,4.969481 18.0330723,4.969481 C18.2021132,5.0111414 18.1887248,5.19111652 18.1887248,5.19111652 L18.1853824,11.3919334 C18.1853824,12.7517502 17.8205048,13.7599453 17.102462,14.3848182 C16.3877711,15.0081287 15.3349889,15.3230506 13.9742252,15.3230506 C13.4637317,15.3230506 12.6419238,15.2530785 12.149837,15.1547956 C12.149837,15.1547956 10.6618737,14.8680898 10.0492853,14.3915408 C10.0492853,14.3915408 9.91538569,14.3082181 9.98903064,14.1215942 L10.4710742,12.8317306 C10.5313222,12.6650946 10.6936783,12.7217541 10.6936783,12.7217541 C10.6936783,12.7217541 10.7455656,12.7417515 10.8058231,12.7767471 C12.1163659,13.4866469 13.7733797,13.464983 13.7733797,13.464983 C14.5098291,13.464983 15.0755523,13.3183351 15.4571703,13.0267057 C15.8287421,12.743418 16.0178752,12.3151393 16.0178752,11.4119308 L16.0178752,11.1253008 C15.4320598,11.2086235 14.8947894,11.2569506 14.8947894,11.2569506 Z" id="path6_fill" transform="translate(14.115703, 9.834642) scale(-1, 1) rotate(-180.000000) translate(-14.115703, -9.834642) "></path>
                        <path d="M69.8293696,14.647978 C69.8812569,14.8012728 69.7724546,14.8745589 69.7272709,14.8912234 C69.6117838,14.9361988 69.0326627,15.0578688 68.585769,15.0861796 C67.7304805,15.1378775 67.2551435,14.9945246 66.8300084,14.8045868 C66.4082252,14.6146489 65.9395729,14.3079646 65.6784699,13.9597136 L65.6784699,14.7846083 C65.6784699,14.8995557 65.5964539,14.9912107 65.4826426,14.9912107 L63.7369196,14.9912107 C63.6231049,14.9912107 63.5410914,14.8995557 63.5410914,14.7846083 L63.5410914,4.67097393 C63.5410914,4.55765611 63.6348215,4.46433545 63.7486368,4.46433545 L65.5378723,4.46433545 C65.651693,4.46433545 65.7437457,4.55765611 65.7437457,4.67097393 L65.7437457,9.72361644 C65.7437457,10.4018537 65.8190675,11.0784245 65.9697016,11.5033702 C66.1169934,11.9233165 66.317839,12.2599307 66.5655536,12.5015665 C66.8149441,12.7415359 67.0978057,12.9098477 67.4074536,13.0048356 C67.7237863,13.1014804 68.0735996,13.1331431 68.3213141,13.1331431 C68.6778311,13.1331431 69.0694856,13.0414881 69.0694856,13.0414881 C69.2000371,13.02649 69.273683,13.1064798 69.3172002,13.224798 C69.4343633,13.5347584 69.7657603,14.4629637 69.8293696,14.647978 Z" id="path7_fill" transform="translate(68.275335, 9.780583) scale(-1, 1) rotate(-180.000000) translate(-68.275335, -9.780583) "></path>
                        <path d="M53.0035267,19.730563 C52.7859408,19.7972211 52.5885229,19.8421964 52.330696,19.8905804 C52.0696498,19.9371654 51.7583259,19.9605525 51.4051513,19.9605525 C50.1732632,19.9605525 49.2024876,19.6139112 48.5212772,18.9306651 C47.8434093,18.250733 47.3831271,17.215922 47.1521434,15.8544482 L47.0684609,15.3961734 L45.521916,15.3961734 C45.521916,15.3961734 45.3344589,15.4028013 45.2942841,15.1995129 L45.0415512,13.7880455 C45.023135,13.6547292 45.0817166,13.5697021 45.2624795,13.5697021 L46.7671831,13.5697021 L45.2407209,5.08424242 C45.1218914,4.40100583 44.9846456,3.83941089 44.8323261,3.41280819 C44.6833678,2.99286183 44.5377519,2.67790206 44.3569891,2.4479409 C44.1829204,2.22796899 44.0188883,2.06465652 43.7343508,1.96966865 C43.5000246,1.89134532 43.2288756,1.85468334 42.9326255,1.85468334 C42.7685935,1.85468334 42.5493412,1.8813466 42.386985,1.91467568 C42.2263048,1.9463383 42.1409416,1.98133383 42.0187574,2.0329939 C42.0187574,2.0329939 41.8430147,2.09965205 41.7727169,1.9246744 C41.7174834,1.77969292 41.3157834,0.681512165 41.2672447,0.546530353 C41.2203796,0.411549487 41.28733,0.306563844 41.3726913,0.274901222 C41.5735406,0.204911108 41.7225045,0.158250402 41.9953257,0.0932590815 C42.3735966,0.00493783428 42.6932811,-6.10713055e-05 42.992883,-6.10713055e-05 C43.6188636,-6.10713055e-05 44.1912811,0.0882597201 44.6649516,0.258236683 C45.1402981,0.429879532 45.5553871,0.728171924 45.9236166,1.13145185 C46.3202894,1.56805328 46.5696799,2.02466163 46.8073579,2.64957234 C47.0433505,3.26616025 47.245872,4.03271954 47.4065522,4.92592931 L48.9413846,13.5697021 L51.1842515,13.5697021 C51.1842515,13.5697021 51.3733372,13.5630742 51.4118739,13.768067 L51.6662922,15.1778301 C51.6829567,15.3128507 51.6260511,15.3961734 51.4435934,15.3961734 L49.2660874,15.3961734 C49.2778094,15.4444627 49.3765562,16.2077175 49.6259467,16.9259969 C49.7330637,17.2308822 49.9339188,17.4792407 50.1029691,17.6492 C50.2703436,17.8158454 50.462819,17.9341068 50.6737106,18.0024693 C50.8895922,18.0724414 51.1356781,18.1057705 51.4051513,18.1057705 C51.6093866,18.1057705 51.8118228,18.082478 51.9641708,18.0507586 C52.175034,18.0057833 52.2571258,17.9824908 52.3123271,17.9658262 C52.5349312,17.8991681 52.565041,17.9641219 52.6085961,18.0708318 L53.1290788,19.4939455 C53.1826705,19.6472403 53.0503957,19.7121941 53.0035267,19.730563 Z" id="path8_fill" transform="translate(47.196727, 9.980246) scale(-1, 1) rotate(-180.000000) translate(-47.196727, -9.980246) "></path>
                        <path d="M22.6222585,0.420465098 C22.6222585,0.30714728 22.5402425,0.215493167 22.4264313,0.215493167 L20.6204536,0.215493167 C20.5066384,0.215493167 20.4262984,0.30714728 20.4262984,0.420465098 L20.4262984,14.8918383 C20.4262984,15.0051761 20.5066384,15.096831 20.6204536,15.096831 L22.4264313,15.096831 C22.5402425,15.096831 22.6222585,15.0051761 22.6222585,14.8918383 L22.6222585,0.420465098 Z" id="path9_fill" transform="translate(25.160542, 7.656162) scale(-1, 1) rotate(-180.000000) translate(-25.160542, -7.656162) "></path>
                    </g>
                </g>
            </g>
        </g>
    </g>
</svg>