<?xml version="1.0" encoding="UTF-8"?>
<svg width="190px" height="233px" viewBox="0 0 190 233" version="1.1" xmlns="http://www.w3.org/2000/svg" xmlns:xlink="http://www.w3.org/1999/xlink">
    <!-- Generator: Sketch 49.3 (51167) - http://www.bohemiancoding.com/sketch -->
    <title>Dropdown</title>
    <desc>Created with Sketch.</desc>
    <defs></defs>
    <g id="Version_2" stroke="none" stroke-width="1" fill="none" fill-rule="evenodd">
        <g id="AS_redesign_newBrand_v5" transform="translate(-636.000000, -450.000000)">
            <g id="4.-Dropdown" transform="translate(636.000000, 450.000000)">
                <g id="Dropdown">
                    <g id="Rectangle-2" fill="#FFFFFF" fill-rule="nonzero">
                        <g id="path0_fill-link">
                            <path d="M0,1.82135076 C0,0.815446967 0.814028182,0 1.81818182,0 L188.181818,0 C189.186364,0 190,0.815446967 190,1.82135076 L190,230.400871 C190,231.407168 189.186364,232.222222 188.181818,232.222222 L1.81818182,232.222222 C0.814028182,232.222222 0,231.407168 0,230.400871 L0,1.82135076 Z" id="path0_fill"></path>
                        </g>
                    </g>
                    <g id="Line" transform="translate(0.000000, 161.212121)" fill="#E0E0E0" fill-rule="nonzero">
                        <g id="path1_stroke-link" transform="translate(0.000000, 0.479798)">
                            <polygon id="path1_stroke" points="0 1.43939394 190 1.43939394 190 0.47979798 0 0.47979798"></polygon>
                        </g>
                    </g>
                    <g id="prototype" transform="translate(16.313131, 204.393939)" fill="#000000" fill-rule="nonzero">
                        <g id="Group">
                            <g id="Vector">
                                <g id="path2_stroke-link">
                                    <path d="M6.0068532,3.08496224 C6.0068532,3.32956177 6.20733838,3.52785268 6.45466465,3.52785268 C6.70198195,3.52785268 6.90247609,3.32956177 6.90247609,3.08496224 L6.0068532,3.08496224 Z M6.45466465,0.885780886 L6.90247609,0.885780886 C6.90247609,0.64117958 6.70198195,0.442890443 6.45466465,0.442890443 L6.45466465,0.885780886 Z M0.895622896,0.885780886 L0.895622896,0.442890443 C0.648303798,0.442890443 0.447811448,0.64117958 0.447811448,0.885780886 L0.895622896,0.885780886 Z M0.895622896,10.4155431 L0.447811448,10.4155431 C0.447811448,10.6601958 0.648303798,10.8584336 0.895622896,10.8584336 L0.895622896,10.4155431 Z M6.45466465,10.4155431 L6.45466465,10.8584336 C6.70198195,10.8584336 6.90247609,10.6601958 6.90247609,10.4155431 L6.45466465,10.4155431 Z M6.90247609,8.21637949 C6.90247609,7.97177995 6.70198195,7.77348904 6.45466465,7.77348904 C6.20733838,7.77348904 6.0068532,7.97177995 6.0068532,8.21637949 L6.90247609,8.21637949 Z M6.90247609,3.08496224 L6.90247609,0.885780886 L6.0068532,0.885780886 L6.0068532,3.08496224 L6.90247609,3.08496224 Z M6.45466465,0.442890443 L0.895622896,0.442890443 L0.895622896,1.32867133 L6.45466465,1.32867133 L6.45466465,0.442890443 Z M0.447811448,0.885780886 L0.447811448,10.4155431 L1.34343434,10.4155431 L1.34343434,0.885780886 L0.447811448,0.885780886 Z M0.895622896,10.8584336 L6.45466465,10.8584336 L6.45466465,9.97265268 L0.895622896,9.97265268 L0.895622896,10.8584336 Z M6.90247609,10.4155431 L6.90247609,8.21637949 L6.0068532,8.21637949 L6.0068532,10.4155431 L6.90247609,10.4155431 Z" id="path2_stroke"></path>
                                </g>
                            </g>
                            <g id="Vector" transform="translate(4.478114, 3.543124)">
                                <g id="path3_stroke-link" transform="translate(0.000000, 0.124009)">
                                    <path d="M2.67142815,1.98537156 C2.67142815,2.34805455 2.37414404,2.64207179 2.00743125,2.64207179 L2.00743125,3.52785268 C2.86878761,3.52785268 3.56705104,2.83726247 3.56705104,1.98537156 L2.67142815,1.98537156 Z M2.00743125,2.64207179 C1.64071576,2.64207179 1.34343434,2.34805455 1.34343434,1.98537156 L0.447811448,1.98537156 C0.447811448,2.83726247 1.14607667,3.52785268 2.00743125,3.52785268 L2.00743125,2.64207179 Z M1.34343434,1.98537156 C1.34343434,1.62268592 1.64071576,1.32867133 2.00743125,1.32867133 L2.00743125,0.442890443 C1.14607667,0.442890443 0.447811448,1.13348242 0.447811448,1.98537156 L1.34343434,1.98537156 Z M2.00743125,1.32867133 C2.37414404,1.32867133 2.67142815,1.62268592 2.67142815,1.98537156 L3.56705104,1.98537156 C3.56705104,1.13348242 2.86878761,0.442890443 2.00743125,0.442890443 L2.00743125,1.32867133 Z" id="path3_stroke"></path>
                                </g>
                            </g>
                            <g id="Vector" transform="translate(6.269360, 4.428904)">
                                <g id="path4_stroke-link" transform="translate(0.358249, 0.336597)">
                                    <path d="M0.895622896,0.442890443 C0.648303798,0.442890443 0.447811448,0.64117958 0.447811448,0.885780886 C0.447811448,1.13038219 0.648303798,1.32867133 0.895622896,1.32867133 L0.895622896,0.442890443 Z M4.97224754,1.32867133 C5.2195738,1.32867133 5.42005899,1.13038219 5.42005899,0.885780886 C5.42005899,0.64117958 5.2195738,0.442890443 4.97224754,0.442890443 L4.97224754,1.32867133 Z M0.895622896,1.32867133 L4.97224754,1.32867133 L4.97224754,0.442890443 L0.895622896,0.442890443 L0.895622896,1.32867133 Z" id="path4_stroke"></path>
                                </g>
                            </g>
                            <g id="Vector" transform="translate(8.060606, 2.657343)">
                                <g id="path5_stroke-link" transform="translate(0.806061, 0.274592)">
                                    <path d="M1.21227306,0.572610396 C1.03739194,0.399650163 0.753853852,0.399650163 0.578972734,0.572610396 C0.404090721,0.745569744 0.404090721,1.02599203 0.578972734,1.19895138 L1.21227306,0.572610396 Z M2.7486398,2.71843497 L3.06528727,3.0316028 C3.2401666,2.85864522 3.2401666,2.57821585 3.06528727,2.40525828 L2.7486398,2.71843497 Z M0.578972734,4.23791235 C0.404090721,4.41086993 0.404090721,4.69129044 0.578972734,4.86424802 C0.753853852,5.03721445 1.03739194,5.03721445 1.21227306,4.86424802 L0.578972734,4.23791235 Z M0.578972734,1.19895138 L2.43198337,3.0316028 L3.06528727,2.40525828 L1.21227306,0.572610396 L0.578972734,1.19895138 Z M2.43198337,2.40525828 L0.578972734,4.23791235 L1.21227306,4.86424802 L3.06528727,3.0316028 L2.43198337,2.40525828 Z" id="path5_stroke"></path>
                                </g>
                            </g>
                            <g id="Line-2" transform="translate(2.686869, 2.657343)">
                                <g id="path6_stroke-link">
                                    <path d="M0.447811448,0 C0.20049235,0 0,0.198289138 0,0.442890443 C0,0.687491748 0.20049235,0.885780886 0.447811448,0.885780886 L0.447811448,0 Z M1.34343434,0.885780886 C1.59075165,0.885780886 1.79124579,0.687491748 1.79124579,0.442890443 C1.79124579,0.198289138 1.59075165,0 1.34343434,0 L1.34343434,0.885780886 Z M0.447811448,0.885780886 L1.34343434,0.885780886 L1.34343434,0 L0.447811448,0 L0.447811448,0.885780886 Z" id="path6_stroke"></path>
                                </g>
                            </g>
                            <g id="Line-2.1" transform="translate(2.686869, 7.972028)">
                                <g id="path6_stroke-link">
                                    <path d="M0.447811448,0 C0.20049235,0 0,0.198289138 0,0.442890443 C0,0.687491748 0.20049235,0.885780886 0.447811448,0.885780886 L0.447811448,0 Z M1.34343434,0.885780886 C1.59075165,0.885780886 1.79124579,0.687491748 1.79124579,0.442890443 C1.79124579,0.198289138 1.59075165,0 1.34343434,0 L1.34343434,0.885780886 Z M0.447811448,0.885780886 L1.34343434,0.885780886 L1.34343434,0 L0.447811448,0 L0.447811448,0.885780886 Z" id="path6_stroke"></path>
                                </g>
                            </g>
                        </g>
                    </g>
                    <g id="Filter-Sort-Join-Group-by-Aggregate-Create-pivot-Add-to-dataframe" transform="translate(47.979798, 13.434343)" fill="#1B1725" fill-rule="nonzero">
                        <g id="path7_fill-link">
                            <path d="M5.1713687,4.77222035 L1.92063895,4.77222035 L1.92063895,8.20843571 L0.899137204,8.20843571 L0.899137204,0.427522693 L5.69808411,0.427522693 L5.69808411,1.27187887 L1.92063895,1.27187887 L1.92063895,3.93320878 L5.1713687,3.93320878 L5.1713687,4.77222035 Z M7.83686213,8.20843571 L6.85260311,8.20843571 L6.85260311,2.4261947 L7.83686213,2.4261947 L7.83686213,8.20843571 Z M6.77278949,0.892457612 C6.77278949,0.732128622 6.82067766,0.596753276 6.91644492,0.486304213 C7.01575341,0.375864271 7.16117945,0.32063974 7.35271398,0.32063974 C7.54423943,0.32063974 7.68966547,0.375864271 7.78897395,0.486304213 C7.88829152,0.596753276 7.9379503,0.732128622 7.9379503,0.892457612 C7.9379503,1.05277748 7.88829152,1.18637433 7.78897395,1.29325729 C7.68966547,1.40014024 7.54423943,1.45357716 7.35271398,1.45357716 C7.16117945,1.45357716 7.01575341,1.40014024 6.91644492,1.29325729 C6.82067766,1.18637433 6.77278949,1.05277748 6.77278949,0.892457612 Z M10.4863656,8.20843571 L9.50208841,8.20843571 L9.50208841,0 L10.4863656,0 L10.4863656,8.20843571 Z M13.4019689,1.02605446 L13.4019689,2.4261947 L14.4766834,2.4261947 L14.4766834,3.19039095 L13.4019689,3.19039095 L13.4019689,6.77623697 C13.4019689,7.00780606 13.4498208,7.18238124 13.5456153,7.29994429 C13.641319,7.41395034 13.8044875,7.47095336 14.0350299,7.47095336 C14.1485305,7.47095336 14.3046165,7.44961143 14.5032879,7.40683636 L14.5032879,8.20843571 C14.244325,8.27966669 13.9925352,8.31532778 13.7477372,8.31532778 C13.3078996,8.31532778 12.9762963,8.18171269 12.7528363,7.91448251 C12.5293763,7.64734353 12.4176918,7.26788578 12.4176918,6.77623697 L12.4176918,3.19039095 L11.3695818,3.19039095 L11.3695818,2.4261947 L12.4176918,2.4261947 L12.4176918,1.02605446 L13.4019689,1.02605446 Z M18.0199904,8.31532778 C17.2396511,8.31532778 16.6047742,8.05876856 16.1152688,7.54574133 C15.6258542,7.02918447 15.381147,6.33980356 15.381147,5.47763508 L15.381147,5.29593679 C15.381147,4.72234042 15.4892903,4.21110081 15.7056679,3.7621997 C15.9255866,3.3097416 16.2305854,2.95703424 16.6207551,2.70407761 C17.0144659,2.447564 17.4400478,2.31931175 17.8975914,2.31931175 C18.6460597,2.31931175 19.2277276,2.56691465 19.6426858,3.06212958 C20.057644,3.55734451 20.2652139,4.26631622 20.2652139,5.18905384 L20.2652139,5.60054272 L16.3653333,5.60054272 C16.379589,6.17057298 16.5444827,6.63194179 16.8601959,6.98464915 C17.1793596,7.33378128 17.5836941,7.50834735 18.0731995,7.50834735 C18.4207838,7.50834735 18.7151589,7.43711637 18.9564158,7.2946088 C19.1975818,7.15210124 19.4086022,6.96327985 19.5894767,6.72813553 L20.1906667,7.19841506 C19.7083345,7.94302962 18.9847455,8.31532778 18.0199904,8.31532778 Z M17.8975914,3.13160031 C17.5003393,3.13160031 17.16692,3.27767398 16.8974241,3.56981221 C16.6278375,3.85839345 16.4611278,4.26453772 16.3972951,4.78825416 L19.2809367,4.78825416 L19.2809367,4.71343883 C19.2525161,4.21110081 19.1177682,3.82276883 18.8766022,3.54843379 C18.6353453,3.27055088 18.3090992,3.13160031 17.8975914,3.13160031 Z M24.1916081,3.31329859 C24.0426045,3.28836319 23.8812521,3.27589549 23.70746,3.27589549 C23.0618686,3.27589549 22.6238471,3.5519999 22.3933047,4.10421785 L22.3933047,8.20843571 L21.4090275,8.20843571 L21.4090275,2.4261947 L22.3667001,2.4261947 L22.382681,3.0941972 C22.7054767,2.57760386 23.1630203,2.31931175 23.7553118,2.31931175 C23.94681,2.31931175 24.0922724,2.34424715 24.1916081,2.39412708 L24.1916081,3.31329859 Z M3.18156703,35.7498352 C2.30547861,35.496833 1.66704229,35.1869189 1.2662399,34.8199107 C0.868988722,34.4494366 0.670362676,33.9934124 0.670362676,33.451838 C0.670362676,32.8391239 0.913325687,32.3332107 1.39925352,31.9341895 C1.88872258,31.5316113 2.52361768,31.3303222 3.30392975,31.3303222 C3.83596607,31.3303222 4.3094724,31.4335661 4.72445783,31.6402363 C5.14299355,31.8469065 5.46576201,32.1319216 5.6927632,32.4952817 C5.9233147,32.8586418 6.0385859,33.25593 6.0385859,33.6869641 L5.01175962,33.6869641 C5.01175962,33.216712 4.86279235,32.8479708 4.56484875,32.5808318 C4.26691422,32.3100446 3.84660789,32.1746054 3.30392975,32.1746054 C2.80026858,32.1746054 2.40656679,32.2868786 2.12281529,32.5113337 C1.8426141,32.7322318 1.70250896,33.040413 1.70250896,33.4358772 C1.70250896,33.7529052 1.8355135,34.0218683 2.10153166,34.2427664 C2.37110012,34.4601076 2.82687312,34.6596638 3.46885974,34.8413438 C4.11439665,35.0230238 4.61805783,35.2243129 4.97984325,35.4452111 C5.34516989,35.6625522 5.61472927,35.9172873 5.78853047,36.2094164 C5.96587288,36.5015455 6.05454863,36.8452966 6.05454863,37.2407608 C6.05454863,37.871351 5.8098141,38.3772643 5.32034504,38.7585005 C4.83086691,39.1361798 4.17646786,39.3249738 3.35713883,39.3249738 C2.82510251,39.3249738 2.32853286,39.2234628 1.86743895,39.0203496 C1.40634504,38.8136795 1.04988053,38.5322213 0.798050848,38.1759752 C0.549768746,37.8197291 0.42562724,37.4153268 0.42562724,36.9628596 L1.45245352,36.9628596 C1.45245352,37.433203 1.62447503,37.8055011 1.96852712,38.0798453 C2.31612043,38.3505413 2.77899403,38.4859805 3.35713883,38.4859805 C3.89626667,38.4859805 4.3094724,38.3755314 4.59677419,38.1546333 C4.88407599,37.9337351 5.02772234,37.632668 5.02772234,37.2515229 C5.02772234,36.8702867 4.89470872,36.5763335 4.62869964,36.3697545 C4.36268148,36.1595274 3.88030394,35.9528572 3.18156703,35.7498352 Z M6.9536822,36.2735334 C6.9536822,35.7070602 7.06364158,35.1975899 7.28354217,34.7451227 C7.50700215,34.2926555 7.81557849,33.9435233 8.20928937,33.6977263 C8.60654146,33.451838 9.05876416,33.3289851 9.56601195,33.3289851 C10.3498017,33.3289851 10.9829534,33.6015052 11.4653763,34.1466365 C11.9512497,34.6916767 12.1942318,35.4166639 12.1942318,36.3215984 L12.1942318,36.3910965 C12.1942318,36.9540127 12.0859976,37.459926 11.8697109,37.9088362 C11.6568746,38.3540983 11.3500597,38.7014975 10.9492664,38.9508515 C10.5520143,39.2002968 10.0944707,39.3249738 9.5766356,39.3249738 C8.7962963,39.3249738 8.1631718,39.0524537 7.67725305,38.5073224 C7.19487551,37.9621911 6.9536822,37.2407608 6.9536822,36.3430315 L6.9536822,36.2735334 Z M7.94327121,36.3910965 C7.94327121,37.0323577 8.09046786,37.547209 8.38486117,37.9355592 C8.6827957,38.3238183 9.08004779,38.5179934 9.5766356,38.5179934 C10.0767646,38.5179934 10.4740167,38.3220854 10.7683919,37.9301782 C11.062767,37.534714 11.2099546,36.9824687 11.2099546,36.2735334 C11.2099546,35.6393862 11.0592258,35.1263589 10.7577682,34.7344517 C10.4597611,34.3389875 10.062509,34.1412554 9.56601195,34.1412554 C9.08004779,34.1412554 8.68811661,34.3354305 8.390173,34.7237808 C8.09223847,35.1120398 7.94327121,35.6678421 7.94327121,36.3910965 Z M16.2110633,34.3229355 C16.0621505,34.2980366 15.9007073,34.2855415 15.7269152,34.2855415 C15.0814146,34.2855415 14.6433931,34.5616186 14.4127599,35.1138639 L14.4127599,39.2180817 L13.4285735,39.2180817 L13.4285735,33.4358772 L14.3862461,33.4358772 L14.4021362,34.1038615 C14.7249319,33.5872772 15.1824755,33.3289851 15.774767,33.3289851 C15.966356,33.3289851 16.1117276,33.353884 16.2110633,33.4037731 L16.2110633,34.3229355 Z M18.7222413,32.0357005 L18.7222413,33.4358772 L19.7969558,33.4358772 L19.7969558,34.1999914 L18.7222413,34.1999914 L18.7222413,37.7858921 C18.7222413,38.0174612 18.770184,38.1920273 18.8658877,38.3095903 C18.9616822,38.4235963 19.1248507,38.4805994 19.3553931,38.4805994 C19.4688937,38.4805994 19.6249797,38.4592574 19.8235603,38.4164824 L19.8235603,39.2180817 C19.5646882,39.2893127 19.3128076,39.3249738 19.0681004,39.3249738 C18.6282628,39.3249738 18.2966595,39.1913587 18.0731995,38.9241285 C17.8497395,38.6569895 17.738055,38.2775774 17.738055,37.7858921 L17.738055,34.1999914 L16.689945,34.1999914 L16.689945,33.4358772 L17.738055,33.4358772 L17.738055,32.0357005 L18.7222413,32.0357005 Z M4.14454241,62.4468603 L5.1713687,62.4468603 L5.1713687,67.9565448 C5.1713687,68.7011411 4.9479178,69.2835752 4.50100693,69.7040295 C4.05764636,70.1243926 3.46531852,70.3346198 2.72401434,70.3346198 C1.95433501,70.3346198 1.35491565,70.1368877 0.925738112,69.7414235 C0.496565114,69.3459593 0.28197816,68.7919811 0.28197816,68.0793977 L1.30348626,68.0793977 C1.30348626,68.5247509 1.42407838,68.8721502 1.6652626,69.1215042 C1.91000621,69.3708582 2.26292043,69.4956265 2.72401434,69.4956265 C3.14609128,69.4956265 3.48659307,69.3620114 3.74551971,69.0947812 C4.00798757,68.827551 4.14100119,68.45352 4.14454241,67.9725056 L4.14454241,62.4468603 Z M6.49613859,67.2831794 C6.49613859,66.7167062 6.60608889,66.2072359 6.82599857,65.7547687 C7.04944946,65.3023015 7.35803489,64.9531694 7.75173668,64.7073723 C8.14898877,64.4614841 8.60122055,64.3386311 9.10837754,64.3386311 C9.89225806,64.3386311 10.5254098,64.6111512 11.0077419,65.1562825 C11.4937061,65.7013227 11.7366882,66.4263099 11.7366882,67.3312444 L11.7366882,67.4007425 C11.7366882,67.9636587 11.628454,68.469572 11.4121673,68.9184822 C11.1993309,69.3637443 10.8925161,69.7111435 10.4917228,69.9604975 C10.0944707,70.2099428 9.63692712,70.3346198 9.119092,70.3346198 C8.33874361,70.3346198 7.7056282,70.0620997 7.21970036,69.5169684 C6.73732282,68.9718371 6.49613859,68.2504068 6.49613859,67.3526775 L6.49613859,67.2831794 Z M7.48571852,67.4007425 C7.48571852,68.0420037 7.63291517,68.556855 7.92730848,68.9452053 C8.22524301,69.3334643 8.6224951,69.5276394 9.119092,69.5276394 C9.61922103,69.5276394 10.0163823,69.3317314 10.3108483,68.9398242 C10.6052234,68.54436 10.752411,67.9921147 10.752411,67.2831794 C10.752411,66.6490322 10.6016822,66.1360049 10.3002246,65.7440977 C10.0022174,65.3486335 9.60496535,65.1509014 9.10837754,65.1509014 C8.6224951,65.1509014 8.23056392,65.3450766 7.93262939,65.7334268 C7.63468578,66.1216858 7.48571852,66.6774881 7.48571852,67.4007425 Z M14.0403871,70.2277277 L13.0561099,70.2277277 L13.0561099,64.4455232 L14.0403871,64.4455232 L14.0403871,70.2277277 Z M12.9762963,62.9117314 C12.9762963,62.7513933 13.0242389,62.6160453 13.1199427,62.5055962 C13.2192784,62.3951472 13.3647407,62.3399682 13.5562389,62.3399682 C13.7477372,62.3399682 13.8931995,62.3951472 13.9925352,62.5055962 C14.0917802,62.6160453 14.141448,62.7513933 14.141448,62.9117314 C14.141448,63.0720695 14.0917802,63.2056846 13.9925352,63.3125767 C13.8931995,63.4194687 13.7477372,63.4729148 13.5562389,63.4729148 C13.3647407,63.4729148 13.2192784,63.4194687 13.1199427,63.3125767 C13.0242389,63.2056846 12.9762963,63.0720695 12.9762963,62.9117314 Z M16.5515651,64.4455232 L16.5835269,65.1722434 C17.0232736,64.6165323 17.5979498,64.3386311 18.3072832,64.3386311 C19.5239188,64.3386311 20.1374576,65.0279573 20.148172,66.4067009 L20.148172,70.2277277 L19.1638949,70.2277277 L19.1638949,66.401411 C19.1603536,65.9846049 19.0645591,65.6764237 18.8766022,65.4768675 C18.6920956,65.2774026 18.4030777,65.1776245 18.0093668,65.1776245 C17.6901123,65.1776245 17.409902,65.2630834 17.168736,65.4340925 C16.9275699,65.6051016 16.7395221,65.8295567 16.6047742,66.1074578 L16.6047742,70.2277277 L15.620497,70.2277277 L15.620497,64.4455232 L16.5515651,64.4455232 Z M6.61850131,99.3047432 C6.35603345,99.6823312 5.98892712,99.9650662 5.5171914,100.15386 C5.04900597,100.339918 4.50277754,100.432035 3.87852425,100.432035 C3.24717945,100.432035 2.68676798,100.284283 2.19729892,99.9887795 C1.70782987,99.6896276 1.32831111,99.2655251 1.05875173,98.7164719 C0.792730848,98.1683308 0.656175102,97.5326331 0.649081768,96.8093787 L0.649081768,96.1299026 C0.649081768,94.9579204 0.920417204,94.0495202 1.46309534,93.404702 C2.0093147,92.7598837 2.77544373,92.4379307 3.76148244,92.4379307 C4.57016965,92.4379307 5.22102748,92.6458777 5.71404683,93.0626838 C6.20706619,93.4758418 6.50855102,94.064113 6.61850131,94.8265854 L5.59699594,94.8265854 C5.40546141,93.7968828 4.79540024,93.2815754 3.76680335,93.2815754 C3.08224946,93.2815754 2.56263465,93.5241803 2.20794074,94.008478 C1.85679713,94.4900396 1.67945472,95.1877566 1.67590442,96.1034532 L1.67590442,96.739151 C1.67590442,97.6119813 1.87453047,98.3069622 2.27178256,98.8240936 C2.66903465,99.3366648 3.20639188,99.5929505 3.88384516,99.5929505 C4.26691422,99.5929505 4.6020951,99.5500842 4.88939689,99.4652637 C5.17668961,99.3795311 5.41433262,99.2354275 5.60231685,99.0320407 L5.60231685,97.2845559 L3.80936153,97.2845559 L3.80936153,96.4509437 L6.61850131,96.4509437 L6.61850131,99.3047432 Z M10.9546237,95.4303615 C10.8056201,95.4048241 10.6442676,95.3929675 10.4703847,95.3929675 C9.82488411,95.3929675 9.3868626,95.6693182 9.15632019,96.2211075 L9.15632019,100.325325 L8.17204301,100.325325 L8.17204301,94.5429384 L9.12971565,94.5429384 L9.14569654,95.2114699 C9.46840143,94.6943384 9.92594504,94.4362287 10.5183274,94.4362287 C10.7098256,94.4362287 10.8552879,94.460854 10.9546237,94.5110167 L10.9546237,95.4303615 Z M11.4972473,97.380321 C11.4972473,96.8139389 11.6072067,96.3050159 11.8271254,95.8526399 C12.0505854,95.4002639 12.3591254,95.0509494 12.7528363,94.8046963 C13.1500884,94.5593553 13.6023656,94.4362287 14.1095771,94.4362287 C14.8933668,94.4362287 15.5265185,94.7089312 16.0089415,95.2534241 C16.4948148,95.7988291 16.7377969,96.5239075 16.7377969,97.4286596 L16.7377969,97.4979752 C16.7377969,98.0616212 16.6296535,98.566896 16.413276,99.0156238 C16.2004397,99.4616155 15.8936249,99.8091059 15.4928315,100.058095 C15.0955795,100.307084 14.6380358,100.432035 14.1202007,100.432035 C13.3398614,100.432035 12.7067097,100.159333 12.2208363,99.6148396 C11.7384134,99.0694347 11.4972473,98.3480044 11.4972473,97.4505487 L11.4972473,97.380321 Z M12.4868817,97.4979752 C12.4868817,98.1400573 12.6340693,98.6544526 12.9284444,99.0429853 C13.2263608,99.4315179 13.6236129,99.6248721 14.1202007,99.6248721 C14.6203297,99.6248721 15.0175818,99.4296938 15.311957,99.037513 C15.6063321,98.641684 15.7535197,98.0898947 15.7535197,97.380321 C15.7535197,96.7464474 15.6027909,96.2338761 15.3013333,95.8416953 C15.0033262,95.4458663 14.6060741,95.2488639 14.1095771,95.2488639 C13.6236129,95.2488639 13.231718,95.4422181 12.9337109,95.8307508 C12.6357945,96.2192834 12.4868817,96.7747209 12.4868817,97.4979752 Z M21.5260693,99.753471 C21.1430729,100.205847 20.5808363,100.432035 19.8395412,100.432035 C19.2259116,100.432035 18.7577443,100.254186 18.4349486,99.8975746 C18.1157849,99.5382275 17.9543417,99.0074154 17.9508005,98.3051381 L17.9508005,94.5429384 L18.9350777,94.5429384 L18.9350777,98.2786887 C18.9350777,99.1551672 19.2897443,99.5929505 19.9991685,99.5929505 C20.7510872,99.5929505 21.2512162,99.3120395 21.4994648,98.7483936 L21.4994648,94.5429384 L22.4837419,94.5429384 L22.4837419,100.325325 L21.5474074,100.325325 L21.5260693,99.753471 Z M28.8468578,97.4979752 C28.8468578,98.378102 28.6464612,99.0876756 28.2456679,99.6248721 C27.8448746,100.162981 27.3022509,100.432035 26.6177061,100.432035 C25.9189056,100.432035 25.3691995,100.209495 24.9683154,99.7644156 L24.9683154,102.548899 L23.984129,102.548899 L23.984129,94.5429384 L24.8832354,94.5429384 L24.9310872,95.1841084 C25.3318805,94.6852179 25.8887599,94.4362287 26.6017252,94.4362287 C27.2933524,94.4362287 27.8396081,94.6979866 28.2404014,95.2215024 C28.644736,95.7459302 28.8468578,96.4737449 28.8468578,97.4076825 L28.8468578,97.4979752 Z M27.8625806,97.3857933 C27.8625806,96.7336787 27.7242915,96.2192834 27.4476225,95.8416953 C27.1709534,95.4641073 26.7914982,95.2753133 26.3090753,95.2753133 C25.7132425,95.2753133 25.2663226,95.5407194 24.9683154,96.0715315 L24.9683154,98.8341262 C25.2627814,99.3612902 25.7132425,99.6248721 26.3196989,99.6248721 C26.7914982,99.6248721 27.165687,99.4379022 27.442356,99.0639624 C27.7224755,98.6863743 27.8625806,98.1272887 27.8625806,97.3857933 Z M37.6786571,97.4979752 C37.6786571,98.3817502 37.4764444,99.0922359 37.0721099,99.6303444 C36.6677754,100.164805 36.1251517,100.432035 35.4441481,100.432035 C34.7170179,100.432035 34.1547814,100.173925 33.7575293,99.6577059 L33.7096774,100.325325 L32.8052139,100.325325 L32.8052139,92.1168896 L33.789491,92.1168896 L33.789491,95.1786361 C34.1867431,94.6833938 34.734724,94.4362287 35.4334337,94.4362287 C36.1322342,94.4362287 36.6802151,94.7016348 37.0774671,95.232447 C37.4782605,95.7632592 37.6786571,96.4901618 37.6786571,97.4131547 L37.6786571,97.4979752 Z M36.6943799,97.3857933 C36.6943799,96.7127016 36.5648984,96.192834 36.3060263,95.8252785 C36.0470633,95.458635 35.6746906,95.2753133 35.1887264,95.2753133 C34.5396846,95.2753133 34.0732425,95.5781133 33.789491,96.1837135 L33.789491,98.6845502 C34.0909486,99.2901504 34.5609319,99.5929505 35.1993501,99.5929505 C35.6711493,99.5929505 36.0382557,99.4096287 36.3006691,99.0429853 C36.5631732,98.6754297 36.6943799,98.1236405 36.6943799,97.3857933 Z M40.7431732,98.8769924 L42.0839331,94.5429384 L43.1373094,94.5429384 L40.8229869,101.218221 C40.464779,102.17952 39.89546,102.661081 39.1151207,102.661081 L38.9288889,102.644664 L38.5618734,102.575349 L38.5618734,101.773658 L38.827828,101.794635 C39.1612473,101.794635 39.4202103,101.727144 39.604626,101.592161 C39.792583,101.456265 39.946853,101.2091 40.0675269,100.848841 L40.2856296,100.261482 L38.2319952,94.5429384 L39.3067097,94.5429384 L40.7431732,98.8769924 Z M5.17668961,129.30384 L1.93128076,129.30384 L1.20239809,131.334971 L0.14896908,131.334971 L3.10708339,123.554286 L4.00089606,123.554286 L6.96432401,131.334971 L5.9162141,131.334971 L5.17668961,129.30384 Z M2.23986619,128.460195 L4.87343417,128.460195 L3.55398519,124.82021 L2.23986619,128.460195 Z M7.61872306,128.395439 C7.61872306,127.494335 7.82622031,126.778377 8.24120573,126.247565 C8.65619116,125.713105 9.20598805,125.445875 9.89053286,125.445875 C10.5927838,125.445875 11.1407646,125.694864 11.5344755,126.193754 L11.5824182,125.552584 L12.4815245,125.552584 L12.4815245,131.19634 C12.4815245,131.94422 12.2598805,132.533403 11.8165018,132.964802 C11.3766643,133.396201 10.7843728,133.611444 10.0394456,133.611444 C9.62448746,133.611444 9.21833692,133.522063 8.82112115,133.344214 C8.42386906,133.166365 8.12061362,132.921936 7.91134576,132.611839 L8.42209845,132.019008 C8.84417539,132.542523 9.36025806,132.804281 9.97034648,132.804281 C10.4491374,132.804281 10.821601,132.669298 11.0875556,132.39842 C11.3571422,132.127541 11.4918901,131.746305 11.4918901,131.254711 L11.4918901,130.757645 C11.09827,131.213669 10.5609128,131.441681 9.8799092,131.441681 C9.20598805,131.441681 8.65974146,131.168979 8.24120573,130.624486 C7.82622031,130.079081 7.61872306,129.336673 7.61872306,128.395439 Z M8.60831207,128.507621 C8.60831207,129.159736 8.74131661,129.673219 9.00733477,130.047159 C9.27336201,130.417451 9.64573477,130.602596 10.1246165,130.602596 C10.7453286,130.602596 11.2010562,130.319861 11.4918901,129.753479 L11.4918901,127.113099 C11.1904325,126.56131 10.7382461,126.284959 10.1352401,126.284959 C9.65644922,126.284959 9.28226045,126.471929 9.01265568,126.845869 C8.7430963,127.219809 8.60831207,127.774334 8.60831207,128.507621 Z M13.7371135,128.395439 C13.7371135,127.494335 13.9445926,126.778377 14.3596416,126.247565 C14.7745998,125.713105 15.3243967,125.445875 16.0089415,125.445875 C16.7111924,125.445875 17.2591732,125.694864 17.6528841,126.193754 L17.700736,125.552584 L18.5999331,125.552584 L18.5999331,131.19634 C18.5999331,131.94422 18.3781983,132.533403 17.9349104,132.964802 C17.4950729,133.396201 16.9026906,133.611444 16.1578542,133.611444 C15.7428961,133.611444 15.3367455,133.522063 14.9394934,133.344214 C14.5422413,133.166365 14.2389677,132.921936 14.0297634,132.611839 L14.5405161,132.019008 C14.9625568,132.542523 15.4786667,132.804281 16.0887551,132.804281 C16.567546,132.804281 16.9399188,132.669298 17.2059642,132.39842 C17.4755508,132.127541 17.6102987,131.746305 17.6102987,131.254711 L17.6102987,130.757645 C17.2165878,131.213669 16.6792306,131.441681 15.998227,131.441681 C15.3243967,131.441681 14.778141,131.168979 14.3596416,130.624486 C13.9445926,130.079081 13.7371135,129.336673 13.7371135,128.395439 Z M14.7267479,128.507621 C14.7267479,129.159736 14.8596798,129.673219 15.1257252,130.047159 C15.3917706,130.417451 15.7641434,130.602596 16.2430251,130.602596 C16.8637372,130.602596 17.3194648,130.319861 17.6102987,129.753479 L17.6102987,127.113099 C17.3088411,126.56131 16.8566547,126.284959 16.2536487,126.284959 C15.774767,126.284959 15.4005783,126.471929 15.1310824,126.845869 C14.8614958,127.219809 14.7267479,127.774334 14.7267479,128.507621 Z M22.8721864,126.440008 C22.7231828,126.41447 22.5618303,126.402614 22.3879474,126.402614 C21.7424468,126.402614 21.3044253,126.678964 21.0738829,127.230753 L21.0738829,131.334971 L20.0896057,131.334971 L20.0896057,125.552584 L21.0472784,125.552584 L21.0632593,126.221116 C21.3859642,125.703984 21.8435078,125.445875 22.4358901,125.445875 C22.6273883,125.445875 22.7728507,125.4705 22.8721864,125.520663 L22.8721864,126.440008 Z M26.064368,131.441681 C25.2840287,131.441681 24.6491517,131.185395 24.1596464,130.671912 C23.6702318,130.155693 23.4254337,129.466184 23.4254337,128.604298 L23.4254337,128.422801 C23.4254337,127.849122 23.5336679,127.337463 23.7499546,126.888735 C23.9698734,126.436359 24.274963,126.083397 24.6651326,125.830759 C25.0588435,125.574474 25.4844253,125.445875 25.9419689,125.445875 C26.6903465,125.445875 27.2721051,125.69304 27.6870633,126.188282 C28.1020215,126.683524 28.3095006,127.393098 28.3095006,128.315179 L28.3095006,128.727425 L24.4097109,128.727425 C24.4238757,129.297455 24.5888602,129.75804 24.9044827,130.111002 C25.2237372,130.460317 25.6280717,130.634518 26.1175771,130.634518 C26.4651613,130.634518 26.7595364,130.563378 27.0007025,130.421099 C27.2419594,130.278819 27.4529797,130.090025 27.6338542,129.854717 L28.2350442,130.325334 C27.7527121,131.069565 27.0291231,131.441681 26.064368,131.441681 Z M25.9419689,126.25851 C25.5447168,126.25851 25.2112975,126.404438 24.9418017,126.696293 C24.6722151,126.9845 24.5055054,127.391274 24.4416726,127.91479 L27.3253142,127.91479 L27.3253142,127.840002 C27.2968937,127.337463 27.1621458,126.948931 26.9208889,126.675316 C26.6797228,126.397141 26.3533859,126.25851 25.9419689,126.25851 Z M29.2193214,128.395439 C29.2193214,127.494335 29.4268005,126.778377 29.8417587,126.247565 C30.2568076,125.713105 30.8065137,125.445875 31.4910585,125.445875 C32.1934002,125.445875 32.7413811,125.694864 33.135092,126.193754 L33.1829438,125.552584 L34.082141,125.552584 L34.082141,131.19634 C34.082141,131.94422 33.8604062,132.533403 33.4170275,132.964802 C32.9772808,133.396201 32.3848984,133.611444 31.6400621,133.611444 C31.2251039,133.611444 30.8189534,133.522063 30.4217013,133.344214 C30.0244492,133.166365 29.7211756,132.921936 29.5119713,132.611839 L30.022724,132.019008 C30.4447646,132.542523 30.9608746,132.804281 31.5708722,132.804281 C32.0497539,132.804281 32.4221266,132.669298 32.688172,132.39842 C32.9577587,132.127541 33.0925066,131.746305 33.0925066,131.254711 L33.0925066,130.757645 C32.6987957,131.213669 32.1614385,131.441681 31.4804349,131.441681 C30.8065137,131.441681 30.2603489,131.168979 29.8417587,130.624486 C29.4268005,130.079081 29.2193214,129.336673 29.2193214,128.395439 Z M30.208865,128.507621 C30.208865,129.159736 30.3418877,129.673219 30.6079331,130.047159 C30.8739785,130.417451 31.2463513,130.602596 31.725233,130.602596 C32.3458542,130.602596 32.8016726,130.319861 33.0925066,129.753479 L33.0925066,127.113099 C32.791049,126.56131 32.3387718,126.284959 31.7358566,126.284959 C31.2569749,126.284959 30.8827861,126.471929 30.6131995,126.845869 C30.3437037,127.219809 30.208865,127.774334 30.208865,128.507621 Z M39.1257443,131.334971 C39.068994,131.220965 39.0229582,131.017578 38.9874552,130.725723 C38.5299116,131.202724 37.9836559,131.441681 37.348779,131.441681 C36.781276,131.441681 36.3148339,131.28116 35.9495436,130.961031 C35.5877945,130.636342 35.4068292,130.226833 35.4068292,129.73159 C35.4068292,129.129638 35.6338303,128.662669 36.0878327,128.331596 C36.5453763,127.996874 37.1874265,127.829057 38.0138017,127.829057 L38.9714743,127.829057 L38.9714743,127.374857 C38.9714743,127.029191 38.8685974,126.755576 38.6629343,126.552189 C38.4571804,126.345154 38.1539068,126.242093 37.7531135,126.242093 C37.4019881,126.242093 37.1076129,126.331474 36.8699881,126.509323 C36.6323632,126.687173 36.5135054,126.903328 36.5135054,127.155966 L35.523871,127.155966 C35.523871,126.867758 35.6250227,126.589583 35.8271446,126.322353 C36.0328984,126.051475 36.3095675,125.838056 36.6571517,125.681183 C37.0082772,125.524311 37.3930896,125.445875 37.8116798,125.445875 C38.4748865,125.445875 38.9945376,125.613692 39.3705424,125.948413 C39.7464564,126.279487 39.9415866,126.737335 39.9557515,127.321958 L39.9557515,129.983316 C39.9557515,130.514128 40.0231254,130.935494 40.1579642,131.249239 L40.1579642,131.334971 L39.1257443,131.334971 Z M37.4924253,130.581619 C37.8010562,130.581619 38.0936153,130.501359 38.3702843,130.340839 C38.6469534,130.180318 38.8473501,129.972371 38.9714743,129.716085 L38.9714743,128.52951 L38.2000335,128.52951 C36.9941123,128.52951 36.3911063,128.883385 36.3911063,129.592959 C36.3911063,129.903055 36.4939833,130.144748 36.6997372,130.319861 C36.9054002,130.494063 37.1696296,130.581619 37.4924253,130.581619 Z M42.8340358,124.15259 L42.8340358,125.552584 L43.9087503,125.552584 L43.9087503,126.316881 L42.8340358,126.316881 L42.8340358,129.903055 C42.8340358,130.134716 42.8819785,130.308917 42.9776822,130.426571 C43.0734767,130.540577 43.2366452,130.597124 43.4671876,130.597124 C43.5806882,130.597124 43.7367742,130.576147 43.9353548,130.533281 L43.9353548,131.334971 C43.6764827,131.406111 43.4246022,131.441681 43.1798949,131.441681 C42.7400573,131.441681 42.408454,131.308522 42.184994,131.041292 C41.9615341,130.774062 41.8497587,130.394649 41.8497587,129.903055 L41.8497587,126.316881 L40.8016487,126.316881 L40.8016487,125.552584 L41.8497587,125.552584 L41.8497587,124.15259 L42.8340358,124.15259 Z M47.4521481,131.441681 C46.6718088,131.441681 46.0369319,131.185395 45.5474265,130.671912 C45.0579211,130.155693 44.8132139,129.466184 44.8132139,128.604298 L44.8132139,128.422801 C44.8132139,127.849122 44.921448,127.337463 45.1377348,126.888735 C45.3576535,126.436359 45.6627431,126.083397 46.0529128,125.830759 C46.4465329,125.574474 46.8722055,125.445875 47.3297491,125.445875 C48.0781266,125.445875 48.6597945,125.69304 49.0748435,126.188282 C49.4898017,126.683524 49.6972808,127.393098 49.6972808,128.315179 L49.6972808,128.727425 L45.797491,128.727425 C45.8116559,129.297455 45.9766404,129.75804 46.2922628,130.111002 C46.6115173,130.460317 47.0158519,130.634518 47.5053572,130.634518 C47.8529415,130.634518 48.1473166,130.563378 48.3884827,130.421099 C48.6296487,130.278819 48.8407599,130.090025 49.0216344,129.854717 L49.6228244,130.325334 C49.1404014,131.069565 48.4169032,131.441681 47.4521481,131.441681 Z M47.3297491,126.25851 C46.932497,126.25851 46.5990777,126.404438 46.329491,126.696293 C46.0599952,126.9845 45.8932855,127.391274 45.8294528,127.91479 L48.7130036,127.91479 L48.7130036,127.840002 C48.6846738,127.337463 48.5499259,126.948931 48.3086691,126.675316 C48.067503,126.397141 47.7411661,126.25851 47.3297491,126.25851 Z M6.59721768,168.996186 C6.5014595,169.818854 6.19819498,170.455464 5.68744229,170.904192 C5.1802399,171.349271 4.50455723,171.571811 3.66039427,171.571811 C2.74529797,171.571811 2.0110853,171.242562 1.45777443,170.583151 C0.908004779,169.924652 0.63312086,169.042701 0.63312086,167.93821 L0.63312086,167.189419 C0.63312086,166.467076 0.760809032,165.830466 1.01618447,165.282325 C1.27511111,164.733272 1.64043775,164.312818 2.11217348,164.020962 C2.5839092,163.725459 3.13013763,163.577707 3.75084062,163.577707 C4.57371995,163.577707 5.2334399,163.808455 5.73000956,164.271776 C6.22657013,164.731448 6.51564253,165.36897 6.59721768,166.185253 L5.57040048,166.185253 C5.48172473,165.56506 5.28841959,165.116332 4.99047599,164.838158 C4.69609176,164.560895 4.28287694,164.421352 3.75084062,164.421352 C3.09821219,164.421352 2.58568889,164.663956 2.21326165,165.148254 C1.84438471,165.632552 1.6599417,166.32206 1.6599417,167.21678 L1.6599417,167.970132 C1.6599417,168.814689 1.8355135,169.485956 2.18665711,169.984847 C2.53780072,170.483737 3.02904946,170.732727 3.66039427,170.732727 C4.22789725,170.732727 4.6623957,170.60504 4.96388053,170.347842 C5.26890657,170.087908 5.47108292,169.637356 5.57040048,168.996186 L6.59721768,168.996186 Z M10.6247455,166.570138 C10.4757419,166.5446 10.3143895,166.532744 10.1405974,166.532744 C9.49500597,166.532744 9.05699355,166.809094 8.82644205,167.360884 L8.82644205,171.465101 L7.84218303,171.465101 L7.84218303,165.682715 L8.79984659,165.682715 L8.81580024,166.351246 C9.1386141,165.834115 9.59615771,165.576005 10.1884492,165.576005 C10.3799474,165.576005 10.5254098,165.60063 10.6247455,165.650793 L10.6247455,166.570138 Z M13.8169271,171.571811 C13.0365878,171.571811 12.4017109,171.315526 11.9122055,170.802042 C11.4227909,170.285823 11.1779928,169.596314 11.1779928,168.734429 L11.1779928,168.552931 C11.1779928,167.979252 11.286227,167.467593 11.5026045,167.018865 C11.7225233,166.566489 12.0275221,166.213527 12.4176918,165.960889 C12.8114026,165.704604 13.2369845,165.576005 13.6945281,165.576005 C14.4429056,165.576005 15.0246643,165.82317 15.4396225,166.318412 C15.8545806,166.813655 16.0621505,167.523228 16.0621505,168.445309 L16.0621505,168.857555 L12.16227,168.857555 C12.1765257,169.427585 12.3414194,169.88817 12.6571326,170.241132 C12.9762963,170.590447 13.3806308,170.764648 13.8701362,170.764648 C14.2177204,170.764648 14.5120956,170.693509 14.7532616,170.551229 C14.9945185,170.408949 15.2055388,170.220155 15.3864134,169.984847 L15.9876033,170.455464 C15.5052712,171.199695 14.7816822,171.571811 13.8169271,171.571811 Z M13.6945281,166.38864 C13.297276,166.38864 12.9638566,166.534568 12.6943608,166.826423 C12.4247742,167.114631 12.2580645,167.521404 12.1942318,168.04492 L15.0778734,168.04492 L15.0778734,167.970132 C15.0494528,167.467593 14.9147049,167.079061 14.6735388,166.805446 C14.432282,166.527271 14.1060358,166.38864 13.6945281,166.38864 Z M20.7599857,171.465101 C20.7032354,171.351095 20.6571087,171.147709 20.6216057,170.855853 C20.1640621,171.332854 19.6178973,171.571811 18.9829295,171.571811 C18.4154265,171.571811 17.9490753,171.411291 17.5836941,171.091162 C17.221945,170.766472 17.0410705,170.356963 17.0410705,169.86172 C17.0410705,169.259768 17.2680717,168.7928 17.7220741,168.461726 C18.1796177,168.127004 18.8215771,167.959187 19.648043,167.959187 L20.6057157,167.959187 L20.6057157,167.504987 C20.6057157,167.159321 20.5028387,166.885706 20.2970848,166.68232 C20.0914217,166.475285 19.7881481,166.372223 19.3873548,166.372223 C19.0361386,166.372223 18.7417634,166.461604 18.5041386,166.639453 C18.2665137,166.817303 18.1476559,167.033458 18.1476559,167.286096 L17.1581123,167.286096 C17.1581123,166.997888 17.2591732,166.719714 17.4613859,166.452483 C17.667049,166.181605 17.943718,165.968186 18.2913023,165.811313 C18.6424277,165.654441 19.0273309,165.576005 19.4458303,165.576005 C20.1091278,165.576005 20.628779,165.743822 21.004693,166.078544 C21.3806977,166.409617 21.5757372,166.867465 21.589902,167.452088 L21.589902,170.113446 C21.589902,170.644258 21.6573668,171.065624 21.7921147,171.379369 L21.7921147,171.465101 L20.7599857,171.465101 Z M19.1266667,170.711749 C19.4352067,170.711749 19.7278566,170.631489 20.0044349,170.470969 C20.2811039,170.310448 20.4815006,170.102501 20.6057157,169.846216 L20.6057157,168.659641 L19.8342748,168.659641 C18.6282628,168.659641 18.0253477,169.013515 18.0253477,169.723089 C18.0253477,170.033185 18.1281338,170.274878 18.3338877,170.449992 C18.5396416,170.624193 18.803871,170.711749 19.1266667,170.711749 Z M24.4682772,164.28272 L24.4682772,165.682715 L25.5429916,165.682715 L25.5429916,166.447011 L24.4682772,166.447011 L24.4682772,170.033185 C24.4682772,170.264846 24.516129,170.439047 24.6119235,170.556701 C24.7076272,170.670707 24.8707957,170.727254 25.1013381,170.727254 C25.2148387,170.727254 25.3709247,170.706277 25.5695962,170.663411 L25.5695962,171.465101 C25.3106332,171.536241 25.0588435,171.571811 24.8140454,171.571811 C24.3742987,171.571811 24.0426045,171.438652 23.8191446,171.171422 C23.5956846,170.904192 23.484,170.52478 23.484,170.033185 L23.484,166.447011 L22.4358901,166.447011 L22.4358901,165.682715 L23.484,165.682715 L23.484,164.28272 L24.4682772,164.28272 Z M29.0862987,171.571811 C28.3059594,171.571811 27.6710824,171.315526 27.1815771,170.802042 C26.6921625,170.285823 26.4474552,169.596314 26.4474552,168.734429 L26.4474552,168.552931 C26.4474552,167.979252 26.5555986,167.467593 26.7719761,167.018865 C26.9918949,166.566489 27.2968937,166.213527 27.6870633,165.960889 C28.0807742,165.704604 28.506356,165.576005 28.9638996,165.576005 C29.712368,165.576005 30.2940358,165.82317 30.708994,166.318412 C31.1239522,166.813655 31.3315221,167.523228 31.3315221,168.445309 L31.3315221,168.857555 L27.4316416,168.857555 C27.4458973,169.427585 27.6107909,169.88817 27.9265042,170.241132 C28.2456679,170.590447 28.6500024,170.764648 29.1395078,170.764648 C29.487092,170.764648 29.7814671,170.693509 30.022724,170.551229 C30.2638901,170.408949 30.4749104,170.220155 30.6557849,169.984847 L31.2569749,170.455464 C30.7746428,171.199695 30.0510538,171.571811 29.0862987,171.571811 Z M28.9638996,166.38864 C28.5666476,166.38864 28.233319,166.534568 27.9637324,166.826423 C27.6941458,167.114631 27.5274361,167.521404 27.4636033,168.04492 L30.3472449,168.04492 L30.3472449,167.970132 C30.3188244,167.467593 30.1840765,167.079061 29.9429104,166.805446 C29.7016535,166.527271 29.3754074,166.38864 28.9638996,166.38864 Z M40.0409223,168.637751 C40.0409223,169.517878 39.8405257,170.227452 39.4396416,170.764648 C39.0388483,171.302757 38.4962246,171.571811 37.8116798,171.571811 C37.1128793,171.571811 36.5631732,171.349271 36.1623799,170.904192 L36.1623799,173.688675 L35.1781027,173.688675 L35.1781027,165.682715 L36.0772091,165.682715 L36.1251517,166.323885 C36.525945,165.824994 37.0827336,165.576005 37.7956989,165.576005 C38.4873262,165.576005 39.0335818,165.837763 39.4343751,166.361279 C39.8387097,166.885706 40.0409223,167.613521 40.0409223,168.547459 L40.0409223,168.637751 Z M39.0566452,168.525569 C39.0566452,167.873455 38.9182652,167.35906 38.6415962,166.981471 C38.3650179,166.603883 37.9854719,166.415089 37.503049,166.415089 C36.9072162,166.415089 36.4602963,166.680495 36.1623799,167.211308 L36.1623799,169.973902 C36.4567551,170.501066 36.9072162,170.764648 37.5137634,170.764648 C37.9854719,170.764648 38.3596607,170.577678 38.6363297,170.203739 C38.91654,169.82615 39.0566452,169.267065 39.0566452,168.525569 Z M42.3658686,171.465101 L41.3815914,171.465101 L41.3815914,165.682715 L42.3658686,165.682715 L42.3658686,171.465101 Z M41.3017778,164.149561 C41.3017778,163.989041 41.3497204,163.853145 41.4454241,163.742788 C41.5447599,163.63243 41.6902222,163.577707 41.8817204,163.577707 C42.0732186,163.577707 42.218681,163.63243 42.3180167,163.742788 C42.4172616,163.853145 42.4669295,163.989041 42.4669295,164.149561 C42.4669295,164.30917 42.4172616,164.443241 42.3180167,164.54995 C42.218681,164.65666 42.0732186,164.710471 41.8817204,164.710471 C41.6902222,164.710471 41.5447599,164.65666 41.4454241,164.54995 C41.3497204,164.443241 41.3017778,164.30917 41.3017778,164.149561 Z M45.8453429,170.123478 L47.2711828,165.682715 L48.2767981,165.682715 L46.2124492,171.465101 L45.4623465,171.465101 L43.3767503,165.682715 L44.3822748,165.682715 L45.8453429,170.123478 Z M48.8779881,168.520097 C48.8779881,167.953715 48.9879474,167.444792 49.2078662,166.992416 C49.4313262,166.54004 49.7398662,166.190725 50.1335771,165.944472 C50.5308292,165.699131 50.9830155,165.576005 51.490227,165.576005 C52.2741075,165.576005 52.9072593,165.848707 53.3895914,166.3932 C53.8755556,166.938605 54.1185376,167.663684 54.1185376,168.568436 L54.1185376,168.637751 C54.1185376,169.201397 54.0103035,169.706672 53.7939259,170.1554 C53.5811804,170.601392 53.2743656,170.948882 52.8735723,171.197871 C52.4763202,171.44686 52.0187766,171.571811 51.5009415,171.571811 C50.7206022,171.571811 50.0874504,171.299109 49.6015771,170.754616 C49.1191541,170.209211 48.8779881,169.487781 48.8779881,168.590325 L48.8779881,168.520097 Z M49.8675317,168.637751 C49.8675317,169.279833 50.0147192,169.794229 50.3090944,170.182761 C50.6071016,170.571294 51.0043536,170.764648 51.5009415,170.764648 C52.0009797,170.764648 52.3982318,170.56947 52.6926069,170.177289 C52.9870729,169.78146 53.1342605,169.229671 53.1342605,168.520097 C53.1342605,167.886223 52.9835317,167.373652 52.6819833,166.981471 C52.3840669,166.585642 51.9868148,166.38864 51.490227,166.38864 C51.0043536,166.38864 50.612368,166.581994 50.3144516,166.970527 C50.0165352,167.35906 49.8675317,167.914497 49.8675317,168.637751 Z M56.6881912,164.28272 L56.6881912,165.682715 L57.7629056,165.682715 L57.7629056,166.447011 L56.6881912,166.447011 L56.6881912,170.033185 C56.6881912,170.264846 56.7361338,170.439047 56.8318375,170.556701 C56.927632,170.670707 57.0908005,170.727254 57.3213429,170.727254 C57.4348435,170.727254 57.5909295,170.706277 57.7895102,170.663411 L57.7895102,171.465101 C57.530638,171.536241 57.2787575,171.571811 57.0340502,171.571811 C56.5942127,171.571811 56.2626093,171.438652 56.0391493,171.171422 C55.8156894,170.904192 55.7040048,170.52478 55.7040048,170.033185 L55.7040048,166.447011 L54.6558949,166.447011 L54.6558949,165.682715 L55.7040048,165.682715 L55.7040048,164.28272 L56.6881912,164.28272 Z M5.17668961,199.531567 L1.93128076,199.531567 L1.20239809,201.562699 L0.14896908,201.562699 L3.10708339,193.782014 L4.00089606,193.782014 L6.96432401,201.562699 L5.9162141,201.562699 L5.17668961,199.531567 Z M2.23986619,198.687922 L4.87343417,198.687922 L3.55398519,195.047937 L2.23986619,198.687922 Z M7.61341123,198.623167 C7.61341123,197.736656 7.82267001,197.023434 8.24120573,196.486238 C8.65974146,195.944481 9.20771326,195.673602 9.88517563,195.673602 C10.5590968,195.673602 11.0929128,195.905263 11.4866237,196.368583 L11.4866237,193.354263 L12.4709008,193.354263 L12.4709008,201.562699 L11.5664373,201.562699 L11.5184946,200.942506 C11.1248746,201.427716 10.5768029,201.669409 9.87455197,201.669409 C9.20771326,201.669409 8.66329176,201.394882 8.24120573,200.846741 C7.82267001,200.297688 7.61341123,199.58173 7.61341123,198.697955 L7.61341123,198.623167 Z M8.59767025,198.735349 C8.59767025,199.391112 8.73245448,199.904595 9.00201386,200.274887 C9.271546,200.645178 9.64400956,200.830324 10.1192593,200.830324 C10.7435125,200.830324 11.1993309,200.549413 11.4866237,199.985767 L11.4866237,197.329882 C11.1922485,196.785389 10.7399713,196.512687 10.1298829,196.512687 C9.64755078,196.512687 9.271546,196.699657 9.00201386,197.073597 C8.73245448,197.447537 8.59767025,198.002062 8.59767025,198.735349 Z M13.763718,198.623167 C13.763718,197.736656 13.9730131,197.023434 14.3915125,196.486238 C14.8100119,195.944481 15.3580836,195.673602 16.035546,195.673602 C16.7093763,195.673602 17.2431924,195.905263 17.6369032,196.368583 L17.6369032,193.354263 L18.6211804,193.354263 L18.6211804,201.562699 L17.7167168,201.562699 L17.668865,200.942506 C17.2751541,201.427716 16.7271732,201.669409 16.0248315,201.669409 C15.3580836,201.669409 14.813644,201.394882 14.3915125,200.846741 C13.9730131,200.297688 13.763718,199.58173 13.763718,198.697955 L13.763718,198.623167 Z M14.7479952,198.735349 C14.7479952,199.391112 14.8827431,199.904595 15.1523297,200.274887 C15.4219164,200.645178 15.7942891,200.830324 16.2696296,200.830324 C16.8938829,200.830324 17.3496105,200.549413 17.6369032,199.985767 L17.6369032,197.329882 C17.3425281,196.785389 16.8903417,196.512687 16.2802533,196.512687 C15.7978303,196.512687 15.4219164,196.699657 15.1523297,197.073597 C14.8827431,197.447537 14.7479952,198.002062 14.7479952,198.735349 Z M24.1916081,194.380318 L24.1916081,195.780312 L25.2663226,195.780312 L25.2663226,196.544609 L24.1916081,196.544609 L24.1916081,200.130783 C24.1916081,200.362443 24.23946,200.536645 24.3352545,200.654299 C24.4309582,200.768305 24.5941266,200.824852 24.8246691,200.824852 C24.9381697,200.824852 25.0942557,200.803875 25.2929271,200.761009 L25.2929271,201.562699 C25.0339642,201.633839 24.7821744,201.669409 24.5373763,201.669409 C24.0976296,201.669409 23.7659355,201.53625 23.5424755,201.269019 C23.3190155,201.001789 23.2073309,200.622377 23.2073309,200.130783 L23.2073309,196.544609 L22.159221,196.544609 L22.159221,195.780312 L23.2073309,195.780312 L23.2073309,194.380318 L24.1916081,194.380318 Z M26.0537443,198.617695 C26.0537443,198.051313 26.1637037,197.54239 26.3835317,197.090014 C26.6069916,196.637638 26.9156225,196.288323 27.3093333,196.04207 C27.7065854,195.796729 28.1587718,195.673602 28.6659833,195.673602 C29.4498638,195.673602 30.0830155,195.946305 30.5653477,196.490798 C31.0513118,197.036203 31.2942031,197.761281 31.2942031,198.666033 L31.2942031,198.735349 C31.2942031,199.298995 31.1860597,199.80427 30.9696822,200.252998 C30.7568459,200.698989 30.4501219,201.04648 30.0493286,201.295469 C29.6519857,201.544458 29.1944421,201.669409 28.6766069,201.669409 C27.8963584,201.669409 27.2632067,201.396706 26.7772425,200.852213 C26.2949104,200.306808 26.0537443,199.585378 26.0537443,198.687922 L26.0537443,198.617695 Z M27.0432879,198.735349 C27.0432879,199.377431 27.1904755,199.891826 27.4848507,200.280359 C27.7828578,200.668892 28.1801099,200.862246 28.6766069,200.862246 C29.176736,200.862246 29.5739881,200.667068 29.8683632,200.274887 C30.1628292,199.879058 30.3100167,199.327268 30.3100167,198.617695 C30.3100167,197.983821 30.1591971,197.47125 29.8577395,197.079069 C29.5598232,196.68324 29.1625711,196.486238 28.6659833,196.486238 C28.1801099,196.486238 27.7881243,196.679592 27.4902079,197.068124 C27.1922915,197.456657 27.0432879,198.012095 27.0432879,198.735349 Z M34.991871,198.623167 C34.991871,197.736656 35.2011661,197.023434 35.6196655,196.486238 C36.0382557,195.944481 36.5862366,195.673602 37.2636989,195.673602 C37.9375293,195.673602 38.4713453,195.905263 38.8650562,196.368583 L38.8650562,193.354263 L39.8493333,193.354263 L39.8493333,201.562699 L38.9448698,201.562699 L38.8970179,200.942506 C38.503307,201.427716 37.9553262,201.669409 37.2529845,201.669409 C36.5862366,201.669409 36.0417969,201.394882 35.6196655,200.846741 C35.2011661,200.297688 34.991871,199.58173 34.991871,198.697955 L34.991871,198.623167 Z M35.9761481,198.735349 C35.9761481,199.391112 36.1108961,199.904595 36.3804827,200.274887 C36.6500693,200.645178 37.0224421,200.830324 37.4977826,200.830324 C38.1220358,200.830324 38.5777634,200.549413 38.8650562,199.985767 L38.8650562,197.329882 C38.570681,196.785389 38.1184946,196.512687 37.5084062,196.512687 C37.0259833,196.512687 36.6500693,196.699657 36.3804827,197.073597 C36.1108961,197.447537 35.9761481,198.002062 35.9761481,198.735349 Z M44.9356129,201.562699 C44.8788626,201.448693 44.832736,201.245306 44.797233,200.953451 C44.3396894,201.430452 43.7935245,201.669409 43.1585568,201.669409 C42.5910538,201.669409 42.1247025,201.508888 41.7593214,201.188759 C41.3975723,200.86407 41.2166977,200.45456 41.2166977,199.959318 C41.2166977,199.357366 41.4436989,198.890397 41.8977013,198.559324 C42.3552449,198.224602 42.9972043,198.056785 43.8236703,198.056785 L44.7813429,198.056785 L44.7813429,197.602585 C44.7813429,197.256919 44.6784659,196.983304 44.4727121,196.779917 C44.267049,196.572882 43.9637754,196.469821 43.5629821,196.469821 C43.2117658,196.469821 42.9173907,196.559201 42.6797658,196.737051 C42.442141,196.9149 42.3232832,197.131056 42.3232832,197.383693 L41.3337395,197.383693 C41.3337395,197.095486 41.4348005,196.817311 41.6370131,196.550081 C41.8426762,196.279203 42.1193453,196.065783 42.4669295,195.908911 C42.818055,195.752039 43.2029582,195.673602 43.6214576,195.673602 C44.2847551,195.673602 44.8044062,195.841419 45.1803202,196.176141 C45.556325,196.507215 45.7513644,196.965063 45.7655293,197.549686 L45.7655293,200.211043 C45.7655293,200.741855 45.832994,201.163222 45.9677419,201.476967 L45.9677419,201.562699 L44.9356129,201.562699 Z M43.3022939,200.809347 C43.6108339,200.809347 43.9034839,200.729087 44.1800621,200.568566 C44.4567312,200.408046 44.6571278,200.200099 44.7813429,199.943813 L44.7813429,198.757238 L44.009902,198.757238 C42.8038901,198.757238 42.2009749,199.111113 42.2009749,199.820687 C42.2009749,200.130783 42.3037611,200.372476 42.5095149,200.547589 C42.7152688,200.72179 42.9794982,200.809347 43.3022939,200.809347 Z M48.6439044,194.380318 L48.6439044,195.780312 L49.7186189,195.780312 L49.7186189,196.544609 L48.6439044,196.544609 L48.6439044,200.130783 C48.6439044,200.362443 48.6917563,200.536645 48.7875508,200.654299 C48.8832545,200.768305 49.0464229,200.824852 49.2769654,200.824852 C49.3904659,200.824852 49.546552,200.803875 49.7452234,200.761009 L49.7452234,201.562699 C49.4862605,201.633839 49.2344707,201.669409 48.9896726,201.669409 C48.5499259,201.669409 48.2182318,201.53625 47.9947718,201.269019 C47.7713118,201.001789 47.6596272,200.622377 47.6596272,200.130783 L47.6596272,196.544609 L46.6115173,196.544609 L46.6115173,195.780312 L47.6596272,195.780312 L47.6596272,194.380318 L48.6439044,194.380318 Z M54.4270777,201.562699 C54.3703274,201.448693 54.3242007,201.245306 54.2887885,200.953451 C53.8312449,201.430452 53.2849892,201.669409 52.6501123,201.669409 C52.0826093,201.669409 51.6161673,201.508888 51.2508769,201.188759 C50.889037,200.86407 50.7081625,200.45456 50.7081625,199.959318 C50.7081625,199.357366 50.9351637,198.890397 51.3891661,198.559324 C51.8467097,198.224602 52.4886691,198.056785 53.315135,198.056785 L54.2728076,198.056785 L54.2728076,197.602585 C54.2728076,197.256919 54.1699307,196.983304 53.9641768,196.779917 C53.7585137,196.572882 53.4552401,196.469821 53.0544468,196.469821 C52.7033214,196.469821 52.4089462,196.559201 52.1712306,196.737051 C51.9336057,196.9149 51.8148387,197.131056 51.8148387,197.383693 L50.8252043,197.383693 C50.8252043,197.095486 50.9262652,196.817311 51.1284779,196.550081 C51.3342318,196.279203 51.61081,196.065783 51.9584851,195.908911 C52.3096105,195.752039 52.6944229,195.673602 53.1129223,195.673602 C53.7762198,195.673602 54.295871,195.841419 54.6717849,196.176141 C55.0477897,196.507215 55.2428292,196.965063 55.2570848,197.549686 L55.2570848,200.211043 C55.2570848,200.741855 55.3244588,201.163222 55.4592067,201.476967 L55.4592067,201.562699 L54.4270777,201.562699 Z M52.7937587,200.809347 C53.1022987,200.809347 53.3949486,200.729087 53.6716177,200.568566 C53.9482867,200.408046 54.1486834,200.200099 54.2728076,199.943813 L54.2728076,198.757238 L53.5013668,198.757238 C52.2954456,198.757238 51.6924397,199.111113 51.6924397,199.820687 C51.6924397,200.130783 51.7953166,200.372476 52.0009797,200.547589 C52.2067336,200.72179 52.470963,200.809347 52.7937587,200.809347 Z M57.2841147,201.562699 L57.2841147,196.544609 L56.3742939,196.544609 L56.3742939,195.780312 L57.2841147,195.780312 L57.2841147,195.187481 C57.2841147,194.567288 57.4490084,194.088462 57.7788865,193.750092 C58.1087646,193.41081 58.5752067,193.242081 59.1781219,193.242081 C59.4051231,193.242081 59.630399,193.272179 59.853859,193.333286 L59.8006499,194.134065 C59.6339403,194.102143 59.4566069,194.086638 59.2685591,194.086638 C58.9493955,194.086638 58.7028722,194.180579 58.52908,194.369373 C58.3552879,194.554519 58.2683919,194.821749 58.2683919,195.171064 L58.2683919,195.780312 L59.4973763,195.780312 L59.4973763,196.544609 L58.2683919,196.544609 L58.2683919,201.562699 L57.2841147,201.562699 Z M63.3705615,196.667735 C63.2216487,196.642198 63.0602055,196.630341 62.8864134,196.630341 C62.2409128,196.630341 61.8028913,196.906692 61.5722581,197.458481 L61.5722581,201.562699 L60.5880717,201.562699 L60.5880717,195.780312 L61.5456535,195.780312 L61.5616344,196.448844 C61.8844301,195.931712 62.3419737,195.673602 62.9342652,195.673602 C63.1258542,195.673602 63.2712258,195.698228 63.3705615,195.74839 L63.3705615,196.667735 Z M67.6215675,201.562699 C67.5648172,201.448693 67.5186906,201.245306 67.4831876,200.953451 C67.025644,201.430452 66.4793883,201.669409 65.8445114,201.669409 C65.2770084,201.669409 64.8106571,201.508888 64.445276,201.188759 C64.0835269,200.86407 63.9026523,200.45456 63.9026523,199.959318 C63.9026523,199.357366 64.1296535,198.890397 64.5836559,198.559324 C65.0411995,198.224602 65.6831589,198.056785 66.5095341,198.056785 L67.4672067,198.056785 L67.4672067,197.602585 C67.4672067,197.256919 67.3644205,196.983304 67.1586667,196.779917 C66.9529128,196.572882 66.6496392,196.469821 66.2488459,196.469821 C65.8977204,196.469821 65.6033453,196.559201 65.3657204,196.737051 C65.1280956,196.9149 65.0092378,197.131056 65.0092378,197.383693 L64.0196941,197.383693 C64.0196941,197.095486 64.1207551,196.817311 64.3228769,196.550081 C64.5286308,196.279203 64.8052999,196.065783 65.1528841,195.908911 C65.5040096,195.752039 65.8889128,195.673602 66.3074122,195.673602 C66.9707097,195.673602 67.49027,195.841419 67.8662748,196.176141 C68.2421888,196.507215 68.437319,196.965063 68.4514839,197.549686 L68.4514839,200.211043 C68.4514839,200.741855 68.5188578,201.163222 68.6536965,201.476967 L68.6536965,201.562699 L67.6215675,201.562699 Z M65.9881577,200.809347 C66.2967885,200.809347 66.5893477,200.729087 66.8660167,200.568566 C67.1426858,200.408046 67.3430824,200.200099 67.4672067,199.943813 L67.4672067,198.757238 L66.6957658,198.757238 C65.4898447,198.757238 64.8868387,199.111113 64.8868387,199.820687 C64.8868387,200.130783 64.9897157,200.372476 65.1954695,200.547589 C65.4011326,200.72179 65.6654528,200.809347 65.9881577,200.809347 Z M70.9201673,195.780312 L70.9467718,196.421482 C71.3688124,195.922592 71.9381314,195.673602 72.6545472,195.673602 C73.459675,195.673602 74.0077467,195.983699 74.2985806,196.60298 C74.4900789,196.325717 74.7383274,196.101353 75.043417,195.929888 C75.351957,195.759335 75.7155221,195.673602 76.1341123,195.673602 C77.3967838,195.673602 78.0387431,196.34487 78.0600812,197.688317 L78.0600812,201.562699 L77.0758041,201.562699 L77.0758041,197.746689 C77.0758041,197.333531 76.9817348,197.025258 76.7937778,196.822783 C76.6058208,196.615748 76.2901075,196.512687 75.8467288,196.512687 C75.4814385,196.512687 75.1781649,196.623045 74.9369988,196.843761 C74.6958327,197.060828 74.5557276,197.35542 74.5166834,197.725711 L74.5166834,201.562699 L73.5271398,201.562699 L73.5271398,197.77405 C73.5271398,196.933141 73.117448,196.512687 72.2980645,196.512687 C71.6525639,196.512687 71.2110012,196.789038 70.9733763,197.340827 L70.9733763,201.562699 L69.9890992,201.562699 L69.9890992,195.780312 L70.9201673,195.780312 Z M81.9385329,201.669409 C81.1582843,201.669409 80.5233166,201.413123 80.033902,200.89964 C79.5443967,200.38342 79.2996894,199.693912 79.2996894,198.832026 L79.2996894,198.650528 C79.2996894,198.07685 79.4078327,197.565191 79.6242103,197.116463 C79.844129,196.664087 80.1491278,196.311124 80.5392975,196.058487 C80.9330084,195.802201 81.358681,195.673602 81.8162246,195.673602 C82.5646022,195.673602 83.14627,195.920768 83.5612282,196.41601 C83.9762772,196.911252 84.1837563,197.620826 84.1837563,198.542907 L84.1837563,198.955153 L80.2839665,198.955153 C80.2981314,199.525183 80.4630251,199.985767 80.7787384,200.33873 C81.0979928,200.688045 81.5023274,200.862246 81.9917419,200.862246 C82.3393262,200.862246 82.6337921,200.791106 82.8749582,200.648827 C83.1161243,200.506547 83.3271446,200.317753 83.5081099,200.082444 L84.1092999,200.553061 C83.6268769,201.297293 82.9032879,201.669409 81.9385329,201.669409 Z M81.8162246,196.486238 C81.4189725,196.486238 81.0855532,196.632165 80.8159665,196.924021 C80.5463799,197.212228 80.3796703,197.619002 80.3158375,198.142518 L83.1994791,198.142518 L83.1994791,198.06773 C83.1711493,197.565191 83.0363106,197.176658 82.7951446,196.903044 C82.5539785,196.624869 82.2276416,196.486238 81.8162246,196.486238 Z" id="path7_fill"></path>
                        </g>
                    </g>
                    <g id="ic_navigate_next_24px" transform="translate(166.010101, 75.808081)" fill="#000000" fill-opacity="0.4" fill-rule="nonzero">
                        <g id="Group">
                            <g id="Vector">
                                <g id="path8_fill-link">
                                    <polygon id="path8_fill" points="1.12514546 0 1.26888e-07 1.01477273 3.65471718 4.31818182 1.26888e-07 7.62159091 1.12514546 8.63636364 5.91298233 4.31818182"></polygon>
                                </g>
                            </g>
                        </g>
                    </g>
                    <g id="funnel-39" transform="translate(16.313131, 43.181818)" fill="#1B1725" fill-rule="nonzero">
                        <g id="Group">
                            <g id="Vector" transform="translate(0.891053, 2.638889)">
                                <g id="path9_stroke-link" transform="translate(0.534632, 0.175926)">
                                    <path d="M0.891053391,0.439814815 C0.644996126,0.439814815 0.445526696,0.636726944 0.445526696,0.87962963 C0.445526696,1.12253231 0.644996126,1.31944444 0.891053391,1.31944444 L0.891053391,0.439814815 Z M8.66751692,1.31944444 C8.91358131,1.31944444 9.11304361,1.12253231 9.11304361,0.87962963 C9.11304361,0.636726944 8.91358131,0.439814815 8.66751692,0.439814815 L8.66751692,1.31944444 Z M0.891053391,1.31944444 L8.66751692,1.31944444 L8.66751692,0.439814815 L0.891053391,0.439814815 L0.891053391,1.31944444 Z" id="path9_stroke"></path>
                                </g>
                            </g>
                            <g id="Vector">
                                <g id="path10_stroke-link">
                                    <path d="M0.891053391,0.439814815 C0.644996126,0.439814815 0.445526696,0.636726944 0.445526696,0.87962963 C0.445526696,1.12253231 0.644996126,1.31944444 0.891053391,1.31944444 L0.891053391,0.439814815 Z M11.5836941,1.31944444 C11.8297139,1.31944444 12.0292208,1.12253231 12.0292208,0.87962963 C12.0292208,0.636726944 11.8297139,0.439814815 11.5836941,0.439814815 L11.5836941,1.31944444 Z M0.891053391,1.31944444 L11.5836941,1.31944444 L11.5836941,0.439814815 L0.891053391,0.439814815 L0.891053391,1.31944444 Z" id="path10_stroke"></path>
                                </g>
                            </g>
                            <g id="Vector" transform="translate(2.673160, 5.277778)">
                                <g id="path11_stroke-link" transform="translate(0.267316, 0.351852)">
                                    <path d="M0.891053391,0.439814815 C0.644996126,0.439814815 0.445526696,0.636726944 0.445526696,0.87962963 C0.445526696,1.12253231 0.644996126,1.31944444 0.891053391,1.31944444 L0.891053391,0.439814815 Z M5.75134867,1.31944444 C5.99740415,1.31944444 6.19687536,1.12253231 6.19687536,0.87962963 C6.19687536,0.636726944 5.99740415,0.439814815 5.75134867,0.439814815 L5.75134867,1.31944444 Z M0.891053391,1.31944444 L5.75134867,1.31944444 L5.75134867,0.439814815 L0.891053391,0.439814815 L0.891053391,1.31944444 Z" id="path11_stroke"></path>
                                </g>
                            </g>
                            <g id="Vector" transform="translate(3.564214, 7.916667)">
                                <g id="path12_stroke-link" transform="translate(0.801948, 0.527778)">
                                    <path d="M0.891053391,0.439814815 C0.644996126,0.439814815 0.445526696,0.636726944 0.445526696,0.87962963 C0.445526696,1.12253231 0.644996126,1.31944444 0.891053391,1.31944444 L0.891053391,0.439814815 Z M2.8351715,1.31944444 C3.08122698,1.31944444 3.2806982,1.12253231 3.2806982,0.87962963 C3.2806982,0.636726944 3.08122698,0.439814815 2.8351715,0.439814815 L2.8351715,1.31944444 Z M0.891053391,1.31944444 L2.8351715,1.31944444 L2.8351715,0.439814815 L0.891053391,0.439814815 L0.891053391,1.31944444 Z" id="path12_stroke"></path>
                                </g>
                            </g>
                        </g>
                    </g>
                    <g id="unite" transform="translate(15.353535, 75.808081)" fill="#1B1725" fill-rule="nonzero">
                        <g id="Group">
                            <g id="Vector" transform="translate(6.305916, 0.000000)">
                                <g id="path13_stroke-link" transform="translate(3.769841, 4.519697) rotate(180.000000) translate(-3.769841, -4.519697) translate(0.411255, 0.681313)">
                                    <path d="M0.891053391,0.47979798 C0.644996126,0.47979798 0.445526696,0.694611212 0.445526696,0.95959596 C0.445526696,1.22458071 0.644996126,1.43939394 0.891053391,1.43939394 L0.891053391,0.47979798 Z M3.43691768,0.95959596 L3.75195851,0.620327929 C3.66840444,0.530347576 3.55508027,0.47979798 3.43691768,0.47979798 L3.43691768,0.95959596 Z M5.98279087,3.70129596 L6.2978228,4.04057071 C6.47180988,3.8531904 6.47180988,3.54940152 6.2978228,3.36203081 L5.98279087,3.70129596 Z M3.43691768,6.44300556 L3.43691768,6.92280354 C3.55508027,6.92280354 3.66840444,6.87225202 3.75195851,6.78227071 L3.43691768,6.44300556 Z M0.891053391,5.96320758 C0.644996126,5.96320758 0.445526696,6.17801313 0.445526696,6.44300556 C0.445526696,6.70798838 0.644996126,6.92280354 0.891053391,6.92280354 L0.891053391,5.96320758 Z M0.891053391,1.43939394 L3.43691768,1.43939394 L3.43691768,0.47979798 L0.891053391,0.47979798 L0.891053391,1.43939394 Z M3.12188575,1.29886399 L5.66775004,4.04057071 L6.2978228,3.36203081 L3.75195851,0.620327929 L3.12188575,1.29886399 Z M5.66775004,3.36203081 L3.12188575,6.10373081 L3.75195851,6.78227071 L6.2978228,4.04057071 L5.66775004,3.36203081 Z M3.43691768,5.96320758 L0.891053391,5.96320758 L0.891053391,6.92280354 L3.43691768,6.92280354 L3.43691768,5.96320758 Z" id="path13_stroke"></path>
                                </g>
                            </g>
                            <g id="Vector" transform="translate(0.000000, 2.878788)">
                                <g id="path14_stroke-link" transform="translate(4.516955, 1.784848) rotate(180.000000) translate(-4.516955, -1.784848) translate(0.678571, 0.825253)">
                                    <path d="M0.891053391,0.47979798 C0.644996126,0.47979798 0.445526696,0.694611212 0.445526696,0.95959596 C0.445526696,1.22458071 0.644996126,1.43939394 0.891053391,1.43939394 L0.891053391,0.47979798 Z M6.4919566,1.43939394 C6.738021,1.43939394 6.9374833,1.22458071 6.9374833,0.95959596 C6.9374833,0.694611212 6.738021,0.47979798 6.4919566,0.47979798 L6.4919566,1.43939394 Z M0.891053391,1.43939394 L6.4919566,1.43939394 L6.4919566,0.47979798 L0.891053391,0.47979798 L0.891053391,1.43939394 Z" id="path14_stroke"></path>
                                </g>
                            </g>
                            <g id="Vector" transform="translate(0.000000, 0.959596)">
                                <g id="path15_stroke-link" transform="translate(2.871934, 3.492929) rotate(180.000000) translate(-2.871934, -3.492929) translate(0.952742, 0.134343)">
                                    <path d="M1.20608799,0.620327929 C1.03209912,0.432954343 0.750007659,0.432954343 0.576018791,0.620327929 C0.402029033,0.807700556 0.402029033,1.11149136 0.576018791,1.29886399 L1.20608799,0.620327929 Z M2.92774304,3.15295404 L3.24278387,3.49222879 C3.41677096,3.30485808 3.41677096,3.0010596 3.24278387,2.81368889 L2.92774304,3.15295404 Z M0.576018791,5.00705657 C0.402029033,5.19442727 0.402029033,5.49821616 0.576018791,5.68558687 C0.750007659,5.87295758 1.03209912,5.87295758 1.20608799,5.68558687 L0.576018791,5.00705657 Z M0.576018791,1.29886399 L2.61271111,3.49222879 L3.24278387,2.81368889 L1.20608799,0.620327929 L0.576018791,1.29886399 Z M2.61271111,2.81368889 L0.576018791,5.00705657 L1.20608799,5.68558687 L3.24278387,3.49222879 L2.61271111,2.81368889 Z" id="path15_stroke"></path>
                                </g>
                            </g>
                        </g>
                    </g>
                    <g id="edit-77" transform="translate(17.000000, 177.000000)" stroke="#111111" stroke-linecap="round" stroke-linejoin="round" stroke-width="0.9">
                        <path d="M10,0 L4.16666667,5.72727273" id="Shape"></path>
                        <path d="M9.16666667,4.5 L9.16666667,8.35714286 C9.16666667,8.712 8.87333333,9 8.51190476,9 L0.654761905,9 C0.293333333,9 0,8.712 0,8.35714286 L0,0.642857143 C0,0.288 0.293333333,0 0.654761905,0 L4.58333333,0" id="Shape"></path>
                    </g>
                    <g id="node" transform="translate(16.313131, 102.676768)" fill="#1B1725" fill-rule="nonzero">
                        <g id="Group">
                            <g id="Vector" transform="translate(2.673160, 3.564214)">
                                <g id="path16_stroke-link" transform="translate(0.623737, 0.320779)">
                                    <path d="M3.37790321,0.891053391 C3.37790321,0.644996126 3.178432,0.445526696 2.93237652,0.445526696 C2.68632103,0.445526696 2.48684982,0.644996126 2.48684982,0.891053391 L3.37790321,0.891053391 Z M2.93237652,2.8351715 L3.196957,3.19363337 C3.31074452,3.10963377 3.37790321,2.97660841 3.37790321,2.8351715 L2.93237652,2.8351715 Z M0.626476472,3.98340072 C0.428504903,4.12952457 0.386472132,4.40846883 0.532594196,4.60643416 C0.678716259,4.80440841 0.957659008,4.84643939 1.15563031,4.70031555 L0.626476472,3.98340072 Z M2.48684982,0.891053391 L2.48684982,2.8351715 L3.37790321,2.8351715 L3.37790321,0.891053391 L2.48684982,0.891053391 Z M2.66779603,2.47670963 L0.626476472,3.98340072 L1.15563031,4.70031555 L3.196957,3.19363337 L2.66779603,2.47670963 Z" id="path16_stroke"></path>
                                </g>
                            </g>
                            <g id="Vector" transform="translate(5.346320, 5.346320)">
                                <g id="path17_stroke-link" transform="translate(0.000000, 0.490079)">
                                    <path d="M1.15563031,0.532594196 C0.95765883,0.386472132 0.678716259,0.428504903 0.532594196,0.626476472 C0.386472132,0.824447952 0.428504903,1.10339052 0.626476472,1.24951259 L1.15563031,0.532594196 Z M2.66779603,2.75620635 C2.86577027,2.90232128 3.14471454,2.8602903 3.29083838,2.66232496 C3.43695332,2.46435072 3.39492233,2.18540646 3.196957,2.03928261 L2.66779603,2.75620635 Z M0.626476472,1.24951259 L2.66779603,2.75620635 L3.196957,2.03928261 L1.15563031,0.532594196 L0.626476472,1.24951259 Z" id="path17_stroke"></path>
                                </g>
                            </g>
                            <g id="Vector" transform="translate(2.673160, 0.000000)">
                                <g id="path18_stroke-link" transform="translate(0.712843, 0.000000)">
                                    <path d="M4.33376291,2.8351715 C4.33376291,3.66281753 3.66281753,4.33376291 2.8351715,4.33376291 L2.8351715,5.22481631 C4.15493741,5.22481631 5.22481631,4.15493741 5.22481631,2.8351715 L4.33376291,2.8351715 Z M2.8351715,4.33376291 C2.00752547,4.33376291 1.33658009,3.66281753 1.33658009,2.8351715 L0.445526696,2.8351715 C0.445526696,4.15493741 1.51540648,5.22481631 2.8351715,5.22481631 L2.8351715,4.33376291 Z M1.33658009,2.8351715 C1.33658009,2.00752547 2.00752547,1.33658009 2.8351715,1.33658009 L2.8351715,0.445526696 C1.51540648,0.445526696 0.445526696,1.51540648 0.445526696,2.8351715 L1.33658009,2.8351715 Z M2.8351715,1.33658009 C3.66281753,1.33658009 4.33376291,2.00752547 4.33376291,2.8351715 L5.22481631,2.8351715 C5.22481631,1.51540648 4.15493741,0.445526696 2.8351715,0.445526696 L2.8351715,1.33658009 Z" id="path18_stroke"></path>
                                </g>
                            </g>
                            <g id="Vector" transform="translate(0.000000, 6.237374)">
                                <g id="path18_stroke-link" transform="translate(0.000000, 0.570274)">
                                    <path d="M4.33376291,2.8351715 C4.33376291,3.66281753 3.66281753,4.33376291 2.8351715,4.33376291 L2.8351715,5.22481631 C4.15493741,5.22481631 5.22481631,4.15493741 5.22481631,2.8351715 L4.33376291,2.8351715 Z M2.8351715,4.33376291 C2.00752547,4.33376291 1.33658009,3.66281753 1.33658009,2.8351715 L0.445526696,2.8351715 C0.445526696,4.15493741 1.51540648,5.22481631 2.8351715,5.22481631 L2.8351715,4.33376291 Z M1.33658009,2.8351715 C1.33658009,2.00752547 2.00752547,1.33658009 2.8351715,1.33658009 L2.8351715,0.445526696 C1.51540648,0.445526696 0.445526696,1.51540648 0.445526696,2.8351715 L1.33658009,2.8351715 Z M2.8351715,1.33658009 C3.66281753,1.33658009 4.33376291,2.00752547 4.33376291,2.8351715 L5.22481631,2.8351715 C5.22481631,1.51540648 4.15493741,0.445526696 2.8351715,0.445526696 L2.8351715,1.33658009 Z" id="path18_stroke"></path>
                                </g>
                            </g>
                            <g id="Vector" transform="translate(6.237374, 6.237374)">
                                <g id="path18_stroke-link" transform="translate(0.534632, 0.570274)">
                                    <path d="M4.33376291,2.8351715 C4.33376291,3.66281753 3.66281753,4.33376291 2.8351715,4.33376291 L2.8351715,5.22481631 C4.15493741,5.22481631 5.22481631,4.15493741 5.22481631,2.8351715 L4.33376291,2.8351715 Z M2.8351715,4.33376291 C2.00752547,4.33376291 1.33658009,3.66281753 1.33658009,2.8351715 L0.445526696,2.8351715 C0.445526696,4.15493741 1.51540648,5.22481631 2.8351715,5.22481631 L2.8351715,4.33376291 Z M1.33658009,2.8351715 C1.33658009,2.00752547 2.00752547,1.33658009 2.8351715,1.33658009 L2.8351715,0.445526696 C1.51540648,0.445526696 0.445526696,1.51540648 0.445526696,2.8351715 L1.33658009,2.8351715 Z M2.8351715,1.33658009 C3.66281753,1.33658009 4.33376291,2.00752547 4.33376291,2.8351715 L5.22481631,2.8351715 C5.22481631,1.51540648 4.15493741,0.445526696 2.8351715,0.445526696 L2.8351715,1.33658009 Z" id="path18_stroke"></path>
                                </g>
                            </g>
                        </g>
                    </g>
                    <g id="shape-adjust" transform="translate(15.353535, 134.343434)" fill="#1B1725" fill-rule="nonzero">
                        <g id="Group">
                            <g id="Vector" transform="translate(2.686869, 2.686869)">
                                <g id="path19_stroke-link" transform="translate(0.268687, 0.241818)">
                                    <path d="M0.895622896,0.895622896 L0.895622896,0.447811448 C0.648303798,0.447811448 0.447811448,0.648303798 0.447811448,0.895622896 L0.895622896,0.895622896 Z M8.71196572,0.895622896 L9.15977717,0.895622896 C9.15977717,0.648303798 8.95929199,0.447811448 8.71196572,0.447811448 L8.71196572,0.895622896 Z M8.71196572,8.71196572 L8.71196572,9.15977717 C8.95929199,9.15977717 9.15977717,8.95929199 9.15977717,8.71196572 L8.71196572,8.71196572 Z M0.895622896,8.71196572 L0.447811448,8.71196572 C0.447811448,8.95929199 0.648303798,9.15977717 0.895622896,9.15977717 L0.895622896,8.71196572 Z M0.895622896,1.34343434 L8.71196572,1.34343434 L8.71196572,0.447811448 L0.895622896,0.447811448 L0.895622896,1.34343434 Z M8.26415428,0.895622896 L8.26415428,8.71196572 L9.15977717,8.71196572 L9.15977717,0.895622896 L8.26415428,0.895622896 Z M8.71196572,8.26415428 L0.895622896,8.26415428 L0.895622896,9.15977717 L8.71196572,9.15977717 L8.71196572,8.26415428 Z M1.34343434,8.71196572 L1.34343434,0.895622896 L0.447811448,0.895622896 L0.447811448,8.71196572 L1.34343434,8.71196572 Z" id="path19_stroke"></path>
                                </g>
                            </g>
                            <g id="Vector">
                                <g id="path20_stroke-link">
                                    <path d="M8.26415428,4.80379879 C8.26415428,6.71489684 6.71489684,8.26415428 4.80379879,8.26415428 L4.80379879,9.15977717 C7.2095404,9.15977717 9.15977717,7.2095404 9.15977717,4.80379879 L8.26415428,4.80379879 Z M4.80379879,8.26415428 C2.89269178,8.26415428 1.34343434,6.71489684 1.34343434,4.80379879 L0.447811448,4.80379879 C0.447811448,7.2095404 2.39804822,9.15977717 4.80379879,9.15977717 L4.80379879,8.26415428 Z M1.34343434,4.80379879 C1.34343434,2.89269178 2.89269178,1.34343434 4.80379879,1.34343434 L4.80379879,0.447811448 C2.39804822,0.447811448 0.447811448,2.39804822 0.447811448,4.80379879 L1.34343434,4.80379879 Z M4.80379879,1.34343434 C6.71489684,1.34343434 8.26415428,2.89269178 8.26415428,4.80379879 L9.15977717,4.80379879 C9.15977717,2.39804822 7.2095404,0.447811448 4.80379879,0.447811448 L4.80379879,1.34343434 Z" id="path20_stroke"></path>
                                </g>
                            </g>
                        </g>
                    </g>
                    <g id="filter" transform="translate(17.272727, 11.515152)" fill="#1B1725" fill-rule="nonzero">
                        <g id="Group">
                            <g id="Vector">
                                <g id="path21_stroke-link">
                                    <path d="M9.67592593,2.92774304 L9.96681944,3.26194152 L10.1157407,3.12890725 L10.1157407,2.92774304 L9.67592593,2.92774304 Z M6.25514306,5.98279087 L5.96428472,5.64859239 L5.81532824,5.78162666 L5.81532824,5.98279087 L6.25514306,5.98279087 Z M6.25514306,10.5653092 L6.45629676,10.9615606 L6.69495787,10.8371696 L6.69495787,10.5653092 L6.25514306,10.5653092 Z M4.3004125,11.5836941 L3.86059769,11.5836941 L3.86059769,12.3138232 L4.50155741,11.9798564 L4.3004125,11.5836941 Z M4.3004125,5.98279087 L4.74022731,5.98279087 L4.74022731,5.78162666 L4.59127083,5.64859239 L4.3004125,5.98279087 Z M0.87962963,2.92774304 L0.439814815,2.92774304 L0.439814815,3.12890725 L0.588772176,3.26194152 L0.87962963,2.92774304 Z M0.87962963,0.891053391 L0.87962963,0.445526696 L0.439814815,0.445526696 L0.439814815,0.891053391 L0.87962963,0.891053391 Z M9.67592593,0.891053391 L10.1157407,0.891053391 L10.1157407,0.445526696 L9.67592593,0.445526696 L9.67592593,0.891053391 Z M9.38506759,2.59355346 L5.96428472,5.64859239 L6.54600139,6.31698045 L9.96681944,3.26194152 L9.38506759,2.59355346 Z M5.81532824,5.98279087 L5.81532824,10.5653092 L6.69495787,10.5653092 L6.69495787,5.98279087 L5.81532824,5.98279087 Z M6.05399815,10.1691468 L4.0992588,11.1875317 L4.50155741,11.9798564 L6.45629676,10.9615606 L6.05399815,10.1691468 Z M4.74022731,11.5836941 L4.74022731,5.98279087 L3.86059769,5.98279087 L3.86059769,11.5836941 L4.74022731,11.5836941 Z M4.59127083,5.64859239 L1.17048708,2.59355346 L0.588772176,3.26194152 L4.00955417,6.31698045 L4.59127083,5.64859239 Z M1.31944444,2.92774304 L1.31944444,0.891053391 L0.439814815,0.891053391 L0.439814815,2.92774304 L1.31944444,2.92774304 Z M0.87962963,1.33658009 L9.67592593,1.33658009 L9.67592593,0.445526696 L0.87962963,0.445526696 L0.87962963,1.33658009 Z M9.23611111,0.891053391 L9.23611111,2.92774304 L10.1157407,2.92774304 L10.1157407,0.891053391 L9.23611111,0.891053391 Z" id="path21_stroke"></path>
                                </g>
                            </g>
                        </g>
                    </g>
                </g>
            </g>
        </g>
    </g>
</svg>