<?xml version="1.0" encoding="UTF-8"?>
<svg width="14px" height="9px" viewBox="0 0 14 9" version="1.1" xmlns="http://www.w3.org/2000/svg" xmlns:xlink="http://www.w3.org/1999/xlink">
    <!-- Generator: Sketch 49.3 (51167) - http://www.bohemiancoding.com/sketch -->
    <title>marketo_ico</title>
    <desc>Created with Sketch.</desc>
    <defs></defs>
    <g id="Version_2" stroke="none" stroke-width="1" fill="none" fill-rule="evenodd">
        <g id="AS_redesign_newBrand_v5" transform="translate(-840.000000, -584.000000)" fill="#8C72C7" fill-rule="nonzero">
            <g id="4.-Dropdown" transform="translate(636.000000, 450.000000)">
                <g id="submenu_selected" transform="translate(190.000000, 64.000000)">
                    <g id="marketo_ico" transform="translate(14.000000, 70.000000)">
                        <path d="M11.5347549,0.00828849147 C11.8281167,0.00828849147 12.1145056,0.00828849147 12.4078674,0.00828849147 C12.9317297,0.0165769655 13.1762022,0.364693772 13.0574612,0.978041152 C12.7291734,2.6854716 12.3869136,4.38461454 12.0516355,6.09204499 C11.8909868,6.89602195 11.7233478,7.70000768 11.5766625,8.50399342 C11.5347549,8.74435775 11.4579214,8.82725926 11.2483748,8.75264527 C10.3403364,8.45425953 9.4183346,8.23047023 8.48934415,8.05641481 C8.29376742,8.02326475 8.23788817,7.9320845 8.28678242,7.69172016 C8.73381496,5.46211468 9.16688036,3.23250919 9.61390915,1.0112 C9.74662232,0.356405377 10.1307897,0.00828849147 10.6895866,-2.81366042e-10 C10.9759667,0.00828849147 11.2553565,0.00828849147 11.5347549,0.00828849147 Z" id="path4_fill"></path>
                        <path d="M8.55175982,2.98813893 C8.45397254,3.48544527 8.34221317,4.09050425 8.2234721,4.68727572 C8.04186094,5.62387929 7.84628638,6.56877037 7.67166562,7.50536516 C7.61578594,7.79546337 7.53895245,7.91979369 7.25257232,7.86177229 C6.37247812,7.68771687 5.47841183,7.59653663 4.58434554,7.55509904 C4.3119348,7.53852401 4.21414631,7.47221509 4.29098005,7.11580796 C4.56339087,5.81451852 4.80786167,4.5132203 5.06630283,3.21193086 C5.21996719,2.44938711 5.57619911,2.11784712 6.23278326,2.11784712 C6.79157143,2.11784712 7.3503596,2.10955867 7.90915647,2.12613566 C8.32125937,2.14271263 8.55175982,2.41623265 8.55175982,2.98813893 Z" id="path5_fill"></path>
                        <path d="M1.70635446,7.46455089 C1.23138147,7.46455089 0.749425045,7.45626337 0.274452924,7.47283841 C0.0439515202,7.48112593 -0.046852058,7.42310453 0.0229967679,7.12471879 C0.141739755,6.61083128 0.225558415,6.09694376 0.33731692,5.59135254 C0.477014397,4.93655879 0.854198371,4.58015333 1.41299263,4.58015333 C1.9717808,4.57186484 2.53056897,4.57186484 3.08936585,4.58015333 C3.66212612,4.58844181 3.89262656,4.94484719 3.76689509,5.60792757 C3.66910781,6.13010261 3.55734844,6.65227764 3.46654286,7.18274019 C3.42463527,7.41481701 3.33382969,7.48941344 3.13127344,7.48112593 C2.65630045,7.45626337 2.18132746,7.47283841 1.70635446,7.46455089 Z" id="path6_fill"></path>
                    </g>
                </g>
            </g>
        </g>
    </g>
</svg>