<?xml version="1.0" encoding="UTF-8"?>
<svg width="137px" height="137px" viewBox="0 0 137 137" version="1.1" xmlns="http://www.w3.org/2000/svg" xmlns:xlink="http://www.w3.org/1999/xlink">
    <!-- Generator: Sketch 49.3 (51167) - http://www.bohemiancoding.com/sketch -->
    <title>marketo</title>
    <desc>Created with Sketch.</desc>
    <defs>
        <rect id="path-1" x="0" y="0" width="137.001972" height="137.001972" rx="3"></rect>
    </defs>
    <g id="Version_2" stroke="none" stroke-width="1" fill="none" fill-rule="evenodd">
        <g id="AS_redesign_newBrand_v5" transform="translate(-813.000000, -363.000000)">
            <g id="1.-Sources" transform="translate(490.000000, 363.000000)">
                <g id="marketo" transform="translate(322.998028, 0.000000)">
                    <g id="Rectangle-6">
                        <use fill="#FFFFFF" fill-rule="evenodd" xlink:href="#path-1"></use>
                        <rect stroke-opacity="0.3" stroke="#979797" stroke-width="1" x="0.5" y="0.5" width="136.001972" height="136.001972" rx="3"></rect>
                    </g>
                    <g id="Group-21" transform="translate(25.404339, 59.881657)" fill="#9B9B9B" fill-rule="nonzero">
                        <path d="M57.4854122,18.1459566 C57.1530408,17.9524582 56.7560379,17.9708807 56.3959736,17.8695572 C54.3463529,17.3351182 53.4415743,16.1096495 53.5892945,14.0088638 C53.6262245,13.456065 53.7000831,12.9124148 53.8016411,12.3688273 C54.1432431,10.5352298 54.5864063,8.72007347 55.1311256,6.93256338 C55.6850717,5.08977343 56.9129937,4.02095124 58.7871925,3.65239262 C60.1628373,3.38518754 61.5384883,3.38518754 62.9048937,3.68924817 C65.0376183,4.17758654 65.9792902,5.62418107 65.5822936,7.82631529 C65.3607126,9.03334281 65.0652923,10.2219228 64.8344657,11.4289691 C64.769872,11.7422761 64.631376,11.7975434 64.3358928,11.7883322 C62.7940718,11.7699097 61.2614964,11.7883322 59.7196691,11.779121 C58.0947504,11.7699097 57.4115477,13.1703918 57.6054295,14.5893589 C57.6331287,14.7920685 57.7900782,14.9395107 57.9562671,15.0500454 C58.4271219,15.3633524 59.3780709,15.3541411 59.8489257,15.031623 C60.0150957,14.9210883 60.0889979,14.7644348 60.144346,14.5893589 C60.4305835,13.7785205 61.1507374,13.2717779 62.0093243,13.2625667 C62.8587284,13.2533554 63.6988869,13.2625667 64.548291,13.2625667 C64.5759651,13.2625667 64.6036391,13.2809891 64.6406217,13.2809891 C64.1697228,16.2202468 62.6002278,17.7865935 59.8396989,18.0537817 C59.7843005,18.0630556 59.7381352,18.0999005 59.6919762,18.1275342 C58.9626081,18.1459566 58.2240133,18.1459566 57.4854122,18.1459566 Z M60.5690795,9.22684118 C60.6614101,9.22684118 60.7537408,9.20841246 60.8460085,9.22684118 C61.2338224,9.30054977 61.3907467,9.12548638 61.4461577,8.75692463 C61.5015686,8.333083 61.6123277,7.91845886 61.686167,7.49461097 C61.7784977,6.89570596 61.5292427,6.48107555 60.9937501,6.31522966 C60.4029095,6.14016001 59.8489257,6.2415148 59.442696,6.72064257 C59.0087672,7.22741028 58.713328,7.80788658 58.9995341,8.48972394 C59.2488142,9.09784018 59.7843005,9.25448111 60.4029095,9.22684118 C60.4490119,9.22684118 60.5136685,9.22684118 60.5690795,9.22684118 Z" id="path0_fill"></path>
                        <path d="M78.7462435,18.1459566 C78.258665,17.9620672 77.7434926,17.9896412 77.2375202,17.8793451 C75.2688249,17.4380354 74.3028783,16.2519766 74.3120779,14.2477005 C74.3120779,13.6960322 74.4040706,13.1536177 74.5052651,12.6111408 C74.827248,10.8090742 75.2228246,9.01625534 75.7747973,7.26018307 C76.575153,4.69504102 78.0654761,3.5641666 80.7517453,3.46303203 C81.625689,3.4354498 82.4904202,3.49061439 83.3552139,3.68368973 C85.5998925,4.18936694 86.6486249,5.59605552 86.3634103,7.87619082 C86.0782584,10.1838751 85.5354669,12.445634 84.8547372,14.6706275 C84.2199451,16.7576882 82.9596361,17.8333883 80.3101546,18.0540431 C80.1813662,18.0632345 80.0341652,17.9804499 79.9329707,18.1367653 C79.5373929,18.1459566 79.1418213,18.1459566 78.7462435,18.1459566 Z M79.555793,15.2958266 C80.4297493,15.2958266 80.6505321,15.1211285 80.843746,14.2844659 C80.981747,13.6592668 81.128898,13.0340677 81.266899,12.4088686 C81.6164764,10.8642848 81.9752665,9.31965729 82.3156314,7.76585715 C82.4076321,7.32454125 82.4536324,6.874034 82.048842,6.53385416 C81.6624768,6.21206327 81.2025361,6.18447673 80.7517453,6.34077963 C80.0985656,6.56143445 79.9237706,7.14985566 79.7765821,7.73827686 C79.5281928,8.77720532 79.2890099,9.81615878 79.0498206,10.8550935 C78.8290378,11.7928609 78.6082488,12.7306908 78.4058598,13.6684581 C78.1758707,14.6890102 78.6082488,15.2958266 79.555793,15.2958266 Z" id="path1_fill"></path>
                        <path d="M20.9683041,18.1459566 C20.9507268,18.1274337 20.9331555,18.0811263 20.9155783,18.0811263 C19.491905,17.7754345 18.8503738,16.7470956 19.0437118,15.0887873 C19.1667454,14.0419254 19.4479642,13.041371 19.8610024,12.0779254 C20.2388956,11.1978331 20.8892124,10.632694 21.7152898,10.2713704 C23.3059363,9.5672966 24.9844631,9.1318812 26.636642,8.62234878 C26.9354435,8.52970252 27.0848143,8.39074257 27.1199568,8.08501934 C27.1727006,7.68666244 27.2605869,7.29756072 27.3045301,6.89919752 C27.3572738,6.45452064 27.1287574,6.20438517 26.733269,6.10247743 C25.7490381,5.85234196 25.1250932,6.2321759 24.7823366,7.28829924 C24.5186956,8.07575786 24.5186956,8.07575786 23.7277667,8.07575786 C23.2444219,8.07575786 22.7610771,8.08501934 22.2777323,8.07575786 C21.3374026,8.06649638 20.9155783,7.41799772 21.2231624,6.46378212 C21.6889299,5.03709261 22.5501619,4.07361113 24.0089849,3.74936305 C25.6699524,3.37879436 27.3220714,3.32320912 28.9567089,3.79568429 C30.1782569,4.14772625 31.1976303,4.93518487 31.1010033,6.83434828 C31.0746015,7.28829924 30.9603732,7.71445317 30.8724869,8.14986857 C30.3012857,10.8087251 29.7212241,13.4582634 29.1412223,16.1171262 C29.0181934,16.6822023 28.9567089,17.2380799 29.3521375,17.7754345 C28.2184759,17.7754345 27.1375581,17.8124804 26.0566402,17.7568486 C25.5996074,17.7383256 25.0460075,17.6920183 25.0460075,16.9416496 C25.0460075,16.8211874 24.940526,16.811926 24.843857,16.8397104 C24.747188,16.8767563 24.6417304,16.9045407 24.5714214,16.9694341 C23.912316,17.5808805 23.1301757,17.9236182 22.2953096,18.1459566 C21.8471133,18.1459566 21.4077117,18.1459566 20.9683041,18.1459566 Z M26.4345274,11.1885086 C25.8808676,11.3830626 25.4062935,11.5868781 24.9141601,11.7258633 C23.8068584,12.050141 23.3235136,12.8838629 23.1565416,14.0048795 C22.9895635,15.1443562 23.2532105,15.4501109 24.3429349,15.4593724 C24.6856676,15.4593724 24.843857,15.2555569 25.0196057,15.0332184 C25.8984089,13.9492477 26.1005235,12.6059556 26.4345274,11.1885086 Z" id="path2_fill"></path>
                        <path d="M15.912487,5.55730852 C15.7035373,5.68419641 15.6672063,5.88359518 15.585446,6.05579929 C14.0318776,9.49994926 12.469149,12.9440314 10.9428753,16.4062968 C10.234204,18.0105478 9.08033853,18.2552504 7.70848704,18.1102163 C6.96348472,18.0286693 6.48195958,17.3760467 6.49105781,16.5513309 C6.50925426,14.3941875 6.53648704,12.2371058 6.56371983,10.0709016 C6.57281805,8.75671884 6.58191628,7.44253608 6.5910145,6.12831017 C6.5910145,5.96516685 6.5910145,5.80202352 6.5910145,5.58449702 C6.33663554,5.71139107 6.3547701,5.91078368 6.32753732,6.06486623 C5.6007005,9.54525315 4.86479022,13.0256401 4.14705163,16.5059654 C3.91991783,17.5392023 3.20217924,18.1283379 2.14828907,18.1283379 C1.83030299,18.1283379 1.51231691,18.1373987 1.19433084,18.1283379 C0.34940029,18.1102163 -0.150290969,17.4938984 0.0405000589,16.6781818 C1.13982194,11.928916 2.23914135,7.17058944 3.33846076,2.42134831 C3.4020555,2.13131709 3.47474227,1.8322251 3.54742286,1.54219388 C3.79272835,0.599591194 4.5195466,0.0195290694 5.49167653,0.0104655784 C6.4547268,0.00140213067 7.4268134,0.00140213067 8.38986367,0.0104655784 C9.36201217,0.0195290694 9.943494,0.67210023 9.9071011,1.64189327 C9.83443908,3.771805 9.78900984,5.9017229 9.7072496,8.0225492 C9.65272214,9.36397594 9.56186367,10.705341 9.48920165,12.0467678 C9.48010342,12.2008626 9.48920165,12.3639567 9.55282733,12.5361731 C9.88896654,11.7566996 10.234204,10.9772877 10.5522086,10.1978141 C11.7514414,7.2884412 13.0597291,4.42437832 14.3316858,1.54219388 C14.7859162,0.52708339 15.585446,0.0285925603 16.684784,0.0104655784 C17.5933068,-0.00766134176 18.5018296,0.00140213067 19.4103524,0.0104655784 C20.4369665,0.0195290694 20.9093934,0.608655054 20.6823091,1.59657088 C19.5375419,6.5996371 18.3746401,11.6026663 17.2207747,16.6056956 C17.0027268,17.5482631 16.2577244,18.1283379 15.2947361,18.1283379 C14.994866,18.1283379 14.6860214,18.1283379 14.3861514,18.1283379 C13.3958683,18.1192771 12.9416378,17.5482631 13.1869186,16.5966348 C13.9046262,13.7506873 14.631494,10.9047398 15.3582998,8.05885396 C15.5400168,7.36092743 15.7126355,6.65400177 15.8943524,5.9560999 C15.912487,5.82921202 15.948818,5.70232413 15.912487,5.55730852 Z" id="path3_fill"></path>
                        <path d="M50.0251889,18.1142542 C49.6109616,18.1051973 49.1877161,18.159539 48.7824458,17.9783385 C48.161105,17.6975117 47.7377981,17.2444797 47.5666962,16.5650242 C47.1884808,15.0973683 46.7922287,13.6297124 46.4050134,12.1620564 C46.3419775,11.9355713 46.3149594,11.6093981 46.0267856,11.627512 C45.7836357,11.6365689 45.7566238,11.9627421 45.7025878,12.1711134 C45.3603841,13.6387693 45.0271802,15.1064252 44.6939764,16.5740812 C44.4778445,17.5344251 43.7484009,18.1142542 42.7668075,18.1142542 C42.4786337,18.1142542 42.1994658,18.1142542 41.911292,18.1142542 C40.9026794,18.1142542 40.4434025,17.5253682 40.6685388,16.5197395 C40.8486476,15.7224821 41.0287549,14.9342817 41.2178694,14.1461429 C42.1724478,9.9968311 43.1270293,5.84748848 44.0725987,1.69817668 C44.3247546,0.592902562 45.0451922,0.00402650158 46.1888815,0.00402650158 C46.4770553,0.00402650158 46.756217,-0.00503312698 47.0443724,0.00402650158 C47.9089,0.0493246629 48.3682186,0.656320257 48.1700619,1.51698238 C47.6657746,3.72753555 47.152469,5.94714566 46.6481572,8.1577173 C46.6211391,8.27545755 46.6031333,8.39325942 46.6031333,8.51099967 C46.6031333,8.80094504 46.7472232,8.86434364 46.9723489,8.69220012 C47.0984207,8.59257376 47.2154742,8.46571495 47.3145526,8.33891776 C48.0530083,7.44197242 48.7824458,6.54508868 49.5118833,5.6481803 C50.0702189,4.95964321 50.7906381,4.57008379 51.6462088,4.42512958 C52.3125797,4.30735237 52.9969871,4.37982639 53.6724376,4.37982639 C53.9515747,4.37982639 54.2758033,4.39794644 54.4018751,4.72409494 C54.5189286,5.03212339 54.3297902,5.27673477 54.1316949,5.494163 C53.0600537,6.69911831 51.9884125,7.89494275 50.9167713,9.09988575 C50.1962907,9.90620006 49.9981954,10.8393732 50.2953691,11.8721727 C50.7276329,13.3760564 51.1508784,14.8799401 51.6551657,16.3657099 C52.0694543,17.5978237 51.4570703,18.2501084 50.3494174,18.1323681 C50.2323638,18.1051973 50.1242672,18.1142542 50.0251889,18.1142542 Z" id="path4_fill"></path>
                        <path d="M72.8472531,15.5148308 C72.7336827,15.9866096 72.6579712,16.4039665 72.5444008,16.8031828 C72.3172599,17.5744047 71.5128086,18.1459566 70.6704984,18.1459566 C69.7808644,18.1459566 68.91016,18.0280428 68.0773145,17.73767 C66.6860816,17.256821 66.3075145,16.5491529 66.6576886,15.1791066 C67.2539337,12.811081 67.8501736,10.4339235 68.4274905,8.05682769 C68.6073077,7.33095734 68.427484,7.08599769 67.6987442,6.80475687 C67.5283918,6.7412031 67.4242861,6.60514869 67.3675041,6.44182169 C67.0457197,5.63432486 67.7460679,4.42761785 68.5126603,4.36410728 C69.1751533,4.30966701 69.4306884,3.76528893 69.6199703,3.2481279 C69.7997875,2.74004334 69.9038932,2.19566525 70.0269283,1.66942776 C70.2635339,0.562525457 70.9922738,0 72.1752953,0 C72.4308239,0 72.6768943,0 72.9324293,0 C73.9735056,0 74.4656333,0.589744361 74.2290148,1.56055338 C74.105999,2.0867847 73.9545503,2.61302219 73.8599029,3.14832998 C73.7179318,3.90138653 73.9167042,4.19172233 74.6549281,4.41854756 C75.0997322,4.554639 75.184902,4.91756183 75.1754243,5.28955496 C75.1659467,6.07889886 74.6359729,6.66864075 73.8315345,6.85917863 C73.1501119,7.01343534 72.8093942,7.53056551 72.6579712,8.11124945 C72.0995838,10.2615262 71.5506612,12.4118647 71.1058442,14.580282 C70.982809,15.1881768 71.2572736,15.48762 71.9102955,15.5239011 C72.222619,15.5329714 72.5160066,15.5148308 72.8472531,15.5148308 Z" id="path5_fill"></path>
                        <path d="M38.3422318,6.8726818 C39.1906203,5.28204194 40.499357,4.42830579 42.3405654,4.32046586 C42.0698411,5.29102595 41.8712402,6.26158596 41.5192309,7.19620384 C41.311653,7.76236131 40.9686822,8.07689934 40.2827407,8.06790923 C38.7845031,8.05892522 38.0985307,8.58015042 37.6472456,10.0180194 C37.069606,11.8603092 36.7446815,13.7564848 36.2843763,15.6257083 C36.2031406,15.9762068 36.121911,16.3266442 36.0316552,16.6681587 C35.7879664,17.5847719 35.0839662,18.1329797 34.1362712,18.1419637 C33.7933004,18.1419637 33.4412972,18.1509477 33.0983203,18.1419637 C32.3130918,18.1150117 31.8347324,17.5128999 32.0062196,16.7400308 C32.8275529,13.1453889 33.6579136,9.55970056 34.4973005,5.96502817 C34.6778121,5.17419718 35.3366812,4.60803972 36.1489896,4.52715921 C36.5912485,4.48222573 37.0515537,4.48222634 37.5028326,4.51817276 C38.2429314,4.57209269 38.6310332,5.05737453 38.5498097,5.79428314 C38.5137172,6.15374732 38.4144168,6.51321762 38.3422318,6.8726818 Z" id="path6_fill"></path>
                    </g>
                </g>
            </g>
        </g>
    </g>
</svg>