<?xml version="1.0" encoding="UTF-8"?>
<svg width="138px" height="138px" viewBox="0 0 138 138" version="1.1" xmlns="http://www.w3.org/2000/svg" xmlns:xlink="http://www.w3.org/1999/xlink">
    <!-- Generator: Sketch 49.3 (51167) - http://www.bohemiancoding.com/sketch -->
    <title>mixpanel</title>
    <desc>Created with Sketch.</desc>
    <defs></defs>
    <g id="Page-1" stroke="none" stroke-width="1" fill="none" fill-rule="evenodd">
        <g id="mixpanel">
            <rect id="Rectangle-path" stroke-opacity="0.3" stroke="#979797" fill="#FFFFFF" x="0.5" y="0.720907" width="136.001972" height="136.001972" rx="3"></rect>
            <path d="M31.8379131,82.7850099 C33.8878194,82.7850099 35.5495789,81.1232146 35.5495789,79.0733226 C35.5495789,77.0234306 33.8878194,75.361664 31.8379131,75.361664 C29.7880068,75.361664 28.126233,77.0234306 28.126233,79.0733226 C28.126233,81.1232146 29.7880068,82.7850099 31.8379131,82.7850099 Z" id="path0_fill" fill="#9B9B9B" fill-rule="nonzero"></path>
            <path d="M44.6225572,81.1353775 C45.9891605,81.1353775 47.0970058,80.0275286 47.0970058,78.6609289 C47.0970058,77.2943291 45.9891605,76.1864802 44.6225572,76.1864802 C43.2559539,76.1864802 42.1481086,77.2943291 42.1481086,78.6609289 C42.1481086,80.0275286 43.2559539,81.1353775 44.6225572,81.1353775 Z" id="path1_fill" fill="#9B9B9B" fill-rule="nonzero"></path>
            <path d="M54.9327598,80.3105613 C55.6160574,80.3105613 56.1699841,79.7566338 56.1699841,79.073337 C56.1699841,78.3900372 55.6160574,77.8361127 54.9327598,77.8361127 C54.2494585,77.8361127 53.6955355,78.3900372 53.6955355,79.073337 C53.6955355,79.7566338 54.2494585,80.3105613 54.9327598,80.3105613 Z" id="path2_fill" fill="#9B9B9B" fill-rule="nonzero"></path>
            <path d="M43.5663887,71.237583 C42.9595925,71.237583 42.5100866,70.7418005 42.5100866,70.127574 L42.5100866,65.4039245 C42.5100866,63.774269 41.768432,62.5225128 40.1053338,62.5225128 C38.4422355,62.5225128 37.430864,63.8687438 37.430864,65.4277114 L37.430864,70.127574 C37.430864,70.7418005 37.0262887,71.237583 36.374562,71.237583 C35.7452672,71.237583 35.3182599,70.7418005 35.3182599,70.127574 L35.3182599,65.4039245 C35.3182599,63.774269 34.5091628,62.5225128 32.8460512,62.5225128 C31.1379823,62.5225128 30.239004,63.8687438 30.239004,65.4277114 L30.239004,70.127574 C30.239004,70.7418005 29.8119834,71.237583 29.1826953,71.237583 C28.5757242,71.237583 28.126233,70.7418005 28.126233,70.127574 L28.126233,61.7431166 C28.126233,61.0818062 28.5307749,60.6094448 29.182535,60.6094448 C29.9017244,60.6094448 30.2388438,61.1290429 30.2388438,61.7431166 L30.2388438,62.4988941 C30.8456533,61.2471308 32.081751,60.5149723 33.4077499,60.5149723 C35.0259109,60.5149723 36.23957,61.3652244 36.8463662,62.6169806 C37.7228793,61.1998969 39.0039009,60.5149723 40.5996367,60.5149723 C43.3190369,60.5149723 44.6225572,62.4752754 44.6225572,65.2385936 L44.6225572,70.1273638 C44.6224237,70.7418005 44.1956835,71.237583 43.5663887,71.237583 Z" id="path3_fill" fill="#9B9B9B" fill-rule="nonzero"></path>
            <path d="M47.5094103,57.2157074 C48.1842619,57.2157074 48.7466382,57.7739024 48.7466382,58.4437338 C48.7466382,59.1135712 48.1842619,59.6717668 47.5094103,59.6717668 C46.8345634,59.6717668 46.2721896,59.1135712 46.2721896,58.4437338 C46.2721896,57.7739024 46.8345634,57.2157074 47.5094103,57.2157074 Z M47.5094103,71.237583 C46.8795535,71.237583 46.4521488,70.76882 46.4521488,70.1881503 L46.4521488,62.2394614 C46.4521488,61.6589374 46.9020479,61.1900552 47.5094103,61.1900552 C48.1167781,61.1900552 48.5666791,61.6589374 48.5666791,62.2394614 L48.5666791,70.1881503 C48.5663584,70.76882 48.1392705,71.237583 47.5094103,71.237583 Z" id="path4_fill" fill="#9B9B9B" fill-rule="nonzero"></path>
            <path d="M54.9327672,64.3751658 L57.7012177,60.8485693 C57.8873226,60.6341142 58.1199365,60.5149723 58.4223484,60.5149723 C59.0272412,60.5149723 59.42274,60.9200541 59.42274,61.4919387 C59.42274,61.7063923 59.352942,61.9208459 59.1668371,62.1352995 L56.1192292,65.8525264 L59.2133461,69.5933843 C59.3762311,69.784016 59.469249,69.9746477 59.469249,70.2605953 C59.469249,70.8090151 59.0039521,71.237583 58.4921463,71.237583 C58.1664455,71.237583 57.9105426,71.1184381 57.7244377,70.8797949 L54.9327672,67.3297173 L52.141076,70.8797949 C51.9549642,71.1179432 51.6990613,71.237583 51.3733605,71.237583 C50.8615519,71.237583 50.3962707,70.8085202 50.3962707,70.2605953 C50.3962707,69.9746477 50.4893283,69.784016 50.6521766,69.5933843 L53.7462983,65.8525264 L50.6987042,62.1354692 C50.512591,61.9206762 50.4428006,61.7063923 50.4428006,61.4921084 C50.4428006,60.9202245 50.8382891,60.5151424 51.4431584,60.5151424 C51.745591,60.5151424 51.9782256,60.6342839 52.1643374,60.8487397 L54.9327672,64.3751658 Z" id="path5_fill" fill="#9B9B9B" fill-rule="nonzero"></path>
            <path d="M66.9377118,71.1231396 C65.3656885,71.1231396 64.0752241,70.312784 63.324403,69.1313418 L63.324403,74.2733543 C63.324403,74.8757256 62.8786079,75.361664 62.221642,75.361664 C61.5646796,75.361664 61.1188814,74.8755881 61.1188814,74.2733543 L61.1188814,61.6959196 C61.1188814,61.0936982 61.4942889,60.6072903 62.1747144,60.6072903 C62.8551476,60.6072903 63.254015,61.1168596 63.254015,61.7190755 L63.254015,62.5069282 C63.9579085,61.3024881 65.3656885,60.5149723 66.9377118,60.5149723 C69.6359703,60.5149723 71.8414921,62.7382198 71.8414921,65.8191315 C71.8414921,69.0151839 69.6359703,71.1231396 66.9377118,71.1231396 Z M66.492084,62.3214605 C64.5915744,62.3214605 63.3245772,63.9656509 63.3245772,65.8189666 C63.3245772,67.6722892 64.5915744,69.3164383 66.492084,69.3164383 C68.3925589,69.3164383 69.6359703,67.9037114 69.6359703,65.8189666 C69.6359703,63.7343593 68.3924195,62.3214605 66.492084,62.3214605 Z" id="path6_fill" fill="#9B9B9B" fill-rule="nonzero"></path>
            <path d="M83.3882958,70.0434338 C83.3882958,70.6522838 82.9686865,71.1437267 82.2927415,71.1437267 C81.6400619,71.1437267 81.2207988,70.6522838 81.2207988,70.0434338 L81.2207988,69.5283705 C80.5681193,70.5116036 79.3327159,71.237583 77.8179191,71.237583 C74.5538913,71.237583 72.6663083,68.8497709 72.6663083,65.8761803 C72.6663083,62.949754 74.7645131,60.5149723 78.0508508,60.5149723 C81.4074765,60.5149723 83.388919,62.7156413 83.388919,65.8761803 L83.388919,70.0434338 L83.3882958,70.0434338 Z M78.0270383,62.3878807 C76.1620962,62.3878807 74.856751,63.9567812 74.856751,65.8761803 C74.856751,67.8895329 75.9523054,69.3644868 78.0270383,69.3644868 C79.9615552,69.3644868 81.1969794,67.7022372 81.1969794,65.8761803 C81.1969794,63.722335 79.891828,62.3878807 78.0270383,62.3878807 Z" id="path7_fill" fill="#9B9B9B" fill-rule="nonzero"></path>
            <path d="M89.1511459,60.5149723 C92.0092696,60.5149723 94.1115298,62.6878652 94.1115298,65.4512195 L94.1115298,70.1274894 C94.1115298,70.7419342 93.6156296,71.237583 93.0012804,71.237583 C92.3872119,71.237583 91.8910311,70.7419342 91.8910311,70.1274894 L91.8910311,65.1912492 C91.8910311,63.7032935 90.7098877,62.54599 89.1511459,62.54599 C87.5920743,62.54599 86.4342418,63.7029501 86.4342418,65.1912492 L86.4342418,70.1274894 C86.4342418,70.7419342 85.9383347,71.237583 85.3239855,71.237583 C84.7099724,71.237583 84.2137352,70.7419342 84.2137352,70.1274894 L84.2137352,65.4510513 C84.2137352,62.6876971 86.292503,60.5149723 89.1511459,60.5149723 Z" id="path8_fill" fill="#9B9B9B" fill-rule="nonzero"></path>
            <path d="M105.658957,65.9001895 C105.658957,66.2747692 105.452807,66.6493418 104.834356,66.6493418 L97.9840459,66.6493418 C98.0984392,68.2647187 99.1752657,69.4819167 101.076734,69.4819167 C102.268287,69.4819167 102.978528,69.0603679 103.734458,68.3347453 C103.917876,68.147452 104.169762,67.9832925 104.444719,67.9832925 C104.925691,67.9832925 105.3384,68.3347453 105.3384,68.8964863 C105.3384,69.1302555 105.223653,69.3409605 105.063442,69.5282538 C104.192834,70.5582974 102.634559,71.237583 100.985249,71.237583 C97.5713169,71.237583 95.7611622,68.8024923 95.7611622,65.8761109 C95.7611622,62.8092596 97.9378952,60.5149723 100.893118,60.5149723 C103.780602,60.5159756 105.658957,62.9035732 105.658957,65.9001895 Z M100.893608,62.2718057 C99.3127309,62.2718057 98.2359044,63.4186159 98.0296998,64.8704376 L103.665718,64.8704376 C103.482572,63.4654392 102.451406,62.2718057 100.893608,62.2718057 Z" id="path9_fill" fill="#9B9B9B" fill-rule="nonzero"></path>
            <path d="M107.721186,71.237583 C106.983631,71.237583 106.483773,70.7552107 106.483773,70.1575982 L106.483773,56.6461007 C106.483773,56.0483116 106.984008,55.566075 107.721186,55.566075 C108.458369,55.566075 108.958221,56.0483116 108.958221,56.6461007 L108.958221,70.1575982 C108.958597,70.7552107 108.458369,71.237583 107.721186,71.237583 Z" id="path10_fill" fill="#9B9B9B" fill-rule="nonzero"></path>
        </g>
    </g>
</svg>