<?xml version="1.0" encoding="UTF-8"?>
<svg width="305px" height="244px" viewBox="0 0 305 244" version="1.1" xmlns="http://www.w3.org/2000/svg" xmlns:xlink="http://www.w3.org/1999/xlink">
    <!-- Generator: Sketch 49.3 (51167) - http://www.bohemiancoding.com/sketch -->
    <title>pie_chart</title>
    <desc>Created with Sketch.</desc>
    <defs>
        <linearGradient x1="98.852459%" y1="-1.054e-15%" x2="98.852459%" y2="17.2131148%" id="linearGradient-1">
            <stop stop-color="#424C52" offset="0%"></stop>
            <stop stop-color="#444E54" offset="100%"></stop>
        </linearGradient>
        <linearGradient x1="100.01606%" y1="-0.00799880129%" x2="100.01606%" y2="100%" id="linearGradient-2">
            <stop stop-color="#424C52" offset="0%"></stop>
            <stop stop-color="#444E54" offset="100%"></stop>
        </linearGradient>
        <rect id="path-3" x="0.5" y="0" width="304" height="244"></rect>
        <radialGradient cx="0%" cy="25.9097951%" fx="0%" fy="25.9097951%" r="0.163934426%" gradientTransform="translate(0.000000,0.259098),scale(1.000000,0.548673),translate(-0.000000,-0.259098)" id="radialGradient-5">
            <stop stop-color="#FF8585" offset="0%"></stop>
            <stop stop-color="#FF5858" offset="100%"></stop>
        </radialGradient>
        <radialGradient cx="-10.9254634%" cy="57.9251572%" fx="-10.9254634%" fy="57.9251572%" r="96.5611805%" gradientTransform="translate(-0.109255,0.579252),scale(1.000000,0.550048),rotate(-16.802816),scale(1.000000,72.811659),translate(0.109255,-0.579252)" id="radialGradient-6">
            <stop stop-color="#BC9EFF" offset="0%"></stop>
            <stop stop-color="#8C72C7" offset="100%"></stop>
        </radialGradient>
        <radialGradient cx="20.7392623%" cy="26.6393238%" fx="20.7392623%" fy="26.6393238%" r="0.163934426%" gradientTransform="translate(0.207393,0.266393),scale(1.000000,0.775194),translate(-0.207393,-0.266393)" id="radialGradient-7">
            <stop stop-color="#50E3C2" offset="0%"></stop>
            <stop stop-color="#45C4A8" offset="100%"></stop>
        </radialGradient>
        <linearGradient x1="66.013528%" y1="50%" x2="7.91318263%" y2="70.8726986%" id="linearGradient-8">
            <stop stop-color="#63CEFF" offset="0%"></stop>
            <stop stop-color="#30A7DD" offset="100%"></stop>
        </linearGradient>
    </defs>
    <g id="Page-1" stroke="none" stroke-width="1" fill="none" fill-rule="evenodd">
        <g id="pie_chart">
            <g id="Rectangle-5.1" transform="translate(2.000000, 42.000000)" fill="#FFFFFF" fill-rule="nonzero">
                <g id="path0_fill-link" transform="translate(0.500000, 0.000000)">
                    <polygon id="path0_fill" points="0 0 300 0 300 200 0 200"></polygon>
                </g>
            </g>
            <g id="Rectangle-5-Copy-2.1" transform="translate(2.000000, 1.000000)" fill="url(#linearGradient-2)" fill-rule="nonzero">
                <g id="path1_fill-link">
                    <path d="M0.0241329,2.02717 C0.010858,0.912069 0.912132,0.00151266 2.02731,0.00336204 L299.455,0.496608 C300.577,0.498469 301.478,1.42298 301.451,2.54478 L300.5,42 L0.5,42 L0.0241329,2.02717 Z" id="path1_fill"></path>
                </g>
            </g>
            <g id="Navbar-title" transform="translate(9.000000, 17.000000)" fill="#FFFFFF" fill-rule="nonzero">
                <g id="data-importer">
                    <g id="path2_fill-link" transform="translate(0.500000, 0.000000)">
                        <path d="M2.34961,5.83008 L2.34961,9 L0.867188,9 L0.867188,0.46875 L4.13086,0.46875 C5.08398,0.46875 5.83984,0.7168 6.39844,1.21289 C6.96094,1.70898 7.24219,2.36523 7.24219,3.18164 C7.24219,4.01758 6.9668,4.66797 6.41602,5.13281 C5.86914,5.59766 5.10156,5.83008 4.11328,5.83008 L2.34961,5.83008 Z M2.34961,4.64062 L4.13086,4.64062 C4.6582,4.64062 5.06055,4.51758 5.33789,4.27148 C5.61523,4.02148 5.75391,3.66211 5.75391,3.19336 C5.75391,2.73242 5.61328,2.36523 5.33203,2.0918 C5.05078,1.81445 4.66406,1.67187 4.17188,1.66406 L2.34961,1.66406 L2.34961,4.64062 Z M12.123,9 C12.0605,8.8789 12.0059,8.6816 11.959,8.4082 C11.5059,8.8809 10.9512,9.1172 10.2949,9.1172 C9.6582,9.1172 9.13867,8.9355 8.73633,8.5723 C8.33398,8.209 8.13281,7.75977 8.13281,7.22461 C8.13281,6.54883 8.38281,6.03125 8.88281,5.67188 C9.38672,5.30859 10.1055,5.12695 11.0391,5.12695 L11.9121,5.12695 L11.9121,4.71094 C11.9121,4.38281 11.8203,4.12109 11.6367,3.92578 C11.4531,3.72656 11.1738,3.62695 10.7988,3.62695 C10.4746,3.62695 10.209,3.70898 10.002,3.87305 C9.79492,4.0332 9.69141,4.23828 9.69141,4.48828 L8.26758,4.48828 C8.26758,4.14062 8.38281,3.81641 8.61328,3.51562 C8.84375,3.21094 9.15625,2.97266 9.55078,2.80078 C9.94922,2.62891 10.3926,2.54297 10.8809,2.54297 C11.623,2.54297 12.2148,2.73047 12.6562,3.10547 C13.0977,3.47656 13.3242,4 13.3359,4.67578 L13.3359,7.53516 C13.3359,8.1055 13.416,8.5605 13.5762,8.9004 L13.5762,9 L12.123,9 Z M10.5586,7.97461 C10.8398,7.97461 11.1035,7.90625 11.3496,7.76953 C11.5996,7.63281 11.7871,7.44922 11.9121,7.21875 L11.9121,6.02344 L11.1445,6.02344 C10.6172,6.02344 10.2207,6.11523 9.95508,6.29883 C9.68945,6.48242 9.55664,6.74219 9.55664,7.07812 C9.55664,7.35156 9.64648,7.57031 9.82617,7.73438 C10.0098,7.89453 10.2539,7.97461 10.5586,7.97461 Z M18.1465,3.96094 C17.959,3.92969 17.7656,3.91406 17.5664,3.91406 C16.9141,3.91406 16.4746,4.16406 16.248,4.66406 L16.248,9 L14.8242,9 L14.8242,2.66016 L16.1836,2.66016 L16.2188,3.36914 C16.5625,2.81836 17.0391,2.54297 17.6484,2.54297 C17.8516,2.54297 18.0195,2.57031 18.1523,2.625 L18.1465,3.96094 Z M21.123,1.11914 L21.123,2.66016 L22.2422,2.66016 L22.2422,3.71484 L21.123,3.71484 L21.123,7.25391 C21.123,7.49609 21.1699,7.67188 21.2637,7.78125 C21.3613,7.88672 21.5332,7.93945 21.7793,7.93945 C21.9434,7.93945 22.1094,7.91992 22.2773,7.88086 L22.2773,8.9824 C21.9531,9.0723 21.6406,9.1172 21.3398,9.1172 C20.2461,9.1172 19.6992,8.5137 19.6992,7.30664 L19.6992,3.71484 L18.6562,3.71484 L18.6562,2.66016 L19.6992,2.66016 L19.6992,1.11914 L21.123,1.11914 Z M24.6562,2.66016 L24.6973,3.39258 C25.166,2.82617 25.7812,2.54297 26.543,2.54297 C27.8633,2.54297 28.5352,3.29883 28.5586,4.81055 L28.5586,9 L27.1348,9 L27.1348,4.89258 C27.1348,4.49023 27.0469,4.19336 26.8711,4.00195 C26.6992,3.80664 26.416,3.70898 26.0215,3.70898 C25.4473,3.70898 25.0195,3.96875 24.7383,4.48828 L24.7383,9 L23.3145,9 L23.3145,2.66016 L24.6562,2.66016 Z M32.8066,9.1172 C31.9043,9.1172 31.1719,8.834 30.6094,8.2676 C30.0508,7.69727 29.7715,6.93945 29.7715,5.99414 L29.7715,5.81836 C29.7715,5.18555 29.8926,4.62109 30.1348,4.125 C30.3809,3.625 30.7246,3.23633 31.166,2.95898 C31.6074,2.68164 32.0996,2.54297 32.6426,2.54297 C33.5059,2.54297 34.1719,2.81836 34.6406,3.36914 C35.1133,3.91992 35.3496,4.69922 35.3496,5.70703 L35.3496,6.28125 L31.207,6.28125 C31.25,6.80469 31.4238,7.21875 31.7285,7.52344 C32.0371,7.82812 32.4238,7.98047 32.8887,7.98047 C33.541,7.98047 34.0723,7.7168 34.4824,7.18945 L35.25,7.92188 C34.9961,8.3008 34.6562,8.5957 34.2305,8.8066 C33.8086,9.0137 33.334,9.1172 32.8066,9.1172 Z M32.6367,3.68555 C32.2461,3.68555 31.9297,3.82227 31.6875,4.0957 C31.4492,4.36914 31.2969,4.75 31.2305,5.23828 L33.9434,5.23828 L33.9434,5.13281 C33.9121,4.65625 33.7852,4.29688 33.5625,4.05469 C33.3398,3.80859 33.0312,3.68555 32.6367,3.68555 Z M39.7793,3.96094 C39.5918,3.92969 39.3984,3.91406 39.1992,3.91406 C38.5469,3.91406 38.1074,4.16406 37.8809,4.66406 L37.8809,9 L36.457,9 L36.457,2.66016 L37.8164,2.66016 L37.8516,3.36914 C38.1953,2.81836 38.6719,2.54297 39.2812,2.54297 C39.4844,2.54297 39.6523,2.57031 39.7852,2.625 L39.7793,3.96094 Z" id="path2_fill"></path>
                    </g>
                </g>
            </g>
            <g id="Navbar-title" transform="translate(220.000000, 15.000000)" fill="#FFFFFF" fill-rule="nonzero">
                <g id="ic_more_vert_18px" transform="translate(67.000000, 1.000000)">
                    <g id="Shape">
                        <g id="path3_fill-link" transform="translate(0.500000, 0.000000)">
                            <path d="M1.38477,2.76904 C2.15039,2.76904 2.76953,2.15088 2.76953,1.38477 C2.76953,0.618652 2.15039,0 1.38477,0 C0.618164,0 0,0.618652 0,1.38477 C0,2.15088 0.618164,2.76904 1.38477,2.76904 Z M1.38477,4.61523 C0.618164,4.61523 0,5.23389 0,6 C0,6.76611 0.618164,7.38428 1.38477,7.38428 C2.15039,7.38428 2.76953,6.76611 2.76953,6 C2.76953,5.23389 2.15039,4.61523 1.38477,4.61523 Z M0,10.6157 C0,9.84961 0.618164,9.23096 1.38477,9.23096 C2.15039,9.23096 2.76953,9.84961 2.76953,10.6157 C2.76953,11.3818 2.15039,12 1.38477,12 C0.618164,12 0,11.3818 0,10.6157 Z" id="path3_fill"></path>
                        </g>
                    </g>
                </g>
                <g id="btn">
                    <g id="Group">
                        <g id="refresh-01" transform="translate(32.000000, 0.000000)">
                            <g id="Group">
                                <g id="Vector">
                                    <g id="path4_stroke-link" transform="translate(0.500000, 0.860000)">
                                        <path d="M12.3001,6.57309 C12.3002,6.29695 12.0763,6.07305 11.8002,6.073 C11.5241,6.07295 11.3002,6.29677 11.3001,6.57291 L12.3001,6.57309 Z M4.16738,1.498556 L4.37952,1.951322 L4.16738,1.498556 Z M10.52591,3.83588 C10.67125,4.07068 10.97941,4.1432 11.2142,3.99786 C11.449,3.85252 11.5215,3.54436 11.3762,3.30956 L10.52591,3.83588 Z M11.3001,6.57291 C11.2999,7.79797 10.87137,8.9796 10.09659,9.90125 L10.86205,10.54473 C11.7905,9.44033 12.2998,8.03007 12.3001,6.57309 L11.3001,6.57291 Z M10.09659,9.90125 C9.32213,10.82252 8.25443,11.4217 7.09112,11.5932 L7.23701,12.5825 C8.64683,12.3746 9.93334,11.6495 10.86205,10.54473 L10.09659,9.90125 Z M7.09112,11.5932 C5.92798,11.7648 4.74267,11.4981 3.75207,10.83949 L3.19843,11.6722 C4.39285,12.4663 5.827,12.7905 7.23701,12.5825 L7.09112,11.5932 Z M3.75207,10.83949 C2.76104,10.18062 2.03008,9.17256 1.697577,7.99761 L0.735364,8.2699 C1.131429,9.66947 2.00445,10.87845 3.19843,11.6722 L3.75207,10.83949 Z M1.697577,7.99761 C1.365018,6.82245 1.454555,5.56289 1.948956,4.45122 L1.0352432,4.04486 C0.445544,5.37081 0.339355,6.87054 0.735364,8.2699 L1.697577,7.99761 Z M1.948956,4.45122 C2.44323,3.33983 3.30756,2.45358 4.37952,1.951322 L3.95524,1.0457903 C2.66048,1.652435 1.625069,2.71862 1.0352432,4.04486 L1.948956,4.45122 Z M4.37952,1.951322 C5.45106,1.449262 6.66084,1.363105 7.78808,1.707768 L8.08048,0.75147 C6.71554,0.334132 5.25041,0.438949 3.95524,1.0457903 L4.37952,1.951322 Z M7.78808,1.707768 C8.91566,2.05253 9.88877,2.80655 10.52591,3.83588 L11.3762,3.30956 C10.61421,2.07854 9.44508,1.168706 8.08048,0.75147 L7.78808,1.707768 Z" id="path4_stroke"></path>
                                    </g>
                                </g>
                                <g id="Vector" transform="translate(7.000000, 0.000000)">
                                    <g id="path5_stroke-link" transform="translate(0.100000, 0.000000)">
                                        <path d="M4.82311,1 C4.82311,0.723858 4.59925,0.5 4.32311,0.5 C4.04697,0.5 3.82311,0.723858 3.82311,1 L4.82311,1 Z M4.32311,4.4289 L4.32311,4.9289 C4.59925,4.9289 4.82311,4.70504 4.82311,4.4289 L4.32311,4.4289 Z M1,3.9289 C0.723858,3.9289 0.5,4.15276 0.5,4.4289 C0.5,4.70504 0.723858,4.9289 1,4.9289 L1,3.9289 Z M3.82311,1 L3.82311,4.4289 L4.82311,4.4289 L4.82311,1 L3.82311,1 Z M4.32311,3.9289 L1,3.9289 L1,4.9289 L4.32311,4.9289 L4.32311,3.9289 Z" id="path5_stroke"></path>
                                    </g>
                                </g>
                            </g>
                        </g>
                        <g id="chart-bar-32" transform="translate(0.000000, 1.000000)">
                            <g id="Group">
                                <g id="Vector" transform="translate(5.000000, 0.000000)">
                                    <g id="path6_fill-link">
                                        <path d="M2.25,0 L0.75,0 C0.3,0 0,0.3 0,0.75 L0,11.25 C0,11.7 0.3,12 0.75,12 L2.25,12 C2.7,12 3,11.7 3,11.25 L3,0.75 C3,0.3 2.7,0 2.25,0 Z" id="path6_fill"></path>
                                    </g>
                                </g>
                                <g id="Vector" transform="translate(0.000000, 7.000000)">
                                    <g id="path7_fill-link" transform="translate(0.500000, 0.500000)">
                                        <path d="M2.25,1.33227e-15 L0.75,1.33227e-15 C0.3,1.33227e-15 0,0.3 0,0.75 L0,3.75 C0,4.2 0.3,4.5 0.75,4.5 L2.25,4.5 C2.7,4.5 3,4.2 3,3.75 L3,0.75 C3,0.3 2.7,1.33227e-15 2.25,1.33227e-15 Z" id="path7_fill"></path>
                                    </g>
                                </g>
                                <g id="Vector" transform="translate(9.000000, 3.000000)">
                                    <g id="path8_fill-link" transform="translate(0.500000, 0.750000)">
                                        <path d="M2.25,6.66134e-16 L0.75,6.66134e-16 C0.3,6.66134e-16 0,0.3 0,0.75 L0,7.5 C0,7.95 0.3,8.25 0.75,8.25 L2.25,8.25 C2.7,8.25 3,7.95 3,7.5 L3,0.75 C3,0.3 2.7,6.66134e-16 2.25,6.66134e-16 Z" id="path8_fill"></path>
                                    </g>
                                </g>
                            </g>
                        </g>
                    </g>
                </g>
            </g>
            <g id="Rectangle-2.1">
                <g id="Clipped">
                    <mask id="mask-4" fill="white">
                        <use xlink:href="#path-3"></use>
                    </mask>
                    <g id="mask0_outline_inv"></g>
                    <g id="path10_stroke_2x-link" mask="url(#mask-4)" fill="#444E54" fill-rule="nonzero">
                        <g transform="translate(0.500000, 0.000000)" id="path10_stroke_2x">
                            <path d="M3,4 L301,4 L301,0 L3,0 L3,4 Z M300,3 L300,241 L304,241 L304,3 L300,3 Z M301,240 L3,240 L3,244 L301,244 L301,240 Z M4,241 L4,3 L0,3 L0,241 L4,241 Z M3,240 C3.55228,240 4,240.448 4,241 L0,241 C0,242.657 1.343146,244 3,244 L3,240 Z M300,241 C300,240.448 300.448,240 301,240 L301,244 C302.657,244 304,242.657 304,241 L300,241 Z M301,4 C300.448,4 300,3.55228 300,3 L304,3 C304,1.343146 302.657,0 301,0 L301,4 Z M3,0 C1.343146,0 0,1.343146 0,3 L4,3 C4,3.55228 3.55228,4 3,4 L3,0 Z"></path>
                        </g>
                    </g>
                </g>
            </g>
            <g id="Intersect" transform="translate(156.000000, 78.000000)" fill="url(#radialGradient-6)" fill-rule="nonzero">
                <g id="path11_fill-link" transform="translate(0.500000, 0.220000)">
                    <path d="M39.7655,111.633 C37.6428,113.449 34.4626,112.901 32.8615,110.613 L0.903167,64.9354 C0.315301,64.0952 0,63.0945 0,62.0691 L0,4.81504 C0,2.03856 2.27017,-0.227104 5.03577,0.018456 C36.9594,2.85298 62,30.0373 62,63.1538 C62,82.6033 53.3621,100.007 39.7655,111.633 Z" id="path11_fill"></path>
                </g>
            </g>
            <g id="Subtract" transform="translate(87.000000, 78.000000)" fill="url(#linearGradient-8)" fill-rule="nonzero">
                <g id="path12_fill-link" transform="translate(0.500000, 0.000000)">
                    <path d="M65,0.501959 C65,0.225107 64.7769,0 64.5,0 C28.8779,0 0,28.8774 0,64.5 C0,100.123 28.8779,129 64.5,129 C76.6687,129 88.0503,125.63 97.7623,119.773 C100.122,118.35 100.638,115.217 99.0428,112.969 L65.9225,66.2998 C65.3224,65.4542 65,64.443 65,63.4061 L65,0.501959 Z" id="path12_fill"></path>
                </g>
            </g>
        </g>
    </g>
</svg>