<?xml version="1.0" encoding="UTF-8"?>
<svg width="138px" height="138px" viewBox="0 0 138 138" version="1.1" xmlns="http://www.w3.org/2000/svg" xmlns:xlink="http://www.w3.org/1999/xlink">
    <!-- Generator: Sketch 49.3 (51167) - http://www.bohemiancoding.com/sketch -->
    <title>shopify</title>
    <desc>Created with Sketch.</desc>
    <defs>
        <rect id="path-1" x="0" y="0" width="137.001972" height="137.001972" rx="3"></rect>
    </defs>
    <g id="Version_2" stroke="none" stroke-width="1" fill="none" fill-rule="evenodd">
        <g id="AS_redesign_newBrand_v5" transform="translate(-654.000000, -527.000000)">
            <g id="1.-Sources" transform="translate(490.000000, 363.000000)">
                <g id="shopify" transform="translate(164.220907, 164.220907)">
                    <g id="Rectangle-6">
                        <use fill="#FFFFFF" fill-rule="evenodd" xlink:href="#path-1"></use>
                        <rect stroke-opacity="0.3" stroke="#979797" stroke-width="1" x="0.5" y="0.5" width="136.001972" height="136.001972" rx="3"></rect>
                    </g>
                    <g id="Group-26" transform="translate(23.589744, 56.252465)" fill-rule="nonzero">
                        <path d="M19.0733438,4.77814793 C19.0587333,4.64822715 18.9419202,4.59048618 18.8542577,4.57605454 C18.7666654,4.5616157 16.8534728,4.43169492 16.8534728,4.43169492 C16.8534728,4.43169492 15.5244864,3.13250153 15.3930628,2.98814911 C15.2469586,2.84379669 14.969501,2.88709882 14.8526879,2.9159693 C14.8380775,2.9159693 14.5605497,3.00258075 14.1078374,3.14694038 C13.6843459,1.89104911 12.8956641,0.736208145 11.5228463,0.736208145 L11.4060332,0.736208145 C11.0116923,0.230968194 10.5297591,0 10.120878,0 C6.92248108,0.0144355303 5.40362237,3.95532833 4.92168215,5.96185938 C3.68030907,6.33718288 2.80404199,6.61145607 2.68720779,6.64032656 C2.00079893,6.85685879 1.97159214,6.87129763 1.88396473,7.52087992 C1.81094774,8.02616742 0,21.8842158 0,21.8842158 L14.1224478,24.4970414 L21.7751479,22.8658267 C21.7751479,22.8514166 19.0879542,4.90806871 19.0733438,4.77814793 Z M13.3338362,3.39234309 C12.9833266,3.50782503 12.5743753,3.62330696 12.1362733,3.75322774 L12.1362733,3.49339339 C12.1362733,2.71387591 12.01939,2.07871086 11.8441351,1.58790543 C12.5597648,1.68895573 13.041698,2.48290484 13.3338362,3.39234309 Z M10.9824715,1.74669669 C11.1723367,2.23750212 11.3038305,2.93040815 11.3038305,3.86871688 L11.3038305,3.99863046 C10.5297591,4.22960153 9.68270586,4.48943589 8.83565261,4.74927745 C9.3175858,2.95927863 10.2084703,2.07871086 10.9824715,1.74669669 Z M10.0332155,0.866128925 C10.1646391,0.866128925 10.310673,0.909438253 10.4421668,0.996049704 C9.41985875,1.47242349 8.32449857,2.67056659 7.8571758,5.06685997 C7.18537736,5.26895336 6.51355785,5.47105395 5.90017301,5.6587157 C6.45514426,3.83983919 7.74029242,0.866128925 10.0332155,0.866128925 Z" id="path0_fill" fill="#9B9B9B"></path>
                        <path d="M19.0047747,4.41033943 C18.9216624,4.39578775 17.1070635,4.26478625 17.1070635,4.26478625 C17.1070635,4.26478625 15.8465486,2.95478294 15.7218769,2.80922685 C15.6664731,2.75100471 15.5972118,2.72189349 15.5279505,2.72189349 L14.5167653,24.4970414 L21.7751479,22.8522578 C21.7751479,22.8522578 19.2264029,4.74511538 19.212552,4.62867283 C19.1987011,4.49767134 19.0878869,4.42489838 19.0047747,4.41033943 Z" id="path1_fill" fill="#696969"></path>
                        <path d="M11.7948718,8.54925427 L10.8487198,11.3818026 C10.8487198,11.3818026 10.0190813,10.9392177 9.01474606,10.9392177 C7.530082,10.9392177 7.45730215,11.8833978 7.45730215,12.1194465 C7.45730215,13.417696 10.7905435,13.9045349 10.7905435,16.9435966 C10.7905435,19.3336109 9.29130388,20.8678501 7.28264032,20.8678501 C4.86641382,20.8678501 3.62919132,19.3483377 3.62919132,19.3483377 L4.26963588,17.1796674 C4.26963588,17.1796674 5.53597301,18.2861664 6.61308113,18.2861664 C7.31174946,18.2861664 7.60286184,17.7255167 7.60286184,17.3124296 C7.60286184,15.6159009 4.86641382,15.5421196 4.86641382,12.7685676 C4.86641382,10.4376152 6.52574672,8.16568047 9.85897408,8.16568047 C11.1690043,8.18043335 11.7948718,8.54925427 11.7948718,8.54925427 Z" id="path2_fill" fill="#FFFFFF"></path>
                        <path d="M34.3355539,12.5957566 C33.5983719,12.1959753 33.2156038,11.8532954 33.2156038,11.3820838 C33.2156038,10.7824117 33.740136,10.3969307 34.5765507,10.3969307 C35.5405525,10.3969307 36.3911515,10.7967406 36.3911515,10.7967406 L37.0716107,8.71213891 C37.0716107,8.71213891 36.4478742,8.22668402 34.6190821,8.22668402 C32.0673066,8.22668402 30.2952372,9.69731335 30.2952372,11.7676076 C30.2952372,12.9384365 31.117482,13.8379445 32.2232478,14.4803892 C33.116371,14.9944447 33.4282535,15.3513821 33.4282535,15.8939527 C33.4282535,16.4507808 32.988784,16.8934061 32.1523693,16.8934061 C30.9190093,16.8934061 29.756535,16.2508901 29.756535,16.2508901 L29.0335306,18.3354847 C29.0335306,18.3354847 30.1109489,19.0636171 31.9113653,19.0636171 C34.5340265,19.0636171 36.4194772,17.7643277 36.4194772,15.4227411 C36.4336757,14.1520381 35.4838511,13.2667876 34.3355539,12.5957566 Z M44.797823,8.2124051 C43.5077545,8.2124051 42.48703,8.82636317 41.7073238,9.76870084 L41.6647995,9.75442191 L42.784771,3.84336031 L39.8643688,3.84336031 L37.0290864,18.8780553 L39.9494886,18.8780553 L40.9276176,13.7379992 C41.3104071,11.7961939 42.3027345,10.5968214 43.2384105,10.5968214 C43.890544,10.5968214 44.1456895,11.0394038 44.1456895,11.6819198 C44.1456895,12.0817011 44.1031652,12.5814278 44.0181167,12.9812091 L42.9123438,18.8637264 L45.832746,18.8637264 L46.9810432,12.7813185 C47.1086159,12.1388738 47.1936644,11.3678262 47.1936644,10.8680995 C47.1794659,9.21186559 46.3147112,8.2124051 44.797823,8.2124051 Z M53.785778,8.2124051 C50.2699651,8.2124051 47.9450449,11.4106701 47.9450449,14.9658583 C47.9450449,17.2503435 49.3484876,19.0779459 51.9711488,19.0779459 C55.4160404,19.0779459 57.7551591,15.9653117 57.7551591,12.3244357 C57.7551591,10.211319 56.5218134,8.2124051 53.785778,8.2124051 Z M52.3539383,16.8219758 C51.3615395,16.8219758 50.9362258,15.9653117 50.9362258,14.9087569 C50.9362258,13.2239437 51.8010518,10.4683182 53.38879,10.4683182 C54.423713,10.4683182 54.7639069,11.3678262 54.7639069,12.2388192 C54.7639069,14.0520928 53.8991522,16.8219758 52.3539383,16.8219758 Z M65.226226,8.2124051 C63.2556983,8.2124051 62.1357268,9.95431258 62.1357268,9.95431258 L62.0932025,9.95431258 L62.2632995,8.38374505 L59.6831626,8.38374505 C59.5555898,9.4545859 59.3287701,11.0679902 59.0877518,12.2815918 L57.0605014,23.047173 L59.9667051,23.047173 L60.7748084,18.6924221 L60.8314598,18.6924221 C60.8314598,18.6924221 61.4268705,19.0779459 62.546842,19.0779459 C65.9775351,19.0779459 68.2174782,15.5370153 68.2174782,11.9532407 C68.2316053,9.98287043 67.3526521,8.2124051 65.226226,8.2124051 Z M62.4333965,16.8648197 C61.6678888,16.8648197 61.2284478,16.4365233 61.2284478,16.4365233 L61.710413,13.6808265 C62.0506783,11.8532954 63.0004815,10.6253792 64.021206,10.6253792 C64.9142864,10.6253792 65.1837017,11.453514 65.1837017,12.2388192 C65.1837017,14.1520381 64.0637302,16.8648197 62.4333965,16.8648197 Z M72.3995518,3.98613957 C71.4638758,3.98613957 70.7266938,4.72859013 70.7266938,5.68521385 C70.7266938,6.55617116 71.2795803,7.15584317 72.1018108,7.15584317 L72.144335,7.15584317 C73.0516139,7.15584317 73.8313202,6.54189223 73.8597172,5.45676533 C73.8597172,4.60009407 73.2926322,3.98613957 72.3995518,3.98613957 Z M68.3166538,18.8637264 L71.237056,18.8637264 L73.2217823,8.44085362 L70.2872529,8.44085362 L68.3166538,18.8637264 Z M80.6502535,8.4265747 L78.6230031,8.4265747 L78.7222501,7.94112694 C78.892347,6.94167358 79.4877578,6.04216555 80.4517595,6.04216555 C80.9763203,6.04216555 81.3874355,6.18494053 81.3874355,6.18494053 L81.9545205,3.88619423 C81.9545205,3.88619423 81.4441583,3.62919132 80.366711,3.62919132 C79.3318593,3.62919132 78.2969363,3.92902815 77.5031029,4.61436587 C76.5107041,5.47104425 76.0428661,6.69894613 75.8160464,7.94112694 L75.7309979,8.4265747 L74.3700795,8.4265747 L73.9447657,10.6396581 L75.3056841,10.6396581 L73.7604702,18.8637264 L76.6949996,18.8637264 L78.2402849,10.6396581 L80.2533368,10.6396581 L80.6502535,8.4265747 Z M87.6818081,8.44085362 C87.6818081,8.44085362 85.8530517,13.0811545 85.0308212,15.6083742 L84.9882969,15.6083742 C84.9315742,14.794554 84.2653135,8.44085362 84.2653135,8.44085362 L81.1889415,8.44085362 L82.946848,18.0070623 C82.9893722,18.2212105 82.9610465,18.3497422 82.8901252,18.4925314 C82.5499313,19.1493049 81.9828462,19.7918208 81.302387,20.2629611 C80.7495005,20.6627425 80.1398913,20.9197346 79.6579261,21.0911102 L80.465958,23.5897436 C81.0613688,23.4612119 82.2805873,22.975814 83.3296375,21.9906182 C84.6622302,20.7341727 85.8955759,18.7923675 87.1573187,16.1509448 L90.729783,8.44085362 L87.6818081,8.44085362 Z" id="path3_fill" fill="#9B9B9B"></path>
                    </g>
                </g>
            </g>
        </g>
    </g>
</svg>