<?xml version="1.0" encoding="UTF-8"?>
<svg width="138px" height="138px" viewBox="0 0 138 138" version="1.1" xmlns="http://www.w3.org/2000/svg" xmlns:xlink="http://www.w3.org/1999/xlink">
    <!-- Generator: Sketch 49.3 (51167) - http://www.bohemiancoding.com/sketch -->
    <title>sql</title>
    <desc>Created with Sketch.</desc>
    <defs></defs>
    <g id="Page-1" stroke="none" stroke-width="1" fill="none" fill-rule="evenodd">
        <g id="sql" transform="translate(1.000000, 0.000000)">
            <rect id="Rectangle-path" stroke-opacity="0.3" stroke="#979797" fill="#FFFFFF" x="0.498028" y="0.720907" width="136.001972" height="136.001972" rx="3"></rect>
            <path d="M18.143985,77.3412229 L20.4059922,77.3412229 L20.4059922,72.747309 C21.0976818,73.6774568 22.1258656,74.5126887 23.7522733,74.5126887 C26.1077463,74.5126887 28.3510856,72.6333823 28.3510856,69.3113271 L28.3510856,69.2733746 C28.3510856,65.9513263 26.0890451,64.0719922 23.7522733,64.0719922 C22.1632546,64.0719922 21.1350708,64.9072518 20.4059922,65.9513263 L20.4059922,64.2808071 L18.143985,64.2808071 L18.143985,77.3412229 Z M23.2288341,72.5195247 C21.6958989,72.5195247 20.3499087,71.2475969 20.3499087,69.3113271 L20.3499087,69.2733746 C20.3499087,67.3560741 21.6958989,66.0652253 23.2288341,66.0652253 C24.7617627,66.0652253 26.0516428,67.337091 26.0516428,69.2733746 L26.0516428,69.3113271 C26.0516428,71.2856185 24.7804572,72.5195247 23.2288341,72.5195247 Z" id="path0_fill" fill="#9B9B9B" fill-rule="nonzero"></path>
            <path d="M34.9557758,74.2790928 C38.2064415,74.2790928 40.5996063,71.9635027 40.5996063,69.1847947 L40.5996063,69.1477588 C40.5996063,66.3505328 38.2263917,64.0719922 34.995676,64.0719922 C31.7649604,64.0719922 29.3717957,66.3875822 29.3717957,69.1847947 L29.3717957,69.2218307 C29.3717957,72.0005387 31.7450103,74.2790928 34.9557758,74.2790928 Z M34.995676,72.3339971 C33.1210729,72.3339971 31.7848396,70.8890555 31.7848396,69.1847947 L31.7848396,69.1477588 C31.7848396,67.4434845 33.0213222,66.0356125 34.9557758,66.0356125 C36.850329,66.0356125 38.1864914,67.4620092 38.1864914,69.1847947 L38.1864914,69.2218307 C38.1864914,70.9076072 36.9500797,72.3339971 34.995676,72.3339971 Z" id="path1_fill" fill="#9B9B9B" fill-rule="nonzero"></path>
            <path d="M43.9339212,74.2790928 C46.0725699,74.2790928 47.7445767,73.252784 47.7445767,71.1814791 L47.7445767,71.1441723 C47.7445767,69.3714572 46.0531208,68.7183516 44.5560874,68.2705349 C43.3506534,67.8973317 42.2424653,67.5987556 42.2424653,66.8896763 L42.2424653,66.852356 C42.2424653,66.273891 42.7673855,65.8633675 43.6811511,65.8633675 C44.5366382,65.8633675 45.5864788,66.2179106 46.578041,66.7963755 L47.5112557,65.1916018 C46.4225168,64.5011759 45.0226602,64.0719922 43.7394986,64.0719922 C41.6980958,64.0719922 40.0844366,65.2102619 40.0844366,67.0762779 L40.0844366,67.1135914 C40.0844366,68.998254 41.7758925,69.5953655 43.292375,70.0059434 C44.4977399,70.3604592 45.5864788,70.6216743 45.5864788,71.386768 L45.5864788,71.4240747 C45.5864788,72.0771803 45.003211,72.4876903 43.9922688,72.4876903 C42.942359,72.4876903 41.7369942,72.0771803 40.628806,71.2747799 L39.5788962,72.8049673 C40.8620578,73.775282 42.4757862,74.2790928 43.9339212,74.2790928 Z" id="path2_fill" fill="#9B9B9B" fill-rule="nonzero"></path>
            <path d="M51.8088958,74.2790928 C52.6439982,74.2790928 53.2750158,74.0994951 53.8317728,73.7941922 L53.8317728,72.0162016 C53.3863408,72.2317057 52.9409749,72.3394904 52.4398474,72.3394904 C51.6790057,72.3394904 51.2335737,71.9982157 51.2335737,71.1541198 L51.2335737,66.5025471 L53.8688371,66.5025471 L53.8688371,64.6347315 L51.2335737,64.6347315 L51.2335737,62.0305721 L48.9879807,62.0305721 L48.9879807,64.6347315 L47.7445767,64.6347315 L47.7445767,66.5025471 L48.9879807,66.5025471 L48.9879807,71.4953291 C48.9879807,73.5786881 50.1571902,74.2790928 51.8088958,74.2790928 Z" id="path3_fill" fill="#9B9B9B" fill-rule="nonzero"></path>
            <path d="M59.7874833,77.3412229 C61.5634385,77.3412229 62.9468002,76.9058414 63.8441284,75.9972341 C64.6667181,75.1643843 65.0966477,73.9150406 65.0966477,72.2303843 L65.0966477,64.2802115 L62.8346591,64.2802115 L62.8346591,65.7756051 C62.0681732,64.8480825 61.0400026,64.0719922 59.3761884,64.0719922 C57.0767972,64.0719922 54.8895471,65.8134631 54.8895471,68.7663577 L54.8895471,68.8042709 C54.8895471,71.7382708 57.058096,73.479728 59.3761884,73.479728 C61.0026,73.479728 62.0307706,72.7225667 62.8533604,71.6436257 L62.8533604,72.4196746 C62.8533604,74.4261796 61.7503847,75.486164 59.7313795,75.486164 C58.3853538,75.486164 57.2637434,75.0886957 56.216805,74.4261796 L55.3755805,76.1486801 C56.6468011,76.924798 58.1610716,77.3412229 59.7874833,77.3412229 Z M59.9744294,71.5489805 C58.4227563,71.5489805 57.170237,70.4321263 57.170237,68.7853143 L57.170237,68.74747 C57.170237,67.1006304 58.4040551,66.0027534 59.9744294,66.0027534 C61.5447372,66.0027534 62.8720616,67.1195663 62.8720616,68.7663577 L62.8720616,68.8042709 C62.8720616,70.4132386 61.5447372,71.5489805 59.9744294,71.5489805 Z" id="path4_fill" fill="#9B9B9B" fill-rule="nonzero"></path>
            <path d="M66.1173578,74.2790928 L68.5232869,74.2790928 L68.5232869,70.4671048 C68.5232869,67.812008 69.9947488,66.5034591 72.1024497,66.5034591 L72.2416181,66.5034591 L72.2416181,64.075942 C70.3924336,64.0000821 69.179488,65.0241909 68.5232869,66.5224241 L68.5232869,64.2655918 L66.1173578,64.2655918 L66.1173578,74.2790928 Z" id="path5_fill" fill="#9B9B9B" fill-rule="nonzero"></path>
            <path d="M77.6547848,74.2790928 C79.5923405,74.2790928 80.9706098,73.5566557 81.9692898,72.4451725 L80.5511273,71.2781016 C79.7121622,72.0376421 78.8731971,72.4451725 77.6947491,72.4451725 C76.1367117,72.4451725 74.9182283,71.5559724 74.6585317,69.9628195 L82.4087545,69.9628195 C82.4287366,69.7405363 82.4487187,69.5368049 82.4487187,69.333006 C82.4487187,66.5172552 80.7508775,64.0719922 77.3950882,64.0719922 C74.378924,64.0719922 72.2416181,66.3690575 72.2416181,69.1663105 L72.2416181,69.2033464 C72.2416181,72.2228893 74.5986564,74.2790928 77.6547848,74.2790928 Z M74.6385495,68.4808419 C74.8582819,66.9618485 75.8969972,65.9059395 77.3751061,65.9059395 C78.9731078,65.9059395 79.8919303,67.0359407 80.0517162,68.4808419 L74.6385495,68.4808419 Z" id="path6_fill" fill="#9B9B9B" fill-rule="nonzero"></path>
            <path d="M87.947903,74.2790928 C90.7162007,74.2790928 92.6558193,72.8415778 92.6558193,70.4273527 L92.6558193,70.39044 C92.6558193,68.2526575 91.2056309,67.2758803 88.4185605,66.6124248 C85.895112,66.0226805 85.2924423,65.5803724 85.2924423,64.585179 L85.2924423,64.54832 C85.2924423,63.7005627 86.083442,63.018671 87.4397001,63.018671 C88.6445029,63.018671 89.8312036,63.4794086 91.0179042,64.3455954 L92.2602524,62.631658 C90.9233705,61.5811748 89.3980914,61.009862 87.4772454,61.009862 C84.8593301,61.009862 82.9760295,62.5395105 82.9760295,64.7510446 L82.9760295,64.7879036 C82.9760295,67.16531 84.5579618,67.976215 87.363939,68.6396369 C89.8124309,69.1925221 90.3394065,69.6901725 90.3394065,70.6116478 L90.3394065,70.6484934 C90.3394065,71.6252707 89.4356367,72.2703034 88.0042209,72.2703034 C86.3659036,72.2703034 85.1041123,71.6621163 83.842321,70.5931915 L82.4487187,72.2150015 C84.030651,73.5972144 85.9327914,74.2790928 87.947903,74.2790928 Z" id="path7_fill" fill="#9B9B9B" fill-rule="nonzero"></path>
            <path d="M106.443079,74.2790928 L107.96647,72.6861074 L106.423857,71.4551102 C107.310842,70.3508188 107.79278,68.9931158 107.79278,67.5630284 L107.79278,67.526823 C107.79278,63.9605965 104.900466,61.009862 100.753877,61.009862 C96.6079753,61.009862 93.6765294,63.9968019 93.6765294,67.5630284 L93.6765294,67.5992338 C93.6765294,71.1654405 96.5695301,74.1161948 100.715432,74.1161948 C102.296491,74.1161948 103.685323,73.6817562 104.822889,72.9213898 L106.443079,74.2790928 Z M100.753877,72.0705758 C98.0736983,72.0705758 96.1644826,70.0250228 96.1644826,67.5630284 L96.1644826,67.526823 C96.1644826,65.0648616 98.0352531,63.0554678 100.715432,63.0554678 C103.396298,63.0554678 105.304827,65.101067 105.304827,67.5630284 L105.304827,67.5992338 C105.304827,68.4862928 105.073469,69.3009145 104.610754,69.9707015 L102.277268,67.9794038 L100.753877,69.6086474 L103.068141,71.4551102 C102.431735,71.8352934 101.640863,72.0705758 100.753877,72.0705758 Z" id="path8_fill" fill="#9B9B9B" fill-rule="nonzero"></path>
            <polygon id="path9_fill" fill="#9B9B9B" fill-rule="nonzero" points="108.98718 74.2790928 118.173571 74.2790928 118.173571 72.1560274 111.28844 72.1560274 111.28844 61.009862 108.98718 61.009862"></polygon>
        </g>
    </g>
</svg>