<?xml version="1.0" encoding="UTF-8"?>
<svg width="138px" height="137px" viewBox="0 0 138 137" version="1.1" xmlns="http://www.w3.org/2000/svg" xmlns:xlink="http://www.w3.org/1999/xlink">
    <!-- Generator: Sketch 49.3 (51167) - http://www.bohemiancoding.com/sketch -->
    <title>stripe</title>
    <desc>Created with Sketch.</desc>
    <defs>
        <rect id="path-1" x="0" y="0" width="137.001972" height="137.001972" rx="3"></rect>
    </defs>
    <g id="Version_2" stroke="none" stroke-width="1" fill="none" fill-rule="evenodd">
        <g id="AS_redesign_newBrand_v5" transform="translate(-654.000000, -363.000000)">
            <g id="1.-Sources" transform="translate(490.000000, 363.000000)">
                <g id="stripe" transform="translate(164.220907, 0.000000)">
                    <g id="Rectangle-6">
                        <use fill="#FFFFFF" fill-rule="evenodd" xlink:href="#path-1"></use>
                        <rect stroke-opacity="0.3" stroke="#979797" stroke-width="1" x="0.5" y="0.5" width="136.001972" height="136.001972" rx="3"></rect>
                    </g>
                    <g id="Group-16" transform="translate(41.735700, 57.159763)" fill="#9B9B9B" fill-rule="nonzero">
                        <path d="M54.4378698,11.3936314 C54.4378698,7.56081623 52.4694446,4.53648915 48.7071174,4.53648915 C44.9289504,4.53648915 42.642998,7.56081623 42.642998,11.3636868 C42.642998,15.8702 45.3416879,18.1459566 49.2151098,18.1459566 C51.1041817,18.1459566 52.5329272,17.7417523 53.6123638,17.1728131 L53.6123638,14.1784308 C52.5329272,14.6874664 51.2947068,15.0018877 49.7230945,15.0018877 C48.1832543,15.0018877 46.81803,14.4928522 46.6434141,12.7261311 L54.4061285,12.7261311 C54.4061285,12.5315169 54.4378698,11.7529587 54.4378698,11.3936314 Z M46.5957867,9.97129797 C46.5957867,8.27947088 47.6911403,7.57579213 48.691239,7.57579213 C49.6595964,7.57579213 50.6914673,8.27947088 50.6914673,9.97129797 L46.5957867,9.97129797 Z" id="path0_fill"></path>
                        <path d="M37.419555,4.53648915 C35.9183886,4.53648915 34.9533515,5.24267791 34.4172222,5.73393749 L34.2180861,4.78211992 L30.8481262,4.78211992 L30.8481262,22.6824458 L34.6776298,21.8688009 L34.6929439,17.5242431 C35.2443948,17.9233505 36.0562458,18.4913737 37.4042334,18.4913737 C40.1461587,18.4913737 42.642998,16.2807048 42.642998,11.4141473 C42.6276466,6.96209016 40.100179,4.53648915 37.419555,4.53648915 Z M36.5004678,15.1139464 C35.5967096,15.1139464 35.0605729,14.7915449 34.6929439,14.3924375 L34.6776298,8.69685691 C35.0758945,8.25165194 35.6273453,7.94461377 36.5004678,7.94461377 C37.8944128,7.94461377 38.8594723,9.51050916 38.8594723,11.5216095 C38.8594723,13.5787927 37.909727,15.1139464 36.5004678,15.1139464 Z" id="path1_fill"></path>
                        <polygon id="path2_fill" points="25.4043393 3.62919132 29.0335306 2.86664005 29.0335306 0 25.4043393 0.748432983"></polygon>
                        <polygon id="path3_fill" points="29.0335306 4.53648915 25.4043393 4.53648915 25.4043393 18.1459566 29.0335306 18.1459566"></polygon>
                        <path d="M21.4947091,5.83291534 L21.2637626,4.69538429 L18.1459566,4.69538429 L18.1459566,18.1459566 L21.7545309,18.1459566 L21.7545309,9.03031124 C22.6061496,7.8466658 24.0495791,8.06187271 24.4970414,8.23096598 L24.4970414,4.69538429 C24.0351414,4.51091894 22.3463348,4.17273204 21.4947091,5.83291534 Z" id="path4_fill"></path>
                        <path d="M14.4728636,1.81459566 L10.9022076,2.57966563 L10.887574,14.3647229 C10.887574,16.5422471 12.5119328,18.1459566 14.6777354,18.1459566 C15.8777135,18.1459566 16.7557429,17.925275 17.2386588,17.6604429 L17.2386588,14.6737055 C16.7703731,14.8649534 14.4582334,15.5417861 14.4582334,13.3642618 L14.4582334,8.14116123 L17.2386588,8.14116123 L17.2386588,5.00730514 L14.4582334,5.00730514 L14.4728636,1.81459566 Z" id="path5_fill"></path>
                        <path d="M3.97640504,8.58941792 C3.97640504,8.00615916 4.47935285,7.78182554 5.31235131,7.78182554 C6.50684948,7.78182554 8.01564702,8.12579847 9.21014519,8.73897608 L9.21014519,5.22444029 C7.90569385,4.73090993 6.61686382,4.53648915 5.31235131,4.53648915 C2.12179791,4.53648915 0,6.12176973 0,8.76888771 C0,12.89657 5.97246792,12.2385719 5.97246792,14.0182382 C5.97246792,14.7062274 5.34378507,14.9305465 4.46363215,14.9305465 C3.15911964,14.9305465 1.49311507,14.4220705 0.172887209,13.7340813 L0.172887209,17.2934859 C1.63457081,17.8917186 3.11197282,18.1459566 4.46363215,18.1459566 C7.73273554,18.1459566 9.98027613,16.605569 9.98027613,13.9285538 C9.96460131,9.47179299 3.97640504,10.2644332 3.97640504,8.58941792 Z" id="path6_fill"></path>
                    </g>
                </g>
            </g>
        </g>
    </g>
</svg>