<?xml version="1.0" encoding="UTF-8"?>
<svg width="8px" height="10px" viewBox="0 0 8 10" version="1.1" xmlns="http://www.w3.org/2000/svg" xmlns:xlink="http://www.w3.org/1999/xlink">
    <!-- Generator: Sketch 49.3 (51167) - http://www.bohemiancoding.com/sketch -->
    <title>Vector</title>
    <desc>Created with Sketch.</desc>
    <defs></defs>
    <g id="Version_2" stroke="none" stroke-width="1" fill="none" fill-rule="evenodd">
        <g id="AS_redesign_newBrand_v5" transform="translate(-843.000000, -525.000000)" fill="#BDBDBD" fill-rule="nonzero">
            <g id="4.-Dropdown" transform="translate(636.000000, 450.000000)">
                <g id="submenu_selected" transform="translate(190.000000, 64.000000)">
                    <g id="Vector" transform="translate(17.000000, 11.000000)">
                        <g id="path7_fill-link">
                            <path d="M2.9456,2.978025 C2.9456,2.54945 3.31816889,2.38461667 3.93522667,2.38461667 C4.82007111,2.38461667 5.93776889,2.63735833 6.82261333,3.08790833 L6.82261333,0.505494166 C5.85627556,0.142856666 4.90157333,-1.68745501e-07 3.93522667,-1.68745501e-07 C1.57176,-1.68745501e-07 0,1.16483333 0,3.10989167 C0,6.14285833 4.42422222,5.65934167 4.42422222,6.96703333 C4.42422222,7.472525 3.95851556,7.63736667 3.30652444,7.63736667 C2.34017778,7.63736667 1.10605333,7.26373333 0.128069333,6.75824167 L0.128069333,9.37366667 C1.21083556,9.81316667 2.30525333,10 3.30652444,10 C5.72820444,10 7.39311111,8.86816667 7.39311111,6.9011 C7.38146667,3.626375 2.9456,4.20879167 2.9456,2.978025 Z" id="path7_fill"></path>
                        </g>
                    </g>
                </g>
            </g>
        </g>
    </g>
</svg>