<?xml version="1.0" encoding="UTF-8"?>
<svg width="178px" height="94px" viewBox="0 0 178 94" version="1.1" xmlns="http://www.w3.org/2000/svg" xmlns:xlink="http://www.w3.org/1999/xlink">
    <!-- Generator: Sketch 49.3 (51167) - http://www.bohemiancoding.com/sketch -->
    <title>submenu_selected</title>
    <desc>Created with Sketch.</desc>
    <defs></defs>
    <g id="Version_2" stroke="none" stroke-width="1" fill="none" fill-rule="evenodd">
        <g id="AS_redesign_newBrand_v5" transform="translate(-826.000000, -514.000000)" fill-rule="nonzero">
            <g id="4.-Dropdown" transform="translate(636.000000, 450.000000)">
                <g id="submenu_selected" transform="translate(190.000000, 64.000000)">
                    <g id="Rectangle-2" fill="#FFFFFF">
                        <g id="path0_fill-link">
                            <path d="M0,1.69369369 C0,0.758292919 0.762615876,0 1.70334928,0 L176.296651,0 C177.237751,0 178,0.758292919 178,1.69369369 L178,92.3063063 C178,93.2420721 177.237751,94 176.296651,94 L1.70334928,94 C0.762615876,94 0,93.2420721 0,92.3063063 L0,1.69369369 Z" id="path0_fill"></path>
                        </g>
                    </g>
                    <g id="Stripe-Mixpanel-Marketo" transform="translate(36.000000, 12.000000)" fill="#1B1725">
                        <g id="path3_fill-link">
                            <path d="M2.99292312,4.39769 C2.16878042,4.16300923 1.56819875,3.87545231 1.19116104,3.53500231 C0.817463979,3.19125231 0.630615021,2.76817538 0.630615021,2.26577154 C0.630615021,1.69726615 0.859172083,1.22791308 1.31628792,0.857720769 C1.776735,0.484228462 2.37398542,0.297473846 3.10803062,0.297473846 C3.60852104,0.297473846 4.05395187,0.393326154 4.44433167,0.585039231 C4.83805125,0.776743846 5.14168187,1.04116692 5.35522354,1.37830846 C5.572105,1.71544154 5.68054146,2.08398385 5.68054146,2.48392692 L4.71459854,2.48392692 C4.71459854,2.04762462 4.57446396,1.70552462 4.29418625,1.45763538 C4.01391708,1.20642923 3.61853187,1.08082615 3.10803062,1.08082615 C2.63423292,1.08082615 2.26387479,1.18494538 1.99694771,1.39317538 C1.73336042,1.59810538 1.6015625,1.88401231 1.6015625,2.25090462 C1.6015625,2.54507 1.72668083,2.79461769 1.97692604,2.99954769 C2.23051104,3.20116923 2.65926,3.38626538 3.26318146,3.55483615 C3.87044271,3.72340692 4.34424042,3.91015308 4.68457458,4.11508308 C5.02824,4.31670462 5.28181646,4.55303538 5.4453125,4.82406692 C5.61213979,5.09509846 5.69555771,5.41406462 5.69555771,5.78094846 C5.69555771,6.36598769 5.46533417,6.83531538 5.00488708,7.18900769 C4.54443146,7.5394 3.92883354,7.71455385 3.15808479,7.71455385 C2.65759437,7.71455385 2.19046771,7.62037692 1.75671333,7.43193846 C1.32295896,7.2402 0.987630208,6.97907692 0.750732208,6.64858615 C0.517171438,6.31806154 0.400390625,5.94291077 0.400390625,5.52313385 L1.36633354,5.52313385 C1.36633354,5.95943615 1.52815542,6.30483615 1.85180771,6.55934231 C2.17879125,6.81052308 2.61421979,6.93617692 3.15808479,6.93617692 C3.66524625,6.93617692 4.05395187,6.83370769 4.32421875,6.62875231 C4.59448562,6.42383077 4.72961479,6.14453231 4.72961479,5.79086538 C4.72961479,5.43719846 4.60448792,5.16451692 4.35425125,4.97280385 C4.10400604,4.77779077 3.65023,4.58608615 2.99292312,4.39769 Z M8.04285042,0.951923077 L8.04285042,2.25090462 L9.053825,2.25090462 L9.053825,2.95988846 L8.04285042,2.95988846 L8.04285042,6.28666077 C8.04285042,6.50149923 8.08789062,6.66346154 8.17797958,6.77253077 C8.26806854,6.8783 8.42155375,6.93118462 8.63844375,6.93118462 C8.74521458,6.93118462 8.89204583,6.91138462 9.07885208,6.8717 L9.07885208,7.61538462 C8.83532917,7.68146923 8.59838333,7.71455385 8.36816833,7.71455385 C7.95442708,7.71455385 7.64245979,7.59059231 7.43224937,7.34266923 C7.2220475,7.09483077 7.11694229,6.74278846 7.11694229,6.28666077 L7.11694229,2.95988846 L6.13097771,2.95988846 L6.13097771,2.25090462 L7.11694229,2.25090462 L7.11694229,0.951923077 L8.04285042,0.951923077 Z M12.7574062,3.07391615 C12.6173229,3.05078231 12.4655375,3.03921538 12.3019646,3.03921538 C11.6947375,3.03921538 11.2826875,3.29537154 11.0658146,3.80769231 L11.0658146,7.61538462 L10.1398979,7.61538462 L10.1398979,2.25090462 L11.0407875,2.25090462 L11.0558208,2.87064462 C11.3593917,2.39137462 11.7898062,2.15174385 12.3470646,2.15174385 C12.5272083,2.15174385 12.6640458,2.17487769 12.7574062,2.22115385 L12.7574062,3.07391615 Z M14.6192333,7.61538462 L13.6933167,7.61538462 L13.6933167,2.25090462 L14.6192333,2.25090462 L14.6192333,7.61538462 Z M13.6183208,0.827978462 C13.6183208,0.679233077 13.6633354,0.553638462 13.75345,0.451169231 C13.8468104,0.348708462 13.9836479,0.297473846 14.1637917,0.297473846 C14.3440208,0.297473846 14.4807729,0.348708462 14.5742187,0.451169231 C14.6676646,0.553638462 14.7143875,0.679233077 14.7143875,0.827978462 C14.7143875,0.976715385 14.6676646,1.10066 14.5742187,1.19982077 C14.4807729,1.29898154 14.3440208,1.34855769 14.1637917,1.34855769 C13.9836479,1.34855769 13.8468104,1.29898154 13.75345,1.19982077 C13.6633354,1.10066 13.6183208,0.976715385 13.6183208,0.827978462 Z M20.6801437,4.99263769 C20.6801437,5.80904077 20.4916292,6.46679846 20.1146,6.96587692 C19.7375708,7.46502308 19.2271208,7.71455385 18.5831646,7.71455385 C17.9257979,7.71455385 17.4086854,7.50792308 17.0316562,7.09483077 L17.0316562,9.67788462 L16.1057396,9.67788462 L16.1057396,2.25090462 L16.9515354,2.25090462 L16.99655,2.84585231 C17.3735792,2.38311615 17.8974396,2.15174385 18.5681312,2.15174385 C19.21875,2.15174385 19.7326167,2.39468308 20.1096458,2.88056154 C20.4900062,3.36644 20.6801437,4.04236462 20.6801437,4.90835231 L20.6801437,4.99263769 Z M19.7543125,4.88851846 C19.7543125,4.28365385 19.6241375,3.80604231 19.3638729,3.45567538 C19.1036083,3.10531692 18.7466521,2.93013769 18.2928333,2.93013769 C17.7323292,2.93013769 17.3119083,3.17638538 17.0316562,3.66887231 L17.0316562,6.23211769 C17.3085771,6.72130462 17.7323292,6.96587692 18.3028271,6.96587692 C18.7466521,6.96587692 19.0986542,6.79233077 19.3589187,6.44531462 C19.6225146,6.09494769 19.7543125,5.57601846 19.7543125,4.88851846 Z M24.1085125,7.71455385 C23.3744417,7.71455385 22.7772083,7.47653077 22.3168125,7.00056923 C21.8563312,6.52133308 21.6261333,5.88175923 21.6261333,5.08188154 L21.6261333,4.91331077 C21.6261333,4.38115615 21.7278646,3.90685308 21.9314125,3.49038462 C22.1382917,3.07061615 22.4252062,2.74339154 22.7922417,2.50871077 C23.1626083,2.27073 23.5629562,2.15174385 23.9933708,2.15174385 C24.6974604,2.15174385 25.2446396,2.38145769 25.6349937,2.84089385 C26.0254333,3.30033 26.2206104,3.95807923 26.2206104,4.81415 L26.2206104,5.19590923 L22.5519646,5.19590923 C22.565375,5.72475538 22.7204917,6.15279077 23.0174854,6.48001538 C23.317725,6.80392308 23.6980854,6.96587692 24.1585667,6.96587692 C24.4855417,6.96587692 24.7624625,6.89979231 24.9894146,6.76758077 C25.2162812,6.63536923 25.4147896,6.46019 25.5849396,6.24203462 L26.1504833,6.67833692 C25.69675,7.36915385 25.0160646,7.71455385 24.1085125,7.71455385 Z M23.9933708,2.90534538 C23.6196729,2.90534538 23.3061083,3.04086538 23.0525062,3.31189692 C22.7989042,3.57962846 22.6420792,3.95642923 22.5820312,4.44230769 L25.2946937,4.44230769 L25.2946937,4.37289769 C25.2679583,3.90685308 25.1412,3.54657769 24.9143333,3.29206308 C24.6873812,3.03425692 24.3804792,2.90534538 23.9933708,2.90534538 Z M2.08703667,29.1659077 L4.46935875,35.0559 L6.85168083,29.1659077 L8.09790146,29.1659077 L8.09790146,36.3846154 L7.13696396,36.3846154 L7.13696396,33.5734385 L7.22705292,30.5392154 L4.83472,36.3846154 L4.09900062,36.3846154 L1.71167312,30.5541077 L1.80675896,33.5734385 L1.80675896,36.3846154 L0.845824875,36.3846154 L0.845824875,29.1659077 L2.08703667,29.1659077 Z M10.6553875,36.3846154 L9.72947083,36.3846154 L9.72947083,31.0201692 L10.6553875,31.0201692 L10.6553875,36.3846154 Z M9.65438958,29.5971923 C9.65438958,29.4484385 9.69948958,29.3228692 9.78951875,29.2204 C9.88296458,29.1179308 10.0198021,29.0667385 10.1999458,29.0667385 C10.3800896,29.0667385 10.5169271,29.1179308 10.6103729,29.2204 C10.7037333,29.3228692 10.7504562,29.4484385 10.7504562,29.5971923 C10.7504562,29.7459462 10.7037333,29.8699077 10.6103729,29.9690769 C10.5169271,30.0682462 10.3800896,30.1178308 10.1999458,30.1178308 C10.0198021,30.1178308 9.88296458,30.0682462 9.78951875,29.9690769 C9.69948958,29.8699077 9.65438958,29.7459462 9.65438958,29.5971923 Z M13.9586208,32.9785077 L15.15975,31.0201692 L16.2408687,31.0201692 L14.4691562,33.6726077 L16.2958771,36.3846154 L15.2248375,36.3846154 L13.9736542,34.3766923 L12.7223854,36.3846154 L11.6463917,36.3846154 L13.4731125,33.6726077 L11.7014,31.0201692 L12.7724396,31.0201692 L13.9586208,32.9785077 Z M21.8012375,33.7618769 C21.8012375,34.5782462 21.6127229,35.2360462 21.2356937,35.7351077 C20.8586646,36.2342538 20.3482146,36.4837846 19.7042583,36.4837846 C19.0468917,36.4837846 18.5297792,36.2771538 18.15275,35.8640615 L18.15275,38.4471154 L17.2268333,38.4471154 L17.2268333,31.0201692 L18.0726292,31.0201692 L18.1176437,31.6151 C18.4946729,31.1523385 19.0185333,30.921 19.689225,30.921 C20.3398437,30.921 20.8537104,31.1639308 21.2307396,31.6497923 C21.6111,32.1356538 21.8012375,32.8115615 21.8012375,33.6776 L21.8012375,33.7618769 Z M20.8754062,33.6577154 C20.8754062,33.0528846 20.7452312,32.5752308 20.4849667,32.2249231 C20.2247021,31.8745308 19.8677458,31.6993769 19.4139271,31.6993769 C18.8534229,31.6993769 18.4330021,31.9456077 18.15275,32.4380692 L18.15275,35.0013231 C18.4296708,35.4905692 18.8534229,35.7351077 19.4239208,35.7351077 C19.8677458,35.7351077 20.2197479,35.5615615 20.4800125,35.2145538 C20.7436083,34.8641615 20.8754062,34.3452154 20.8754062,33.6577154 Z M26.3256729,36.3846154 C26.2722875,36.2788462 26.2288958,36.0904077 26.1955833,35.8193846 C25.7651687,36.2623462 25.2513021,36.4837846 24.6540687,36.4837846 C24.1202146,36.4837846 23.6814292,36.3350308 23.3377979,36.0375231 C22.9974125,35.7368 22.8272625,35.3567077 22.8272625,34.8972462 C22.8272625,34.3386154 23.0408042,33.9056385 23.4678875,33.5982308 C23.8983021,33.2875231 24.5021979,33.1321692 25.2796604,33.1321692 L26.18055,33.1321692 L26.18055,32.7107846 C26.18055,32.3901769 26.0837729,32.1356538 25.8902187,31.9473 C25.69675,31.7555615 25.4114583,31.6596923 25.0344292,31.6596923 C24.7041229,31.6596923 24.4272021,31.7423615 24.2035812,31.9076154 C23.9800458,32.0728692 23.8683208,32.2728154 23.8683208,32.5075385 L22.9373646,32.5075385 C22.9373646,32.2398154 23.0324333,31.9819923 23.2226562,31.7340692 C23.4162104,31.4828462 23.676475,31.2845923 24.00345,31.1391385 C24.3337562,30.9936846 24.6957521,30.921 25.0894375,30.921 C25.7134062,30.921 26.2022458,31.0763538 26.5558708,31.3870615 C26.9095812,31.6943846 27.0931417,32.1191538 27.1064667,32.6612 L27.1064667,35.1302769 C27.1064667,35.6227385 27.1698458,36.0144231 27.2966042,36.3052462 L27.2966042,36.3846154 L26.3256729,36.3846154 Z M24.7891979,35.6855231 C25.0794437,35.6855231 25.3547417,35.6111462 25.6150062,35.4624769 C25.8752708,35.3137231 26.0637854,35.1203769 26.18055,34.8823538 L26.18055,33.7816769 L25.45485,33.7816769 C24.3204312,33.7816769 23.7531792,34.1105769 23.7531792,34.7682923 C23.7531792,35.0559 23.8499562,35.2806385 24.043425,35.4425923 C24.2369792,35.6045462 24.4855417,35.6855231 24.7891979,35.6855231 Z M29.4337292,31.0201692 L29.4637104,31.6943846 C29.8774687,31.1788231 30.4179854,30.921 31.0853458,30.921 C32.2297583,30.921 32.8070042,31.5605231 32.8169979,32.8396538 L32.8169979,36.3846154 L31.8910812,36.3846154 L31.8910812,32.8347462 C31.88775,32.4480538 31.7977208,32.1621385 31.6208229,31.977 C31.4473417,31.7919462 31.175375,31.6993769 30.8050937,31.6993769 C30.5047687,31.6993769 30.2411729,31.7786615 30.0143062,31.9373154 C29.7873542,32.0959692 29.6105417,32.3042077 29.4837833,32.5620308 L29.4837833,36.3846154 L28.5578667,36.3846154 L28.5578667,31.0201692 L29.4337292,31.0201692 Z M36.4605312,36.4837846 C35.7265458,36.4837846 35.1293125,36.2457615 34.6688312,35.7698 C34.20835,35.2905385 33.9781521,34.6510154 33.9781521,33.8511462 L33.9781521,33.6825077 C33.9781521,33.1503615 34.0798833,32.6760923 34.2834312,32.2596154 C34.4903104,31.8398385 34.777225,31.5126308 35.1442604,31.2779077 C35.5146271,31.0399692 35.9150604,30.921 36.345475,30.921 C37.0494792,30.921 37.5966583,31.1507308 37.9870979,31.6101077 C38.3774521,32.0695692 38.5726292,32.7272846 38.5726292,33.5834231 L38.5726292,33.9651231 L34.9040687,33.9651231 C34.9173937,34.4939692 35.0725104,34.9220385 35.3695042,35.2492462 C35.6698292,35.5731538 36.0501896,35.7351077 36.5105854,35.7351077 C36.8376458,35.7351077 37.1145667,35.6690231 37.3414333,35.5367692 C37.5683,35.4046 37.7668083,35.2294462 37.9370437,35.0113077 L38.5025875,35.4475846 C38.0487687,36.1383846 37.3680833,36.4837846 36.4605312,36.4837846 Z M36.345475,31.6745846 C35.9717771,31.6745846 35.6581271,31.8101385 35.404525,32.0811615 C35.1509229,32.3488846 34.9941833,32.7256769 34.93405,33.2115385 L37.6467125,33.2115385 L37.6467125,33.1421538 C37.6200625,32.6760923 37.4932187,32.3158 37.2663521,32.0612769 C37.0394854,31.8034538 36.7324979,31.6745846 36.345475,31.6745846 Z M40.6546604,36.3846154 L39.7287438,36.3846154 L39.7287438,28.7692308 L40.6546604,28.7692308 L40.6546604,36.3846154 Z M2.08703667,57.9351385 L4.46935875,63.8251308 L6.85168083,57.9351385 L8.09790146,57.9351385 L8.09790146,65.1538462 L7.13696396,65.1538462 L7.13696396,62.3426692 L7.22705292,59.3084462 L4.83472,65.1538462 L4.09900062,65.1538462 L1.71167312,59.3233385 L1.80675896,62.3426692 L1.80675896,65.1538462 L0.845824875,65.1538462 L0.845824875,57.9351385 L2.08703667,57.9351385 Z M12.9926437,65.1538462 C12.9392583,65.0480769 12.8959521,64.8596385 12.8625542,64.5886154 C12.4321396,65.0315769 11.9182729,65.2530154 11.3210396,65.2530154 C10.7871854,65.2530154 10.3484,65.1042615 10.0047687,64.8067538 C9.66446875,64.5060308 9.49423333,64.1259385 9.49423333,63.6664769 C9.49423333,63.1078462 9.707775,62.6748692 10.1348583,62.3674615 C10.5652729,62.0567538 11.1692542,61.9014 11.9466312,61.9014 L12.8475208,61.9014 L12.8475208,61.4800154 C12.8475208,61.1594077 12.7507437,60.9048846 12.557275,60.7165308 C12.3637208,60.5247923 12.0784292,60.4289231 11.7014,60.4289231 C11.3710937,60.4289231 11.0941729,60.5115923 10.8706375,60.6768462 C10.6470167,60.8421 10.5352917,61.0420462 10.5352917,61.2767692 L9.60433542,61.2767692 C9.60433542,61.0090462 9.69948958,60.7512231 9.88962708,60.5033 C10.0831812,60.2520769 10.3434458,60.0538231 10.6704208,59.9083692 C11.0007271,59.7629154 11.3627229,59.6902308 11.7564937,59.6902308 C12.3803771,59.6902308 12.8692167,59.8455846 13.2229271,60.1562923 C13.5765521,60.4636154 13.7601125,60.8883846 13.7734375,61.4304308 L13.7734375,63.8995077 C13.7734375,64.3919692 13.8368167,64.7836538 13.9636604,65.0744769 L13.9636604,65.1538462 L12.9926437,65.1538462 Z M11.4561687,64.4547538 C11.7465,64.4547538 12.0217125,64.3803769 12.2819771,64.2317077 C12.5422417,64.0829538 12.7307562,63.8896077 12.8475208,63.6515846 L12.8475208,62.5509077 L12.1218208,62.5509077 C10.9874021,62.5509077 10.42015,62.8798077 10.42015,63.5375231 C10.42015,63.8251308 10.5169271,64.0498692 10.7104812,64.2118231 C10.90395,64.3737769 11.1525125,64.4547538 11.4561687,64.4547538 Z M17.8424312,60.6123692 C17.7022625,60.5892692 17.5504771,60.5776769 17.3869896,60.5776769 C16.7796771,60.5776769 16.3676271,60.8338077 16.1507542,61.3461538 L16.1507542,65.1538462 L15.2248375,65.1538462 L15.2248375,59.7894 L16.1257271,59.7894 L16.1407604,60.4091231 C16.4444167,59.9298615 16.8748312,59.6902308 17.4320042,59.6902308 C17.6121479,59.6902308 17.7489854,59.7133308 17.8424312,59.7596154 L17.8424312,60.6123692 Z M20.2097542,62.6699615 L19.6291771,63.2698 L19.6291771,65.1538462 L18.7032604,65.1538462 L18.7032604,57.5384615 L19.6291771,57.5384615 L19.6291771,62.1444154 L20.1245937,61.5543923 L21.8113167,59.7894 L22.9373646,59.7894 L20.8303063,62.0303538 L23.1825958,65.1538462 L22.0965229,65.1538462 L20.2097542,62.6699615 Z M26.0403812,65.2530154 C25.3063958,65.2530154 24.7090771,65.0149923 24.2486812,64.5390308 C23.7882,64.0597692 23.5580021,63.4202462 23.5580021,62.6203769 L23.5580021,62.4517385 C23.5580021,61.9195923 23.6597333,61.4453231 23.8632812,61.0288462 C24.0701604,60.6090692 24.357075,60.2818615 24.7241104,60.0471385 C25.0944771,59.8092 25.4949104,59.6902308 25.925325,59.6902308 C26.6293292,59.6902308 27.1765083,59.9199615 27.5668625,60.3793385 C27.9573021,60.8388 28.1524792,61.4965154 28.1524792,62.3526538 L28.1524792,62.7343538 L24.4839187,62.7343538 C24.4972437,63.2632 24.6523604,63.6912692 24.9493542,64.0184769 C25.2495937,64.3423846 25.6300396,64.5043385 26.0904354,64.5043385 C26.4174104,64.5043385 26.6944167,64.4382538 26.9212833,64.306 C27.14815,64.1738308 27.3466583,63.9986769 27.5168083,63.7805385 L28.0824375,64.2168154 C27.6286187,64.9076154 26.9479333,65.2530154 26.0403812,65.2530154 Z M25.925325,60.4438154 C25.5516271,60.4438154 25.2379771,60.5793692 24.984375,60.8503923 C24.7307729,61.1181154 24.5739479,61.4949077 24.5139,61.9807692 L27.2265625,61.9807692 L27.2265625,61.9113846 C27.1999125,61.4453231 27.0730687,61.0850308 26.8462021,60.8305077 C26.6193354,60.5726846 26.3123479,60.4438154 25.925325,60.4438154 Z M30.4847812,58.4903846 L30.4847812,59.7894 L31.4956875,59.7894 L31.4956875,60.4983077 L30.4847812,60.4983077 L30.4847812,63.8251308 C30.4847812,64.0399692 30.5297958,64.2019231 30.6199104,64.3109923 C30.7099396,64.4167615 30.8634333,64.4696462 31.0803062,64.4696462 C31.1870771,64.4696462 31.3339083,64.4498462 31.5207146,64.4101615 L31.5207146,65.1538462 C31.2771917,65.2199308 31.0402458,65.2530154 30.8100479,65.2530154 C30.3962896,65.2530154 30.0843479,65.1290538 29.8741375,64.8811308 C29.6639271,64.6332923 29.5588646,64.2812923 29.5588646,63.8251308 L29.5588646,60.4983077 L28.5729,60.4983077 L28.5729,59.7894 L29.5588646,59.7894 L29.5588646,58.4903846 L30.4847812,58.4903846 Z M32.2364208,62.4220385 C32.2364208,61.8964923 32.3398604,61.4238308 32.5467396,61.0040538 C32.75695,60.5842769 33.0472812,60.2603692 33.4175625,60.0323308 C33.7912604,59.8042077 34.2167208,59.6902308 34.6938583,59.6902308 C35.4312604,59.6902308 36.0267854,59.9430615 36.4806042,60.4488077 C36.9376688,60.9544692 37.1662438,61.6270769 37.1662438,62.4666308 L37.1662438,62.5311077 C37.1662438,63.0533538 37.0645125,63.5227154 36.8609646,63.9391923 C36.6607479,64.3522846 36.372125,64.6745846 35.9950958,64.9059231 C35.6213979,65.1373462 35.1909833,65.2530154 34.7038521,65.2530154 C33.9697813,65.2530154 33.3742562,65.0001846 32.9171062,64.4944385 C32.4633729,63.9886923 32.2364208,63.3193846 32.2364208,62.4865154 L32.2364208,62.4220385 Z M33.1673771,62.5311077 C33.1673771,63.1260385 33.3058375,63.6036923 33.5827583,63.9639846 C33.8630104,64.3241923 34.2367083,64.5043385 34.7038521,64.5043385 C35.1743271,64.5043385 35.548025,64.3225846 35.8249458,63.9589923 C36.1018667,63.5921 36.2403271,63.0797538 36.2403271,62.4220385 C36.2403271,61.8337077 36.0985354,61.3577462 35.8149521,60.9941538 C35.5347,60.6272615 35.1610021,60.4438154 34.6938583,60.4438154 C34.2367083,60.4438154 33.86805,60.6239615 33.5877979,60.9842538 C33.3074604,61.3444615 33.1673771,61.8601077 33.1673771,62.5311077 Z" id="path3_fill"></path>
                        </g>
                    </g>
                </g>
            </g>
        </g>
    </g>
</svg>